<svg width="13" height="11" viewBox="0 0 13 11" fill="none" xmlns="http://www.w3.org/2000/svg">
<g clip-path="url(#clip0_59_1021)">
<path d="M7.8189 0.746238C7.4026 0.383312 6.77092 0.426579 6.40799 0.842876C6.04507 1.25917 6.08833 1.89086 6.50463 2.25378L9.08118 4.50001H0.75C0.197715 4.50001 -0.25 4.94773 -0.25 5.50001C-0.25 6.0523 0.197715 6.50001 0.75 6.50001H9.08118L6.50463 8.74624C6.08833 9.10916 6.04507 9.74085 6.40799 10.1571C6.77092 10.5734 7.4026 10.6167 7.8189 10.2538L12.4071 6.25378C12.625 6.06387 12.75 5.78901 12.75 5.50001C12.75 5.21101 12.625 4.93615 12.4071 4.74624L7.8189 0.746238Z" fill="white" stroke="white" stroke-width="0.5" stroke-linecap="round" stroke-linejoin="round"/>
</g>
<defs>
<clipPath id="clip0_59_1021">
<rect width="12.5" height="9.50002" fill="white" transform="translate(0 0.75)"/>
</clipPath>
</defs>
</svg>
