<svg width="20" height="16" viewBox="0 0 20 16" fill="none" xmlns="http://www.w3.org/2000/svg">
<g clip-path="url(#clip0_48_827)">
<path d="M16.8207 2.55784C15.1303 1.20878 12.4572 0.980245 12.3442 0.97055C12.1657 0.955314 11.9963 1.05573 11.923 1.21778C11.9202 1.22332 11.771 1.65339 11.6267 2.06821C13.5912 2.40963 14.9259 3.16727 14.9971 3.20881C15.3304 3.40134 15.442 3.82586 15.2474 4.1562C15.1184 4.37643 14.8848 4.4997 14.6449 4.4997C14.5257 4.4997 14.4057 4.46992 14.2955 4.40621C14.276 4.39443 12.3178 3.28776 9.76467 3.28776C7.21087 3.28776 5.25194 4.39513 5.23241 4.40621C4.89976 4.59804 4.47297 4.48516 4.2798 4.15412C4.08663 3.82449 4.1989 3.40134 4.53086 3.20881C4.60199 3.16727 5.94165 2.40686 7.91173 2.06613C7.75971 1.64646 7.60628 1.22332 7.60349 1.21778C7.53027 1.05504 7.36081 0.952544 7.18228 0.97055C7.06931 0.979553 4.39627 1.20809 2.68351 2.57585C1.78808 3.39719 0 8.19922 0 12.351C0 12.4243 0.0188292 12.4957 0.0557902 12.5594C1.29085 14.7132 4.65777 15.2769 5.42489 15.3011C5.42977 15.3018 5.43396 15.3018 5.43814 15.3018C5.57343 15.3018 5.70105 15.2374 5.78125 15.1287L6.61113 14.0124C4.79098 13.5767 3.82859 12.8918 3.77072 12.8496C3.46108 12.6231 3.39413 12.1896 3.62218 11.8815C3.84952 11.5746 4.28469 11.5067 4.59431 11.7319C4.62012 11.7484 6.39633 12.9832 9.76332 12.9832C13.1435 12.9832 14.9148 11.7436 14.9322 11.7311C15.2418 11.5082 15.6785 11.5754 15.9051 11.8841C16.131 12.1917 16.0655 12.6224 15.7572 12.8482C15.6993 12.8904 14.7418 13.574 12.9259 14.0096L13.7453 15.128C13.8255 15.2374 13.9531 15.3011 14.0884 15.3011C14.0933 15.3011 14.0974 15.3011 14.1017 15.3005C14.8695 15.2762 18.2364 14.7125 19.4708 12.5587C19.5077 12.495 19.5265 12.4237 19.5265 12.3502C19.5265 8.19922 17.7385 3.39719 16.8207 2.55784ZM6.97377 10.9056C6.20317 10.9056 5.57902 10.1307 5.57902 9.1743C5.57902 8.21791 6.20317 7.44297 6.97377 7.44297C7.74437 7.44297 8.36852 8.21791 8.36852 9.1743C8.36852 10.1307 7.74437 10.9056 6.97377 10.9056ZM12.5528 10.9056C11.7822 10.9056 11.158 10.1307 11.158 9.1743C11.158 8.21791 11.7822 7.44297 12.5528 7.44297C13.3234 7.44297 13.9475 8.21791 13.9475 9.1743C13.9475 10.1307 13.3234 10.9056 12.5528 10.9056Z" fill="white"/>
</g>
<defs>
<clipPath id="clip0_48_827">
<rect width="19.5265" height="14.3333" fill="white" transform="translate(0 0.968506)"/>
</clipPath>
</defs>
</svg>
