<svg width="267" height="420" viewBox="0 0 267 420" fill="none" xmlns="http://www.w3.org/2000/svg">
<path d="M266.993 386.891C266.928 384.074 266.864 381.258 266.801 378.441C266.696 373.758 266.595 369.073 266.498 364.39C266.474 363.265 266.451 362.139 266.427 361.012C266.339 356.718 266.593 352.254 265.558 348.363C265.281 347.321 264.847 346.264 264.286 346.286C264.988 345.78 265.373 344.166 265.551 342.629C265.799 340.485 265.92 337.699 265.939 335.484C265.955 333.467 265.869 331.422 265.835 329.408C265.796 327.097 265.758 324.787 265.72 322.479C265.646 317.849 265.575 313.219 265.506 308.589C265.439 303.973 265.376 299.356 265.316 294.739C265.306 293.895 265.294 293.048 265.284 292.203C265.254 289.831 265.225 287.485 265.232 285.113C265.237 283.293 264.981 281.591 264.432 280.185C263.946 278.94 263.18 278.102 262.431 278.363C263.035 278.071 263.635 277.551 264.072 276.612C265.232 274.118 265.037 270.352 265.006 267.168C264.963 262.596 264.923 258.022 264.887 253.447C264.852 248.888 264.82 244.329 264.793 239.77C264.766 235.226 264.743 230.683 264.724 226.137C264.705 221.609 264.69 217.079 264.679 212.55C264.669 208.036 264.662 203.523 264.66 199.008C264.657 191.944 264.676 184.893 264.725 177.827C264.745 175.037 264.899 172.527 263.985 170.303C263.85 169.973 263.7 169.671 263.539 169.401C263.469 169.281 263.129 168.658 263.041 168.722C263.67 168.256 264.179 167.185 264.456 165.905C264.595 165.264 264.678 164.568 264.69 163.86C264.719 162.133 264.747 160.4 264.756 158.66C264.786 153.02 264.84 147.152 264.907 141.425C264.943 138.376 264.983 135.327 265.027 132.281C265.068 129.493 264.511 127.094 263.904 124.639C264.445 124.259 264.816 123.149 264.969 121.98C265.117 120.85 265.041 119.769 265.063 118.626C265.152 114.277 265.188 109.894 265.26 105.532C265.29 103.337 265.321 101.141 265.354 98.9455C265.362 98.4238 265.349 97.8754 265.387 97.3603C265.411 97.0353 265.471 96.7434 265.463 96.4095C265.439 95.3726 265.271 94.2118 265.08 93.2655C264.847 92.1136 264.462 91.0523 263.93 90.5195C263.995 90.1657 264.188 90.022 264.351 89.8739C265.067 89.2238 265.556 87.6363 265.606 85.9914C265.618 85.589 265.581 85.202 265.576 84.8063C265.556 83.504 265.626 82.1575 265.649 80.8552C265.674 79.4535 265.7 78.0517 265.726 76.6499C265.833 70.8284 265.95 65.0069 266.076 59.1876C266.324 47.7501 266.606 36.3149 266.925 24.8863C267.126 17.6807 264.609 11.4325 261.242 10.8466C177.187 -3.80787 92.9511 -3.43642 8.54595 10.8908C8.13824 10.9593 7.73465 11.1141 7.34142 11.3529C6.28798 11.9918 5.38975 13.3428 4.49774 14.6406C4.01758 15.3393 3.6823 16.6548 3.34909 17.6453C2.94862 18.8371 2.56366 20.0531 2.19319 21.2913C1.06938 25.0499 -0.0709946 29.127 0.0262784 33.759C0.146318 39.4656 0.260149 45.1721 0.368805 50.8787C0.424685 53.8127 0.478502 56.7489 0.531277 59.6828C0.559218 61.2283 0.586117 62.7738 0.613023 64.3193C0.632684 65.4535 0.604747 66.6452 0.679254 67.7706C0.745483 68.77 0.640966 69.8379 0.636826 70.8594C0.631652 72.0511 0.666833 73.245 0.742375 74.4257C0.783768 75.0647 0.838614 75.7147 0.986593 76.2763C1.46261 78.0849 2.64748 78.2817 3.40393 79.5839C2.66817 79.794 1.94691 80.2295 1.2691 80.8729C1.17079 80.9658 1.06834 81.0719 1.00315 81.2554C0.915189 81.5031 0.913122 81.8369 0.913122 82.1465C0.9214 85.2617 0.928647 88.377 0.936925 91.4923C0.94003 92.7968 0.860343 94.2229 1.03316 95.4809C1.20804 96.75 1.12733 98.2756 1.14492 99.5934C1.22357 105.68 1.296 111.769 1.36223 117.856C1.40259 121.59 1.43984 125.327 1.47606 129.064C1.49262 130.821 1.53402 132.59 1.52781 134.348C1.52677 134.633 1.50297 134.806 1.46675 135.089C1.30015 136.373 1.50711 137.748 1.83101 138.843C2.51916 141.169 3.7537 142.714 5.03998 142.86C4.41806 143.336 3.79509 143.813 3.17317 144.288C2.74579 144.616 2.28529 144.998 2.04729 145.825C1.91276 146.292 1.86723 146.847 1.83101 147.39C1.34464 154.671 1.54437 162.063 1.68096 169.379C1.81756 176.673 1.82273 183.969 1.83825 191.27C1.8517 197.416 1.85895 203.563 1.85998 209.709C1.86102 215.867 1.85584 222.027 1.84343 228.184C1.83722 232.613 1.78547 237.05 1.80824 241.479C1.81134 242.153 1.88068 242.699 1.80514 243.369C1.61473 245.059 1.58265 246.812 1.87654 248.461C2.21906 250.38 3.01795 251.972 3.96791 252.277C3.36565 252.587 2.71061 252.97 2.34842 254.044C2.1042 254.769 2.03694 255.693 1.99037 256.582C1.91172 258.079 1.87137 259.585 1.87033 261.093C1.8693 262.377 1.99348 263.772 1.85378 265.033C1.5661 267.633 1.6644 270.39 1.64577 273.056C1.62094 276.645 1.59507 280.233 1.5661 283.819C1.51643 290.023 1.46054 296.227 1.39845 302.431C1.33636 308.647 1.26807 314.862 1.19356 321.077C1.19356 322.465 1.16044 323.858 1.14285 325.244C1.1294 326.328 1.21219 327.652 1.09215 328.705C1.04248 329.142 0.967971 329.538 0.933822 329.994C0.852072 331.104 0.817922 332.28 1.02075 333.343C1.25772 334.588 1.82066 335.521 2.44362 335.702C1.88172 335.428 1.38086 336.644 1.26289 337.849C1.15941 338.913 1.21529 340.027 1.10974 341.08C1.06524 341.524 1.04247 341.982 1.0135 342.43C0.956584 343.315 0.908982 344.204 0.870694 345.092C0.794117 346.872 0.754795 348.659 0.75376 350.445C0.75376 350.75 0.755826 351.067 0.817915 351.341C0.875865 351.597 0.980385 351.79 1.0849 351.969C1.82066 353.222 2.68887 354.12 3.60572 354.575C2.88031 355.084 2.15491 355.592 1.4295 356.103C1.25979 356.223 1.08387 356.349 0.954515 356.61C0.714437 357.092 0.695812 357.879 0.692708 358.584C0.686499 360.138 0.685466 361.693 0.675117 363.247C0.670978 363.813 0.581979 364.31 0.568526 364.872C0.5499 365.65 0.542653 366.431 0.530235 367.211C0.478494 370.329 0.424685 373.446 0.368805 376.564C0.364666 376.783 0.36156 376.999 0.357421 377.218C0.246695 383.473 0.128729 389.728 0.00558551 395.998C-0.13515 403.153 2.40016 409.284 5.74263 409.812C91.1515 423.33 175.398 423.448 258.456 409.852C259.818 409.629 261.12 408.431 262.131 406.469C262.342 406.06 262.616 405.674 262.81 405.225C264.041 402.366 265.547 397.897 266.224 394.263C266.676 391.846 267.055 389.54 266.993 386.891Z" fill="url(#paint0_linear_20_390)"/>
<path d="M261.277 400.803C178.222 414.401 93.9672 414.29 8.56355 400.781C5.22108 400.251 2.68577 394.104 2.8203 386.963C2.85134 385.371 2.86169 383.779 2.87204 382.187C2.89273 380.882 2.83064 379.445 2.94447 378.185C2.98587 377.721 3.08935 377.345 3.1204 376.881C3.15144 376.438 3.17214 375.996 3.19284 375.532C3.24458 374.426 3.28597 373.321 3.32736 372.215C3.46189 369.098 3.60676 365.98 3.74129 362.863C3.75164 362.575 3.76198 362.288 3.77233 362.023C3.79303 361.536 3.82408 361.006 3.96895 360.63C4.09313 360.276 4.28974 360.099 4.48636 359.944C6.86645 357.932 9.49489 356.694 12.0612 356.738C14.8656 356.761 17.5147 356.075 20.2777 355.235C21.3953 354.903 22.5129 354.572 23.6305 354.24H22.5129C20.0087 354.218 17.494 354.019 15.0001 353.599C13.5617 353.356 12.1233 353.046 10.6953 352.648C9.9502 352.471 6.41112 352.206 4.72436 350.901C4.18626 350.481 3.82407 349.973 3.81373 349.31C3.77233 346.833 3.77233 344.379 3.83442 341.903C3.85512 340.996 3.74129 339.006 3.94825 338.21C4.22765 337.149 4.08278 337.702 4.64159 337.215C5.21074 336.707 5.6764 336.11 6.2973 335.845C6.92854 335.579 7.58048 335.447 8.23241 335.314C10.5401 334.805 12.8477 334.319 15.1657 333.833C14.5759 333.766 13.986 333.678 13.3962 333.589C10.6953 333.258 7.98405 332.882 5.28317 332.528C4.84854 332.462 4.42427 332.418 3.98964 332.351C3.81372 332.329 3.60676 332.263 3.52398 331.931C3.49293 331.776 3.49293 331.577 3.49293 331.401C3.57572 327.62 3.6585 323.839 3.74129 320.058C3.9379 310.772 4.12417 301.464 4.21731 292.178C4.24835 290.895 4.2587 289.635 4.26905 288.375C4.34149 280.459 4.10347 272.411 4.56914 264.54C4.61053 263.811 4.87959 255.917 4.8589 255.917C13.2513 254.613 21.6747 253.95 30.0981 253.994C30.7708 253.994 31.4434 253.994 32.1161 254.016C31.8987 253.972 31.6711 253.928 31.4538 253.883L31.4434 253.861C28.132 253.176 24.8102 252.446 21.5092 251.672C19.7293 251.252 17.9597 250.832 16.2005 250.279C14.7621 249.837 13.3548 249.108 11.9267 248.621C11.4714 248.444 11.0471 248.555 10.5918 248.599C9.26723 248.665 7.83918 247.538 6.556 246.963C6.45252 246.919 6.35938 246.874 6.2559 246.808C6.00755 246.675 5.75919 246.477 5.55222 246.167C5.0969 245.415 4.95203 244.155 4.91063 242.895C4.88994 242.475 4.88994 242.055 4.88994 241.634C4.88994 238.318 4.73472 235.134 4.64159 231.84C4.5381 228.015 4.66228 224.212 4.66228 220.409C4.68297 211.167 4.68298 201.947 4.67263 192.705C4.67263 190.561 4.66228 188.416 4.66228 186.271C4.65193 179.196 4.63124 172.143 4.60019 165.09C4.58984 162.658 4.70367 160.16 4.37253 157.816C4.03104 155.472 4.26905 152.355 4.40357 149.945C4.43462 149.348 4.48636 148.729 4.66228 148.264C4.82785 147.867 5.0762 147.645 5.31421 147.491C7.17689 146.186 9.18444 146.341 11.1403 146.164C13.0547 146.009 14.9691 145.523 16.8525 144.705C17.1112 144.616 17.3802 144.506 17.6389 144.373C14.5966 143.776 11.5438 143.179 8.59459 141.521C7.66325 140.99 6.71122 140.327 5.92476 139.177C5.76954 138.978 5.62466 138.735 5.49014 138.492C4.78646 137.21 4.25869 135.308 4.238 133.318C4.22765 133.075 4.24835 132.854 4.26905 132.633C4.2794 132.434 4.30009 132.213 4.33114 131.992C4.48636 130.709 4.37253 129.25 4.36218 127.923L4.30009 121.622C4.26905 117.775 4.238 113.928 4.19661 110.081C4.15522 106.3 4.14487 102.585 3.88616 98.8489C3.75164 96.9917 3.81372 95.0902 3.77233 93.2109C3.72059 90.9115 3.74129 88.612 3.87581 86.3126C3.9379 85.0745 4.04138 83.7921 4.31044 82.6645C4.31044 82.6645 4.31044 82.6424 4.32079 82.6424C4.60019 81.4927 5.06585 80.3872 5.71779 80.4535C6.69052 80.5641 7.6736 80.144 8.64633 79.945C10.8091 79.4807 12.9822 79.1048 15.1554 78.8174C19.6051 78.1983 24.0652 77.8667 28.5356 77.7119C30.7087 77.6456 32.8922 77.6234 35.0653 77.6013H35.3861C37.3419 77.5792 39.3184 77.4466 41.2742 77.6456C37.0728 77.1812 32.8818 76.5843 28.6908 75.8104C26.5177 75.3903 24.3342 74.9481 22.1611 74.4617C18.4461 73.6216 14.5966 73.71 10.9643 72.9583C8.93609 72.5161 6.89749 72.2729 4.86924 72.2065C4.75541 72.1844 4.64158 72.1844 4.52775 72.1844C4.39323 72.1623 4.24835 72.1623 4.15522 71.9633C4.07243 71.7864 4.05173 71.5211 4.03104 71.2779C3.69989 66.5685 3.45154 61.7265 3.38945 56.9949C3.3377 53.1036 3.28597 49.1902 3.21353 45.2988C3.11005 38.4448 2.98587 31.5907 2.84099 24.7366C2.69612 17.5952 5.21072 11.4486 8.54285 10.8959C92.9531 -3.43134 177.187 -3.8072 261.246 10.8516C264.609 11.4265 267.124 17.6836 266.927 24.8914C266.658 34.3765 266.42 43.8838 266.203 53.391C266.11 57.5256 266.027 61.6822 265.934 65.8389C265.882 68.3373 265.841 70.8578 265.789 73.3784C265.758 74.6828 265.727 75.8104 265.551 77.0486C265.23 79.2153 265.302 81.5811 265.054 83.8142C264.961 84.5217 264.857 85.2735 264.609 85.782C264.361 86.2684 264.019 86.4674 263.688 86.6222C263.657 86.6443 263.626 86.6443 263.595 86.6664C259.787 88.5899 255.906 89.8281 251.995 90.4029C251.27 90.5135 250.556 90.5798 249.832 90.6462C254.344 91.5969 258.866 92.5476 263.378 93.4983C263.792 93.5868 264.247 93.7194 264.547 94.3385C264.775 94.8249 264.868 95.5103 264.94 96.1736C265.023 96.859 265.075 97.5223 265.126 98.2077C265.302 100.573 265.313 102.939 265.313 105.393C265.178 109.926 264.982 114.392 264.547 118.858C264.34 120.981 263.709 121.136 263.026 120.892C262.591 120.716 262.126 120.384 261.743 120.273C260.677 119.964 259.601 119.721 258.524 119.544C256.372 119.168 254.209 119.079 252.046 119.057C250.639 119.057 249.232 119.102 247.824 119.146C241.967 119.323 236.11 119.5 230.263 119.654C230.336 119.699 230.419 119.721 230.491 119.765C237.062 122.794 243.933 121.158 250.618 123.015C253.309 123.767 255.999 125.071 258.711 124.74C259.714 124.607 260.76 124.231 261.743 124.828C262.633 125.337 263.16 126.729 263.636 128.299C264.143 130.002 264.309 132.146 264.371 134.269C264.423 135.485 264.433 136.701 264.464 137.829C264.64 144.594 264.402 151.338 264.216 158.081C264.174 159.275 264.143 160.469 264.112 161.663C264.092 162.525 264.05 163.454 263.781 164.095C263.585 164.537 263.305 164.758 263.026 164.913C263.015 164.913 262.995 164.935 262.984 164.935C262.395 165.267 261.732 165.532 261.122 165.444C260.915 165.422 260.739 165.311 260.542 165.333C259.808 165.488 259.052 166.019 258.307 166.24C257.583 166.461 256.858 166.594 256.124 166.638C256.413 166.793 256.703 166.925 256.993 167.08C259.011 168.075 261.018 169.092 263.036 170.087C263.295 170.22 263.574 170.374 263.771 170.75C264.557 172.32 264.371 177.671 264.454 179.705C264.599 183.618 264.671 187.554 264.692 191.489C264.713 193.369 264.713 195.226 264.713 197.105C264.713 200.355 264.692 203.605 264.671 206.856C264.661 209.133 264.65 211.388 264.64 213.665C264.609 223.173 264.547 232.658 264.516 242.165C264.495 246.388 264.485 250.633 264.485 254.856C264.485 259.389 264.764 267.171 263.667 271.24C263.357 272.411 262.819 273.075 262.198 273.473C261.66 273.826 261.06 273.959 260.501 274.048C251.353 275.33 242.216 276.656 233.068 277.961C233.026 277.961 232.975 277.983 232.933 277.983H232.892C232.861 278.005 232.84 278.005 232.809 278.005C233.006 278.005 233.202 278.027 233.399 278.027C243.716 278.47 254.023 279.774 264.288 281.897C264.775 282.007 264.92 284.262 265.002 284.992C265.24 287.291 265.354 289.657 265.437 292.001C265.458 292.399 265.478 292.819 265.489 293.217C265.758 300.734 265.83 308.274 265.872 315.791V316.167C265.882 316.896 265.892 317.604 265.903 318.312C265.913 319.152 265.923 319.97 265.934 320.788C265.965 325.143 266.089 329.919 265.872 334.208C265.799 335.535 265.675 336.862 265.468 338.144C265.375 338.719 265.282 339.493 265.106 339.957C264.609 341.262 263.936 342.013 263.212 342.522C262.964 342.721 262.705 342.876 262.457 343.008C260.76 343.981 259.042 344.755 257.303 345.352C257.479 345.418 257.645 345.485 257.821 345.573C259.642 346.28 261.474 347.032 263.305 347.784C263.957 348.049 264.65 348.469 265.189 349.376C265.468 349.862 265.696 350.481 265.851 351.167C266.058 352.029 266.172 352.936 266.254 353.864C266.275 354.196 266.296 354.505 266.317 354.837C266.492 357.999 266.254 361.116 266.42 364.256C266.513 365.87 266.565 367.462 266.596 369.098C266.668 372.215 266.73 375.355 266.803 378.472C266.865 381.28 266.927 384.088 266.989 386.896C267.165 394.082 264.63 400.273 261.277 400.803Z" fill="url(#paint1_linear_20_390)"/>
<path d="M265.934 65.8387C265.882 68.3371 265.841 70.8576 265.789 73.3781C265.758 74.6826 265.727 75.8102 265.551 77.0484C265.23 79.2151 265.302 81.5809 265.054 83.814C264.961 84.5215 264.857 85.2732 264.609 85.7818C264.361 86.2682 264.019 86.4672 263.688 86.6219C263.657 86.644 263.626 86.6441 263.595 86.6662C259.787 88.5897 255.906 89.8279 251.995 90.4027C251.27 90.5133 250.556 90.5796 249.832 90.6459C254.344 91.5967 258.866 92.5474 263.378 93.4981C263.792 93.5865 264.247 93.7192 264.547 94.3383C264.775 94.8247 264.868 95.5101 264.94 96.1734C265.023 96.8588 265.075 97.5221 265.126 98.2075C259.249 97.3894 253.35 97.0136 247.338 96.9251C204.3 96.2397 161.324 101.436 118.565 111.761C97.1855 116.912 75.8475 122.329 54.4061 126C37.911 128.83 20.971 132.876 4.26902 132.633C4.27937 132.434 4.30007 132.212 4.33111 131.991C4.48633 130.709 4.3725 129.25 4.36215 127.923L4.30007 121.622C11.1713 120.317 18.0528 119.544 24.9758 118.46C37.1659 116.537 49.3354 114.281 61.5049 111.65C104.874 102.276 147.964 89.253 191.551 84.7205C194.728 84.411 197.905 84.1014 201.092 83.8361C192.958 82.8633 184.814 81.9347 176.68 81.205C165.773 80.2101 154.835 78.9277 143.918 79.1046C132.535 79.3257 121.193 81.0945 109.831 81.7357C87.2409 83.0401 64.6922 85.826 42.0813 86.4451C30.9053 86.7546 19.3153 88.1917 8.25307 84.1899C6.93885 83.7034 5.62463 83.1949 4.32076 82.6422C4.60016 81.4925 5.06583 80.387 5.71777 80.4533C6.6905 80.5638 7.67358 80.1438 8.64631 79.9448C10.8091 79.4805 12.9822 79.1046 15.1553 78.8172C19.6051 78.1981 24.0651 77.8664 28.5356 77.7117C30.7087 77.6453 32.8921 77.6232 35.0653 77.6011H35.3861C37.3419 77.579 39.3184 77.4463 41.2742 77.6453C37.0728 77.181 32.8818 76.5841 28.6908 75.8102C26.5176 75.3901 24.3342 74.9479 22.1611 74.4615C18.4461 73.6213 14.5965 73.7098 10.9643 72.958C8.93606 72.5158 6.89746 72.2726 4.86921 72.2063C4.75538 72.1842 4.64156 72.1842 4.52773 72.1842C4.3932 72.1621 4.24833 72.1621 4.15519 71.9631C4.07241 71.7862 4.05171 71.5209 4.03101 71.2777C3.69987 66.5683 3.45151 61.7262 3.38942 56.9947C3.33768 53.1034 3.28594 49.1899 3.2135 45.2986C7.07338 44.2373 10.9436 43.375 14.8345 42.9771C27.6042 41.6947 40.4256 41.9821 53.2057 40.6555C75.3405 38.3782 97.7754 34.8185 119.931 37.6707C141.921 40.5008 163.807 46.2714 185.735 50.6492C208.615 55.2259 231.516 59.3826 254.406 63.6498C258.245 64.3573 262.094 65.109 265.934 65.8387ZM265.002 284.992C264.92 284.262 264.775 282.007 264.288 281.896C254.023 279.774 243.716 278.469 233.399 278.027C233.202 278.027 233.006 278.005 232.809 278.005C232.84 278.005 232.861 278.005 232.892 277.983H232.933C232.975 277.983 233.026 277.961 233.068 277.961C242.216 276.656 251.353 275.33 260.501 274.047C261.06 273.959 261.66 273.826 262.198 273.472C262.819 273.074 263.357 272.411 263.667 271.239C264.764 267.171 264.485 259.388 264.485 254.856C264.485 250.633 264.495 246.388 264.516 242.165C222.378 239.423 180.261 235.443 138.226 229.12C140.017 228.191 141.807 227.285 143.597 226.401C159.575 218.507 175.656 214.218 192.037 212.516C216.262 210.017 240.612 212.317 264.671 206.855C264.692 203.605 264.713 200.355 264.713 197.105C239.835 198.785 214.907 196.641 190.03 198.299C174.352 199.36 158.85 202.92 143.452 209.354C131.914 214.152 120.459 220.033 108.879 224.3C94.1742 221.691 79.4694 218.773 64.775 215.456C53.661 212.958 42.547 210.216 31.4641 207.165C30.8742 207.01 30.2844 206.9 29.7049 206.745C36.069 203.274 42.5574 200.665 48.9939 198.542C66.6066 192.683 84.509 190.074 102.256 186.735C140.317 179.572 178.45 173.89 216.583 168.849C232.602 166.726 248.58 164.913 264.216 158.081C264.402 151.338 264.64 144.594 264.464 137.828C264.433 136.701 264.423 135.485 264.371 134.269C250.608 130.444 236.69 130.797 222.709 132.058C203.296 133.827 183.883 135.883 164.49 138.779C126.264 144.506 87.7376 149.746 49.7597 161C34.1029 165.643 19.0256 173.293 4.66225 186.271C4.66225 188.416 4.6726 190.56 4.6726 192.705C4.68295 201.947 4.68295 211.167 4.66225 220.409C4.66225 224.212 4.53808 228.015 4.64156 231.84C4.73469 235.134 4.88991 238.318 4.88991 241.634C4.88991 242.054 4.88991 242.474 4.91061 242.895C8.46004 244.818 12.1337 246.078 15.6313 247.626C25.5863 252.07 35.593 255.143 45.6722 258.062C66.172 263.987 86.7131 269.183 107.306 273.45C147.83 281.874 188.602 286.075 229.28 289.414C241.326 290.386 253.381 291.249 265.437 292.001C265.354 289.657 265.24 287.291 265.002 284.992ZM265.851 351.167C265.696 350.481 265.468 349.862 265.189 349.376C264.65 348.469 263.957 348.049 263.305 347.784C261.474 347.032 259.642 346.28 257.821 345.573C257.645 345.484 257.479 345.418 257.303 345.352C259.042 344.755 260.76 343.981 262.457 343.008C262.705 342.875 262.964 342.721 263.212 342.522C263.936 342.013 264.609 341.261 265.106 339.957C265.282 339.493 265.375 338.719 265.468 338.144C265.675 336.861 265.799 335.535 265.872 334.208C266.089 329.919 265.965 325.143 265.934 320.788C265.923 319.969 265.913 319.151 265.903 318.311C232.333 320.942 198.826 322.424 165.235 318.864C128.365 314.973 91.494 307.5 54.7372 300.38C44.2338 298.346 33.7614 296.025 23.2476 294.433C17.1629 293.504 10.6228 292.111 4.21728 292.177C4.12415 301.464 3.93788 310.772 3.74126 320.058C8.24273 322.645 12.8787 324.458 17.1525 325.983C26.6108 329.344 36.0483 331.997 45.5894 333.987C64.2368 337.923 82.9154 341.151 101.594 344.534C112.253 346.479 122.911 348.359 133.57 350.083C125.809 351.498 118.047 352.803 110.266 353.731C90.2315 356.141 70.2285 359.988 50.1736 362.045C34.672 363.659 19.2325 362.863 3.77231 362.022C3.76196 362.288 3.75161 362.575 3.74126 362.863C3.60674 365.98 3.46186 369.098 3.32733 372.215C3.28594 373.321 3.24455 374.426 3.19281 375.532C17.9597 381.037 33.2543 380.772 48.1868 379.379C68.2623 377.499 88.1515 373.1 108.03 366.975C128.975 360.497 150.458 358.22 171.589 355.478C171.972 355.434 172.365 355.39 172.748 355.345C186.553 356.738 200.378 357.578 214.234 357.556C231.609 357.512 248.952 356.628 266.254 353.864C266.172 352.935 266.058 352.029 265.851 351.167Z" fill="url(#paint2_linear_20_390)"/>
<path d="M59.8244 378.428C58.3166 380.014 56.9517 380.73 55.5764 380.591C55.9614 381.179 56.3163 381.824 56.575 382.806C57.051 384.613 57.0966 386.784 56.575 388.575C55.5174 392.207 53.2884 391.962 51.5748 390.865C49.8963 389.793 48.5128 385.539 48.5583 381.851C48.5924 379.103 49.5734 377.179 50.8318 376.905C49.7328 375.41 48.6876 373.613 47.7946 371.727C45.3514 366.569 43.6181 357.561 44.7802 350.47C45.3172 347.194 47.1489 344.156 48.9122 345.586C51.0646 347.331 52.9532 349.915 54.9028 352.547C55.4264 353.252 55.9365 353.966 56.4881 354.576C56.7582 354.873 57.7806 355.77 57.019 355.107C59.1414 356.957 60.5943 358.941 61.7367 363.237C63.0644 368.227 62.4373 375.682 59.8244 378.428ZM41.3818 335.582C41.2763 335.25 41.1904 334.907 41.1159 334.542C40.794 333.408 40.3604 332.506 39.8161 331.836C39.2511 331.153 38.6416 330.81 37.9876 330.806C37.2487 330.972 36.87 331.096 36.2708 331.688C35.7162 332.124 35.3736 332.718 35.0011 333.764C34.3626 335.56 34.2022 338.301 34.494 340.355C34.7196 341.945 35.1656 343.265 35.7927 344.273C36.3919 345.237 37.2084 346.009 37.9876 345.894C38.4771 345.821 38.9769 345.715 39.4529 345.454C41.3849 344.399 42.5305 339.203 41.3818 335.582ZM221.051 284.605C220.561 280.886 218.85 278.229 217.007 278.193C216.357 278.18 215.807 277.802 215.086 277.802C213.929 277.802 212.94 278.81 211.907 279.717C210.222 281.194 208.657 283.128 207.788 286.624C206.958 289.96 207.142 294.621 208.566 297.122C208.352 297.57 208.135 298.028 207.891 298.464C206.846 300.327 207.644 304.738 209.072 304.405C209.555 304.292 210.044 304.573 210.534 304.59C211.219 304.615 211.861 304.329 212.505 303.858C213.022 303.478 213.575 303.158 214.072 302.673C214.442 302.311 214.726 301.902 214.979 301.219C215.058 301.006 215.638 299.178 215.272 299.941C215.447 299.576 215.549 299.151 215.6 298.711C216.798 298.004 217.712 296.98 218.564 295.328C218.751 295.041 218.937 294.754 219.124 294.466C220.644 292.131 221.582 288.629 221.051 284.605ZM215.681 267.304C215.315 267.112 214.894 266.774 214.521 266.877C214.111 266.992 213.685 267.585 213.312 267.959C212.893 268.381 212.749 269.588 212.924 270.422C213.121 271.35 213.568 271.773 214.042 271.563C214.408 271.401 214.869 271.341 215.195 270.943C215.499 270.574 215.712 269.807 215.927 269.241C216.173 268.595 216.125 267.536 215.681 267.304ZM224.569 243.804C224.465 243.264 224.358 242.729 224.247 242.196C221.869 238.714 219.962 238.356 218.527 241.117C218.235 241.685 217.968 242.344 217.77 243.07C216.934 246.138 217.303 250.649 218.886 252.4C219.713 253.315 220.661 253.704 221.582 253.125C222.06 252.824 222.521 252.327 222.981 251.918C223.214 251.544 223.447 251.168 223.68 250.795C224.016 250.145 224.254 249.373 224.393 248.482C224.668 247.133 224.844 245.216 224.569 243.804ZM215.107 98.0686C214.935 96.5253 214.764 95.0705 214.288 93.7881C213.771 92.3952 213.022 91.5329 212.311 90.6175C211.724 89.8614 211.154 89.0566 210.492 88.6011C209.804 88.128 209.002 88.1213 208.276 88.0351C207.015 87.8848 206.203 89.585 205.907 91.6987C204.098 88.2098 201.321 86.2199 199.128 85.2139C196.77 84.1305 190.879 84.6059 191.362 92.5411C191.742 98.765 193.922 102.499 196.38 105.681C198.761 108.763 200.854 111.149 203.337 110.532C205.368 111.027 207.861 111.66 208.836 106.833C209.106 105.5 209.157 104.244 209.079 103.041C209.579 103.819 210.079 104.604 210.695 104.958C211.553 105.451 212.433 104.982 213.292 104.719C214.721 104.284 215.393 100.629 215.107 98.0686ZM186.753 102.159C186.235 101.102 185.735 99.9302 185.137 99.0679C184.407 98.0155 183.672 97.8254 182.82 97.518C182.096 97.2571 181.319 96.7663 180.588 96.9476C179.86 97.1289 179.345 98.1217 178.821 99.0989C178.552 99.603 178.456 100.494 178.554 101.204C178.722 102.418 178.892 103.713 179.334 104.631C179.894 105.796 180.855 106.271 181.58 106.886C182.298 107.494 182.952 108.144 183.743 108.126C184.528 108.109 185.349 107.571 186.113 107.22C187.189 106.725 187.508 103.696 186.753 102.159ZM213.588 138.386C213.482 136.732 213.021 135.529 212.475 134.395C211.716 132.823 210.776 132.41 209.792 131.839C208.984 131.37 208.112 132.032 207.608 133.389C207.076 134.824 207.067 136.597 207.446 138.194C207.584 138.777 207.723 139.363 207.863 139.949C208.174 141.26 208.589 142.204 209.165 143.049C209.726 143.869 210.334 144.462 211.032 144.526C211.819 144.599 212.652 143.809 213.129 142.523C213.586 141.289 213.686 139.9 213.588 138.386ZM161.875 277.523C158.5 273.49 152.894 274.735 150.222 280.163C148.538 283.584 148.455 289.973 150.222 293.372C154.118 300.86 160.957 297.665 163.426 288.393C163.474 288.302 163.521 288.209 163.568 288.118C165.456 284.479 164.113 278.43 161.875 277.523ZM143.447 271.613C142.501 270.552 141.733 269.703 140.608 270.192C139.875 270.51 139.127 270.994 138.421 271.518C137.508 272.195 136.871 273.895 137.022 275.982C137.177 278.138 137.946 279.255 138.941 279.509C139.688 279.699 140.481 279.858 141.234 279.816C142.345 279.754 143 278.459 143.784 277.05C144.583 275.613 144.34 272.617 143.447 271.613ZM39.8761 67.7007C38.3632 63.1261 35.1284 64.0128 33.1902 66.7875C32.4089 67.9063 31.4982 69.3081 30.8163 70.7253C30.2182 71.9679 29.9232 73.4338 29.7442 75.0898C29.7008 75.7619 29.6573 76.4341 29.6138 77.1062C29.6935 76.339 29.6894 76.412 29.5993 77.3229C29.2527 80.9666 30.3548 84.2875 32.1978 84.4268C32.3095 84.4356 32.3872 84.4378 32.4451 84.4356C32.4772 84.4533 32.5144 84.4754 32.562 84.4998C33.6258 85.0503 34.6482 84.712 35.6106 83.6684C36.2522 82.9742 36.9124 82.1185 37.5209 81.3027C39.6061 78.5013 41.5288 72.6975 39.8761 67.7007ZM27.1634 70.628C26.3159 71.1498 25.5025 71.7689 24.9365 73.2613C24.4553 74.5282 24.0041 75.815 23.6191 77.219C23.0179 79.4145 23.3356 82.5983 24.4511 83.8254C25.607 85.0967 26.9171 84.3583 27.6239 82.092C27.7667 81.6343 27.9178 81.1921 28.0699 80.7477C28.0833 80.719 28.0906 80.7013 28.1092 80.6593C28.2106 80.4293 28.3048 80.1861 28.4052 79.954C28.7932 79.0585 29.0612 78.2051 29.2444 77.031C29.3251 76.5137 29.4058 75.9985 29.5 75.49C30.0267 72.6334 28.4579 69.8299 27.1634 70.628ZM52.324 49.1217C51.7093 48.9051 50.9756 48.7193 50.4189 49.4667C50.0339 49.984 49.7514 50.7623 49.4513 51.4698C49.0219 52.4802 48.8418 54.0567 49.2164 55.2661C49.5993 56.502 50.2316 56.9774 50.9156 56.7054C51.3409 56.5374 51.877 56.4644 52.2454 55.9692C52.8104 55.2108 53.0898 54.0456 53.3236 52.7854C53.5823 51.3858 53.0318 49.3694 52.324 49.1217ZM114.355 157.648C114.421 157.407 114.486 157.162 114.539 156.901C115.211 153.633 115.028 149.868 113.405 147.895C113.184 147.626 112.956 147.409 112.726 147.201C111.074 144.367 109.243 143.593 107.034 143.944C104.891 144.283 102.995 146.551 101.06 148.357C98.3797 150.86 97.6015 158.636 98.6374 163.753C98.9571 165.331 99.4166 166.662 99.9619 167.768C98.3 169.318 96.7819 171.148 95.5826 172.897C94.9327 173.846 94.4432 174.911 94.0831 176.035C92.654 178.67 92.0725 182.221 93.4446 187.003C96.042 196.06 103.539 193.665 107.444 190.561C109.81 188.679 112.508 186.024 113.749 181.144C115.137 175.683 114.108 169.121 111.626 166.079C112.959 164.126 113.969 161.449 114.355 157.648ZM88.0367 178.787C87.3837 178.469 87.006 179.141 86.4648 179.689C86.4534 179.7 86.3882 179.76 86.3458 179.8C86.2868 179.844 86.1906 179.917 86.174 179.928C85.9846 180.059 85.7911 180.163 85.5955 180.251C84.7418 180.638 84.3382 182.749 84.657 184.321C85.0088 186.055 85.9308 186.568 86.7121 185.763C87.1571 185.305 87.5555 184.724 87.9415 184.074C88.3926 183.313 88.9132 182.354 88.8552 181.023C88.8117 180.032 88.5406 179.033 88.0367 178.787ZM79.6195 168.11C79.5025 168.002 79.3825 167.909 79.2645 167.803C77.438 164.86 74.6989 166.547 73.1259 169.594C71.9483 171.876 70.988 174.677 70.7334 178.009C70.5513 180.392 70.6827 182.595 71.5437 184.388C72.2991 185.962 73.5637 186.824 74.6068 186.075C77.0624 184.31 80.4059 180.722 80.7226 174.916C80.7567 174.706 80.7878 174.496 80.8261 174.286C81.1976 172.241 80.5974 169.026 79.6195 168.11ZM250.563 377.582C250.349 375.554 249.603 373.719 248.756 372.684C247.192 370.776 245.284 371.499 243.987 373.964C243.324 375.227 242.661 376.487 241.997 377.75C240.659 380.294 240.656 384.842 241.713 387.69C242.815 390.66 244.814 391.533 246.402 389.64C247.187 388.705 247.971 387.77 248.756 386.835C250.329 384.957 250.938 381.126 250.563 377.582Z" fill="#EB924D"/>
<path d="M60.6243 374.879C59.1166 376.464 57.7516 377.181 56.3774 377.041C56.7623 377.63 57.1173 378.275 57.376 379.257C57.852 381.063 57.8975 383.234 57.376 385.025C56.3184 388.658 54.0894 388.413 52.3757 387.316C50.6973 386.244 49.3137 381.99 49.3592 378.302C49.3934 375.553 50.3744 373.63 51.6328 373.356C50.5338 371.861 49.4886 370.064 48.5955 368.178C46.1523 363.019 44.419 354.012 45.5811 346.921C46.1182 343.644 47.9498 340.607 49.7131 342.037C51.8645 343.782 53.7531 346.366 55.7037 348.997C56.2273 349.703 56.7365 350.417 57.2891 351.027C57.5581 351.323 58.5816 352.221 57.8199 351.558C59.9423 353.408 61.3952 355.391 62.5377 359.687C63.8643 364.678 63.2372 372.131 60.6243 374.879ZM42.1817 332.032C42.0762 331.701 41.9903 331.358 41.9158 330.993C41.5939 329.859 41.1604 328.957 40.616 328.287C40.051 327.604 39.4415 327.261 38.7875 327.257C38.0487 327.422 37.6699 327.546 37.0708 328.139C36.5161 328.574 36.1736 329.169 35.801 330.215C35.1636 332.01 35.0022 334.752 35.294 336.806C35.5196 338.396 35.9656 339.716 36.5927 340.724C37.1918 341.688 38.0083 342.459 38.7875 342.344C39.277 342.271 39.7768 342.165 40.2528 341.904C42.1848 340.85 43.3314 335.652 42.1817 332.032ZM221.481 282.701C220.99 278.982 219.28 276.324 217.437 276.289C216.787 276.276 216.236 275.9 215.515 275.9C214.358 275.9 213.37 276.906 212.336 277.815C210.651 279.291 209.087 281.226 208.218 284.722C207.388 288.058 207.572 292.719 208.996 295.222C208.782 295.67 208.564 296.128 208.32 296.564C207.275 298.428 208.074 302.839 209.502 302.505C209.983 302.392 210.473 302.673 210.963 302.69C211.648 302.715 212.291 302.429 212.934 301.959C213.452 301.578 214.004 301.258 214.501 300.773C214.871 300.411 215.155 300.002 215.409 299.319C215.487 299.106 216.068 297.278 215.701 298.041C215.876 297.676 215.979 297.251 216.029 296.811C217.228 296.106 218.142 295.08 218.993 293.429C219.18 293.141 219.367 292.854 219.554 292.566C221.072 290.227 222.012 286.725 221.481 282.701ZM216.11 265.4C215.745 265.208 215.324 264.869 214.95 264.973C214.54 265.088 214.114 265.681 213.741 266.054C213.322 266.477 213.178 267.684 213.354 268.517C213.55 269.446 213.998 269.868 214.472 269.66C214.838 269.499 215.3 269.439 215.626 269.041C215.929 268.672 216.142 267.905 216.357 267.339C216.603 266.691 216.553 265.632 216.11 265.4ZM224.998 241.899C224.895 241.36 224.787 240.825 224.676 240.292C222.298 236.81 220.391 236.451 218.957 239.213C218.664 239.781 218.397 240.44 218.199 241.165C217.363 244.234 217.733 248.744 219.316 250.496C220.144 251.411 221.092 251.8 222.013 251.221C222.491 250.92 222.951 250.423 223.412 250.014C223.645 249.64 223.878 249.264 224.11 248.89C224.447 248.24 224.685 247.469 224.823 246.578C225.098 245.229 225.273 243.312 224.998 241.899ZM215.907 94.5193C215.735 92.976 215.564 91.5212 215.088 90.2389C214.571 88.8459 213.822 87.9814 213.111 87.0683C212.523 86.3121 211.954 85.5073 211.292 85.0519C210.604 84.5787 209.802 84.5721 209.075 84.4859C207.814 84.3355 207.003 86.0358 206.707 88.1495C204.898 84.6605 202.12 82.6729 199.928 81.6646C197.57 80.5813 191.679 81.0566 192.162 88.9919C192.542 95.2158 194.721 98.9501 197.18 102.132C199.561 105.214 201.654 107.6 204.137 106.983C206.169 107.478 208.66 108.11 209.636 103.284C209.906 101.95 209.957 100.695 209.878 99.4918C210.379 100.27 210.879 101.055 211.495 101.409C212.353 101.902 213.233 101.433 214.092 101.17C215.521 100.734 216.194 97.0774 215.907 94.5193ZM187.554 98.6074C187.036 97.5506 186.536 96.3788 185.938 95.5165C185.208 94.4641 184.473 94.2739 183.621 93.9666C182.897 93.7057 182.12 93.2148 181.389 93.3961C180.661 93.5774 180.146 94.5702 179.622 95.5474C179.353 96.0515 179.257 96.9426 179.355 97.6523C179.523 98.8661 179.693 100.162 180.135 101.079C180.694 102.245 181.656 102.72 182.381 103.335C183.099 103.943 183.753 104.593 184.544 104.575C185.329 104.557 186.15 104.02 186.914 103.668C187.989 103.173 188.308 100.144 187.554 98.6074ZM214.388 134.837C214.282 133.183 213.821 131.98 213.275 130.846C212.516 129.274 211.576 128.86 210.591 128.29C209.784 127.821 208.912 128.482 208.408 129.84C207.876 131.275 207.867 133.048 208.246 134.644C208.384 135.23 208.523 135.814 208.663 136.4C208.974 137.711 209.389 138.653 209.965 139.497C210.526 140.318 211.134 140.91 211.832 140.974C212.619 141.047 213.452 140.256 213.929 138.971C214.386 137.74 214.486 136.351 214.388 134.837ZM162.675 273.974C159.3 269.941 153.694 271.186 151.022 276.614C149.338 280.034 149.255 286.424 151.022 289.822C154.918 297.311 161.757 294.116 164.226 284.846C164.274 284.755 164.321 284.662 164.368 284.571C166.256 280.93 164.912 274.881 162.675 273.974ZM144.247 268.064C143.301 267.003 142.533 266.154 141.408 266.642C140.675 266.961 139.927 267.445 139.221 267.969C138.308 268.646 137.671 270.346 137.822 272.433C137.977 274.589 138.746 275.705 139.74 275.96C140.488 276.15 141.281 276.309 142.034 276.267C143.145 276.205 143.8 274.909 144.584 273.501C145.383 272.062 145.14 269.068 144.247 268.064ZM40.3594 65.5576C38.8465 60.9831 35.6117 61.8697 33.6734 64.6445C32.8921 65.761 31.9815 67.165 31.2996 68.5822C30.7014 69.8248 30.4065 71.2907 30.2275 72.9467C30.184 73.6189 30.1406 74.291 30.0971 74.9632C30.1768 74.1959 30.1726 74.2689 30.0826 75.1798C29.7359 78.8235 30.838 82.1444 32.681 82.2837C32.7928 82.2926 32.8704 82.2926 32.9273 82.2926C32.9594 82.3103 32.9977 82.3324 33.0443 82.3567C34.1081 82.9072 35.1305 82.5689 36.0928 81.5253C36.7344 80.8311 37.3947 79.9754 38.0031 79.1596C40.0893 76.3605 42.012 70.5544 40.3594 65.5576ZM27.6456 68.4872C26.7981 69.009 25.9847 69.628 25.4187 71.1204C24.9375 72.3873 24.4863 73.6741 24.1014 75.0781C23.5001 77.2736 23.8178 80.4574 24.9333 81.6845C26.0882 82.9559 27.3993 82.2174 28.1061 79.9533C28.2489 79.4957 28.4 79.0535 28.5521 78.6091C28.5656 78.5803 28.5728 78.5626 28.5914 78.5206C28.6929 78.2907 28.787 78.0475 28.8874 77.8153C29.2755 76.9199 29.5435 76.0664 29.7266 74.8924C29.8074 74.375 29.8881 73.8599 29.9812 73.3513C30.509 70.4903 28.9402 67.6868 27.6456 68.4872ZM52.8073 46.9787C52.1926 46.762 51.4589 46.5763 50.9022 47.3236C50.5172 47.841 50.2347 48.6192 49.9346 49.3267C49.5052 50.3372 49.3251 51.9136 49.6997 53.123C50.0826 54.359 50.7149 54.8343 51.3978 54.5624C51.8232 54.3943 52.3592 54.3214 52.7276 53.8261C53.2926 53.0677 53.572 51.9025 53.8059 50.6423C54.0656 49.2427 53.514 47.2285 52.8073 46.9787ZM115.155 154.099C115.221 153.858 115.286 153.612 115.34 153.351C116.012 150.084 115.829 146.318 114.206 144.346C113.985 144.076 113.757 143.86 113.527 143.652C111.875 140.817 110.044 140.044 107.835 140.395C105.692 140.733 103.796 143.002 101.862 144.808C99.1817 147.311 98.4025 155.087 99.4394 160.203C99.7591 161.782 100.219 163.113 100.764 164.218C99.102 165.768 97.5839 167.599 96.3846 169.348C95.7347 170.296 95.2452 171.362 94.8841 172.485C93.455 175.121 92.8734 178.672 94.2456 183.454C96.843 192.51 104.34 190.116 108.245 187.012C110.611 185.13 113.309 182.475 114.55 177.595C115.937 172.134 114.909 165.572 112.427 162.529C113.759 160.575 114.769 157.899 115.155 154.099ZM88.5013 176.726C87.8483 176.408 87.4706 177.08 86.9294 177.628C86.917 177.639 86.8528 177.699 86.8104 177.739C86.7514 177.783 86.6552 177.856 86.6386 177.867C86.4493 177.997 86.2558 178.101 86.0602 178.19C85.2065 178.577 84.8029 180.688 85.1216 182.26C85.4734 183.994 86.3955 184.506 87.1767 183.702C87.6217 183.244 88.0201 182.663 88.4061 182.012C88.8573 181.252 89.3778 180.292 89.3199 178.961C89.2764 177.969 89.0053 176.971 88.5013 176.726ZM80.0841 166.047C79.9671 165.939 79.8471 165.846 79.7291 165.74C77.9027 162.797 75.1635 164.484 73.5906 167.531C72.413 169.812 71.4527 172.614 71.1981 175.946C71.016 178.329 71.1474 180.531 72.0083 182.324C72.7638 183.896 74.0283 184.761 75.0714 184.011C77.526 182.247 80.8706 178.658 81.1872 172.852C81.2214 172.642 81.2524 172.432 81.2907 172.222C81.6622 170.179 81.062 166.965 80.0841 166.047ZM251.364 374.03C251.15 372.003 250.404 370.167 249.557 369.133C247.993 367.225 246.085 367.948 244.788 370.413C244.125 371.675 243.461 372.936 242.798 374.198C241.46 376.743 241.457 381.291 242.514 384.139C243.616 387.108 245.615 387.981 247.203 386.089C247.988 385.154 248.772 384.218 249.557 383.283C251.129 381.408 251.739 377.576 251.364 374.03Z" fill="url(#paint3_linear_20_390)"/>
<path d="M59.8244 377.167C58.3166 378.753 56.9517 379.469 55.5764 379.33C55.9614 379.918 56.3163 380.564 56.575 381.545C57.051 383.352 57.0966 385.523 56.575 387.314C55.5174 390.946 53.2884 390.701 51.5748 389.604C49.8963 388.532 48.5128 384.278 48.5583 380.592C48.5924 377.844 49.5734 375.92 50.8318 375.646C49.7328 374.152 48.6876 372.354 47.7946 370.468C45.3514 365.312 43.6181 356.302 44.7802 349.212C45.3172 345.935 47.1489 342.897 48.9122 344.328C51.0646 346.072 52.9532 348.657 54.9028 351.288C55.4264 351.993 55.9365 352.707 56.4881 353.318C56.7582 353.614 57.7806 354.511 57.019 353.848C59.1414 355.699 60.5943 357.682 61.7367 361.978C63.0644 366.966 62.4373 374.419 59.8244 377.167ZM41.3818 334.321C41.2763 333.989 41.1904 333.646 41.1159 333.282C40.794 332.147 40.3604 331.245 39.8161 330.575C39.2511 329.892 38.6416 329.549 37.9876 329.545C37.2487 329.711 36.87 329.835 36.2708 330.427C35.7162 330.863 35.3736 331.457 35.0011 332.503C34.3626 334.299 34.2022 337.04 34.494 339.094C34.7196 340.684 35.1656 342.004 35.7927 343.012C36.3919 343.976 37.2084 344.748 37.9876 344.633C38.4771 344.56 38.9769 344.454 39.4529 344.193C41.3849 343.138 42.5305 337.94 41.3818 334.321ZM221.051 283.928C220.561 280.209 218.85 277.551 217.007 277.516C216.357 277.503 215.807 277.125 215.086 277.125C213.929 277.125 212.94 278.133 211.907 279.039C210.222 280.516 208.657 282.451 207.788 285.947C206.958 289.283 207.142 293.944 208.566 296.447C208.352 296.895 208.135 297.353 207.891 297.789C206.846 299.652 207.644 304.063 209.072 303.73C209.555 303.617 210.044 303.898 210.534 303.915C211.219 303.94 211.861 303.654 212.505 303.183C213.022 302.803 213.575 302.483 214.072 301.998C214.442 301.636 214.726 301.227 214.979 300.543C215.058 300.331 215.638 298.503 215.272 299.266C215.447 298.901 215.549 298.476 215.6 298.036C216.798 297.331 217.712 296.305 218.564 294.653C218.751 294.366 218.937 294.079 219.124 293.791C220.644 291.454 221.582 287.952 221.051 283.928ZM215.681 266.627C215.315 266.435 214.894 266.096 214.521 266.2C214.111 266.315 213.685 266.908 213.312 267.281C212.893 267.704 212.749 268.911 212.924 269.744C213.121 270.673 213.568 271.095 214.042 270.888C214.408 270.726 214.869 270.666 215.195 270.268C215.499 269.899 215.712 269.132 215.927 268.566C216.173 267.918 216.125 266.859 215.681 266.627ZM224.569 243.126C224.465 242.587 224.358 242.052 224.247 241.519C221.869 238.037 219.962 237.678 218.527 240.44C218.235 241.008 217.968 241.667 217.77 242.392C216.934 245.461 217.303 249.972 218.886 251.723C219.713 252.638 220.661 253.027 221.582 252.448C222.06 252.147 222.521 251.65 222.981 251.241C223.214 250.867 223.447 250.491 223.68 250.118C224.016 249.467 224.254 248.696 224.393 247.805C224.668 246.456 224.844 244.539 224.569 243.126ZM215.107 96.8077C214.935 95.2644 214.764 93.8096 214.288 92.5272C213.771 91.1343 213.022 90.272 212.311 89.3566C211.724 88.6005 211.154 87.7957 210.492 87.3402C209.804 86.8671 209.002 86.8604 208.276 86.7742C207.015 86.6239 206.203 88.3241 205.907 90.4378C204.098 86.9489 201.321 84.959 199.128 83.953C196.77 82.8696 190.879 83.345 191.362 91.2802C191.742 97.5041 193.922 101.238 196.38 104.42C198.761 107.502 200.854 109.888 203.337 109.271C205.368 109.766 207.861 110.399 208.836 105.572C209.106 104.239 209.157 102.983 209.079 101.78C209.579 102.558 210.079 103.343 210.695 103.697C211.553 104.19 212.433 103.721 213.292 103.458C214.721 103.023 215.393 99.368 215.107 96.8077ZM186.753 100.896C186.235 99.8389 185.735 98.6671 185.137 97.8048C184.407 96.7524 183.672 96.5622 182.82 96.2549C182.096 95.994 181.319 95.5032 180.588 95.6845C179.86 95.8658 179.345 96.8585 178.821 97.8358C178.552 98.3399 178.456 99.2309 178.554 99.9406C178.722 101.154 178.892 102.448 179.334 103.368C179.894 104.533 180.855 105.008 181.58 105.623C182.298 106.231 182.952 106.881 183.743 106.863C184.528 106.846 185.349 106.308 186.113 105.957C187.189 105.461 187.508 102.432 186.753 100.896ZM213.588 137.123C213.482 135.469 213.021 134.266 212.475 133.132C211.716 131.56 210.776 131.147 209.792 130.576C208.984 130.107 208.112 130.768 207.608 132.126C207.076 133.561 207.067 135.334 207.446 136.93C207.584 137.516 207.723 138.1 207.863 138.686C208.174 139.997 208.589 140.941 209.165 141.786C209.726 142.606 210.334 143.199 211.032 143.263C211.819 143.336 212.652 142.546 213.129 141.26C213.586 140.028 213.686 138.64 213.588 137.123ZM161.875 276.262C158.5 272.23 152.894 273.474 150.222 278.902C148.538 282.323 148.455 288.712 150.222 292.111C154.118 299.599 160.957 296.404 163.426 287.134C163.474 287.043 163.521 286.95 163.568 286.86C165.456 283.216 164.113 277.169 161.875 276.262ZM143.447 270.352C142.501 269.291 141.733 268.442 140.608 268.931C139.875 269.249 139.127 269.733 138.421 270.257C137.508 270.934 136.871 272.634 137.022 274.721C137.177 276.877 137.946 277.994 138.941 278.248C139.688 278.438 140.481 278.597 141.234 278.555C142.345 278.493 143 277.198 143.784 275.789C144.583 274.35 144.34 271.356 143.447 270.352ZM39.8761 66.9394C38.3632 62.3649 35.1284 63.2515 33.1902 66.0263C32.4089 67.1429 31.4982 68.5468 30.8163 69.9641C30.2182 71.2066 29.9232 72.6725 29.7442 74.3286C29.7008 75.0007 29.6573 75.6728 29.6138 76.345C29.6935 75.5778 29.6894 75.6507 29.5993 76.5617C29.2527 80.2054 30.3548 83.5263 32.1978 83.6656C32.3095 83.6744 32.3872 83.6766 32.4451 83.6744C32.4772 83.6921 32.5144 83.7142 32.562 83.7385C33.6258 84.2891 34.6482 83.9508 35.6106 82.9072C36.2522 82.2129 36.9124 81.3573 37.5209 80.5414C39.6061 77.7401 41.5288 71.9363 39.8761 66.9394ZM27.1634 69.8668C26.3159 70.3886 25.5025 71.0077 24.9365 72.5001C24.4553 73.767 24.0041 75.0538 23.6191 76.4577C23.0179 78.6532 23.3356 81.8371 24.4511 83.0642C25.607 84.3355 26.9171 83.597 27.6239 81.3308C27.7667 80.8731 27.9178 80.4309 28.0699 79.9865C28.0833 79.9577 28.0906 79.94 28.1092 79.898C28.2106 79.6681 28.3048 79.4249 28.4052 79.1927C28.7932 78.2973 29.0612 77.4438 29.2444 76.2698C29.3251 75.7524 29.4058 75.2373 29.5 74.7287C30.0267 71.8722 28.4579 69.0686 27.1634 69.8668ZM52.324 48.3605C51.7093 48.1438 50.9756 47.9581 50.4189 48.7054C50.0339 49.2228 49.7514 50.0011 49.4513 50.7086C49.0219 51.719 48.8418 53.2954 49.2164 54.5049C49.5993 55.7408 50.2316 56.2162 50.9156 55.9442C51.3409 55.7762 51.877 55.7032 52.2454 55.2079C52.8104 54.4496 53.0898 53.2844 53.3236 52.0241C53.5823 50.6246 53.0318 48.6081 52.324 48.3605ZM114.355 156.387C114.421 156.146 114.486 155.903 114.539 155.64C115.211 152.372 115.028 148.607 113.405 146.634C113.184 146.365 112.956 146.148 112.726 145.94C111.074 143.106 109.243 142.332 107.034 142.683C104.891 143.022 102.995 145.29 101.06 147.097C98.3797 149.599 97.6015 157.375 98.6374 162.492C98.9571 164.07 99.4166 165.401 99.9619 166.507C98.3 168.057 96.7819 169.887 95.5826 171.636C94.9327 172.585 94.4432 173.651 94.0831 174.774C92.654 177.409 92.0725 180.96 93.4446 185.745C96.042 194.801 103.539 192.406 107.444 189.3C109.81 187.418 112.508 184.763 113.749 179.883C115.137 174.422 114.108 167.86 111.626 164.818C112.959 162.863 113.969 160.188 114.355 156.387ZM88.0367 178.055C87.3837 177.736 87.006 178.409 86.4648 178.957C86.4534 178.97 86.3882 179.028 86.3458 179.067C86.2868 179.112 86.1906 179.185 86.174 179.196C85.9846 179.328 85.7911 179.43 85.5955 179.518C84.7418 179.905 84.3382 182.017 84.657 183.589C85.0088 185.322 85.9308 185.835 86.7121 185.03C87.1571 184.573 87.5555 183.991 87.9415 183.341C88.3926 182.581 88.9132 181.621 88.8552 180.29C88.8117 179.3 88.5406 178.3 88.0367 178.055ZM79.6195 167.376C79.5025 167.267 79.3825 167.175 79.2645 167.068C77.438 164.126 74.6989 165.813 73.1259 168.859C71.9483 171.141 70.988 173.942 70.7334 177.274C70.5513 179.658 70.6827 181.86 71.5437 183.653C72.2991 185.225 73.5637 186.09 74.6068 185.34C77.0624 183.576 80.4059 179.987 80.7226 174.181C80.7567 173.971 80.7878 173.761 80.8261 173.551C81.1976 171.508 80.5974 168.293 79.6195 167.376ZM250.563 376.318C250.349 374.291 249.603 372.456 248.756 371.421C247.192 369.513 245.284 370.236 243.987 372.701C243.324 373.964 242.661 375.224 241.997 376.486C240.659 379.031 240.656 383.579 241.713 386.425C242.815 389.394 244.814 390.268 246.402 388.375C247.187 387.44 247.971 386.504 248.756 385.569C250.329 383.696 250.938 379.865 250.563 376.318Z" fill="url(#paint4_linear_20_390)"/>
<path d="M4.72538 341.416C4.6219 342.61 4.57016 343.804 4.55981 344.998C4.54946 345.595 4.54946 346.192 4.57016 346.789C4.58051 347.01 4.6012 347.187 4.6219 347.408C4.70468 348.027 4.64259 348.734 4.66329 349.353C4.67364 349.862 4.69433 350.393 4.72538 350.901C4.18727 350.481 3.82509 349.972 3.81474 349.309C3.77335 346.833 3.77334 344.379 3.83543 341.902C3.85613 340.996 3.7423 339.006 3.94926 338.21C4.22866 337.149 4.08379 337.702 4.6426 337.215C5.21175 336.707 5.67742 336.11 6.29831 335.844C6.92955 335.579 7.58148 335.446 8.23342 335.314C10.5411 334.805 12.8487 334.319 15.1667 333.832C14.5769 333.766 13.987 333.678 13.3972 333.589C13.8939 333.567 14.3802 333.523 14.877 333.479C15.3426 333.434 15.8187 333.39 16.2947 333.346C16.6879 333.324 17.1018 333.368 17.4951 333.235C14.2871 334.385 11.0688 335.513 7.93333 337.326C7.09512 337.812 6.25692 338.343 5.49115 339.205C5.28419 339.448 5.07722 339.714 4.94269 340.134C4.81748 340.509 4.76574 340.974 4.72538 341.416Z" fill="#EB924D"/>
<path d="M5.00898 158.5C5.01002 158.549 5.01208 158.598 5.01312 158.646C5.03485 159.232 5.13937 159.774 5.16938 160.355C5.25837 162.056 5.10108 163.858 5.13316 165.578C5.19629 168.899 5.54398 172.352 6.63675 174.853C7.95615 177.873 9.99992 178.753 11.903 179.476C10.4118 179.52 8.9206 179.567 7.42942 179.611C7.12622 179.62 6.80854 179.635 6.54155 179.945C6.08209 180.475 5.91238 181.683 5.79752 182.773C5.10936 189.295 4.84858 196.021 5.02554 202.698C5.72508 203.558 6.49499 204.155 7.28973 204.454C6.22593 204.542 5.57296 207.317 5.82132 209.53C6.06968 211.743 6.91408 213.399 7.76263 214.777C6.47221 214.861 5.62263 217.788 5.40532 220.508C5.23044 222.685 5.27803 224.91 5.09901 227.087C5.03692 227.844 5.0452 228.465 5.07521 229.219C5.1135 230.185 5.05348 231.156 5.04624 232.122C5.02761 234.762 5.1342 237.406 5.36393 240C5.48811 241.437 5.65368 242.874 5.85029 244.267C5.95378 244.974 6.05726 245.66 6.18144 246.367C6.21248 246.522 6.23318 246.655 6.25387 246.809C6.00552 246.677 5.75716 246.478 5.55019 246.168C4.93965 245.173 4.88791 243.272 4.88791 241.636C4.88791 238.319 4.73268 235.135 4.63955 231.841C4.53607 228.016 4.66025 224.213 4.66025 220.41C4.68095 211.168 4.68095 201.948 4.6706 192.707C4.66025 183.487 4.63955 174.289 4.59815 165.091C4.58781 162.659 4.70164 160.161 4.3705 157.817C4.02901 155.474 4.26702 152.356 4.40154 149.946C4.43259 149.349 4.48433 148.73 4.66025 148.266C4.82582 147.868 5.07417 147.647 5.31218 147.492C7.17486 146.187 9.18241 146.342 11.1382 146.165C13.0526 146.01 14.967 145.524 16.8504 144.706C17.3368 144.662 17.8232 144.551 18.2992 144.396C15.174 145.812 12.0282 147.05 8.86162 148.177C8.20969 148.398 7.54739 148.642 6.93685 149.172C6.32631 149.703 5.75716 150.565 5.43636 151.825C5.14661 152.975 5.09487 154.302 5.06383 155.606C5.04417 156.559 4.98415 157.541 5.00898 158.5Z" fill="#EB924D"/>
<path d="M30.0982 253.993C23.8789 254.679 17.7011 256.912 11.4714 257.398C9.91921 257.531 8.33594 257.553 6.88719 258.725C5.88445 259.541 4.86722 263.916 6.05933 265.486C6.23422 265.716 6.44015 265.811 6.64194 265.893C7.77093 266.348 8.92165 266.552 10.0703 266.496C8.59568 266.985 7.25248 268.539 5.9424 270.067C5.71163 270.337 5.47259 270.62 5.31529 271.071C5.16318 271.509 5.1042 272.059 5.04832 272.594C4.90551 273.961 4.65094 275.429 4.7389 276.837C4.80099 277.828 4.76995 278.73 4.74305 279.74C4.63956 283.583 4.623 287.428 4.71303 291.273C4.72338 291.715 4.73373 292.157 4.82686 292.577C4.95104 293.108 5.18905 293.484 5.41671 293.838C5.92377 294.611 6.44118 295.385 6.94824 296.159C6.98964 296.203 7.03103 296.27 7.04137 296.358C7.08277 296.557 7.01033 296.756 6.94824 296.889C6.16178 298.702 5.25114 300.426 4.85791 302.77C4.66336 303.897 4.35291 304.797 4.30738 306.033C4.20183 308.905 4.31773 311.813 4.64784 314.605C4.77616 315.691 4.95311 316.812 5.3391 317.568C5.66093 318.198 6.09141 318.501 6.50948 318.773C8.26867 319.921 10.06 320.842 11.8699 321.535C9.52081 321.692 7.17073 321.848 4.82169 322.005C4.76684 322.01 4.58989 327.756 4.53608 328.296C4.4564 329.096 4.38396 329.514 4.53918 330.332C4.69958 331.177 4.95932 331.933 5.28115 332.528C4.84652 332.461 4.42225 332.417 3.98762 332.351C3.8117 332.329 3.60474 332.262 3.52196 331.931C3.49091 331.776 3.49091 331.577 3.49091 331.4C3.80135 317.117 4.13249 302.701 4.26702 288.374C4.33946 280.459 4.10145 272.411 4.56712 264.54C4.60851 263.81 4.87756 255.917 4.85687 255.917C13.2513 254.612 21.6748 253.949 30.0982 253.993Z" fill="#EB924D"/>
<path d="M31.4538 253.882L31.4434 253.86C31.4952 253.882 31.5366 253.86 31.5883 253.86C31.5469 253.86 31.4952 253.86 31.4538 253.882Z" fill="#EB924D"/>
<path d="M35.3861 77.6004C31.6504 78.5953 27.8009 77.4898 24.0859 78.8385C22.8544 79.2807 21.6437 79.9882 20.4019 80.2535C19.2533 80.4746 18.1046 80.342 16.9663 80.4083C14.0895 80.541 11.2438 81.9339 8.50148 83.8132C7.57014 84.4323 6.61811 85.1619 5.93513 86.6654C5.68678 87.2403 5.47981 87.8814 5.31423 88.589C5.02655 89.8669 4.74612 91.5429 4.78234 92.991C4.79268 93.4178 4.82167 93.7715 4.79993 94.2071C4.73681 95.4607 4.67161 96.7011 4.6623 97.9636C4.64367 100.477 4.77199 102.994 5.04725 105.439C5.12487 106.133 5.22524 106.861 5.4736 107.336C5.72609 107.818 6.08104 107.948 6.41632 108.057C7.81643 108.514 9.21551 108.972 10.6156 109.43C8.68568 109.735 6.75574 110.042 4.8258 110.347C4.95101 110.327 4.91376 120.25 4.93963 121.13C5.0369 124.473 5.0845 127.874 5.20144 131.237C5.27387 133.426 5.37736 135.614 5.67746 137.715C5.7499 138.201 5.83268 138.71 5.92582 139.174C5.77059 138.975 5.62572 138.732 5.49119 138.489C4.78752 137.206 4.25975 135.305 4.23905 133.315C4.22871 132.829 4.28045 132.453 4.33219 131.988C4.48742 130.706 4.37358 129.247 4.36324 127.92C4.31149 121.973 4.25976 116.025 4.19767 110.078C4.15628 106.297 4.14592 102.582 3.88722 98.8457C3.75269 96.9885 3.81478 95.0871 3.77339 93.2077C3.72165 90.9083 3.74234 88.6089 3.87687 86.3094C3.93896 85.0713 4.04245 83.7889 4.3115 82.6613C4.5909 81.5116 5.06691 80.384 5.71885 80.4503C6.69158 80.5609 7.67467 80.1408 8.6474 79.9418C10.8102 79.4775 12.9833 79.1016 15.1564 78.8142C19.6061 78.1951 24.0662 77.8635 28.5366 77.7087C30.7098 77.6424 32.8932 77.6203 35.0664 77.5981L35.3861 77.6004Z" fill="#EB924D"/>
<path d="M230.491 119.765C237.062 122.794 243.933 121.158 250.618 123.015C253.309 123.767 255.999 125.071 258.711 124.739C259.714 124.607 260.76 124.231 261.743 124.828C262.633 125.336 263.16 126.729 263.636 128.299C264.433 130.974 264.381 134.777 264.464 137.828C264.671 145.788 264.309 153.725 264.112 161.663C264.092 162.525 264.05 163.454 263.781 164.095C263.585 164.537 263.305 164.758 263.026 164.913C263.026 164.736 263.015 164.603 263.015 164.449C262.984 163.144 263.005 161.84 263.088 160.557C263.191 158.789 263.409 157.064 263.388 155.295C263.388 154.632 263.388 154.057 263.409 153.394C263.419 153.217 263.419 153.018 263.409 152.819C263.365 152.001 263.32 151.296 263.233 150.504C263.122 149.496 263.18 148.346 263.158 147.314C263.111 145.047 263.019 142.785 262.882 140.535C262.858 140.143 262.821 139.708 262.671 139.476C262.554 139.297 262.4 139.292 262.256 139.297C258.612 139.387 254.971 139.889 251.352 140.8C254.477 140.471 257.585 139.447 260.612 137.749C261.197 137.419 261.844 136.96 262.119 135.805C262.344 134.866 262.251 133.738 262.153 132.706C262.036 131.461 261.886 130.101 261.41 129.34C261.124 128.881 260.76 128.713 260.409 128.562C260.198 128.472 259.986 128.383 259.774 128.297C257.656 127.432 255.521 126.767 253.376 126.3C252.304 126.068 251.229 125.885 250.153 125.75C249.067 125.615 248.072 125.129 246.986 124.978C246.345 124.89 245.693 124.801 245.051 124.713C242.847 124.425 240.653 124.138 238.459 123.873C237.373 123.718 236.265 123.696 235.189 123.43C234.868 123.342 234.599 123.099 234.31 122.811C234.144 122.657 233.968 122.546 233.803 122.458C232.84 122.015 231.847 121.772 230.874 121.396C230.181 121.131 229.498 120.866 228.804 120.578L227.842 120.18C227.614 120.092 227.325 119.849 227.076 119.849C228.214 119.809 229.354 119.765 230.491 119.765Z" fill="#EB924D"/>
<path d="M264.64 213.665C264.588 227.395 264.495 241.126 264.485 254.856C264.485 259.388 264.764 267.171 263.667 271.239C263.357 272.411 262.819 273.074 262.198 273.472C262.27 273.141 262.322 272.787 262.384 272.433C262.715 270.488 262.964 268.476 263.109 266.419C263.181 265.513 263.171 264.496 263.316 263.633C263.481 262.727 263.46 261.71 263.502 260.737C263.616 257.841 263.729 254.922 263.843 252.004C263.936 249.66 264.03 247.316 264.123 244.973C264.174 243.801 264.216 242.629 264.268 241.457C264.288 240.971 264.35 240.396 264.309 239.91C264.288 239.755 264.257 239.6 264.247 239.445C264.185 238.87 264.237 238.207 264.03 237.743C263.905 237.455 263.719 237.345 263.543 237.256C261.856 236.35 260.128 235.908 258.4 235.886C259.125 235.443 259.89 235.554 260.635 235.642C261.38 235.731 262.157 235.775 262.86 235.2C263.336 234.802 263.771 234.073 264.009 233.122C264.123 232.657 264.174 232.149 264.237 231.64C264.33 230.778 264.247 229.761 264.247 228.855C264.237 227.152 264.226 225.45 264.226 223.725C264.205 218.994 264.185 214.262 264.019 209.531C263.903 205.933 263.742 202.349 263.647 198.748C263.616 197.576 263.282 196.968 263.152 195.906C262.995 194.624 263.327 193.116 262.948 191.944C262.645 191.009 262.028 190.903 261.495 190.89C258.025 190.797 254.554 190.706 251.083 190.613C254.323 191.126 257.557 189.78 260.744 188.438C261.14 188.27 261.544 188.099 261.9 187.69C262.499 187.003 262.877 185.747 263.142 184.449C263.277 183.786 263.372 183.096 263.491 182.419C263.536 182.167 263.585 181.991 263.603 181.719C263.66 180.894 263.558 179.888 263.536 179.054C263.508 178.009 263.48 176.965 263.451 175.919C263.43 174.747 263.389 173.509 263.079 172.536C262.654 171.188 261.847 170.701 261.112 170.325C259.25 169.353 257.387 168.38 255.524 167.407C256 167.23 256.487 167.119 256.994 167.075C259.012 168.07 261.019 169.087 263.037 170.082C263.296 170.215 263.575 170.37 263.772 170.745C264.558 172.315 264.372 177.666 264.455 179.7C264.6 183.613 264.672 187.549 264.693 191.484C264.754 198.874 264.661 206.28 264.64 213.665Z" fill="#EB924D"/>
<path d="M251.996 90.4023C251.271 90.5129 250.557 90.5792 249.833 90.6456C254.345 91.5963 258.867 92.547 263.379 93.4977C263.793 93.5862 264.248 93.7188 264.548 94.3379C264.776 94.8243 264.869 95.5097 264.941 96.173C265.293 99.2463 265.314 102.253 265.314 105.393C265.179 109.925 264.983 114.392 264.548 118.858C264.341 120.98 263.71 121.135 263.027 120.892C263.41 120.295 263.699 119.41 263.72 118.438C263.824 112.8 263.927 107.162 263.731 101.546C263.689 100.484 263.637 99.4011 263.451 98.4061C263.317 97.7428 263.12 97.1459 262.851 96.7258C262.727 96.5047 262.582 96.372 262.447 96.2172C262.396 96.1509 262.344 96.0846 262.282 96.0404C262.189 95.974 262.116 95.8635 262.023 95.775C261.878 95.6203 261.702 95.6203 261.547 95.5539C260.874 95.3107 260.212 95.0454 259.539 94.8243C256.89 93.8736 254.221 93.144 251.551 92.6133C249.812 92.2817 248.063 92.0164 246.377 91.1099C247.649 90.9551 248.757 90.6677 250.03 90.5571C250.68 90.5129 251.344 90.4466 251.996 90.4023Z" fill="#EB924D"/>
<path d="M264.299 337.568C264.439 336.27 264.526 334.948 264.579 333.622C264.668 331.397 264.663 329.164 264.661 326.936C264.66 325.034 264.761 323.011 264.495 321.169C264.286 319.719 264.134 318.547 264.166 316.993C264.203 315.204 264.224 313.219 263.626 311.801C262.97 310.245 261.869 310.112 260.888 310.09C259.204 310.05 257.521 310.013 255.837 309.973C258.067 309.402 260.287 308.629 262.487 307.656C262.812 307.512 263.164 307.329 263.366 306.767C263.566 306.212 263.562 305.447 263.548 304.746C263.458 299.997 263.406 295.234 263.277 290.487C263.205 287.843 262.982 285.561 261.689 284.67C260.28 283.702 258.713 283.505 257.256 283.036C254.619 282.19 251.976 281.431 249.327 280.768C244.035 279.444 238.721 278.495 233.397 278.026C243.714 278.469 254.021 279.773 264.286 281.896C264.773 282.006 264.917 284.261 265 284.991C265.28 287.688 265.383 290.474 265.487 293.216C265.756 300.733 265.828 308.273 265.87 315.79V316.166C265.89 317.714 265.921 319.239 265.932 320.787C265.963 325.142 266.087 329.918 265.87 334.208C265.797 335.534 265.673 336.861 265.466 338.143C265.373 338.718 265.28 339.492 265.104 339.956C264.607 341.261 263.934 342.012 263.21 342.521C263.552 341.659 263.821 340.664 264.007 339.624C264.123 338.961 264.217 338.276 264.299 337.568Z" fill="#EB924D"/>
<path d="M3.39053 56.9949C3.256 46.2274 3.06974 35.482 2.84208 24.7366C2.6972 17.5952 5.21182 11.4486 8.54394 10.8959C92.9542 -3.43134 177.189 -3.8072 261.247 10.8516C264.61 11.4265 267.125 17.6836 266.928 24.8914C266.659 34.3765 266.421 43.8838 266.204 53.391C266.059 60.0461 265.914 66.7012 265.79 73.3784C265.759 74.6828 265.728 75.8104 265.552 77.0486C265.231 79.2153 265.303 81.5811 265.055 83.8142C264.962 84.5217 264.859 85.2735 264.61 85.782C264.362 86.2684 264.02 86.4674 263.689 86.6222C263.658 86.6443 263.627 86.6443 263.596 86.6664C263.606 86.6001 263.617 86.5116 263.617 86.4453C263.713 83.5224 263.948 80.4557 263.897 77.5284C263.88 76.5069 263.777 75.6535 263.829 74.6099C263.899 73.1948 263.918 71.7489 263.735 70.3648C263.265 66.8294 261.377 64.4614 259.703 65.3127C260.941 62.9867 263.248 64.1762 264.132 61.2024C264.606 59.6083 264.414 57.5344 264.205 55.6971C259.007 54.5407 253.775 54.0897 248.55 54.3484C253.043 54.8702 257.577 53.7979 261.908 51.1867C262.605 50.7666 263.337 50.2492 263.796 49.0531C264.225 47.9321 264.335 46.4176 264.429 44.9849C264.585 42.608 264.688 40.1782 264.901 37.8213C264.965 37.1182 265.134 36.5035 265.206 35.8115C265.321 34.7148 265.259 33.4921 265.254 32.3889C265.241 29.7158 265.153 27.025 264.847 24.4249C264.661 22.833 264.392 21.3074 264.009 19.8924C263.492 17.9467 263.181 16.7085 262.095 15.8463C261.432 15.3156 260.718 15.1609 260.015 15.0282C257.686 14.586 256.093 14.5197 253.775 13.9448C250.559 13.1466 247.339 12.4391 244.116 11.7891C239.761 10.9091 235.401 10.1508 231.039 9.4941C228.857 9.16466 226.675 8.86176 224.491 8.58317C224.024 8.52348 223.535 8.35986 223.07 8.53231C222.696 8.67161 222.416 8.7313 222.03 8.5898C220.99 8.20509 219.953 7.63687 218.888 7.73858C217.541 7.86681 216.077 9.49189 215.813 12.3153C215.462 11.2187 215.296 9.85891 215.351 8.53453C214.754 9.71741 214.258 11.1302 213.894 12.6846C213.148 11.0108 212.642 8.85512 212.46 6.5778C209.825 7.23668 207.151 7.19689 204.519 6.46063C204.147 8.50358 203.774 10.5465 203.401 12.5917C202.06 7.99284 199.493 5.59391 196.976 4.95494C194.459 4.31596 191.918 5.16277 189.392 5.62487C186.105 6.22626 182.79 6.17762 179.507 5.47895C179.108 5.39493 178.667 5.32418 178.348 5.83713C178.133 6.18204 178.015 6.72816 177.914 7.25879C177.594 8.93472 177.355 10.6792 177.201 12.459C176.873 9.55821 175.78 7.24331 174.513 5.98968C173.245 4.73605 171.818 4.42209 170.421 4.44199C167.853 4.47737 165.309 5.57402 162.741 5.62045C161.329 5.64698 159.921 5.35956 158.518 5.03233C156.468 4.55476 154.409 3.96663 152.343 4.14129C151.835 4.18551 151.329 4.27396 150.827 4.4243C150.378 4.55696 149.921 4.86429 149.467 4.84882C149.173 4.83776 148.893 4.63877 148.604 4.55697C148.026 4.39114 147.43 4.47294 146.85 4.45968C145.561 4.43094 144.273 4.4022 142.985 4.37787C138.587 4.26732 134.178 4.15677 129.78 4.04622C125.372 3.93567 120.974 3.82513 116.566 3.71458C114.372 3.67036 112.168 3.60403 109.964 3.55981C109.467 3.5377 109.001 3.3166 108.504 3.36082C105.762 3.62614 103.01 3.89146 100.267 4.15678C97.9969 4.37567 95.7265 4.58349 93.4561 4.79796C92.4885 4.89082 91.7166 4.28943 90.7625 4.05728C89.7235 3.80523 88.6452 3.77869 87.6487 4.55254C86.2196 5.66467 85.0513 9.02536 85.5345 12.1075C85.6577 8.64508 84.1955 5.68236 82.6205 4.82228C81.0465 3.96221 79.3908 4.65646 77.7879 5.21805C73.721 6.64193 69.588 7.19467 65.4704 6.86523C65.34 9.3327 65.2086 11.8002 65.0772 14.2676C64.7719 11.6211 64.2793 9.07401 63.6212 6.74142C62.8813 10.1242 62.7106 14.0598 63.1473 17.6747C62.04 14.3229 62.2356 8.94799 60.5488 6.98463C58.83 4.9859 56.7645 8.41735 54.819 7.96852C54.8915 10.3299 54.9629 12.6934 55.0353 15.0547C54.9391 12.574 54.225 10.3542 53.2709 8.98778C51.9164 7.04874 50.6818 7.73858 49.1689 7.98399C47.5339 8.24931 45.8989 8.51463 44.2639 8.80206C41.3457 9.26636 38.4275 9.75278 35.4989 10.2171C34.8677 10.3276 34.1847 10.6151 33.5535 10.4161C33.0981 10.2613 32.7153 9.95177 32.2392 9.99599C25.1093 10.394 17.9173 11.1899 10.8702 13.7105C9.57669 14.1748 8.26247 14.7275 7.11382 16.0541C6.3791 16.9164 5.71681 18.1324 5.26149 19.6337C4.91586 20.7746 4.80928 21.9751 4.67268 23.2354C4.58161 24.08 4.34774 24.8781 4.19148 25.6763C3.85206 27.4053 3.57576 29.2183 3.51781 31.0999C3.42986 33.9609 3.95555 37.0983 5.13214 38.4801C6.52397 40.1141 8.35145 38.8847 9.76502 40.4302C8.11862 39.9858 6.42773 40.2954 4.84031 41.3301C4.60127 41.4871 4.34981 41.6794 4.19977 42.1062C4.06938 42.4754 4.0373 42.9596 4.01557 43.4195C3.91105 45.5774 3.92554 47.7619 4.05799 49.9132C4.12215 50.9545 4.25771 51.9937 4.29496 53.0284C4.33636 54.1914 4.35189 55.361 4.38293 56.5262C4.50711 61.1516 4.65716 65.7703 4.77513 70.3957C4.79582 71.1696 4.8786 71.6339 4.86826 72.2087C4.75443 72.1866 4.6406 72.1866 4.52677 72.1866C4.39224 72.1645 4.24737 72.1645 4.15423 71.9655C4.07145 71.7887 4.05075 71.5233 4.03005 71.2801C3.70098 66.5685 3.45159 61.7265 3.39053 56.9949Z" fill="#EB924D"/>
<path d="M261.277 400.803C178.222 414.401 93.9672 414.29 8.56355 400.781C5.22108 400.25 2.68577 394.104 2.8203 386.962C2.85134 385.37 2.86169 383.778 2.87204 382.186C2.89273 380.882 2.83064 379.445 2.94447 378.185C2.98587 377.72 3.08935 377.344 3.1204 376.88C3.22388 375.332 3.26527 373.763 3.32736 372.215C3.46189 369.097 3.60676 365.98 3.74129 362.862C3.75164 362.575 3.76198 362.288 3.77233 362.022C3.79303 361.536 3.82408 361.005 3.96895 360.629C4.09313 360.276 4.28974 360.099 4.48636 359.944C6.86645 357.932 9.49489 356.694 12.0612 356.738C14.8656 356.76 17.5147 356.075 20.2777 355.235C21.3953 354.903 22.5129 354.571 23.6305 354.24H23.9203C24.1376 354.24 24.3549 354.262 24.5722 354.262C24.7378 354.262 24.9551 354.35 25.1103 354.284C19.5119 356.871 13.8308 358.463 8.17033 360.342C7.42525 360.585 6.66983 360.828 6.00755 361.58C5.95581 361.646 5.90406 361.713 5.85232 361.779C5.10725 362.732 4.4015 364.401 4.42013 366.329C4.42841 367.227 4.33217 368.107 4.30837 369.005C4.26387 370.722 4.38391 372.597 5.01101 373.816C5.37941 374.53 5.86371 374.895 6.33766 375.217C9.41831 377.324 12.6407 378.481 15.8746 378.638C13.2647 378.591 10.6549 378.545 8.04511 378.499C7.24933 378.485 6.43906 378.384 5.64535 378.472C5.11553 378.532 4.15107 378.521 3.76302 379.403C3.60986 379.752 3.54261 380.232 3.50742 380.705C3.31908 383.252 3.72369 385.861 3.68851 388.399C3.66781 389.925 3.64712 391.517 3.87478 392.976C4.31975 395.828 5.64432 397.685 7.01028 398.548C7.67257 398.946 8.36591 399.167 9.04889 399.366C9.40073 399.454 9.74221 399.521 10.094 399.609C10.2596 399.653 10.4355 399.697 10.6115 399.764C10.7667 399.808 10.9426 399.896 11.0978 399.896C11.1806 399.874 11.2634 399.808 11.3565 399.808C11.6152 399.764 11.8843 399.808 12.1533 399.808H13.3123C14.7197 399.786 16.127 399.72 17.5448 399.852C18.2484 399.941 18.9418 400.051 19.6454 400.25C19.8007 400.294 19.9559 400.383 20.1111 400.361C20.2042 400.361 20.2974 400.294 20.3905 400.272C20.4733 400.25 20.5457 400.25 20.6182 400.272C21.3332 400.381 21.8744 400.684 22.5419 400.956C22.9434 401.121 23.3656 401.188 23.7537 400.854C24.3911 400.303 24.7471 398.844 24.9282 397.429C25.1082 396.012 25.1703 394.511 25.4746 393.193C25.5781 394.729 25.4249 396.29 25.4404 397.845C25.4549 399.397 25.6981 401.108 26.3345 401.86C26.7122 402.304 27.1624 402.335 27.5939 402.355C28.3079 402.388 29.0219 402.428 29.736 402.452C30.2306 402.47 30.6383 402.191 31.1164 402.081C31.7839 401.926 32.5155 402.229 33.183 402.331C33.9135 402.439 34.6441 402.547 35.3757 402.654C38.3001 403.076 41.2245 403.469 44.151 403.832C44.9364 403.929 45.7343 404.119 46.5208 404.119C53.8162 404.982 61.1117 405.667 68.4175 406.154C70.6072 406.299 72.8259 406.204 75.0094 406.549C75.2908 406.594 75.534 406.773 75.8041 406.912C76.427 407.235 77.1204 406.68 77.6978 406.193C79.0462 405.059 80.2383 403.049 81.0392 400.462C81.7481 405.51 84.3641 408.269 86.8177 408.793C89.2723 409.315 91.7424 408.21 94.2073 408.426C94.9286 408.491 95.6168 408.365 96.3184 408.382C96.7923 408.395 97.2797 408.789 97.7557 408.884C98.7978 409.096 99.8606 408.866 100.86 408.199C100.993 403.763 101.126 399.33 101.259 394.895C101.394 399.222 101.742 403.52 102.293 407.695C102.382 408.369 102.493 409.09 102.758 409.501C103.031 409.925 103.399 409.91 103.736 409.877C106.699 409.594 109.661 409.311 112.624 409.03C112.66 406.872 112.868 404.727 113.236 402.715C113.52 405.413 114.16 407.936 115.062 409.919C115.537 406.709 116.311 403.699 117.326 401.124C117.587 404.106 118.051 407.608 119.4 408.548C120.037 408.992 120.728 408.725 121.39 408.506C122.819 408.033 124.265 407.799 125.71 407.805C126.277 407.807 126.752 407.787 127.299 407.529C127.939 407.226 128.632 407.489 129.284 407.491C130.361 407.493 131.438 407.496 132.514 407.5C136.917 407.513 141.32 407.538 145.723 407.586C146.955 407.6 148.189 407.615 149.421 407.635C150.032 407.635 150.653 407.635 151.263 407.657C155.661 407.723 160.059 407.834 164.457 407.944C168.855 408.077 173.253 408.254 177.651 408.431C179.845 408.519 182.049 408.63 184.243 408.74C185.34 408.785 186.447 408.851 187.544 408.917C188.372 408.962 189.096 408.984 189.893 408.431C190.234 408.188 190.576 408.055 190.938 407.989C191.654 407.858 192.374 407.792 193.093 407.715C193.316 407.69 193.566 407.73 193.784 407.575C194.151 407.314 194.327 407.04 194.689 407.069C194.909 407.087 195.135 406.994 195.348 406.874C195.779 406.636 196.181 406.2 196.548 405.667C197.331 404.533 197.967 402.99 198.569 401.449C199.131 403.047 199.752 404.551 200.426 405.937C200.544 406.18 200.672 406.428 200.83 406.521C201.412 406.859 201.735 405.079 202.267 404.471C202.562 405.592 203.195 406.14 203.796 406.191C204.397 406.242 204.987 405.879 205.573 405.592C207.285 404.747 209.062 404.504 210.811 404.873C211.026 404.15 211.242 403.43 211.458 402.707C211.753 404.741 212.969 405.287 213.967 405.291C214.669 405.293 215.371 405.203 216.068 405.017C216.649 404.862 217.259 404.442 217.848 404.601C219.083 404.938 220.324 404.608 221.567 404.438C224.487 404.04 227.406 403.622 230.324 403.182C233.243 402.742 236.161 402.28 239.077 401.791C241.922 401.316 244.764 400.816 247.607 400.292C248.259 400.16 248.932 400.182 249.594 400.115C251.767 399.938 253.94 399.739 256.113 399.408C257.2 399.231 258.286 399.032 259.363 398.789C259.901 398.656 260.449 398.568 260.987 398.369C261.153 398.324 261.287 398.125 261.453 398.037C262.436 397.551 263.44 397.462 264.237 395.959C264.785 394.92 265.075 393.438 265.24 391.935C265.313 391.161 265.364 390.365 265.396 389.569C265.458 388.065 265.551 386.606 265.54 385.059C265.52 379.509 265.489 373.959 265.468 368.41C265.468 367.857 265.468 367.304 265.458 366.774C265.447 364.474 265.416 362.175 265.292 359.897C265.24 358.903 265.075 357.797 265.116 356.78C265.126 356.493 265.158 356.183 265.168 355.896C265.178 354.702 264.888 353.375 264.516 352.557C264.257 352.004 263.967 351.496 263.688 350.965C263.481 350.567 263.253 350.258 262.995 350.014C262.477 349.506 261.919 349.241 261.36 348.975C260.046 348.29 258.731 347.627 257.417 346.963C257.086 346.786 256.724 346.587 256.465 346.101C256.931 345.968 257.055 345.592 257.521 345.57H257.821C259.642 346.278 261.474 347.03 263.305 347.781C263.957 348.047 264.65 348.467 265.189 349.373C265.468 349.86 265.696 350.479 265.851 351.164C266.13 352.314 266.244 353.574 266.317 354.834C266.492 357.996 266.254 361.114 266.42 364.253C266.513 365.867 266.565 367.459 266.596 369.095C266.668 372.213 266.73 375.352 266.803 378.47C266.865 381.278 266.927 384.086 266.989 386.894C267.165 394.082 264.63 400.272 261.277 400.803Z" fill="#EB924D"/>
<path d="M112.596 38.2246C125.768 39.5247 138.953 40.8269 152.052 44.0705C162.898 46.7546 173.71 50.772 184.628 50.9312C159.974 54.2896 137.29 39.7082 112.596 38.2246ZM164.741 104.094C163.939 104.139 163.122 103.964 162.32 103.917C157.969 103.665 153.613 103.778 149.264 104.178C144.917 104.579 140.577 105.268 136.247 106.164C134.078 106.613 131.912 107.115 129.749 107.658C128.666 107.93 127.584 108.213 126.502 108.505C125.961 108.651 125.419 108.799 124.878 108.952C124.48 109.062 124.091 108.994 123.701 109.078C123.201 109.186 122.673 109.686 122.191 109.984C121.67 110.307 121.15 110.628 120.628 110.946C119.586 111.583 118.543 112.213 117.497 112.826C115.407 114.048 113.306 115.202 111.192 116.217C109.438 117.06 107.673 117.805 105.902 118.455C101.683 120.002 97.4193 121.004 93.1445 121.453C91.0066 121.678 88.8655 121.762 86.7255 121.711C86.2381 121.7 85.731 121.597 85.2519 121.738C84.3009 122.021 83.351 122.319 82.4 122.618C81.3186 122.958 80.2382 123.295 79.1558 123.62C78.7543 123.739 78.4345 124.121 78.0444 124.292C77.528 124.519 77.0003 124.652 76.4766 124.758C74.3811 125.178 72.2742 124.9 70.1746 125.048C64.3827 125.45 58.7564 129.067 53.0276 130.945C48.7476 132.346 44.4117 132.773 40.0862 133.2C40.5674 133.162 41.0475 133.122 41.5287 133.083C45.8998 132.709 50.2688 132.2 54.6326 131.555C58.9965 130.911 63.3562 130.131 67.7107 129.216C69.8879 128.758 72.0631 128.267 74.2363 127.741C75.4842 127.44 76.7302 127.332 77.9864 127.17C80.618 126.83 83.2454 126.374 85.8697 125.824C91.1452 124.721 96.4031 123.248 101.647 121.59C122.612 114.957 143.481 105.235 164.741 104.094ZM83.3427 269.326C88.0697 272.916 93.0669 274.497 98.0309 275.731C100.55 276.357 103.074 276.89 105.591 277.533C106.239 277.699 106.884 277.909 107.531 278.084C108.016 278.216 108.507 278.256 108.993 278.391C109.15 278.435 109.288 278.561 109.439 278.654C109.863 278.915 110.346 278.844 110.784 278.994C111.744 279.324 112.679 279.925 113.616 280.467C114.802 281.152 116.023 281.765 117.26 281.57C118.158 281.429 119.029 280.867 119.917 280.533C120.953 280.144 122.01 280.065 123.061 280.1C125.192 280.171 127.315 280.739 129.406 281.606C130.35 281.997 131.287 282.468 132.216 283.001C133.227 283.58 134.222 284.265 135.221 284.927C135.898 285.373 136.486 285.373 137.18 285.289C138.085 285.181 138.984 285.638 139.874 285.926C140.9 286.258 141.928 286.567 142.958 286.855C147.115 288.02 151.291 288.844 155.476 289.377C159.681 289.912 163.896 290.153 168.109 290.129C172.282 290.105 176.455 289.822 180.621 289.295C182.2 289.096 183.777 288.767 185.355 288.59C179.973 289.187 174.577 288.71 169.211 287.697C166.494 287.184 163.783 286.534 161.076 285.815C160.617 285.694 160.129 285.444 159.667 285.446C159.584 285.446 159.513 285.475 159.433 285.515C159.219 285.623 159.012 285.636 158.791 285.65C156.855 285.76 154.917 285.716 152.983 285.517C142.54 284.449 132.272 278.913 121.823 278.156C119.908 278.017 117.993 278.212 116.078 278.336C114.767 278.422 113.514 278.229 112.222 277.721C110.931 277.212 109.649 276.609 108.355 276.127C106.392 275.399 104.396 275.205 102.413 274.855C100.263 274.477 98.1147 274.042 95.9706 273.522C93.8285 273.005 91.6895 272.406 89.5588 271.7C87.4768 271.017 85.404 270.232 83.3427 269.326ZM139.624 232.088C140.509 232.042 141.395 231.995 142.28 231.949C142.989 231.911 143.702 231.881 144.404 232.122C144.655 232.208 144.874 232.256 145.127 232.199C145.666 232.077 146.204 232.327 146.734 232.528C146.993 232.628 147.184 232.562 147.438 232.537C148.24 232.46 149.087 232.741 149.888 232.853C150.751 232.977 151.613 233.11 152.476 233.251C154.273 233.548 156.07 233.879 157.864 234.235C172.165 237.054 186.534 241.26 200.918 238.781C184.148 236.338 167.376 233.895 150.606 231.452C151.367 231.562 152.392 230.702 153.14 230.368C154.005 229.983 154.868 229.583 155.73 229.17C156.549 228.776 157.365 228.369 158.181 227.947C158.636 227.713 159.131 227.558 159.573 227.253C159.867 227.05 160.155 226.636 160.436 226.351C161.015 225.763 161.601 225.208 162.193 224.684C163.372 223.64 164.575 222.723 165.794 221.918C168.24 220.299 170.748 219.13 173.275 218.254C175.833 217.37 178.412 216.784 180.993 216.342C183.59 215.895 186.191 215.594 188.793 215.283C190.112 215.126 191.432 214.964 192.75 214.783C193.198 214.721 193.654 214.653 194.072 214.297C194.384 214.031 194.662 213.613 194.969 213.313C195.551 212.74 196.205 212.618 196.845 212.503C198.458 212.214 200.072 211.926 201.686 211.637C204.504 211.133 207.334 210.626 210.156 211.018C212.826 211.387 215.462 212.554 218.134 212.833C221.26 213.158 224.383 212.258 227.486 211.36C221.26 210.023 214.997 209.483 208.741 209.744C205.561 209.877 202.383 210.217 199.206 210.556C196.425 210.852 193.643 211.153 190.864 211.55C188.072 211.951 185.282 212.453 182.503 213.156C179.734 213.857 176.974 214.759 174.242 215.959C172.877 216.558 171.52 217.233 170.172 217.993C169.78 218.214 169.395 218.486 169.006 218.732C168.844 218.833 168.685 218.948 168.516 218.955C168.351 218.962 168.208 219.09 168.053 219.201C166.714 220.169 165.347 220.956 163.971 221.65C162.6 222.342 161.219 222.941 159.839 223.538C159.644 223.622 159.451 223.707 159.256 223.791C157.818 224.414 156.379 225.038 154.941 225.661C153.502 226.285 152.064 226.908 150.626 227.532C149.906 227.843 149.187 228.155 148.468 228.467C148.109 228.622 147.749 228.779 147.39 228.936C147.239 229.002 147.088 229.095 146.932 229.079C146.574 229.046 146.242 229.409 145.876 229.327C145.265 229.192 144.651 229.513 144.045 229.703C143.326 229.926 142.607 230.147 141.887 230.362C140.447 230.791 139.006 231.191 137.561 231.533C134.677 232.217 131.776 232.67 128.874 232.646C132.457 232.464 136.041 232.276 139.624 232.088ZM97.9316 345.134C96.2117 345.47 94.4525 345.424 92.7264 345.395C90.9207 345.364 89.1159 345.218 87.3143 344.979C83.6997 344.499 80.0985 343.653 76.5087 342.642C74.7071 342.136 72.9086 341.587 71.1111 341.021C70.2563 340.754 69.3985 340.513 68.5468 340.208C68.4071 340.157 68.2778 340.086 68.1432 339.985C67.5958 339.571 66.9811 339.883 66.412 339.969C64.1675 340.31 61.8857 340.436 59.6712 339.441C58.4759 338.903 57.3097 338.043 56.0969 337.743C54.9783 337.464 53.841 337.665 52.7234 337.364C51.7951 337.115 50.8949 336.522 49.9884 336.025C43.7236 332.582 37.0976 333.637 30.7355 336.137C40.2952 333.714 49.9076 337.961 59.4228 341.081C61.0951 341.629 62.7715 342.145 64.4593 342.432C65.8242 342.666 67.1964 342.75 68.551 343.171C69.9242 343.597 71.2684 344.353 72.6354 344.858C73.3173 345.11 74.0065 345.3 74.6988 345.344C75.0434 345.366 75.389 345.353 75.7336 345.293C76.0317 345.242 76.3049 345.357 76.6039 345.397C79.5025 345.793 82.4062 346.047 85.3109 346.122C88.1556 346.195 91.0024 346.091 93.844 345.766C95.2079 345.609 96.5708 345.401 97.9316 345.134ZM237.382 357.955C224.536 359.328 211.669 359.852 198.807 359.521C210.8 366.039 225.189 362.486 237.382 357.955Z" fill="#EB924D"/>
<path d="M112.662 36.3193C125.834 37.6194 139.019 38.9217 152.117 42.1652C162.963 44.8493 173.776 48.8667 184.693 49.0259C160.039 52.3844 137.356 37.8029 112.662 36.3193ZM164.807 102.189C164.588 102.169 164.369 102.151 164.15 102.134C159.782 101.78 155.408 101.804 151.039 102.129C146.675 102.454 142.316 103.08 137.968 103.925C137.537 104.009 137.15 104.117 136.738 104.376C136.32 104.639 135.887 104.524 135.455 104.533C134.393 104.553 133.335 104.758 132.283 105.059C130.187 105.658 128.118 106.633 126.03 107.343C120.728 109.145 115.333 109.196 109.964 109.096C111.996 109.667 114.027 110.239 116.06 110.81C113.511 113.385 110.714 114.602 107.938 115.676C105.015 116.806 102.08 117.805 99.1371 118.67C94.8406 119.932 90.5264 120.912 86.2009 121.606C84.0381 121.953 81.8732 122.229 79.7074 122.433C79.1661 122.484 78.6239 122.53 78.0827 122.572C77.6874 122.603 77.3428 122.442 76.9589 122.397C76.1528 122.305 75.3777 122.963 74.584 122.875C74.3687 122.851 74.1711 122.736 73.9507 122.749C73.2325 122.795 72.4967 123.092 71.7827 123.264C70.3298 123.614 68.878 123.967 67.4251 124.323C64.5203 125.037 61.6166 125.767 58.715 126.514C52.9097 128.007 47.1085 129.565 41.3104 131.186C35.5123 132.809 29.7193 134.494 23.9295 136.245C23.6977 136.316 23.4659 136.384 23.2352 136.455C36.6019 134.337 49.9873 132.216 63.2268 127.735C66.619 126.587 70.0204 125.281 73.455 125.314C74.8292 125.327 76.2066 125.555 77.5787 125.316C78.1748 125.212 78.776 124.823 79.3721 124.907C79.9733 124.991 80.5528 124.907 81.1571 124.807C83.977 124.348 86.7928 123.766 89.6044 123.092C95.2576 121.734 100.89 120.001 106.509 118.117C112.152 116.227 117.784 114.184 123.419 112.207C129.044 110.235 134.675 108.327 140.324 106.704C145.935 105.092 151.564 103.763 157.213 102.95C159.742 102.585 162.274 102.324 164.807 102.189ZM185.42 286.685C181.259 287.397 177.056 286.795 172.897 286.389C169.746 286.079 166.644 284.637 163.488 284.421C160.354 284.206 157.214 284.708 154.071 284.427C146.745 283.775 139.613 279.192 132.311 277.766C130.34 277.381 128.36 277.226 126.382 277.071C124.677 276.939 122.971 276.806 121.266 276.674C120.802 276.638 120.339 276.601 119.875 276.552C118.824 276.441 117.771 276.267 116.733 275.882C116.168 275.672 115.613 275.261 115.05 275.128C112.413 274.505 109.767 274.067 107.12 273.689C104.431 273.306 101.745 272.86 99.0626 272.302C96.3845 271.745 93.7116 271.077 91.048 270.257C89.6634 269.83 88.2808 269.36 86.9025 268.844C86.2661 268.606 85.6296 268.356 84.9953 268.097C84.4841 267.887 83.8994 267.796 83.4089 267.425C92.7213 274.496 102.788 273.872 112.406 277.775C113.24 278.113 114.123 278.307 114.888 279.139C115.188 279.464 115.453 279.694 115.793 279.771C116.865 280.019 117.972 279.941 119.047 279.895C121.232 279.8 123.412 279.451 125.598 279.444C127.396 279.439 129.187 280.494 130.968 281.067C132.594 281.589 134.227 282.013 135.864 282.338C136.818 282.526 137.788 282.687 138.705 283.329C139.107 283.612 139.414 283.908 139.832 283.99C140.347 284.087 140.862 284.317 141.374 284.472C143.444 285.097 145.52 285.637 147.599 286.097C151.793 287.023 156.003 287.627 160.217 287.947C164.431 288.268 168.648 288.306 172.863 288.089C177.013 287.874 181.16 287.41 185.298 286.707C185.339 286.698 185.379 286.692 185.42 286.685ZM160.982 224.377C161.394 224.085 161.805 223.793 162.218 223.506C164.316 222.051 166.504 221.038 168.653 219.891C169.836 219.261 170.969 218.392 172.157 217.901C174.162 217.07 176.222 215.978 178.257 215.599C178.583 215.54 178.893 215.61 179.216 215.697C180.09 215.933 180.95 215.396 181.81 215.091C183.928 214.341 186.066 213.839 188.21 213.585C188.678 213.53 189.147 213.486 189.615 213.455C189.86 213.437 190.124 213.355 190.361 213.475C190.552 213.57 190.749 213.59 190.944 213.563C191.342 213.506 191.727 213.265 192.11 213.05C192.798 212.665 193.496 212.371 194.202 212.17C194.481 212.091 194.735 212.044 194.994 211.805C195.275 211.544 195.607 211.531 195.908 211.443C197.306 211.034 198.709 210.66 200.118 210.49C202.172 210.247 204.228 210.068 206.284 209.957C208.32 209.846 210.36 209.8 212.387 210.216C212.973 210.335 213.555 210.494 214.138 210.671C216.898 211.511 219.657 212.827 222.46 212.65C223.147 212.606 223.814 212.356 224.496 212.239C224.933 212.161 225.321 212.427 225.749 212.511C226.878 212.732 228.061 212.416 229.191 212.343C230.913 212.23 232.635 212.113 234.357 211.989C237.945 211.735 241.531 211.463 245.118 211.191C237.75 210.636 230.382 210.081 223.013 209.524C215.623 208.966 208.224 208.409 200.834 209.035C199.343 209.161 197.853 209.336 196.364 209.555C190.637 210.397 184.933 211.905 179.269 213.888C176.435 214.881 173.61 215.993 170.795 217.202C170.438 217.355 170.084 217.543 169.73 217.729C169.637 217.777 169.57 217.793 169.478 217.799C169.324 217.808 169.171 217.939 169.023 218.025C168.681 218.226 168.339 218.427 167.996 218.624C167.237 219.064 166.482 219.55 165.707 219.882C164.353 220.464 162.978 220.793 161.62 221.321C160.395 221.797 159.186 222.436 157.983 223.117C156.638 223.877 155.3 224.693 153.948 225.401C153.275 225.752 152.597 226.079 151.915 226.356C151.575 226.495 151.232 226.621 150.89 226.734C150.744 226.78 150.598 226.851 150.451 226.814C150.064 226.714 149.652 226.971 149.268 227.077C147.866 227.461 146.458 227.778 145.049 228.012C143.639 228.246 142.226 228.401 140.812 228.465C140.281 228.489 139.749 228.501 139.217 228.498C139.095 228.498 138.961 228.463 138.841 228.503C138.758 228.531 138.684 228.615 138.601 228.644C138.329 228.742 138.051 228.784 137.776 228.854C137.051 229.038 136.324 229.224 135.599 229.407C135.326 229.476 135.073 229.571 134.811 229.739C134.273 230.081 133.682 230.092 133.13 230.265C131.883 230.658 130.635 231.045 129.386 231.423C127.376 232.034 125.366 232.624 123.354 233.194C127.2 233.601 131.072 234.006 134.889 232.922C136.526 232.458 138.147 231.722 139.773 231.118C140.931 230.689 142.093 230.329 143.266 230.181C145.837 229.86 148.408 230.574 150.962 231.286C153.129 231.892 155.296 232.498 157.463 233.102C158.241 233.318 158.88 233.318 159.644 233.018C160.531 232.666 161.455 233.055 162.343 233.241C166.71 234.161 171.075 235.131 175.447 235.925C179.804 236.717 184.171 237.336 188.545 237.552C190.617 237.654 192.692 237.665 194.765 237.563C195.813 237.51 196.86 237.428 197.908 237.316C198.927 237.205 199.966 236.885 200.985 236.885C184.215 234.441 167.444 231.998 150.673 229.555C151.434 229.666 152.459 228.806 153.208 228.472C153.891 228.169 154.573 227.78 155.262 227.534C155.381 227.492 155.5 227.475 155.62 227.49C155.84 227.517 156.04 227.565 156.259 227.468C156.933 227.17 157.6 226.705 158.257 226.274C159.171 225.67 160.077 225.02 160.982 224.377ZM97.9978 343.229C95.7967 343.494 93.5916 343.551 91.3884 343.443C89.9304 343.372 88.4733 343.226 87.0184 343.025C86.2899 342.924 85.5624 342.809 84.8349 342.678C84.1581 342.559 83.4358 342.545 82.7798 342.203C82.1009 341.849 81.3496 341.825 80.6542 341.657C79.9268 341.482 79.1993 341.305 78.4718 341.128C77.0168 340.777 75.5619 340.425 74.1069 340.074C76.0482 337.438 78.4356 336.956 80.7163 336.322C84.4572 335.282 88.1618 333.655 91.791 331.457C85.5489 332.309 79.3276 333.825 73.1569 336.001C71.4743 336.593 69.7928 337.239 68.0936 337.566C67.7179 337.639 67.394 337.697 67.0401 337.944C66.4793 338.338 65.8491 338.128 65.2675 338.095C63.8322 338.015 62.3979 337.92 60.9637 337.785C58.1003 337.513 55.238 337.071 52.3985 336.218C51.4909 335.946 50.5855 335.629 49.6841 335.267C47.9156 334.553 46.1606 333.646 44.3703 333.226C40.8561 332.401 37.3087 333.472 33.8266 334.774C35.4895 334.756 37.1514 334.738 38.8144 334.723C40.9761 334.701 43.142 334.679 45.2955 335.068C46.7308 335.327 48.1578 335.769 49.5765 336.295C50.9632 336.81 52.3416 337.535 53.7313 337.982C56.5129 338.875 59.2986 339.709 62.0896 340.46C64.895 341.217 67.7045 341.889 70.5202 342.45C73.3215 343.01 76.129 343.461 78.9385 343.77C81.7097 344.075 84.4851 344.243 87.2616 344.237C89.978 344.23 92.6944 344.056 95.4046 343.666C96.2686 343.545 97.1327 343.333 97.9978 343.229ZM237.447 356.05C224.601 357.425 211.734 357.947 198.872 357.616C210.867 364.133 225.255 360.583 237.447 356.05Z" fill="url(#paint5_linear_20_390)"/>
<defs>
<linearGradient id="paint0_linear_20_390" x1="199.819" y1="-207.924" x2="16.299" y2="45.6294" gradientUnits="userSpaceOnUse">
<stop stop-color="#CF5C2B"/>
<stop offset="1" stop-color="#59173E"/>
</linearGradient>
<linearGradient id="paint1_linear_20_390" x1="193.476" y1="-75.0647" x2="-295.014" y2="438.289" gradientUnits="userSpaceOnUse">
<stop stop-color="#CF5C2B"/>
<stop offset="1" stop-color="#59173E"/>
</linearGradient>
<linearGradient id="paint2_linear_20_390" x1="181.776" y1="-26.095" x2="-306.714" y2="487.259" gradientUnits="userSpaceOnUse">
<stop stop-color="#CF5C2B"/>
<stop offset="1" stop-color="#59173E"/>
</linearGradient>
<linearGradient id="paint3_linear_20_390" x1="225.407" y1="-274.184" x2="-211.567" y2="272.562" gradientUnits="userSpaceOnUse">
<stop stop-color="#CF5C2B"/>
<stop offset="1" stop-color="#59173E"/>
</linearGradient>
<linearGradient id="paint4_linear_20_390" x1="197.074" y1="-114.18" x2="-239.9" y2="432.567" gradientUnits="userSpaceOnUse">
<stop stop-color="#CF5C2B"/>
<stop offset="1" stop-color="#59173E"/>
</linearGradient>
<linearGradient id="paint5_linear_20_390" x1="260.318" y1="-465.769" x2="-169.113" y2="49.5572" gradientUnits="userSpaceOnUse">
<stop stop-color="#CF5C2B"/>
<stop offset="1" stop-color="#59173E"/>
</linearGradient>
</defs>
</svg>
