<svg width="267" height="274" viewBox="0 0 267 274" fill="none" xmlns="http://www.w3.org/2000/svg">
<path d="M266.993 252.4C266.928 250.563 266.864 248.725 266.801 246.888C266.696 243.833 266.595 240.776 266.498 237.721C266.474 236.987 266.451 236.253 266.427 235.517C266.339 232.716 266.593 229.804 265.558 227.265C265.281 226.586 264.847 225.896 264.286 225.911C264.988 225.58 265.373 224.527 265.551 223.525C265.799 222.126 265.92 220.308 265.939 218.863C265.955 217.548 265.869 216.213 265.835 214.899C265.796 213.392 265.758 211.885 265.72 210.379C265.646 207.358 265.575 204.338 265.506 201.318C265.439 198.306 265.376 195.294 265.316 192.282C265.306 191.731 265.294 191.179 265.284 190.628C265.254 189.08 265.225 187.55 265.232 186.002C265.237 184.815 264.981 183.704 264.432 182.787C263.946 181.975 263.18 181.428 262.431 181.599C263.035 181.408 263.635 181.069 264.072 180.456C265.232 178.829 265.037 176.373 265.006 174.296C264.963 171.313 264.923 168.328 264.887 165.344C264.852 162.37 264.82 159.396 264.793 156.421C264.766 153.457 264.743 150.493 264.724 147.527C264.705 144.573 264.69 141.618 264.679 138.664C264.669 135.718 264.662 132.775 264.66 129.829C264.657 125.221 264.676 120.621 264.725 116.011C264.745 114.191 264.899 112.553 263.985 111.102C263.85 110.887 263.7 110.69 263.539 110.514C263.469 110.436 263.129 110.029 263.041 110.071C263.67 109.767 264.179 109.069 264.456 108.233C264.595 107.815 264.678 107.361 264.69 106.899C264.719 105.773 264.747 104.642 264.756 103.507C264.786 99.8271 264.84 95.999 264.907 92.2631C264.943 90.2741 264.983 88.285 265.027 86.2973C265.068 84.4785 264.511 82.9135 263.904 81.3124C264.445 81.0643 264.816 80.3402 264.969 79.5772C265.117 78.8401 265.041 78.1348 265.063 77.389C265.152 74.5518 265.188 71.693 265.26 68.8471C265.29 67.4148 265.321 65.9825 265.354 64.5502C265.362 64.2098 265.349 63.8521 265.387 63.516C265.411 63.3039 265.471 63.1136 265.463 62.8957C265.439 62.2193 265.271 61.462 265.08 60.8447C264.847 60.0932 264.462 59.4008 263.93 59.0532C263.995 58.8224 264.188 58.7286 264.351 58.632C265.067 58.2079 265.556 57.1723 265.606 56.0991C265.618 55.8366 265.581 55.5842 265.576 55.326C265.556 54.4764 265.626 53.598 265.649 52.7484C265.674 51.8339 265.7 50.9194 265.726 50.005C265.833 46.2071 265.95 42.4093 266.076 38.6128C266.324 31.1513 266.606 23.6912 266.925 16.2354C267.126 11.5346 264.609 7.45832 261.242 7.07609C177.187 -2.48418 92.9511 -2.24185 8.54595 7.10493C8.13824 7.14965 7.73465 7.25062 7.34142 7.4064C6.28798 7.82325 5.38975 8.70456 4.49774 9.55125C4.01758 10.0071 3.6823 10.8653 3.34909 11.5115C2.94862 12.2889 2.56366 13.0823 2.19319 13.89C1.06938 16.3421 -0.0709946 19.0019 0.0262784 22.0237C0.146318 25.7466 0.260149 29.4694 0.368805 33.1923C0.424685 35.1064 0.478502 37.0219 0.531277 38.9359C0.559218 39.9442 0.586117 40.9524 0.613023 41.9607C0.632684 42.7006 0.604747 43.4781 0.679254 44.2123C0.745483 44.8642 0.640966 45.5609 0.636826 46.2273C0.631652 47.0048 0.666833 47.7837 0.742375 48.5539C0.783768 48.9708 0.838614 49.3948 0.986593 49.7612C1.46261 50.9411 2.64748 51.0695 3.40393 51.919C2.66817 52.0561 1.94691 52.3402 1.2691 52.76C1.17079 52.8205 1.06834 52.8898 1.00315 53.0095C0.915189 53.171 0.913122 53.3888 0.913122 53.5908C0.9214 55.6231 0.928647 57.6555 0.936925 59.6878C0.94003 60.5389 0.860343 61.4692 1.03316 62.2899C1.20804 63.1179 1.12733 64.1131 1.14492 64.9728C1.22357 68.9438 1.296 72.9161 1.36223 76.8871C1.40259 79.3233 1.43984 81.761 1.47606 84.1986C1.49262 85.3453 1.53402 86.4993 1.52781 87.646C1.52677 87.8321 1.50297 87.9446 1.46675 88.1292C1.30015 88.9672 1.50711 89.8644 1.83101 90.5784C2.51916 92.0958 3.7537 93.104 5.03998 93.1992C4.41806 93.5094 3.79509 93.8209 3.17317 94.131C2.74579 94.3445 2.28529 94.594 2.04729 95.1335C1.91276 95.4379 1.86723 95.7999 1.83101 96.1547C1.34464 100.905 1.54437 105.727 1.68096 110.499C1.81756 115.258 1.82273 120.018 1.83825 124.781C1.8517 128.791 1.85895 132.8 1.85998 136.81C1.86102 140.827 1.85584 144.846 1.84343 148.863C1.83722 151.752 1.78547 154.647 1.80824 157.536C1.81134 157.976 1.88068 158.333 1.80514 158.77C1.61473 159.872 1.58265 161.015 1.87654 162.091C2.21906 163.343 3.01795 164.382 3.96791 164.581C3.36565 164.783 2.71061 165.032 2.34842 165.734C2.1042 166.207 2.03694 166.81 1.99037 167.389C1.91172 168.366 1.87137 169.348 1.87033 170.332C1.8693 171.17 1.99348 172.08 1.85378 172.902C1.5661 174.599 1.6644 176.397 1.64577 178.137C1.62094 180.478 1.59507 182.819 1.5661 185.158C1.51643 189.206 1.46054 193.253 1.39845 197.301C1.33636 201.355 1.26807 205.41 1.19356 209.464C1.19356 210.37 1.16044 211.279 1.14285 212.183C1.1294 212.89 1.21219 213.754 1.09215 214.441C1.04248 214.726 0.967971 214.984 0.933822 215.282C0.852072 216.006 0.817922 216.773 1.02075 217.467C1.25772 218.279 1.82066 218.888 2.44362 219.006C1.88172 218.827 1.38086 219.62 1.26289 220.406C1.15941 221.1 1.21529 221.827 1.10974 222.514C1.06524 222.804 1.04247 223.102 1.0135 223.395C0.956584 223.972 0.908982 224.552 0.870694 225.132C0.794117 226.293 0.754795 227.458 0.75376 228.624C0.75376 228.823 0.755826 229.029 0.817915 229.208C0.875865 229.375 0.980385 229.501 1.0849 229.618C1.82066 230.435 2.68887 231.021 3.60572 231.318C2.88031 231.65 2.15491 231.982 1.4295 232.315C1.25979 232.393 1.08387 232.475 0.954515 232.645C0.714437 232.96 0.695812 233.473 0.692708 233.933C0.686499 234.947 0.685466 235.961 0.675117 236.975C0.670978 237.345 0.581979 237.669 0.568526 238.036C0.5499 238.543 0.542653 239.052 0.530235 239.562C0.478494 241.595 0.424685 243.629 0.368805 245.663C0.364666 245.806 0.36156 245.947 0.357421 246.09C0.246695 250.17 0.128729 254.251 0.00558551 258.342C-0.13515 263.009 2.40016 267.009 5.74263 267.354C91.1515 276.173 175.398 276.249 258.456 267.38C259.818 267.234 261.12 266.452 262.131 265.173C262.342 264.906 262.616 264.654 262.81 264.361C264.041 262.496 265.547 259.581 266.224 257.209C266.676 255.633 267.055 254.128 266.993 252.4Z" fill="url(#paint0_linear_20_413)"/>
<path d="M261.277 261.476C178.222 270.347 93.9672 270.275 8.56355 261.462C5.22108 261.116 2.68577 257.106 2.8203 252.447C2.85134 251.408 2.86169 250.37 2.87204 249.331C2.89273 248.48 2.83064 247.543 2.94447 246.72C2.98587 246.418 3.08935 246.172 3.1204 245.869C3.15144 245.581 3.17214 245.292 3.19284 244.99C3.24458 244.268 3.28597 243.547 3.32736 242.826C3.46189 240.792 3.60676 238.758 3.74129 236.725C3.75164 236.537 3.76198 236.35 3.77233 236.176C3.79303 235.859 3.82408 235.513 3.96895 235.268C4.09313 235.037 4.28974 234.922 4.48636 234.821C6.86645 233.508 9.49489 232.7 12.0612 232.729C14.8656 232.744 17.5147 232.296 20.2777 231.748C21.3953 231.532 22.5129 231.316 23.6305 231.099H22.5129C20.0087 231.085 17.494 230.955 15.0001 230.681C13.5617 230.522 12.1233 230.32 10.6953 230.061C9.9502 229.945 6.41112 229.772 4.72436 228.921C4.18626 228.647 3.82407 228.315 3.81373 227.883C3.77233 226.267 3.77233 224.666 3.83442 223.051C3.85512 222.459 3.74129 221.161 3.94825 220.642C4.22765 219.949 4.08278 220.31 4.64159 219.993C5.21074 219.661 5.6764 219.271 6.2973 219.098C6.92854 218.925 7.58048 218.839 8.23241 218.752C10.5401 218.42 12.8477 218.103 15.1657 217.786C14.5759 217.743 13.986 217.685 13.3962 217.627C10.6953 217.411 7.98405 217.166 5.28317 216.935C4.84854 216.891 4.42427 216.863 3.98964 216.819C3.81372 216.805 3.60676 216.762 3.52398 216.545C3.49293 216.444 3.49293 216.315 3.49293 216.199C3.57572 213.733 3.6585 211.266 3.74129 208.8C3.9379 202.741 4.12417 196.669 4.21731 190.611C4.24835 189.774 4.2587 188.952 4.26905 188.13C4.34149 182.966 4.10347 177.716 4.56914 172.581C4.61053 172.105 4.87959 166.955 4.8589 166.955C13.2513 166.104 21.6747 165.672 30.0981 165.7C30.7708 165.7 31.4434 165.701 32.1161 165.715C31.8987 165.686 31.6711 165.657 31.4538 165.628L31.4434 165.614C28.132 165.167 24.8102 164.691 21.5092 164.186C19.7293 163.912 17.9597 163.638 16.2005 163.277C14.7621 162.989 13.3548 162.513 11.9267 162.195C11.4714 162.08 11.0471 162.152 10.5918 162.181C9.26723 162.224 7.83918 161.489 6.556 161.114C6.45252 161.085 6.35938 161.056 6.2559 161.013C6.00755 160.926 5.75919 160.796 5.55222 160.594C5.0969 160.104 4.95203 159.282 4.91063 158.46C4.88994 158.186 4.88994 157.912 4.88994 157.637C4.88994 155.474 4.73472 153.397 4.64159 151.248C4.5381 148.752 4.66228 146.271 4.66228 143.79C4.68297 137.761 4.68298 131.746 4.67263 125.717C4.67263 124.318 4.66228 122.919 4.66228 121.52C4.65193 116.904 4.63124 112.303 4.60019 107.701C4.58984 106.115 4.70367 104.485 4.37253 102.956C4.03104 101.427 4.26905 99.3931 4.40357 97.8209C4.43462 97.4314 4.48636 97.0276 4.66228 96.7247C4.82785 96.465 5.0762 96.3208 5.31421 96.2198C7.17689 95.3688 9.18444 95.4698 11.1403 95.3544C13.0547 95.2534 14.9691 94.9361 16.8525 94.4024C17.1112 94.3447 17.3802 94.2726 17.6389 94.186C14.5966 93.7966 11.5438 93.4071 8.59459 92.3253C7.66325 91.9791 6.71122 91.5464 5.92476 90.7964C5.76954 90.6665 5.62466 90.5079 5.49014 90.3492C4.78646 89.5126 4.25869 88.2722 4.238 86.974C4.22765 86.8153 4.24835 86.6711 4.26905 86.5268C4.2794 86.397 4.30009 86.2528 4.33114 86.1085C4.48636 85.272 4.37253 84.32 4.36218 83.4545L4.30009 79.3437C4.26905 76.8339 4.238 74.3241 4.19661 71.8143C4.15522 69.3478 4.14487 66.9245 3.88616 64.4869C3.75164 63.2753 3.81372 62.0348 3.77233 60.8087C3.72059 59.3086 3.74129 57.8085 3.87581 56.3084C3.9379 55.5007 4.04138 54.6641 4.31044 53.9285C4.31044 53.9285 4.31044 53.914 4.32079 53.914C4.60019 53.164 5.06585 52.4428 5.71779 52.4861C6.69052 52.5582 7.6736 52.2841 8.64633 52.1543C10.8091 51.8514 12.9822 51.6062 15.1554 51.4187C19.6051 51.0148 24.0652 50.7984 28.5356 50.6975C30.7087 50.6542 32.8922 50.6398 35.0653 50.6254H35.3861C37.3419 50.6109 39.3184 50.5244 41.2742 50.6542C37.0728 50.3513 32.8818 49.9619 28.6908 49.457C26.5177 49.183 24.3342 48.8945 22.1611 48.5771C18.4461 48.029 14.5966 48.0867 10.9643 47.5963C8.93609 47.3078 6.89749 47.1492 4.86924 47.1059C4.75541 47.0915 4.64158 47.0915 4.52775 47.0915C4.39323 47.077 4.24835 47.077 4.15522 46.9472C4.07243 46.8318 4.05173 46.6587 4.03104 46.5001C3.69989 43.4278 3.45154 40.2689 3.38945 37.1821C3.3377 34.6435 3.28597 32.0904 3.21353 29.5518C3.11005 25.0804 2.98587 20.6089 2.84099 16.1374C2.69612 11.4785 5.21072 7.46858 8.54285 7.10797C92.9531 -2.23881 177.187 -2.48402 261.246 7.07913C264.609 7.45416 267.124 11.5362 266.927 16.2384C266.658 22.4263 266.42 28.6287 266.203 34.831C266.11 37.5283 266.027 40.24 265.934 42.9518C265.882 44.5817 265.841 46.226 265.789 47.8704C265.758 48.7214 265.727 49.457 265.551 50.2648C265.23 51.6783 265.302 53.2217 265.054 54.6785C264.961 55.1401 264.857 55.6305 264.609 55.9623C264.361 56.2796 264.019 56.4094 263.688 56.5104C263.657 56.5248 263.626 56.5248 263.595 56.5392C259.787 57.7941 255.906 58.6019 251.995 58.9769C251.27 59.049 250.556 59.0923 249.832 59.1356C254.344 59.7558 258.866 60.376 263.378 60.9963C263.792 61.054 264.247 61.1405 264.547 61.5444C264.775 61.8617 264.868 62.3088 264.94 62.7416C265.023 63.1887 265.075 63.6214 265.126 64.0686C265.302 65.612 265.313 67.1553 265.313 68.7564C265.178 71.7133 264.982 74.627 264.547 77.5407C264.34 78.9254 263.709 79.0263 263.026 78.8677C262.591 78.7523 262.126 78.5359 261.743 78.4638C260.677 78.2619 259.601 78.1032 258.524 77.9878C256.372 77.7426 254.209 77.6849 252.046 77.6705C250.639 77.6705 249.232 77.6993 247.824 77.7282C241.967 77.8436 236.11 77.959 230.263 78.0599C230.336 78.0888 230.419 78.1032 230.491 78.132C237.062 80.1081 243.933 79.0408 250.618 80.2524C253.309 80.7428 255.999 81.5938 258.711 81.3774C259.714 81.2909 260.76 81.0457 261.743 81.4351C262.633 81.7669 263.16 82.6756 263.636 83.6997C264.143 84.8104 264.309 86.2095 264.371 87.5942C264.423 88.3875 264.433 89.1809 264.464 89.9165C264.64 94.3303 264.402 98.7296 264.216 103.129C264.174 103.908 264.143 104.687 264.112 105.466C264.092 106.028 264.05 106.634 263.781 107.052C263.585 107.341 263.305 107.485 263.026 107.586C263.015 107.586 262.995 107.6 262.984 107.6C262.395 107.817 261.732 107.99 261.122 107.932C260.915 107.918 260.739 107.846 260.542 107.86C259.808 107.961 259.052 108.307 258.307 108.451C257.583 108.596 256.858 108.682 256.124 108.711C256.413 108.812 256.703 108.899 256.993 109C259.011 109.649 261.018 110.312 263.036 110.961C263.295 111.048 263.574 111.149 263.771 111.394C264.557 112.418 264.371 115.909 264.454 117.236C264.599 119.789 264.671 122.356 264.692 124.924C264.713 126.15 264.713 127.361 264.713 128.587C264.713 130.708 264.692 132.828 264.671 134.948C264.661 136.434 264.65 137.905 264.64 139.391C264.609 145.593 264.547 151.781 264.516 157.984C264.495 160.739 264.485 163.508 264.485 166.263C264.485 169.22 264.764 174.297 263.667 176.951C263.357 177.716 262.819 178.148 262.198 178.408C261.66 178.639 261.06 178.725 260.501 178.783C251.353 179.62 242.216 180.485 233.068 181.336C233.026 181.336 232.975 181.351 232.933 181.351H232.892C232.861 181.365 232.84 181.365 232.809 181.365C233.006 181.365 233.202 181.379 233.399 181.379C243.716 181.668 254.023 182.519 264.288 183.904C264.775 183.976 264.92 185.447 265.002 185.923C265.24 187.423 265.354 188.967 265.437 190.495C265.458 190.755 265.478 191.029 265.489 191.289C265.758 196.193 265.83 201.112 265.872 206.016V206.261C265.882 206.737 265.892 207.199 265.903 207.66C265.913 208.208 265.923 208.742 265.934 209.276C265.965 212.117 266.089 215.233 265.872 218.031C265.799 218.896 265.675 219.762 265.468 220.598C265.375 220.973 265.282 221.478 265.106 221.781C264.609 222.632 263.936 223.123 263.212 223.454C262.964 223.584 262.705 223.685 262.457 223.772C260.76 224.406 259.042 224.911 257.303 225.301C257.479 225.344 257.645 225.387 257.821 225.445C259.642 225.907 261.474 226.397 263.305 226.887C263.957 227.06 264.65 227.335 265.189 227.926C265.468 228.243 265.696 228.647 265.851 229.094C266.058 229.657 266.172 230.248 266.254 230.854C266.275 231.07 266.296 231.272 266.317 231.489C266.492 233.551 266.254 235.585 266.42 237.633C266.513 238.686 266.565 239.725 266.596 240.792C266.668 242.826 266.73 244.874 266.803 246.908C266.865 248.74 266.927 250.572 266.989 252.404C267.165 257.091 264.63 261.13 261.277 261.476Z" fill="url(#paint1_linear_20_413)"/>
<path d="M265.934 42.952C265.882 44.5819 265.841 46.2262 265.789 47.8706C265.758 48.7216 265.727 49.4572 265.551 50.2649C265.23 51.6785 265.302 53.2219 265.054 54.6787C264.961 55.1403 264.857 55.6307 264.609 55.9625C264.361 56.2798 264.019 56.4096 263.688 56.5106C263.657 56.525 263.626 56.525 263.595 56.5394C259.787 57.7943 255.906 58.6021 251.995 58.9771C251.27 59.0492 250.556 59.0925 249.832 59.1357C254.344 59.756 258.866 60.3762 263.378 60.9964C263.792 61.0541 264.247 61.1407 264.547 61.5446C264.775 61.8619 264.868 62.309 264.94 62.7418C265.023 63.1889 265.075 63.6216 265.126 64.0688C259.249 63.5351 253.35 63.2899 247.338 63.2322C204.3 62.785 161.324 66.1747 118.565 72.9107C97.1855 76.2715 75.8475 79.8054 54.4061 82.1998C37.911 84.0461 20.971 86.6857 4.26902 86.527C4.27937 86.3972 4.30007 86.253 4.33111 86.1087C4.48633 85.2721 4.3725 84.3201 4.36215 83.4547L4.30007 79.3438C11.1713 78.4928 18.0528 77.988 24.9758 77.2812C37.1659 76.0263 49.3354 74.5551 61.5049 72.8386C104.874 66.7228 147.964 58.227 191.551 55.2701C194.728 55.0682 197.905 54.8662 201.092 54.6931C192.958 54.0585 184.814 53.4527 176.68 52.9767C165.773 52.3276 154.835 51.491 143.918 51.6064C132.535 51.7506 121.193 52.9046 109.831 53.3229C87.2409 54.1739 64.6922 55.9913 42.0813 56.3952C30.9053 56.5971 19.3153 57.5347 8.25307 54.9239C6.93885 54.6066 5.62463 54.2748 4.32076 53.9142C4.60016 53.1642 5.06583 52.443 5.71777 52.4863C6.6905 52.5584 7.67358 52.2843 8.64631 52.1545C10.8091 51.8516 12.9822 51.6064 15.1553 51.4189C19.6051 51.015 24.0651 50.7986 28.5356 50.6977C30.7087 50.6544 32.8921 50.64 35.0653 50.6255H35.3861C37.3419 50.6111 39.3184 50.5246 41.2742 50.6544C37.0728 50.3515 32.8818 49.962 28.6908 49.4572C26.5176 49.1831 24.3342 48.8947 22.1611 48.5773C18.4461 48.0292 14.5965 48.0869 10.9643 47.5965C8.93606 47.308 6.89746 47.1494 4.86921 47.1061C4.75538 47.0917 4.64156 47.0917 4.52773 47.0917C4.3932 47.0772 4.24833 47.0772 4.15519 46.9474C4.07241 46.832 4.05171 46.6589 4.03101 46.5003C3.69987 43.428 3.45151 40.2691 3.38942 37.1823C3.33768 34.6437 3.28594 32.0906 3.2135 29.552C7.07338 28.8596 10.9436 28.2971 14.8345 28.0375C27.6042 27.2009 40.4256 27.3884 53.2057 26.523C75.3405 25.0373 97.7754 22.715 119.931 24.5757C141.921 26.422 163.807 30.1867 185.735 33.0426C208.615 36.0284 231.516 38.7401 254.406 41.524C258.245 41.9855 262.094 42.476 265.934 42.952ZM265.002 185.923C264.92 185.447 264.775 183.976 264.288 183.904C254.023 182.519 243.716 181.668 233.399 181.38C233.202 181.38 233.006 181.365 232.809 181.365C232.84 181.365 232.861 181.365 232.892 181.351H232.933C232.975 181.351 233.026 181.336 233.068 181.336C242.216 180.485 251.353 179.62 260.501 178.783C261.06 178.726 261.66 178.639 262.198 178.408C262.819 178.149 263.357 177.716 263.667 176.951C264.764 174.297 264.485 169.22 264.485 166.263C264.485 163.508 264.495 160.739 264.516 157.984C222.378 156.195 180.261 153.599 138.226 149.474C140.017 148.868 141.807 148.276 143.597 147.699C159.575 142.55 175.656 139.752 192.037 138.641C216.262 137.011 240.612 138.511 264.671 134.949C264.692 132.828 264.713 130.708 264.713 128.588C239.835 129.684 214.907 128.285 190.03 129.366C174.352 130.059 158.85 132.381 143.452 136.579C131.914 139.709 120.459 143.545 108.879 146.329C94.1742 144.627 79.4694 142.723 64.775 140.56C53.661 138.93 42.547 137.141 31.4641 135.151C30.8742 135.05 30.2844 134.977 29.7049 134.876C36.069 132.612 42.5574 130.91 48.9939 129.525C66.6066 125.703 84.509 124.001 102.256 121.823C140.317 117.149 178.45 113.442 216.583 110.154C232.602 108.769 248.58 107.586 264.216 103.129C264.402 98.7298 264.64 94.3304 264.464 89.9167C264.433 89.1811 264.423 88.3877 264.371 87.5944C250.608 85.099 236.69 85.3298 222.709 86.152C203.296 87.3059 183.883 88.6474 164.49 90.5369C126.264 94.2727 87.7376 97.6912 49.7597 105.033C34.1029 108.062 19.0256 113.053 4.66225 121.52C4.66225 122.919 4.6726 124.318 4.6726 125.717C4.68295 131.746 4.68295 137.761 4.66225 143.791C4.66225 146.271 4.53808 148.752 4.64156 151.248C4.73469 153.397 4.88991 155.474 4.88991 157.638C4.88991 157.912 4.88991 158.186 4.91061 158.46C8.46004 159.715 12.1337 160.537 15.6313 161.547C25.5863 164.446 35.593 166.451 45.6722 168.355C66.172 172.22 86.7131 175.61 107.306 178.394C147.83 183.889 188.602 186.63 229.28 188.808C241.326 189.443 253.381 190.005 265.437 190.496C265.354 188.967 265.24 187.423 265.002 185.923ZM265.851 229.094C265.696 228.647 265.468 228.243 265.189 227.926C264.65 227.335 263.957 227.061 263.305 226.888C261.474 226.397 259.642 225.907 257.821 225.445C257.645 225.387 257.479 225.344 257.303 225.301C259.042 224.911 260.76 224.407 262.457 223.772C262.705 223.685 262.964 223.584 263.212 223.455C263.936 223.123 264.609 222.632 265.106 221.781C265.282 221.479 265.375 220.974 265.468 220.599C265.675 219.762 265.799 218.897 265.872 218.031C266.089 215.233 265.965 212.117 265.934 209.276C265.923 208.742 265.913 208.208 265.903 207.66C232.333 209.377 198.826 210.343 165.235 208.021C128.365 205.482 91.494 200.607 54.7372 195.962C44.2338 194.635 33.7614 193.121 23.2476 192.082C17.1629 191.476 10.6228 190.568 4.21728 190.611C4.12415 196.669 3.93788 202.742 3.74126 208.8C8.24273 210.487 12.8787 211.67 17.1525 212.665C26.6108 214.858 36.0483 216.589 45.5894 217.887C64.2368 220.454 82.9154 222.56 101.594 224.767C112.253 226.037 122.911 227.263 133.57 228.388C125.809 229.311 118.047 230.162 110.266 230.768C90.2315 232.34 70.2285 234.85 50.1736 236.191C34.672 237.244 19.2325 236.725 3.77231 236.177C3.76196 236.35 3.75161 236.537 3.74126 236.725C3.60674 238.759 3.46186 240.792 3.32733 242.826C3.28594 243.547 3.24455 244.269 3.19281 244.99C17.9597 248.581 33.2543 248.408 48.1868 247.5C68.2623 246.273 88.1515 243.403 108.03 239.408C128.975 235.181 150.458 233.696 171.589 231.907C171.972 231.878 172.365 231.849 172.748 231.821C186.553 232.729 200.378 233.277 214.234 233.263C231.609 233.234 248.952 232.657 266.254 230.854C266.172 230.248 266.058 229.657 265.851 229.094Z" fill="url(#paint2_linear_20_413)"/>
<path d="M59.8244 246.879C58.3166 247.913 56.9517 248.381 55.5764 248.29C55.9614 248.674 56.3163 249.095 56.575 249.735C57.051 250.914 57.0966 252.33 56.575 253.498C55.5174 255.868 53.2884 255.708 51.5748 254.993C49.8963 254.293 48.5128 251.518 48.5583 249.112C48.5924 247.319 49.5734 246.064 50.8318 245.885C49.7328 244.91 48.6876 243.738 47.7946 242.507C45.3514 239.142 43.6181 233.266 44.7802 228.64C45.3172 226.502 47.1489 224.52 48.9122 225.454C51.0646 226.592 52.9532 228.278 54.9028 229.994C55.4264 230.455 55.9365 230.92 56.4881 231.319C56.7582 231.512 57.7806 232.097 57.019 231.665C59.1414 232.872 60.5943 234.166 61.7367 236.968C63.0644 240.224 62.4373 245.088 59.8244 246.879ZM41.3818 218.927C41.2763 218.71 41.1904 218.487 41.1159 218.249C40.794 217.509 40.3604 216.92 39.8161 216.483C39.2511 216.038 38.6416 215.814 37.9876 215.811C37.2487 215.919 36.87 216 36.2708 216.387C35.7162 216.671 35.3736 217.059 35.0011 217.741C34.3626 218.912 34.2022 220.701 34.494 222.041C34.7196 223.078 35.1656 223.939 35.7927 224.597C36.3919 225.226 37.2084 225.729 37.9876 225.654C38.4771 225.607 38.9769 225.537 39.4529 225.367C41.3849 224.679 42.5305 221.289 41.3818 218.927ZM221.051 185.671C220.561 183.245 218.85 181.511 217.007 181.488C216.357 181.479 215.807 181.232 215.086 181.232C213.929 181.232 212.94 181.89 211.907 182.482C210.222 183.445 208.657 184.707 207.788 186.988C206.958 189.164 207.142 192.205 208.566 193.836C208.352 194.129 208.135 194.428 207.891 194.712C206.846 195.928 207.644 198.805 209.072 198.587C209.555 198.514 210.044 198.697 210.534 198.709C211.219 198.725 211.861 198.538 212.505 198.231C213.022 197.983 213.575 197.774 214.072 197.458C214.442 197.222 214.726 196.955 214.979 196.509C215.058 196.371 215.638 195.178 215.272 195.675C215.447 195.437 215.549 195.16 215.6 194.873C216.798 194.412 217.712 193.744 218.564 192.666C218.751 192.479 218.937 192.291 219.124 192.104C220.644 190.581 221.582 188.296 221.051 185.671ZM215.681 174.384C215.315 174.258 214.894 174.038 214.521 174.106C214.111 174.181 213.685 174.567 213.312 174.811C212.893 175.086 212.749 175.874 212.924 176.418C213.121 177.024 213.568 177.299 214.042 177.162C214.408 177.057 214.869 177.018 215.195 176.758C215.499 176.517 215.712 176.017 215.927 175.647C216.173 175.226 216.125 174.535 215.681 174.384ZM224.569 159.053C224.465 158.701 224.358 158.352 224.247 158.004C221.869 155.732 219.962 155.499 218.527 157.3C218.235 157.671 217.968 158.101 217.77 158.574C216.934 160.576 217.303 163.518 218.886 164.661C219.713 165.258 220.661 165.512 221.582 165.134C222.06 164.938 222.521 164.613 222.981 164.346C223.214 164.102 223.447 163.857 223.68 163.613C224.016 163.189 224.254 162.686 224.393 162.105C224.668 161.225 224.844 159.974 224.569 159.053ZM215.107 63.9779C214.935 62.9711 214.764 62.022 214.288 61.1854C213.771 60.2766 213.022 59.7141 212.311 59.1169C211.724 58.6236 211.154 58.0986 210.492 57.8015C209.804 57.4928 209.002 57.4885 208.276 57.4322C207.015 57.3341 206.203 58.4433 205.907 59.8223C204.098 57.5462 201.321 56.248 199.128 55.5917C196.77 54.8849 190.879 55.195 191.362 60.3718C191.742 64.4322 193.922 66.8684 196.38 68.9441C198.761 70.9548 200.854 72.5111 203.337 72.1087C205.368 72.4318 207.861 72.8443 208.836 69.6955C209.106 68.8258 209.157 68.0065 209.079 67.2218C209.579 67.7296 210.079 68.2416 210.695 68.4724C211.553 68.794 212.433 68.4883 213.292 68.3166C214.721 68.0325 215.393 65.6482 215.107 63.9779ZM186.753 66.6463C186.235 65.9568 185.735 65.1924 185.137 64.6298C184.407 63.9432 183.672 63.8192 182.82 63.6187C182.096 63.4485 181.319 63.1283 180.588 63.2465C179.86 63.3648 179.345 64.0125 178.821 64.65C178.552 64.9789 178.456 65.5602 178.554 66.0232C178.722 66.8151 178.892 67.6603 179.334 68.2589C179.894 69.0191 180.855 69.3292 181.58 69.7302C182.298 70.1268 182.952 70.5509 183.743 70.5394C184.528 70.5278 185.349 70.1773 186.113 69.948C187.189 69.6249 187.508 67.6488 186.753 66.6463ZM213.588 90.2801C213.482 89.2012 213.021 88.4165 212.475 87.6766C211.716 86.651 210.776 86.3813 209.792 86.0092C208.984 85.7034 208.112 86.1346 207.608 87.0203C207.076 87.9564 207.067 89.1132 207.446 90.1546C207.584 90.5354 207.723 90.9177 207.863 91.2999C208.174 92.1553 208.589 92.7712 209.165 93.3222C209.726 93.8573 210.334 94.2439 211.032 94.2857C211.819 94.3333 212.652 93.8183 213.129 92.9789C213.586 92.174 213.686 91.2682 213.588 90.2801ZM161.875 181.051C158.5 178.42 152.894 179.232 150.222 182.773C148.538 185.004 148.455 189.173 150.222 191.39C154.118 196.275 160.957 194.191 163.426 188.142C163.474 188.082 163.521 188.022 163.568 187.963C165.456 185.589 164.113 181.642 161.875 181.051ZM143.447 177.195C142.501 176.503 141.733 175.949 140.608 176.268C139.875 176.475 139.127 176.791 138.421 177.133C137.508 177.575 136.871 178.684 137.022 180.045C137.177 181.452 137.946 182.18 138.941 182.346C139.688 182.47 140.481 182.574 141.234 182.546C142.345 182.506 143 181.661 143.784 180.742C144.583 179.804 144.34 177.85 143.447 177.195ZM39.8761 44.1664C38.3632 41.1821 35.1284 41.7605 33.1902 43.5707C32.4089 44.3006 31.4982 45.215 30.8163 46.1396C30.2182 46.9503 29.9232 47.9066 29.7442 48.9869C29.7008 49.4254 29.6573 49.8639 29.6138 50.3024C29.6935 49.8019 29.6894 49.8495 29.5993 50.4438C29.2527 52.8208 30.3548 54.9873 32.1978 55.0782C32.3095 55.084 32.3872 55.0854 32.4451 55.084C32.4772 55.0955 32.5144 55.1099 32.562 55.1258C33.6258 55.485 34.6482 55.2643 35.6106 54.5835C36.2522 54.1306 36.9124 53.5723 37.5209 53.0401C39.6061 51.2126 41.5288 47.4262 39.8761 44.1664ZM27.1634 46.0762C26.3159 46.4166 25.5025 46.8204 24.9365 47.7941C24.4553 48.6206 24.0041 49.46 23.6191 50.376C23.0179 51.8083 23.3356 53.8853 24.4511 54.6859C25.607 55.5153 26.9171 55.0335 27.6239 53.555C27.7667 53.2565 27.9178 52.968 28.0699 52.678C28.0833 52.6593 28.0906 52.6478 28.1092 52.6204C28.2106 52.4703 28.3048 52.3117 28.4052 52.1602C28.7932 51.576 29.0612 51.0193 29.2444 50.2534C29.3251 49.9158 29.4058 49.5798 29.5 49.248C30.0267 47.3844 28.4579 45.5555 27.1634 46.0762ZM52.324 32.0459C51.7093 31.9045 50.9756 31.7834 50.4189 32.2709C50.0339 32.6084 49.7514 33.1161 49.4513 33.5777C49.0219 34.2369 48.8418 35.2653 49.2164 36.0543C49.5993 36.8606 50.2316 37.1707 50.9156 36.9933C51.3409 36.8837 51.877 36.8361 52.2454 36.513C52.8104 36.0183 53.0898 35.2581 53.3236 34.4359C53.5823 33.5229 53.0318 32.2074 52.324 32.0459ZM114.355 102.846C114.421 102.689 114.486 102.529 114.539 102.359C115.211 100.227 115.028 97.7705 113.405 96.4839C113.184 96.3079 112.956 96.1666 112.726 96.031C111.074 94.1818 109.243 93.677 107.034 93.9063C104.891 94.127 102.995 95.6069 101.06 96.7854C98.3797 98.4182 97.6015 103.491 98.6374 106.829C98.9571 107.859 99.4166 108.727 99.9619 109.448C98.3 110.459 96.7819 111.654 95.5826 112.795C94.9327 113.413 94.4432 114.109 94.0831 114.841C92.654 116.561 92.0725 118.877 93.4446 121.997C96.042 127.905 103.539 126.343 107.444 124.318C109.81 123.091 112.508 121.358 113.749 118.175C115.137 114.612 114.108 110.331 111.626 108.346C112.959 107.073 113.969 105.326 114.355 102.846ZM88.0367 116.637C87.3837 116.43 87.006 116.868 86.4648 117.226C86.4534 117.233 86.3882 117.272 86.3458 117.298C86.2868 117.327 86.1906 117.374 86.174 117.381C85.9846 117.467 85.7911 117.534 85.5955 117.592C84.7418 117.844 84.3382 119.222 84.657 120.248C85.0088 121.378 85.9308 121.713 86.7121 121.188C87.1571 120.889 87.5555 120.51 87.9415 120.086C88.3926 119.59 88.9132 118.964 88.8552 118.095C88.8117 117.449 88.5406 116.797 88.0367 116.637ZM79.6195 109.672C79.5025 109.601 79.3825 109.541 79.2645 109.471C77.438 107.551 74.6989 108.652 73.1259 110.64C71.9483 112.128 70.988 113.956 70.7334 116.129C70.5513 117.684 70.6827 119.121 71.5437 120.291C72.2991 121.318 73.5637 121.88 74.6068 121.391C77.0624 120.24 80.4059 117.899 80.7226 114.112C80.7567 113.975 80.7878 113.837 80.8261 113.7C81.1976 112.366 80.5974 110.269 79.6195 109.672ZM250.563 246.327C250.349 245.004 249.603 243.807 248.756 243.132C247.192 241.887 245.284 242.359 243.987 243.967C243.324 244.791 242.661 245.613 241.997 246.436C240.659 248.097 240.656 251.064 241.713 252.921C242.815 254.859 244.814 255.428 246.402 254.194C247.187 253.584 247.971 252.973 248.756 252.363C250.329 251.139 250.938 248.639 250.563 246.327Z" fill="#EB924D"/>
<path d="M60.6243 244.564C59.1166 245.598 57.7516 246.065 56.3774 245.975C56.7623 246.358 57.1173 246.779 57.376 247.42C57.852 248.598 57.8975 250.015 57.376 251.183C56.3184 253.553 54.0894 253.393 52.3757 252.677C50.6973 251.978 49.3137 249.203 49.3592 246.797C49.3934 245.004 50.3744 243.749 51.6328 243.57C50.5338 242.595 49.4886 241.422 48.5955 240.192C46.1523 236.827 44.419 230.95 45.5811 226.325C46.1182 224.187 47.9498 222.205 49.7131 223.138C51.8645 224.276 53.7531 225.963 55.7037 227.679C56.2273 228.139 56.7365 228.605 57.2891 229.003C57.5581 229.197 58.5816 229.782 57.8199 229.349C59.9423 230.557 61.3952 231.851 62.5377 234.653C63.8643 237.909 63.2372 242.771 60.6243 244.564ZM42.1817 216.612C42.0762 216.395 41.9903 216.172 41.9158 215.934C41.5939 215.194 41.1604 214.605 40.616 214.168C40.051 213.722 39.4415 213.499 38.7875 213.496C38.0487 213.604 37.6699 213.685 37.0708 214.071C36.5161 214.356 36.1736 214.744 35.801 215.426C35.1636 216.597 35.0022 218.386 35.294 219.726C35.5196 220.763 35.9656 221.624 36.5927 222.282C37.1918 222.911 38.0083 223.414 38.7875 223.339C39.277 223.291 39.7768 223.222 40.2528 223.052C42.1848 222.364 43.3314 218.973 42.1817 216.612ZM221.481 184.429C220.99 182.002 219.28 180.269 217.437 180.246C216.787 180.237 216.236 179.992 215.515 179.992C214.358 179.992 213.37 180.648 212.336 181.241C210.651 182.204 209.087 183.466 208.218 185.747C207.388 187.924 207.572 190.964 208.996 192.597C208.782 192.89 208.564 193.188 208.32 193.472C207.275 194.688 208.074 197.566 209.502 197.348C209.983 197.275 210.473 197.458 210.963 197.469C211.648 197.485 212.291 197.299 212.934 196.992C213.452 196.744 214.004 196.535 214.501 196.219C214.871 195.982 215.155 195.715 215.409 195.27C215.487 195.131 216.068 193.938 215.701 194.436C215.876 194.198 215.979 193.921 216.029 193.634C217.228 193.174 218.142 192.505 218.993 191.427C219.18 191.24 219.367 191.052 219.554 190.865C221.072 189.339 222.012 187.054 221.481 184.429ZM216.11 173.142C215.745 173.016 215.324 172.796 214.95 172.863C214.54 172.938 214.114 173.325 213.741 173.569C213.322 173.844 213.178 174.632 213.354 175.176C213.55 175.781 213.998 176.057 214.472 175.921C214.838 175.816 215.3 175.777 215.626 175.517C215.929 175.277 216.142 174.776 216.357 174.407C216.603 173.984 216.553 173.293 216.11 173.142ZM224.998 157.81C224.895 157.458 224.787 157.109 224.676 156.762C222.298 154.49 220.391 154.256 218.957 156.058C218.664 156.429 218.397 156.858 218.199 157.332C217.363 159.334 217.733 162.276 219.316 163.418C220.144 164.016 221.092 164.27 222.013 163.892C222.491 163.695 222.951 163.371 223.412 163.104C223.645 162.86 223.878 162.615 224.11 162.371C224.447 161.947 224.685 161.444 224.823 160.863C225.098 159.983 225.273 158.732 224.998 157.81ZM215.907 61.6625C215.735 60.6557 215.564 59.7066 215.088 58.87C214.571 57.9613 213.822 57.3973 213.111 56.8016C212.523 56.3083 211.954 55.7833 211.292 55.4862C210.604 55.1775 209.802 55.1732 209.075 55.1169C207.814 55.0188 207.003 56.128 206.707 57.507C204.898 55.2309 202.12 53.9341 199.928 53.2764C197.57 52.5696 191.679 52.8797 192.162 58.0565C192.542 62.1169 194.721 64.5531 197.18 66.6287C199.561 68.6395 201.654 70.1958 204.137 69.7934C206.169 70.1165 208.66 70.529 209.636 67.3802C209.906 66.5105 209.957 65.6912 209.878 64.9065C210.379 65.4142 210.879 65.9263 211.495 66.1571C212.353 66.4787 213.233 66.1729 214.092 66.0013C215.521 65.7171 216.194 63.3314 215.907 61.6625ZM187.554 64.3296C187.036 63.6401 186.536 62.8756 185.938 62.3131C185.208 61.6265 184.473 61.5024 183.621 61.3019C182.897 61.1317 182.12 60.8115 181.389 60.9298C180.661 61.0481 180.146 61.6957 179.622 62.3333C179.353 62.6621 179.257 63.2434 179.355 63.7064C179.523 64.4983 179.693 65.3436 180.135 65.9422C180.694 66.7023 181.656 67.0124 182.381 67.4134C183.099 67.8101 183.753 68.2341 184.544 68.2226C185.329 68.2111 186.15 67.8606 186.914 67.6312C187.989 67.3081 188.308 65.332 187.554 64.3296ZM214.388 87.9648C214.282 86.8859 213.821 86.1012 213.275 85.3613C212.516 84.3357 211.576 84.066 210.591 83.6938C209.784 83.388 208.912 83.8193 208.408 84.705C207.876 85.6411 207.867 86.7979 208.246 87.8393C208.384 88.2215 208.523 88.6023 208.663 88.9846C208.974 89.8399 209.389 90.4544 209.965 91.0054C210.526 91.5405 211.134 91.9271 211.832 91.9689C212.619 92.0165 213.452 91.5001 213.929 90.6621C214.386 89.8587 214.486 88.9528 214.388 87.9648ZM162.675 178.735C159.3 176.104 153.694 176.917 151.022 180.458C149.338 182.689 149.255 186.858 151.022 189.075C154.918 193.96 161.757 191.876 164.226 185.828C164.274 185.769 164.321 185.708 164.368 185.649C166.256 183.273 164.912 179.327 162.675 178.735ZM144.247 174.88C143.301 174.187 142.533 173.634 141.408 173.952C140.675 174.16 139.927 174.476 139.221 174.818C138.308 175.259 137.671 176.368 137.822 177.73C137.977 179.136 138.746 179.865 139.74 180.031C140.488 180.155 141.281 180.259 142.034 180.231C143.145 180.191 143.8 179.346 144.584 178.427C145.383 177.488 145.14 175.535 144.247 174.88ZM40.3594 42.7685C38.8465 39.7841 35.6117 40.3625 33.6734 42.1727C32.8921 42.9012 31.9815 43.8171 31.2996 44.7417C30.7014 45.5523 30.4065 46.5086 30.2275 47.589C30.184 48.0275 30.1406 48.466 30.0971 48.9045C30.1768 48.4039 30.1726 48.4515 30.0826 49.0458C29.7359 51.4229 30.838 53.5894 32.681 53.6803C32.7928 53.686 32.8704 53.686 32.9273 53.686C32.9594 53.6976 32.9977 53.712 33.0443 53.7279C34.1081 54.087 35.1305 53.8663 36.0928 53.1855C36.7344 52.7326 37.3947 52.1744 38.0031 51.6421C40.0893 49.8161 42.012 46.0283 40.3594 42.7685ZM27.6456 44.6796C26.7981 45.0201 25.9847 45.4239 25.4187 46.3976C24.9375 47.224 24.4863 48.0635 24.1014 48.9795C23.5001 50.4118 23.8178 52.4888 24.9333 53.2894C26.0882 54.1187 27.3993 53.637 28.1061 52.16C28.2489 51.8614 28.4 51.5729 28.5521 51.283C28.5656 51.2642 28.5728 51.2527 28.5914 51.2253C28.6929 51.0753 28.787 50.9166 28.8874 50.7652C29.2755 50.181 29.5435 49.6242 29.7266 48.8583C29.8074 48.5208 29.8881 48.1847 29.9812 47.8529C30.509 45.9865 28.9402 44.1575 27.6456 44.6796ZM52.8073 30.6479C52.1926 30.5066 51.4589 30.3854 50.9022 30.8729C50.5172 31.2105 50.2347 31.7182 49.9346 32.1798C49.5052 32.8389 49.3251 33.8674 49.6997 34.6564C50.0826 35.4627 50.7149 35.7728 51.3978 35.5954C51.8232 35.4858 52.3592 35.4382 52.7276 35.1151C53.2926 34.6203 53.572 33.8602 53.8059 33.038C54.0656 32.125 53.514 30.8109 52.8073 30.6479ZM115.155 100.531C115.221 100.374 115.286 100.214 115.34 100.044C116.012 97.9116 115.829 95.4552 114.206 94.1686C113.985 93.9926 113.757 93.8513 113.527 93.7157C111.875 91.8665 110.044 91.3617 107.835 91.591C105.692 91.8117 103.796 93.2916 101.862 94.4701C99.1817 96.1029 98.4025 101.176 99.4394 104.514C99.7591 105.543 100.219 106.412 100.764 107.133C99.102 108.144 97.5839 109.338 96.3846 110.479C95.7347 111.098 95.2452 111.793 94.8841 112.526C93.455 114.245 92.8734 116.562 94.2456 119.682C96.843 125.59 104.34 124.028 108.245 122.003C110.611 120.775 113.309 119.043 114.55 115.859C115.937 112.297 114.909 108.016 112.427 106.031C113.759 104.756 114.769 103.011 115.155 100.531ZM88.5013 115.293C87.8483 115.085 87.4706 115.523 86.9294 115.881C86.917 115.888 86.8528 115.927 86.8104 115.953C86.7514 115.982 86.6552 116.03 86.6386 116.037C86.4493 116.122 86.2558 116.19 86.0602 116.247C85.2065 116.5 84.8029 117.877 85.1216 118.903C85.4734 120.034 86.3955 120.368 87.1767 119.843C87.6217 119.545 88.0201 119.165 88.4061 118.741C88.8573 118.245 89.3778 117.619 89.3199 116.751C89.2764 116.103 89.0053 115.453 88.5013 115.293ZM80.0841 108.326C79.9671 108.255 79.8471 108.195 79.7291 108.125C77.9027 106.205 75.1635 107.306 73.5906 109.294C72.413 110.782 71.4527 112.61 71.1981 114.783C71.016 116.338 71.1474 117.775 72.0083 118.945C72.7638 119.97 74.0283 120.534 75.0714 120.045C77.526 118.894 80.8706 116.553 81.1872 112.766C81.2214 112.628 81.2524 112.491 81.2907 112.354C81.6622 111.022 81.062 108.924 80.0841 108.326ZM251.364 244.01C251.15 242.687 250.404 241.49 249.557 240.815C247.993 239.57 246.085 240.042 244.788 241.65C244.125 242.474 243.461 243.296 242.798 244.12C241.46 245.78 241.457 248.747 242.514 250.605C243.616 252.542 245.615 253.112 247.203 251.877C247.988 251.267 248.772 250.657 249.557 250.046C251.129 248.823 251.739 246.324 251.364 244.01Z" fill="url(#paint3_linear_20_413)"/>
<path d="M59.8244 246.057C58.3166 247.091 56.9517 247.558 55.5764 247.467C55.9614 247.851 56.3163 248.272 56.575 248.913C57.051 250.091 57.0966 251.508 56.575 252.676C55.5174 255.046 53.2884 254.886 51.5748 254.17C49.8963 253.471 48.5128 250.695 48.5583 248.291C48.5924 246.498 49.5734 245.243 50.8318 245.064C49.7328 244.089 48.6876 242.917 47.7946 241.686C45.3514 238.323 43.6181 232.445 44.7802 227.819C45.3172 225.681 47.1489 223.699 48.9122 224.633C51.0646 225.771 52.9532 227.457 54.9028 229.173C55.4264 229.633 55.9365 230.099 56.4881 230.497C56.7582 230.691 57.7806 231.276 57.019 230.844C59.1414 232.051 60.5943 233.345 61.7367 236.147C63.0644 239.401 62.4373 244.264 59.8244 246.057ZM41.3818 218.104C41.2763 217.888 41.1904 217.664 41.1159 217.426C40.794 216.686 40.3604 216.098 39.8161 215.661C39.2511 215.215 38.6416 214.992 37.9876 214.989C37.2487 215.097 36.87 215.178 36.2708 215.564C35.7162 215.848 35.3736 216.236 35.0011 216.919C34.3626 218.09 34.2022 219.878 34.494 221.218C34.7196 222.256 35.1656 223.117 35.7927 223.774C36.3919 224.403 37.2084 224.907 37.9876 224.832C38.4771 224.784 38.9769 224.715 39.4529 224.545C41.3849 223.857 42.5305 220.466 41.3818 218.104ZM221.051 185.229C220.561 182.803 218.85 181.069 217.007 181.046C216.357 181.037 215.807 180.791 215.086 180.791C213.929 180.791 212.94 181.448 211.907 182.04C210.222 183.003 208.657 184.265 207.788 186.546C206.958 188.723 207.142 191.763 208.566 193.396C208.352 193.689 208.135 193.987 207.891 194.271C206.846 195.487 207.644 198.365 209.072 198.147C209.555 198.074 210.044 198.257 210.534 198.268C211.219 198.284 211.861 198.098 212.505 197.791C213.022 197.543 213.575 197.334 214.072 197.018C214.442 196.781 214.726 196.514 214.979 196.069C215.058 195.93 215.638 194.737 215.272 195.235C215.447 194.997 215.549 194.72 215.6 194.433C216.798 193.973 217.712 193.304 218.564 192.226C218.751 192.039 218.937 191.851 219.124 191.664C220.644 190.139 221.582 187.854 221.051 185.229ZM215.681 173.942C215.315 173.817 214.894 173.596 214.521 173.664C214.111 173.739 213.685 174.125 213.312 174.369C212.893 174.645 212.749 175.432 212.924 175.976C213.121 176.582 213.568 176.857 214.042 176.722C214.408 176.616 214.869 176.577 215.195 176.318C215.499 176.077 215.712 175.576 215.927 175.207C216.173 174.785 216.125 174.094 215.681 173.942ZM224.569 158.611C224.465 158.259 224.358 157.91 224.247 157.562C221.869 155.29 219.962 155.057 218.527 156.858C218.235 157.229 217.968 157.659 217.77 158.132C216.934 160.134 217.303 163.077 218.886 164.219C219.713 164.816 220.661 165.07 221.582 164.692C222.06 164.496 222.521 164.171 222.981 163.904C223.214 163.661 223.447 163.415 223.68 163.172C224.016 162.748 224.254 162.244 224.393 161.663C224.668 160.783 224.844 159.533 224.569 158.611ZM215.107 63.1553C214.935 62.1485 214.764 61.1994 214.288 60.3628C213.771 59.4541 213.022 58.8915 212.311 58.2944C211.724 57.8011 211.154 57.2761 210.492 56.9789C209.804 56.6702 209.002 56.6659 208.276 56.6097C207.015 56.5116 206.203 57.6208 205.907 58.9997C204.098 56.7236 201.321 55.4254 199.128 54.7691C196.77 54.0624 190.879 54.3725 191.362 59.5493C191.742 63.6097 193.922 66.0459 196.38 68.1215C198.761 70.1322 200.854 71.6886 203.337 71.2861C205.368 71.6092 207.861 72.0218 208.836 68.873C209.106 68.0032 209.157 67.1839 209.079 66.3993C209.579 66.907 210.079 67.419 210.695 67.6498C211.553 67.9715 212.433 67.6657 213.292 67.494C214.721 67.2099 215.393 64.8256 215.107 63.1553ZM186.753 65.8223C186.235 65.1328 185.735 64.3684 185.137 63.8058C184.407 63.1192 183.672 62.9952 182.82 62.7947C182.096 62.6245 181.319 62.3043 180.588 62.4225C179.86 62.5408 179.345 63.1885 178.821 63.826C178.552 64.1549 178.456 64.7362 178.554 65.1992C178.722 65.9911 178.892 66.8349 179.334 67.4349C179.894 68.1951 180.855 68.5052 181.58 68.9062C182.298 69.3028 182.952 69.7269 183.743 69.7154C184.528 69.7038 185.349 69.3533 186.113 69.124C187.189 68.8009 187.508 66.8248 186.753 65.8223ZM213.588 89.4561C213.482 88.3772 213.021 87.5925 212.475 86.8526C211.716 85.827 210.776 85.5573 209.792 85.1852C208.984 84.8794 208.112 85.3106 207.608 86.1963C207.076 87.1324 207.067 88.2892 207.446 89.3306C207.584 89.7129 207.723 90.0937 207.863 90.4759C208.174 91.3312 208.589 91.9472 209.165 92.4982C209.726 93.0333 210.334 93.4199 211.032 93.4617C211.819 93.5093 212.652 92.9943 213.129 92.1549C213.586 91.3514 213.686 90.4456 213.588 89.4561ZM161.875 180.228C158.5 177.597 152.894 178.409 150.222 181.95C148.538 184.182 148.455 188.35 150.222 190.567C154.118 195.453 160.957 193.368 163.426 187.32C163.474 187.261 163.521 187.201 163.568 187.142C165.456 184.765 164.113 180.82 161.875 180.228ZM143.447 176.373C142.501 175.68 141.733 175.126 140.608 175.445C139.875 175.653 139.127 175.969 138.421 176.311C137.508 176.752 136.871 177.861 137.022 179.223C137.177 180.629 137.946 181.358 138.941 181.523C139.688 181.647 140.481 181.751 141.234 181.724C142.345 181.684 143 180.838 143.784 179.919C144.583 178.98 144.34 177.027 143.447 176.373ZM39.8761 43.6698C38.3632 40.6855 35.1284 41.2639 33.1902 43.0741C32.4089 43.8025 31.4982 44.7185 30.8163 45.643C30.2182 46.4537 29.9232 47.41 29.7442 48.4904C29.7008 48.9288 29.6573 49.3673 29.6138 49.8058C29.6935 49.3053 29.6894 49.3529 29.5993 49.9472C29.2527 52.3243 30.3548 54.4908 32.1978 54.5816C32.3095 54.5874 32.3872 54.5888 32.4451 54.5874C32.4772 54.5989 32.5144 54.6134 32.562 54.6292C33.6258 54.9884 34.6482 54.7677 35.6106 54.0869C36.2522 53.634 36.9124 53.0758 37.5209 52.5435C39.6061 50.716 41.5288 46.9297 39.8761 43.6698ZM27.1634 45.5796C26.3159 45.92 25.5025 46.3239 24.9365 47.2975C24.4553 48.124 24.0041 48.9635 23.6191 49.8794C23.0179 51.3117 23.3356 53.3888 24.4511 54.1893C25.607 55.0187 26.9171 54.5369 27.6239 53.0585C27.7667 52.7599 27.9178 52.4714 28.0699 52.1815C28.0833 52.1627 28.0906 52.1512 28.1092 52.1238C28.2106 51.9738 28.3048 51.8151 28.4052 51.6636C28.7932 51.0795 29.0612 50.5227 29.2444 49.7568C29.3251 49.4193 29.4058 49.0832 29.5 48.7514C30.0267 46.8878 28.4579 45.0589 27.1634 45.5796ZM52.324 31.5493C51.7093 31.4079 50.9756 31.2868 50.4189 31.7743C50.0339 32.1118 49.7514 32.6196 49.4513 33.0811C49.0219 33.7403 48.8418 34.7687 49.2164 35.5577C49.5993 36.364 50.2316 36.6742 50.9156 36.4967C51.3409 36.3871 51.877 36.3395 52.2454 36.0164C52.8104 35.5217 53.0898 34.7615 53.3236 33.9394C53.5823 33.0263 53.0318 31.7108 52.324 31.5493ZM114.355 102.024C114.421 101.867 114.486 101.708 114.539 101.536C115.211 99.4044 115.028 96.948 113.405 95.6614C113.184 95.4854 112.956 95.344 112.726 95.2084C111.074 93.3593 109.243 92.8544 107.034 93.0838C104.891 93.3045 102.995 94.7844 101.06 95.9628C98.3797 97.5956 97.6015 102.669 98.6374 106.006C98.9571 107.036 99.4166 107.904 99.9619 108.626C98.3 109.637 96.7819 110.831 95.5826 111.972C94.9327 112.591 94.4432 113.286 94.0831 114.019C92.654 115.738 92.0725 118.055 93.4446 121.176C96.042 127.084 103.539 125.522 107.444 123.495C109.81 122.268 112.508 120.536 113.749 117.352C115.137 113.79 114.108 109.508 111.626 107.524C112.959 106.249 113.969 104.503 114.355 102.024ZM88.0367 116.159C87.3837 115.952 87.006 116.39 86.4648 116.748C86.4534 116.757 86.3882 116.794 86.3458 116.82C86.2868 116.849 86.1906 116.896 86.174 116.904C85.9846 116.99 85.7911 117.057 85.5955 117.114C84.7418 117.367 84.3382 118.744 84.657 119.77C85.0088 120.901 85.9308 121.235 86.7121 120.71C87.1571 120.412 87.5555 120.032 87.9415 119.608C88.3926 119.112 88.9132 118.486 88.8552 117.618C88.8117 116.971 88.5406 116.319 88.0367 116.159ZM79.6195 109.193C79.5025 109.122 79.3825 109.061 79.2645 108.992C77.438 107.072 74.6989 108.173 73.1259 110.16C71.9483 111.649 70.988 113.476 70.7334 115.65C70.5513 117.205 70.6827 118.642 71.5437 119.812C72.2991 120.837 73.5637 121.401 74.6068 120.912C77.0624 119.761 80.4059 117.42 80.7226 113.632C80.7567 113.495 80.7878 113.358 80.8261 113.221C81.1976 111.888 80.5974 109.791 79.6195 109.193ZM250.563 245.503C250.349 244.18 249.603 242.983 248.756 242.308C247.192 241.063 245.284 241.535 243.987 243.143C243.324 243.967 242.661 244.789 241.997 245.612C240.659 247.273 240.656 250.24 241.713 252.096C242.815 254.033 244.814 254.603 246.402 253.368C247.187 252.758 247.971 252.148 248.756 251.538C250.329 250.316 250.938 247.816 250.563 245.503Z" fill="url(#paint4_linear_20_413)"/>
<path d="M4.72538 222.733C4.6219 223.512 4.57016 224.291 4.55981 225.07C4.54946 225.46 4.54946 225.849 4.57016 226.238C4.58051 226.383 4.6012 226.498 4.6219 226.642C4.70468 227.046 4.64259 227.508 4.66329 227.912C4.67364 228.243 4.69433 228.59 4.72538 228.921C4.18727 228.647 3.82509 228.315 3.81474 227.883C3.77335 226.267 3.77334 224.666 3.83543 223.051C3.85613 222.459 3.7423 221.161 3.94926 220.642C4.22866 219.95 4.08379 220.31 4.6426 219.993C5.21175 219.661 5.67742 219.272 6.29831 219.099C6.92955 218.925 7.58148 218.839 8.23342 218.752C10.5411 218.421 12.8487 218.103 15.1667 217.786C14.5769 217.743 13.987 217.685 13.3972 217.627C13.8939 217.613 14.3802 217.584 14.877 217.555C15.3426 217.526 15.8187 217.497 16.2947 217.469C16.6879 217.454 17.1018 217.483 17.4951 217.396C14.2871 218.147 11.0688 218.882 7.93333 220.065C7.09512 220.382 6.25692 220.728 5.49115 221.291C5.28419 221.45 5.07722 221.623 4.94269 221.897C4.81748 222.142 4.76574 222.445 4.72538 222.733Z" fill="#EB924D"/>
<path d="M5.00895 103.402C5.00999 103.434 5.01205 103.466 5.01309 103.497C5.03482 103.88 5.13934 104.233 5.16935 104.612C5.25834 105.722 5.10105 106.897 5.13313 108.019C5.19626 110.186 5.54395 112.439 6.63672 114.07C7.95612 116.041 9.99989 116.615 11.9029 117.086C10.4117 117.115 8.92057 117.146 7.42939 117.174C7.12619 117.18 6.80851 117.19 6.54152 117.392C6.08206 117.738 5.91235 118.526 5.79748 119.237C5.10933 123.492 4.84855 127.88 5.02551 132.236C5.72505 132.797 6.49495 133.187 7.2897 133.381C6.2259 133.439 5.57293 135.249 5.82129 136.693C6.06965 138.137 6.91405 139.217 7.7626 140.116C6.47218 140.171 5.6226 142.08 5.40529 143.855C5.23041 145.275 5.278 146.726 5.09898 148.147C5.03689 148.64 5.04517 149.046 5.07518 149.538C5.11347 150.168 5.05345 150.801 5.04621 151.431C5.02758 153.154 5.13417 154.879 5.3639 156.571C5.48807 157.508 5.65365 158.446 5.85026 159.355C5.95375 159.816 6.05723 160.263 6.18141 160.725C6.21245 160.826 6.23315 160.912 6.25384 161.013C6.00549 160.927 5.75713 160.797 5.55016 160.595C4.93962 159.946 4.88788 158.706 4.88788 157.638C4.88788 155.475 4.73265 153.397 4.63952 151.248C4.53604 148.753 4.66022 146.272 4.66022 143.791C4.68091 137.762 4.68092 131.747 4.67057 125.718C4.66022 119.703 4.63952 113.702 4.59812 107.702C4.58778 106.115 4.70161 104.486 4.37047 102.957C4.02898 101.428 4.26699 99.3938 4.40151 97.8216C4.43256 97.4322 4.4843 97.0283 4.66022 96.7254C4.82579 96.4657 5.07414 96.3215 5.31215 96.2205C7.17483 95.3695 9.18238 95.4705 11.1382 95.3551C13.0526 95.2541 14.967 94.9368 16.8504 94.4031C17.3368 94.3743 17.8231 94.3021 18.2991 94.2012C15.174 95.1243 12.0281 95.9321 8.86159 96.6677C8.20966 96.8119 7.54736 96.9706 6.93682 97.3168C6.32628 97.6629 5.75713 98.2255 5.43633 99.0477C5.14658 99.7977 5.09484 100.663 5.0638 101.514C5.04414 102.136 4.98412 102.776 5.00895 103.402Z" fill="#EB924D"/>
<path d="M30.0981 165.701C23.8789 166.148 17.701 167.605 11.4714 167.922C9.91914 168.008 8.33588 168.023 6.88713 168.787C5.88439 169.32 4.86716 172.174 6.05927 173.198C6.23416 173.348 6.44009 173.41 6.64188 173.464C7.77087 173.761 8.92159 173.893 10.0702 173.857C8.59562 174.176 7.25242 175.19 5.94234 176.187C5.71157 176.363 5.47253 176.547 5.31523 176.842C5.16311 177.127 5.10413 177.486 5.04825 177.836C4.90545 178.727 4.65088 179.685 4.73884 180.604C4.80093 181.25 4.76989 181.838 4.74298 182.497C4.6395 185.004 4.62294 187.513 4.71297 190.021C4.72332 190.309 4.73366 190.598 4.8268 190.872C4.95098 191.218 5.18898 191.463 5.41664 191.694C5.92371 192.199 6.44112 192.704 6.94818 193.209C6.98957 193.238 7.03096 193.281 7.04131 193.339C7.0827 193.468 7.01027 193.598 6.94818 193.685C6.16172 194.867 5.25108 195.993 4.85785 197.521C4.6633 198.257 4.35285 198.844 4.30732 199.65C4.20177 201.524 4.31767 203.421 4.64778 205.243C4.7761 205.951 4.95305 206.682 5.33904 207.176C5.66087 207.587 6.09135 207.784 6.50941 207.962C8.26861 208.71 10.0599 209.312 11.8698 209.763C9.52075 209.866 7.17067 209.968 4.82163 210.07C4.76678 210.073 4.58983 213.822 4.53602 214.174C4.45633 214.696 4.38389 214.969 4.53912 215.503C4.69952 216.054 4.95926 216.547 5.28109 216.935C4.84646 216.892 4.42219 216.863 3.98756 216.819C3.81164 216.805 3.60468 216.762 3.5219 216.545C3.49085 216.444 3.49084 216.315 3.49084 216.199C3.80129 206.881 4.13243 197.477 4.26696 188.13C4.3394 182.966 4.10139 177.716 4.56706 172.581C4.60845 172.105 4.8775 166.955 4.85681 166.955C13.2513 166.104 21.6747 165.672 30.0981 165.701Z" fill="#EB924D"/>
<path d="M31.4537 165.627L31.4434 165.613C31.4951 165.627 31.5365 165.613 31.5883 165.613C31.5469 165.613 31.4951 165.613 31.4537 165.627Z" fill="#EB924D"/>
<path d="M35.3861 50.625C31.6504 51.2741 27.8008 50.5529 24.0858 51.4327C22.8544 51.7212 21.6437 52.1828 20.4019 52.3559C19.2532 52.5001 18.1046 52.4136 16.9663 52.4568C14.0895 52.5434 11.2437 53.4521 8.50145 54.6781C7.57011 55.082 6.61808 55.558 5.9351 56.5388C5.68675 56.9139 5.47977 57.3322 5.3142 57.7937C5.02652 58.6274 4.74609 59.7208 4.78231 60.6656C4.79265 60.944 4.82164 61.1747 4.7999 61.4589C4.73678 62.2767 4.67158 63.0859 4.66227 63.9095C4.64364 65.5496 4.77196 67.191 5.04722 68.7863C5.12484 69.2392 5.22521 69.7138 5.47357 70.0239C5.72606 70.3383 6.08101 70.4234 6.41629 70.4941C7.8164 70.7927 9.21548 71.0913 10.6156 71.3899C8.68565 71.5889 6.75571 71.7894 4.82577 71.9885C4.95098 71.9755 4.91373 78.449 4.9396 79.0231C5.03687 81.204 5.08447 83.4224 5.20141 85.6163C5.27384 87.0443 5.37733 88.4723 5.67743 89.8425C5.74987 90.1599 5.83265 90.4916 5.92579 90.7945C5.77056 90.6647 5.62569 90.5061 5.49116 90.3474C4.78749 89.5108 4.25972 88.2703 4.23902 86.9722C4.22868 86.6548 4.28042 86.4096 4.33216 86.1067C4.48738 85.2701 4.37355 84.3181 4.36321 83.4527C4.31146 79.5726 4.25973 75.6925 4.19764 71.8125C4.15625 69.346 4.14589 66.9227 3.88719 64.4851C3.75266 63.2734 3.81475 62.033 3.77336 60.8069C3.72162 59.3068 3.74231 57.8067 3.87684 56.3066C3.93893 55.4989 4.04242 54.6623 4.31147 53.9266C4.59087 53.1766 5.06688 52.441 5.71882 52.4842C6.69155 52.5564 7.67464 52.2823 8.64737 52.1525C10.8101 51.8496 12.9833 51.6044 15.1564 51.4169C19.6061 51.013 24.0662 50.7966 28.5366 50.6957C30.7097 50.6524 32.8932 50.638 35.0663 50.6235L35.3861 50.625Z" fill="#EB924D"/>
<path d="M230.491 78.1323C237.062 80.1084 243.933 79.041 250.618 80.2527C253.309 80.7431 255.999 81.5941 258.711 81.3777C259.714 81.2912 260.76 81.046 261.743 81.4354C262.633 81.7672 263.16 82.6759 263.636 83.7C264.433 85.4453 264.381 87.9263 264.464 89.9168C264.671 95.1094 264.309 100.288 264.112 105.466C264.092 106.028 264.05 106.634 263.781 107.053C263.585 107.341 263.305 107.485 263.026 107.586C263.026 107.471 263.015 107.384 263.015 107.283C262.984 106.432 263.005 105.581 263.088 104.745C263.191 103.591 263.409 102.466 263.388 101.312C263.388 100.879 263.388 100.504 263.409 100.071C263.419 99.9559 263.419 99.8261 263.409 99.6963C263.365 99.1626 263.32 98.7025 263.233 98.1861C263.122 97.5284 263.18 96.7783 263.158 96.1047C263.111 94.6262 263.019 93.1507 262.882 91.6823C262.858 91.427 262.821 91.1428 262.671 90.9914C262.554 90.8745 262.4 90.8717 262.256 90.8745C258.612 90.9337 254.971 91.2611 251.352 91.8554C254.477 91.6405 257.585 90.9726 260.612 89.8649C261.197 89.6499 261.844 89.3499 262.119 88.597C262.344 87.984 262.251 87.2483 262.153 86.5747C262.035 85.7627 261.886 84.8756 261.41 84.3794C261.124 84.0794 260.76 83.9697 260.409 83.8717C260.198 83.8125 259.985 83.7548 259.774 83.6986C257.656 83.1346 255.521 82.7004 253.376 82.3961C252.304 82.2446 251.229 82.1249 250.153 82.0369C249.067 81.9489 248.072 81.6316 246.986 81.5335C246.344 81.4758 245.693 81.4181 245.051 81.3604C242.847 81.1729 240.653 80.9854 238.459 80.8123C237.373 80.7113 236.265 80.6969 235.189 80.5238C234.868 80.4661 234.599 80.3075 234.31 80.12C234.144 80.019 233.968 79.9469 233.802 79.8892C232.84 79.6007 231.847 79.442 230.874 79.1968C230.181 79.0237 229.498 78.8506 228.804 78.6631L227.842 78.4035C227.614 78.3458 227.325 78.1871 227.076 78.1871C228.214 78.1612 229.354 78.1323 230.491 78.1323Z" fill="#EB924D"/>
<path d="M264.64 139.391C264.588 148.349 264.495 157.306 264.485 166.263C264.485 169.22 264.764 174.298 263.667 176.952C263.357 177.716 262.819 178.149 262.198 178.409C262.27 178.192 262.322 177.961 262.384 177.731C262.715 176.461 262.964 175.149 263.109 173.807C263.181 173.216 263.171 172.552 263.316 171.99C263.481 171.398 263.46 170.735 263.502 170.1C263.616 168.211 263.729 166.307 263.843 164.403C263.936 162.874 264.03 161.345 264.123 159.816C264.174 159.051 264.216 158.287 264.268 157.522C264.288 157.205 264.35 156.83 264.309 156.513C264.288 156.412 264.257 156.311 264.247 156.21C264.185 155.835 264.237 155.402 264.03 155.099C263.905 154.912 263.719 154.84 263.543 154.782C261.856 154.191 260.128 153.902 258.4 153.888C259.125 153.599 259.89 153.671 260.635 153.729C261.38 153.787 262.157 153.815 262.86 153.44C263.336 153.181 263.771 152.705 264.009 152.085C264.123 151.782 264.174 151.45 264.237 151.118C264.33 150.556 264.247 149.892 264.247 149.301C264.237 148.19 264.226 147.079 264.226 145.954C264.205 142.868 264.185 139.781 264.019 136.694C263.903 134.347 263.742 132.009 263.647 129.66C263.616 128.895 263.282 128.498 263.152 127.806C262.995 126.969 263.327 125.986 262.948 125.221C262.645 124.611 262.028 124.542 261.495 124.533C258.025 124.473 254.554 124.414 251.083 124.353C254.323 124.688 257.557 123.809 260.744 122.934C261.14 122.824 261.544 122.713 261.9 122.446C262.499 121.997 262.877 121.178 263.142 120.331C263.277 119.899 263.372 119.449 263.491 119.007C263.536 118.843 263.585 118.728 263.603 118.55C263.66 118.012 263.558 117.356 263.536 116.812C263.508 116.13 263.48 115.449 263.451 114.767C263.43 114.002 263.389 113.194 263.079 112.56C262.654 111.68 261.847 111.363 261.112 111.117C259.25 110.483 257.387 109.848 255.524 109.213C256 109.098 256.487 109.026 256.994 108.997C259.012 109.646 261.019 110.31 263.037 110.959C263.296 111.045 263.575 111.146 263.772 111.391C264.558 112.416 264.372 115.906 264.455 117.233C264.6 119.786 264.672 122.354 264.693 124.921C264.754 129.742 264.661 134.574 264.64 139.391Z" fill="#EB924D"/>
<path d="M251.996 58.9766C251.271 59.0487 250.557 59.092 249.833 59.1352C254.345 59.7555 258.867 60.3757 263.379 60.9959C263.793 61.0536 264.248 61.1402 264.548 61.544C264.776 61.8614 264.869 62.3085 264.941 62.7412C265.293 64.7462 265.314 66.7079 265.314 68.7561C265.179 71.713 264.983 74.6267 264.548 77.5403C264.341 78.925 263.71 79.026 263.027 78.8673C263.41 78.4779 263.699 77.9009 263.72 77.2663C263.824 73.5881 263.927 69.91 263.731 66.2463C263.689 65.5539 263.637 64.8472 263.451 64.1981C263.317 63.7654 263.12 63.3759 262.851 63.1018C262.727 62.9576 262.582 62.8711 262.447 62.7701C262.396 62.7268 262.344 62.6835 262.282 62.6547C262.189 62.6114 262.116 62.5393 262.023 62.4816C261.878 62.3806 261.702 62.3806 261.547 62.3374C260.874 62.1787 260.212 62.0056 259.539 61.8614C256.89 61.2411 254.221 60.7651 251.551 60.419C249.812 60.2026 248.063 60.0295 246.377 59.4381C247.649 59.3372 248.757 59.1497 250.03 59.0775C250.68 59.0487 251.344 59.0054 251.996 58.9766Z" fill="#EB924D"/>
<path d="M264.299 220.224C264.439 219.377 264.526 218.515 264.579 217.649C264.668 216.198 264.663 214.741 264.661 213.287C264.66 212.047 264.761 210.727 264.495 209.526C264.286 208.579 264.134 207.815 264.166 206.801C264.203 205.634 264.224 204.339 263.626 203.414C262.97 202.399 261.869 202.312 260.888 202.298C259.204 202.272 257.521 202.247 255.837 202.221C258.067 201.849 260.287 201.344 262.487 200.71C262.812 200.616 263.164 200.496 263.366 200.13C263.566 199.768 263.562 199.269 263.548 198.811C263.458 195.713 263.406 192.606 263.277 189.509C263.205 187.784 262.982 186.296 261.689 185.714C260.28 185.083 258.713 184.954 257.256 184.648C254.619 184.096 251.976 183.601 249.327 183.168C244.035 182.304 238.721 181.686 233.397 181.38C243.714 181.668 254.021 182.519 264.286 183.904C264.773 183.976 264.917 185.447 265 185.923C265.28 187.683 265.383 189.501 265.487 191.289C265.756 196.193 265.828 201.112 265.869 206.016V206.261C265.89 207.271 265.921 208.266 265.932 209.276C265.963 212.118 266.087 215.233 265.869 218.031C265.797 218.897 265.673 219.762 265.466 220.599C265.373 220.974 265.28 221.479 265.104 221.782C264.607 222.633 263.934 223.123 263.21 223.455C263.551 222.892 263.821 222.243 264.007 221.565C264.123 221.133 264.217 220.685 264.299 220.224Z" fill="#EB924D"/>
<path d="M3.39047 37.1821C3.25594 30.1576 3.06968 23.1475 2.84202 16.1374C2.69714 11.4785 5.21176 7.46858 8.54388 7.10797C92.9542 -2.23881 177.189 -2.48402 261.247 7.07913C264.61 7.45416 267.125 11.5362 266.928 16.2384C266.659 22.4263 266.421 28.6287 266.204 34.831C266.059 39.1727 265.914 43.5143 265.79 47.8704C265.759 48.7214 265.728 49.457 265.552 50.2648C265.231 51.6783 265.303 53.2217 265.055 54.6785C264.962 55.1401 264.858 55.6305 264.61 55.9623C264.362 56.2796 264.02 56.4094 263.689 56.5104C263.658 56.5248 263.627 56.5248 263.596 56.5392C263.606 56.496 263.617 56.4383 263.617 56.395C263.713 54.4881 263.948 52.4875 263.897 50.5778C263.88 49.9114 263.777 49.3546 263.829 48.6738C263.899 47.7506 263.918 46.8073 263.735 45.9044C263.265 43.598 261.377 42.0531 259.703 42.6085C260.941 41.0911 263.248 41.8671 264.132 39.927C264.606 38.8871 264.413 37.5341 264.204 36.3354C259.007 35.5811 253.775 35.2868 248.55 35.4556C253.043 35.796 257.576 35.0964 261.908 33.3929C262.605 33.1189 263.337 32.7814 263.796 32.001C264.225 31.2697 264.335 30.2817 264.429 29.347C264.585 27.7964 264.688 26.2112 264.901 24.6736C264.965 24.2149 265.134 23.8139 265.206 23.3624C265.321 22.647 265.259 21.8494 265.254 21.1296C265.241 19.3857 265.153 17.6303 264.847 15.9341C264.661 14.8955 264.392 13.9003 264.009 12.9771C263.491 11.7078 263.181 10.9001 262.094 10.3375C261.432 9.99135 260.718 9.89038 260.014 9.80384C257.686 9.51535 256.092 9.47208 253.774 9.09705C250.559 8.57635 247.339 8.11478 244.116 7.69071C239.761 7.11663 235.401 6.62189 231.038 6.19349C228.857 5.97857 226.675 5.78096 224.491 5.59922C224.023 5.56028 223.535 5.45353 223.07 5.56604C222.696 5.65691 222.416 5.69586 222.03 5.60355C220.99 5.35257 219.952 4.98187 218.888 5.04822C217.541 5.13188 216.077 6.19205 215.813 8.034C215.462 7.31857 215.296 6.43149 215.351 5.56749C214.754 6.33918 214.258 7.26087 213.894 8.27488C213.147 7.18298 212.641 5.77664 212.46 4.29096C209.825 4.72079 207.151 4.69483 204.519 4.21451C204.147 5.5473 203.774 6.88008 203.401 8.2143C202.06 5.2141 199.493 3.64909 196.976 3.23223C194.459 2.81537 191.918 3.36782 189.392 3.66928C186.105 4.06162 182.79 4.02989 179.507 3.57408C179.108 3.51927 178.667 3.47311 178.348 3.80775C178.133 4.03277 178.015 4.38904 177.914 4.73522C177.594 5.82857 177.355 6.96662 177.201 8.12776C176.873 6.23532 175.78 4.72512 174.512 3.90728C173.245 3.08944 171.818 2.88461 170.421 2.89759C167.853 2.92067 165.309 3.63611 162.741 3.6664C161.329 3.68371 159.92 3.4962 158.518 3.28272C156.468 2.97116 154.409 2.58747 152.342 2.70142C151.835 2.73027 151.329 2.78797 150.826 2.88606C150.378 2.9726 149.921 3.1731 149.467 3.163C149.173 3.15579 148.893 3.02597 148.604 2.9726C148.026 2.86442 147.43 2.91779 146.85 2.90913C145.561 2.89038 144.273 2.87163 142.985 2.85577C138.587 2.78364 134.178 2.71152 129.78 2.6394C125.372 2.56728 120.974 2.49516 116.566 2.42304C114.372 2.3942 112.168 2.35092 109.963 2.32208C109.467 2.30765 109.001 2.16341 108.504 2.19226C105.762 2.36535 103.009 2.53844 100.267 2.71153C97.9968 2.85433 95.7264 2.98991 93.456 3.12982C92.4885 3.1904 91.7165 2.79807 90.7624 2.64662C89.7234 2.48218 88.6451 2.46487 87.6486 2.96971C86.2195 3.69524 85.0512 5.8877 85.5345 7.89841C85.6576 5.63961 84.1954 3.70679 82.6204 3.14569C81.0465 2.58459 79.3908 3.03751 77.7878 3.40388C73.721 4.33279 69.5879 4.69339 65.4704 4.47847C65.34 6.0882 65.2086 7.69792 65.0771 9.30765C64.7719 7.58109 64.2793 5.91944 63.6211 4.3977C62.8812 6.60458 62.7105 9.17206 63.1472 11.5304C62.0399 9.34371 62.2355 5.83722 60.5488 4.55636C58.8299 3.25243 56.7644 5.49104 54.819 5.19823C54.8914 6.73872 54.9628 8.28065 55.0352 9.82114C54.939 8.20276 54.225 6.75459 53.2709 5.86318C51.9163 4.59819 50.6817 5.04822 49.1688 5.20833C47.5338 5.38142 45.8988 5.55451 44.2638 5.74202C41.3456 6.04492 38.4274 6.36225 35.4989 6.66516C34.8676 6.73728 34.1846 6.92479 33.5534 6.79497C33.0981 6.69401 32.7152 6.49207 32.2392 6.52092C25.1093 6.78055 17.9173 7.29982 10.8702 8.94416C9.57663 9.24707 8.26241 9.60766 7.11376 10.4731C6.37904 11.0356 5.71675 11.829 5.26143 12.8084C4.9158 13.5526 4.80921 14.3359 4.67262 15.158C4.58155 15.709 4.34768 16.2298 4.19142 16.7505C3.852 17.8784 3.5757 19.0612 3.51775 20.2887C3.42979 22.1552 3.95549 24.2019 5.13208 25.1034C6.52391 26.1694 8.35139 25.3674 9.76496 26.3756C8.11856 26.0857 6.42767 26.2876 4.84025 26.9627C4.60121 27.0651 4.34975 27.1906 4.1997 27.469C4.06932 27.7099 4.03724 28.0257 4.01551 28.3258C3.91099 29.7336 3.92548 31.1587 4.05793 32.5621C4.12209 33.2415 4.25765 33.9194 4.2949 34.5945C4.3363 35.3532 4.35183 36.1162 4.38287 36.8763C4.50705 39.8939 4.65709 42.907 4.77506 45.9246C4.79576 46.4294 4.87854 46.7323 4.86819 47.1073C4.75436 47.0929 4.64054 47.0929 4.52671 47.0929C4.39218 47.0785 4.24731 47.0785 4.15417 46.9487C4.07139 46.8333 4.05069 46.6602 4.02999 46.5015C3.70092 43.4278 3.45152 40.2689 3.39047 37.1821Z" fill="#EB924D"/>
<path d="M261.277 261.476C178.222 270.347 93.9672 270.275 8.56355 261.462C5.22108 261.115 2.68577 257.106 2.8203 252.447C2.85134 251.408 2.86169 250.37 2.87204 249.331C2.89273 248.48 2.83064 247.542 2.94447 246.72C2.98587 246.417 3.08935 246.172 3.1204 245.869C3.22388 244.86 3.26527 243.835 3.32736 242.826C3.46189 240.792 3.60676 238.758 3.74129 236.724C3.75164 236.537 3.76198 236.349 3.77233 236.176C3.79303 235.859 3.82408 235.513 3.96895 235.268C4.09313 235.037 4.28974 234.921 4.48636 234.82C6.86645 233.508 9.49489 232.7 12.0612 232.729C14.8656 232.743 17.5147 232.296 20.2777 231.748C21.3953 231.532 22.5129 231.315 23.6305 231.099H23.9203C24.1376 231.099 24.3549 231.113 24.5722 231.113C24.7378 231.113 24.9551 231.171 25.1103 231.128C19.5119 232.815 13.8308 233.854 8.17033 235.08C7.42525 235.239 6.66983 235.397 6.00755 235.888C5.95581 235.931 5.90406 235.974 5.85232 236.018C5.10725 236.639 4.4015 237.728 4.42013 238.986C4.42841 239.572 4.33217 240.146 4.30837 240.731C4.26387 241.852 4.38391 243.075 5.01101 243.87C5.37941 244.336 5.86371 244.574 6.33766 244.785C9.41831 246.159 12.6407 246.914 15.8746 247.016C13.2647 246.986 10.6549 246.955 8.04511 246.925C7.24933 246.916 6.43906 246.85 5.64535 246.908C5.11553 246.947 4.15107 246.94 3.76302 247.515C3.60986 247.743 3.54261 248.056 3.50742 248.365C3.31908 250.026 3.72369 251.728 3.68851 253.384C3.66781 254.379 3.64712 255.418 3.87478 256.37C4.31975 258.231 5.64432 259.442 7.01028 260.005C7.67257 260.264 8.36591 260.409 9.04889 260.539C9.40073 260.596 9.74221 260.639 10.094 260.697C10.2596 260.726 10.4355 260.755 10.6115 260.798C10.7667 260.827 10.9426 260.885 11.0978 260.885C11.1806 260.87 11.2634 260.827 11.3565 260.827C11.6152 260.798 11.8843 260.827 12.1533 260.827H13.3123C14.7197 260.813 16.127 260.769 17.5448 260.856C18.2484 260.914 18.9418 260.986 19.6454 261.115C19.8007 261.144 19.9559 261.202 20.1111 261.188C20.2042 261.188 20.2974 261.144 20.3905 261.13C20.4733 261.115 20.5457 261.115 20.6182 261.13C21.3332 261.201 21.8744 261.398 22.5419 261.576C22.9434 261.684 23.3656 261.727 23.7537 261.509C24.3911 261.15 24.7471 260.198 24.9282 259.275C25.1082 258.35 25.1703 257.371 25.4746 256.511C25.5781 257.514 25.4249 258.532 25.4404 259.546C25.4549 260.559 25.6981 261.675 26.3345 262.166C26.7122 262.455 27.1624 262.476 27.5939 262.489C28.3079 262.51 29.0219 262.536 29.736 262.552C30.2306 262.564 30.6383 262.382 31.1164 262.31C31.7839 262.209 32.5155 262.406 33.183 262.473C33.9135 262.543 34.6441 262.614 35.3757 262.683C38.3001 262.959 41.2245 263.216 44.151 263.452C44.9364 263.516 45.7343 263.64 46.5208 263.64C53.8162 264.202 61.1117 264.649 68.4175 264.967C70.6072 265.062 72.8259 265 75.0094 265.225C75.2908 265.254 75.534 265.371 75.8041 265.461C76.427 265.672 77.1204 265.31 77.6978 264.993C79.0462 264.253 80.2383 262.942 81.0392 261.254C81.7481 264.547 84.3641 266.347 86.8177 266.689C89.2723 267.029 91.7424 266.308 94.2073 266.45C94.9286 266.491 95.6168 266.409 96.3184 266.421C96.7923 266.429 97.2797 266.686 97.7557 266.748C98.7978 266.887 99.8606 266.737 100.86 266.301C100.993 263.407 101.126 260.515 101.259 257.622C101.394 260.445 101.742 263.249 102.293 265.972C102.382 266.412 102.493 266.882 102.758 267.151C103.031 267.427 103.399 267.417 103.736 267.396C106.699 267.211 109.661 267.026 112.624 266.843C112.66 265.435 112.868 264.036 113.236 262.724C113.52 264.484 114.16 266.129 115.062 267.423C115.537 265.329 116.311 263.366 117.326 261.685C117.587 263.631 118.051 265.916 119.4 266.529C120.037 266.819 120.728 266.644 121.39 266.501C122.819 266.193 124.265 266.04 125.71 266.044C126.277 266.046 126.752 266.033 127.299 265.864C127.939 265.666 128.632 265.838 129.284 265.839C130.361 265.841 131.438 265.842 132.514 265.845C136.917 265.854 141.32 265.87 145.723 265.901C146.955 265.91 148.189 265.92 149.421 265.933C150.032 265.933 150.653 265.933 151.263 265.948C155.661 265.991 160.059 266.063 164.457 266.135C168.855 266.222 173.253 266.337 177.651 266.452C179.845 266.51 182.049 266.582 184.243 266.654C185.34 266.683 186.447 266.726 187.544 266.77C188.372 266.799 189.096 266.813 189.893 266.452C190.234 266.294 190.576 266.207 190.938 266.164C191.654 266.079 192.374 266.036 193.093 265.985C193.316 265.969 193.566 265.995 193.784 265.894C194.151 265.724 194.327 265.545 194.689 265.564C194.909 265.575 195.135 265.515 195.348 265.437C195.779 265.281 196.181 264.997 196.548 264.649C197.331 263.909 197.967 262.903 198.569 261.897C199.131 262.94 199.752 263.921 200.426 264.825C200.544 264.984 200.672 265.146 200.83 265.206C201.412 265.427 201.735 264.266 202.267 263.869C202.562 264.6 203.195 264.958 203.796 264.991C204.397 265.024 204.987 264.788 205.573 264.6C207.285 264.049 209.062 263.891 210.811 264.132C211.026 263.66 211.242 263.19 211.458 262.718C211.753 264.045 212.969 264.401 213.967 264.404C214.669 264.406 215.371 264.346 216.068 264.225C216.649 264.124 217.259 263.85 217.848 263.954C219.083 264.173 220.324 263.958 221.567 263.847C224.487 263.588 227.406 263.315 230.324 263.028C233.243 262.741 236.161 262.44 239.077 262.121C241.922 261.811 244.764 261.485 247.607 261.143C248.259 261.056 248.932 261.071 249.594 261.028C251.767 260.912 253.94 260.782 256.113 260.566C257.2 260.451 258.286 260.321 259.363 260.162C259.901 260.076 260.449 260.018 260.987 259.888C261.153 259.859 261.287 259.729 261.453 259.672C262.436 259.354 263.44 259.297 264.237 258.316C264.785 257.638 265.075 256.671 265.24 255.691C265.313 255.186 265.364 254.666 265.396 254.147C265.458 253.166 265.551 252.214 265.54 251.205C265.52 247.584 265.489 243.964 265.468 240.343C265.468 239.983 265.468 239.622 265.458 239.276C265.447 237.776 265.416 236.276 265.292 234.79C265.24 234.141 265.075 233.42 265.116 232.756C265.126 232.569 265.158 232.367 265.168 232.179C265.178 231.4 264.888 230.535 264.516 230.001C264.257 229.641 263.967 229.309 263.688 228.963C263.481 228.703 263.253 228.501 262.995 228.343C262.477 228.011 261.919 227.838 261.36 227.665C260.046 227.218 258.731 226.785 257.417 226.352C257.086 226.237 256.724 226.107 256.465 225.79C256.931 225.703 257.055 225.458 257.521 225.443H257.821C259.642 225.905 261.474 226.395 263.305 226.886C263.957 227.059 264.65 227.333 265.189 227.924C265.468 228.242 265.696 228.645 265.851 229.093C266.13 229.843 266.244 230.665 266.317 231.487C266.492 233.55 266.254 235.583 266.42 237.632C266.513 238.685 266.565 239.723 266.596 240.791C266.668 242.824 266.73 244.873 266.803 246.906C266.865 248.738 266.927 250.57 266.989 252.402C267.165 257.091 264.63 261.13 261.277 261.476Z" fill="#EB924D"/>
<path d="M112.596 24.937C125.768 25.7851 138.953 26.6347 152.052 28.7507C162.898 30.5018 173.711 33.1227 184.628 33.2265C159.974 35.4175 137.29 25.9049 112.596 24.937ZM164.741 67.9092C163.939 67.938 163.122 67.8241 162.32 67.7938C157.969 67.6293 153.613 67.7029 149.264 67.964C144.917 68.2251 140.577 68.6751 136.247 69.2593C134.078 69.5521 131.912 69.8795 129.749 70.2343C128.666 70.4117 127.584 70.5964 126.502 70.7868C125.961 70.882 125.42 70.9786 124.878 71.0781C124.48 71.1502 124.091 71.1055 123.701 71.1604C123.201 71.231 122.673 71.557 122.191 71.7517C121.67 71.9623 121.15 72.1715 120.628 72.3792C119.586 72.7946 118.543 73.2057 117.497 73.6052C115.407 74.4029 113.306 75.1558 111.192 75.8179C109.438 76.3674 107.673 76.8535 105.902 77.2776C101.683 78.2873 97.4194 78.9407 93.1446 79.2335C91.0066 79.3806 88.8656 79.4354 86.7256 79.4023C86.2382 79.395 85.7311 79.3273 85.252 79.4196C84.301 79.6042 83.351 79.7989 82.4 79.9936C81.3187 80.2158 80.2383 80.435 79.1559 80.6471C78.7544 80.7249 78.4346 80.9745 78.0445 81.0855C77.5281 81.2341 77.0004 81.3207 76.4767 81.3899C74.3812 81.6639 72.2743 81.4822 70.1747 81.5789C64.3828 81.8414 58.7565 84.2011 53.0277 85.4257C48.7477 86.3402 44.4118 86.6186 40.0863 86.897C40.5674 86.8725 41.0476 86.8465 41.5288 86.8205C45.8999 86.5768 50.2689 86.245 54.6327 85.8238C58.9965 85.4041 63.3562 84.8949 67.7108 84.2978C69.888 83.9992 72.0632 83.679 74.2363 83.3357C75.4843 83.1395 76.7303 83.0689 77.9865 82.9636C80.6181 82.7414 83.2455 82.4443 85.8698 82.0851C91.1453 81.3654 96.4032 80.4047 101.647 79.3229C122.612 74.9957 143.481 68.6534 164.741 67.9092ZM83.3428 175.703C88.0698 178.045 93.067 179.077 98.031 179.882C100.55 180.29 103.074 180.638 105.591 181.057C106.239 181.165 106.884 181.302 107.531 181.416C108.016 181.503 108.508 181.529 108.993 181.617C109.15 181.646 109.288 181.728 109.439 181.789C109.863 181.959 110.346 181.913 110.784 182.011C111.744 182.226 112.679 182.618 113.616 182.971C114.802 183.418 116.023 183.818 117.26 183.691C118.158 183.599 119.03 183.232 119.917 183.015C120.953 182.761 122.01 182.709 123.061 182.732C125.192 182.778 127.315 183.149 129.406 183.714C130.351 183.969 131.287 184.277 132.216 184.624C133.227 185.002 134.222 185.449 135.221 185.881C135.898 186.172 136.486 186.172 137.18 186.117C138.085 186.047 138.984 186.345 139.874 186.533C140.9 186.749 141.928 186.951 142.958 187.138C147.115 187.899 151.291 188.437 155.476 188.784C159.681 189.133 163.896 189.291 168.109 189.275C172.282 189.259 176.455 189.074 180.621 188.731C182.2 188.601 183.777 188.386 185.355 188.271C179.973 188.66 174.577 188.349 169.211 187.688C166.494 187.353 163.783 186.929 161.076 186.461C160.617 186.381 160.13 186.218 159.667 186.22C159.584 186.22 159.513 186.238 159.433 186.264C159.219 186.335 159.012 186.344 158.792 186.352C156.855 186.424 154.917 186.396 152.983 186.266C142.54 185.569 132.272 181.957 121.824 181.464C119.908 181.373 117.993 181.5 116.078 181.581C114.767 181.637 113.514 181.512 112.223 181.18C110.931 180.848 109.649 180.454 108.355 180.14C106.392 179.665 104.396 179.538 102.413 179.31C100.263 179.064 98.1148 178.78 95.9707 178.441C93.8286 178.103 91.6896 177.712 89.5589 177.252C87.4769 176.806 85.4041 176.294 83.3428 175.703ZM139.625 151.41C140.509 151.38 141.395 151.349 142.28 151.319C142.989 151.295 143.702 151.274 144.404 151.432C144.655 151.488 144.874 151.52 145.127 151.482C145.666 151.403 146.204 151.566 146.734 151.697C146.994 151.762 147.184 151.719 147.438 151.703C148.24 151.652 149.087 151.836 149.888 151.909C150.751 151.99 151.613 152.076 152.476 152.169C154.273 152.362 156.07 152.578 157.864 152.811C172.166 154.65 186.534 157.393 200.918 155.776C184.148 154.182 167.376 152.588 150.606 150.995C151.367 151.067 152.392 150.506 153.14 150.288C154.005 150.037 154.868 149.776 155.73 149.506C156.549 149.249 157.366 148.984 158.181 148.708C158.636 148.556 159.131 148.455 159.573 148.256C159.867 148.123 160.155 147.853 160.436 147.667C161.015 147.283 161.601 146.921 162.193 146.579C163.372 145.899 164.575 145.3 165.794 144.775C168.24 143.719 170.748 142.956 173.275 142.385C175.833 141.808 178.412 141.426 180.994 141.137C183.59 140.846 186.191 140.65 188.793 140.446C190.112 140.344 191.432 140.239 192.75 140.12C193.198 140.08 193.655 140.035 194.072 139.803C194.384 139.63 194.662 139.357 194.969 139.161C195.551 138.788 196.205 138.708 196.845 138.633C198.458 138.444 200.073 138.257 201.686 138.068C204.504 137.739 207.334 137.409 210.156 137.664C212.826 137.905 215.462 138.666 218.134 138.848C221.26 139.06 224.384 138.473 227.486 137.887C221.26 137.015 214.997 136.663 208.741 136.833C205.561 136.92 202.383 137.142 199.206 137.362C196.425 137.556 193.643 137.752 190.864 138.012C188.072 138.273 185.282 138.6 182.503 139.059C179.734 139.516 176.974 140.104 174.242 140.888C172.877 141.279 171.52 141.719 170.172 142.215C169.78 142.359 169.395 142.536 169.006 142.696C168.844 142.763 168.685 142.838 168.516 142.842C168.351 142.846 168.208 142.93 168.053 143.002C166.714 143.634 165.347 144.148 163.971 144.6C162.6 145.052 161.219 145.443 159.839 145.832C159.644 145.887 159.451 145.942 159.256 145.997C157.818 146.403 156.379 146.81 154.941 147.217C153.503 147.624 152.064 148.03 150.626 148.437C149.907 148.641 149.187 148.844 148.468 149.047C148.109 149.148 147.749 149.251 147.39 149.353C147.239 149.396 147.088 149.457 146.932 149.447C146.574 149.425 146.242 149.662 145.876 149.608C145.265 149.52 144.651 149.73 144.045 149.854C143.326 149.999 142.607 150.144 141.887 150.284C140.447 150.563 139.006 150.824 137.561 151.048C134.677 151.494 131.776 151.789 128.874 151.774C132.457 151.655 136.041 151.533 139.625 151.41ZM97.9317 225.159C96.2118 225.378 94.4526 225.348 92.7265 225.329C90.9208 225.309 89.116 225.214 87.3144 225.058C83.6998 224.745 80.0986 224.192 76.5088 223.533C74.7072 223.203 72.9087 222.845 71.1112 222.476C70.2564 222.301 69.3986 222.144 68.5469 221.945C68.4072 221.912 68.2779 221.866 68.1433 221.799C67.5959 221.53 66.9812 221.733 66.4121 221.789C64.1676 222.011 61.8858 222.094 59.6713 221.445C58.476 221.094 57.3098 220.533 56.097 220.337C54.9784 220.155 53.8411 220.286 52.7235 220.09C51.7952 219.927 50.895 219.541 49.9884 219.216C43.7236 216.97 37.0977 217.658 30.7356 219.29C40.2953 217.709 49.9077 220.48 59.4229 222.515C61.0952 222.873 62.7716 223.209 64.4594 223.396C65.8243 223.549 67.1965 223.604 68.5511 223.878C69.9243 224.156 71.2685 224.65 72.6355 224.979C73.3174 225.143 74.0066 225.267 74.6989 225.296C75.0435 225.31 75.3891 225.302 75.7337 225.263C76.0318 225.229 76.305 225.304 76.604 225.33C79.5026 225.589 82.4063 225.755 85.311 225.804C88.1557 225.851 91.0025 225.783 93.8441 225.571C95.208 225.469 96.5709 225.333 97.9317 225.159ZM237.382 233.523C224.536 234.419 211.669 234.761 198.807 234.545C210.801 238.797 225.189 236.479 237.382 233.523Z" fill="#EB924D"/>
<path d="M112.662 23.6938C125.835 24.542 139.019 25.3916 152.117 27.5076C162.963 29.2587 173.776 31.8795 184.693 31.9834C160.039 34.1744 137.356 24.6617 112.662 23.6938ZM164.807 66.666C164.589 66.653 164.369 66.6415 164.15 66.6299C159.782 66.3992 155.408 66.415 151.039 66.6271C146.675 66.8391 142.316 67.2473 137.968 67.7983C137.537 67.8531 137.15 67.9238 136.738 68.0925C136.32 68.2642 135.887 68.1892 135.455 68.1949C134.394 68.2079 133.335 68.3421 132.284 68.5382C130.187 68.9291 128.118 69.5652 126.03 70.0282C120.728 71.2038 115.333 71.237 109.965 71.1721C111.996 71.5442 114.027 71.9178 116.06 72.2899C113.511 73.9703 110.714 74.7637 107.938 75.4647C105.015 76.2017 102.08 76.8537 99.1372 77.4177C94.8406 78.2413 90.5265 78.8803 86.2009 79.3332C84.0382 79.5597 81.8733 79.74 79.7074 79.8727C79.1662 79.9058 78.624 79.9361 78.0828 79.9635C77.6875 79.9837 77.3429 79.8784 76.9589 79.8496C76.1528 79.789 75.3777 80.2188 74.584 80.1611C74.3688 80.1453 74.1711 80.0703 73.9507 80.0789C73.2325 80.1092 72.4968 80.3025 71.7828 80.415C70.3299 80.6429 68.878 80.8737 67.4251 81.1059C64.5204 81.5718 61.6167 82.0478 58.7151 82.5353C52.9097 83.509 47.1085 84.5259 41.3104 85.5831C35.5123 86.6419 29.7194 87.741 23.9296 88.8834C23.6978 88.9295 23.466 88.9742 23.2352 89.0204C36.602 87.6386 49.9874 86.2553 63.2269 83.3316C66.619 82.5829 70.0205 81.7305 73.455 81.7521C74.8293 81.7608 76.2066 81.9093 77.5788 81.7536C78.1749 81.6858 78.7761 81.4319 79.3722 81.4867C79.9734 81.5415 80.5529 81.4867 81.1572 81.4218C83.9771 81.1218 86.7928 80.7424 89.6044 80.3025C95.2577 79.4169 100.89 78.286 106.509 77.0571C112.152 75.8238 117.784 74.491 123.419 73.2015C129.045 71.9149 134.675 70.6701 140.324 69.6114C145.935 68.5599 151.564 67.693 157.213 67.1622C159.742 66.9242 162.274 66.754 164.807 66.666ZM185.421 187.028C181.259 187.492 177.056 187.1 172.897 186.834C169.746 186.632 166.644 185.692 163.489 185.551C160.354 185.411 157.214 185.738 154.071 185.555C146.745 185.129 139.613 182.139 132.311 181.209C130.34 180.958 128.361 180.857 126.382 180.756C124.677 180.669 122.971 180.583 121.266 180.496C120.802 180.473 120.339 180.449 119.875 180.417C118.824 180.345 117.771 180.231 116.733 179.98C116.168 179.843 115.613 179.575 115.05 179.488C112.413 179.081 109.767 178.796 107.12 178.549C104.431 178.3 101.745 178.008 99.0627 177.645C96.3846 177.281 93.7116 176.846 91.048 176.31C89.6634 176.032 88.2809 175.725 86.9025 175.389C86.2661 175.233 85.6297 175.07 84.9954 174.901C84.4842 174.764 83.8995 174.705 83.409 174.463C92.7213 179.076 102.788 178.669 112.406 181.215C113.24 181.435 114.123 181.562 114.888 182.105C115.188 182.317 115.453 182.467 115.793 182.517C116.865 182.679 117.972 182.628 119.047 182.598C121.232 182.536 123.412 182.308 125.598 182.304C127.396 182.301 129.187 182.989 130.968 183.362C132.594 183.703 134.227 183.98 135.864 184.192C136.818 184.314 137.788 184.42 138.705 184.838C139.107 185.023 139.414 185.216 139.833 185.269C140.347 185.333 140.862 185.483 141.374 185.584C143.444 185.992 145.52 186.344 147.599 186.644C151.793 187.248 156.003 187.642 160.217 187.851C164.431 188.06 168.648 188.085 172.863 187.943C177.013 187.804 181.16 187.501 185.298 187.042C185.339 187.036 185.379 187.032 185.421 187.028ZM160.982 146.379C161.394 146.189 161.805 145.998 162.218 145.811C164.316 144.862 166.504 144.201 168.653 143.452C169.836 143.041 170.969 142.475 172.157 142.154C174.162 141.612 176.222 140.899 178.257 140.653C178.583 140.614 178.893 140.66 179.216 140.716C180.09 140.871 180.95 140.52 181.81 140.321C183.928 139.832 186.066 139.505 188.21 139.339C188.678 139.303 189.147 139.274 189.615 139.254C189.86 139.242 190.124 139.189 190.361 139.267C190.552 139.329 190.749 139.342 190.944 139.324C191.342 139.287 191.727 139.13 192.11 138.99C192.798 138.739 193.496 138.547 194.202 138.416C194.481 138.364 194.735 138.333 194.994 138.178C195.275 138.007 195.607 137.999 195.908 137.941C197.306 137.674 198.709 137.43 200.118 137.319C202.172 137.161 204.228 137.044 206.285 136.972C208.32 136.9 210.36 136.869 212.387 137.14C212.973 137.218 213.555 137.322 214.138 137.438C216.898 137.986 219.658 138.844 222.46 138.729C223.147 138.7 223.814 138.537 224.496 138.46C224.933 138.41 225.321 138.583 225.75 138.638C226.878 138.782 228.061 138.576 229.191 138.528C230.913 138.455 232.635 138.378 234.357 138.297C237.945 138.131 241.532 137.954 245.118 137.777C237.75 137.415 230.382 137.053 223.013 136.689C215.623 136.326 208.224 135.962 200.834 136.37C199.343 136.452 197.853 136.566 196.364 136.709C190.637 137.259 184.933 138.243 179.27 139.536C176.435 140.184 173.61 140.91 170.795 141.698C170.438 141.798 170.084 141.921 169.731 142.042C169.637 142.074 169.57 142.084 169.478 142.088C169.324 142.094 169.171 142.179 169.023 142.235C168.681 142.366 168.339 142.498 167.996 142.626C167.237 142.913 166.482 143.23 165.707 143.447C164.353 143.826 162.978 144.041 161.62 144.386C160.395 144.696 159.186 145.113 157.983 145.557C156.638 146.053 155.3 146.585 153.949 147.047C153.275 147.276 152.597 147.49 151.915 147.67C151.575 147.761 151.232 147.843 150.89 147.917C150.744 147.947 150.598 147.993 150.451 147.969C150.064 147.904 149.652 148.071 149.268 148.14C147.866 148.391 146.458 148.598 145.049 148.75C143.639 148.903 142.226 149.004 140.813 149.046C140.281 149.062 139.749 149.069 139.217 149.068C139.095 149.068 138.961 149.045 138.841 149.071C138.758 149.089 138.684 149.144 138.601 149.163C138.329 149.226 138.051 149.254 137.776 149.3C137.051 149.42 136.324 149.541 135.599 149.661C135.326 149.705 135.073 149.767 134.811 149.877C134.273 150.101 133.682 150.108 133.13 150.22C131.883 150.477 130.635 150.729 129.386 150.976C127.376 151.374 125.366 151.759 123.354 152.131C127.2 152.397 131.072 152.661 134.889 151.954C136.526 151.651 138.147 151.171 139.774 150.777C140.932 150.497 142.093 150.262 143.266 150.165C145.837 149.956 148.408 150.422 150.962 150.887C153.129 151.282 155.296 151.677 157.463 152.071C158.241 152.212 158.88 152.212 159.644 152.016C160.531 151.787 161.455 152.041 162.343 152.162C166.71 152.762 171.075 153.395 175.447 153.913C179.805 154.429 184.171 154.833 188.545 154.974C190.617 155.041 192.692 155.048 194.765 154.982C195.813 154.947 196.86 154.894 197.908 154.82C198.927 154.748 199.966 154.539 200.985 154.539C184.215 152.945 167.444 151.351 150.673 149.757C151.434 149.829 152.459 149.268 153.208 149.05C153.891 148.853 154.574 148.599 155.262 148.439C155.381 148.411 155.5 148.4 155.62 148.41C155.84 148.427 156.04 148.459 156.259 148.396C156.933 148.201 157.6 147.898 158.258 147.617C159.171 147.223 160.077 146.799 160.982 146.379ZM97.9979 223.916C95.7968 224.089 93.5916 224.126 91.3885 224.056C89.9304 224.009 88.4734 223.914 87.0184 223.783C86.2899 223.717 85.5624 223.642 84.835 223.556C84.1582 223.479 83.4359 223.47 82.7798 223.246C82.101 223.016 81.3497 223 80.6543 222.89C79.9268 222.776 79.1993 222.661 78.4718 222.545C77.0169 222.316 75.5619 222.087 74.107 221.857C76.0483 220.138 78.4356 219.824 80.7164 219.41C84.4573 218.732 88.1619 217.67 91.791 216.236C85.549 216.792 79.3276 217.781 73.157 219.2C71.4744 219.587 69.7928 220.008 68.0936 220.222C67.718 220.269 67.3941 220.307 67.0402 220.468C66.4793 220.725 65.8491 220.588 65.2675 220.566C63.8323 220.514 62.398 220.452 60.9637 220.364C58.1004 220.187 55.2381 219.899 52.3985 219.342C51.491 219.164 50.5855 218.958 49.6842 218.722C47.9157 218.256 46.1606 217.664 44.3704 217.39C40.8561 216.852 37.3088 217.55 33.8266 218.4C35.4896 218.388 37.1515 218.377 38.8144 218.367C40.9762 218.352 43.1421 218.338 45.2955 218.592C46.7308 218.76 48.1578 219.049 49.5766 219.392C50.9632 219.728 52.3416 220.201 53.7314 220.493C56.513 221.076 59.2987 221.619 62.0896 222.11C64.895 222.603 67.7046 223.042 70.5203 223.408C73.3216 223.773 76.129 224.067 78.9386 224.269C81.7098 224.468 84.4852 224.578 87.2616 224.573C89.978 224.569 92.6944 224.455 95.4046 224.201C96.2687 224.122 97.1328 223.983 97.9979 223.916ZM237.447 232.28C224.601 233.177 211.734 233.518 198.872 233.301C210.867 237.554 225.255 235.237 237.447 232.28Z" fill="url(#paint5_linear_20_413)"/>
<defs>
<linearGradient id="paint0_linear_20_413" x1="199.819" y1="-135.645" x2="102.494" y2="70.4684" gradientUnits="userSpaceOnUse">
<stop stop-color="#CF5C2B"/>
<stop offset="1" stop-color="#59173E"/>
</linearGradient>
<linearGradient id="paint1_linear_20_413" x1="193.476" y1="-48.971" x2="-92.4777" y2="411.662" gradientUnits="userSpaceOnUse">
<stop stop-color="#CF5C2B"/>
<stop offset="1" stop-color="#59173E"/>
</linearGradient>
<linearGradient id="paint2_linear_20_413" x1="181.776" y1="-17.0238" x2="-104.178" y2="443.61" gradientUnits="userSpaceOnUse">
<stop stop-color="#CF5C2B"/>
<stop offset="1" stop-color="#59173E"/>
</linearGradient>
<linearGradient id="paint3_linear_20_413" x1="225.407" y1="-178.873" x2="-14.2197" y2="280.711" gradientUnits="userSpaceOnUse">
<stop stop-color="#CF5C2B"/>
<stop offset="1" stop-color="#59173E"/>
</linearGradient>
<linearGradient id="paint4_linear_20_413" x1="197.074" y1="-74.4887" x2="-42.5529" y2="385.095" gradientUnits="userSpaceOnUse">
<stop stop-color="#CF5C2B"/>
<stop offset="1" stop-color="#59173E"/>
</linearGradient>
<linearGradient id="paint5_linear_20_413" x1="260.318" y1="-303.859" x2="21.2814" y2="135.836" gradientUnits="userSpaceOnUse">
<stop stop-color="#CF5C2B"/>
<stop offset="1" stop-color="#59173E"/>
</linearGradient>
</defs>
</svg>
