<svg width="314" height="157" viewBox="0 0 314 157" fill="none" xmlns="http://www.w3.org/2000/svg">
<path d="M313.992 144.624C313.915 143.571 313.84 142.518 313.766 141.465C313.643 139.714 313.524 137.963 313.409 136.212C313.381 135.792 313.354 135.371 313.326 134.95C313.223 133.345 313.521 131.676 312.304 130.221C311.978 129.832 311.468 129.437 310.809 129.445C311.634 129.256 312.086 128.653 312.296 128.078C312.588 127.276 312.73 126.235 312.752 125.407C312.771 124.653 312.67 123.889 312.63 123.136C312.584 122.272 312.539 121.408 312.495 120.546C312.408 118.815 312.324 117.084 312.243 115.354C312.164 113.628 312.09 111.902 312.019 110.176C312.007 109.861 311.994 109.544 311.982 109.228C311.946 108.342 311.912 107.465 311.921 106.578C311.927 105.898 311.625 105.261 310.98 104.736C310.408 104.27 309.508 103.957 308.626 104.055C309.337 103.946 310.043 103.751 310.557 103.4C311.921 102.468 311.692 101.06 311.656 99.8701C311.604 98.1609 311.557 96.4509 311.516 94.7409C311.474 93.0367 311.436 91.3325 311.405 89.6283C311.373 87.9298 311.345 86.2314 311.323 84.5322C311.301 82.8395 311.283 81.146 311.271 79.4534C311.259 77.7657 311.25 76.0788 311.248 74.3911C311.244 71.7505 311.267 69.1148 311.324 66.4734C311.348 65.4304 311.529 64.4923 310.454 63.6609C310.295 63.5377 310.12 63.4245 309.93 63.3236C309.847 63.279 309.448 63.046 309.344 63.0699C310.084 62.8955 310.682 62.4955 311.008 62.017C311.171 61.7773 311.27 61.5169 311.283 61.2525C311.317 60.607 311.35 59.959 311.361 59.3086C311.396 57.2002 311.46 55.0067 311.539 52.8661C311.581 51.7264 311.628 50.5866 311.68 49.4477C311.727 48.4055 311.073 47.5088 310.359 46.5914C310.995 46.4492 311.432 46.0344 311.612 45.5971C311.786 45.1748 311.696 44.7706 311.722 44.3434C311.827 42.7177 311.868 41.0796 311.954 39.4489C311.989 38.6282 312.025 37.8075 312.064 36.9868C312.074 36.7917 312.058 36.5868 312.103 36.3942C312.131 36.2727 312.202 36.1636 312.192 36.0388C312.164 35.6512 311.967 35.2173 311.742 34.8635C311.468 34.4329 311.015 34.0362 310.39 33.837C310.467 33.7048 310.693 33.6511 310.885 33.5957C311.727 33.3527 312.302 32.7593 312.36 32.1444C312.375 31.994 312.331 31.8493 312.325 31.7014C312.302 31.2146 312.384 30.7113 312.411 30.2245C312.44 29.7005 312.471 29.1765 312.501 28.6525C312.628 26.4763 312.765 24.3002 312.914 22.1249C313.205 17.8495 313.537 13.5749 313.912 9.30275C314.148 6.60922 311.188 4.27356 307.228 4.05455C208.378 -1.42342 109.313 -1.28457 10.0503 4.07108C9.57081 4.0967 9.09618 4.15455 8.63373 4.24381C7.39485 4.48267 6.33851 4.98765 5.28947 5.4728C4.72479 5.73397 4.3305 6.22573 3.93863 6.596C3.46766 7.04147 3.01494 7.49604 2.57926 7.95888C1.25762 9.36391 -0.0834918 10.8879 0.0309042 12.6194C0.172074 14.7526 0.305943 16.8858 0.433726 19.0189C0.499443 20.1157 0.562732 21.2133 0.624798 22.31C0.657657 22.8877 0.689292 23.4654 0.720933 24.0432C0.744056 24.4671 0.711201 24.9126 0.798823 25.3333C0.87671 25.7069 0.753795 26.1061 0.748927 26.4879C0.742842 26.9334 0.784216 27.3797 0.873056 27.821C0.921735 28.0599 0.986235 28.3029 1.16026 28.5128C1.72007 29.1889 3.11351 29.2624 4.00312 29.7492C3.13785 29.8277 2.28962 29.9906 1.4925 30.2311C1.37689 30.2658 1.2564 30.3055 1.17973 30.3741C1.07629 30.4666 1.07386 30.5914 1.07386 30.7071C1.08359 31.8716 1.09212 33.0362 1.10185 34.2007C1.1055 34.6883 1.01179 35.2214 1.21502 35.6917C1.42069 36.1661 1.32577 36.7364 1.34646 37.2289C1.43895 39.5043 1.52414 41.7804 1.60203 44.0557C1.64949 45.4517 1.6933 46.8484 1.73589 48.2452C1.75537 48.9023 1.80405 49.5635 1.79675 50.2205C1.79553 50.3271 1.76754 50.3916 1.72495 50.4974C1.52901 50.9776 1.77241 51.4917 2.15332 51.9008C2.96261 52.7702 4.41447 53.3479 5.92717 53.4025C5.19577 53.5802 4.46314 53.7587 3.73174 53.9364C3.22913 54.0587 2.68757 54.2017 2.40767 54.5108C2.24946 54.6852 2.19591 54.8926 2.15332 55.096C1.58134 57.8176 1.81622 60.5805 1.97686 63.3154C2.1375 66.042 2.14358 68.7694 2.16183 71.4984C2.17766 73.7961 2.18618 76.0937 2.1874 78.3914C2.18861 80.6931 2.18253 82.9957 2.16793 85.2975C2.16062 86.9529 2.09977 88.6117 2.12654 90.2672C2.13019 90.5192 2.21173 90.7234 2.12289 90.9738C1.89897 91.6052 1.86124 92.2606 2.20687 92.8772C2.60969 93.5946 3.5492 94.1897 4.66639 94.3037C3.9581 94.4194 3.18775 94.5624 2.76181 94.9641C2.4746 95.2352 2.3955 95.5806 2.34073 95.9129C2.24824 96.4724 2.20078 97.0353 2.19957 97.5989C2.19835 98.0791 2.34439 98.6006 2.1801 99.0717C1.84178 100.044 1.95739 101.074 1.93548 102.071C1.90627 103.412 1.87585 104.754 1.84178 106.094C1.78336 108.414 1.71764 110.733 1.64462 113.052C1.57161 115.375 1.49129 117.698 1.40366 120.022C1.40366 120.541 1.36472 121.061 1.34403 121.579C1.32821 121.984 1.42557 122.48 1.2844 122.873C1.22599 123.037 1.13836 123.185 1.0982 123.355C1.00206 123.77 0.961901 124.209 1.20043 124.607C1.47912 125.072 2.14115 125.421 2.87378 125.489C2.21296 125.386 1.62393 125.841 1.48519 126.291C1.3635 126.689 1.42922 127.105 1.30509 127.499C1.25276 127.665 1.22598 127.836 1.19191 128.004C1.12497 128.334 1.06899 128.667 1.02396 128.999C0.933905 129.664 0.887661 130.332 0.886444 131C0.886444 131.114 0.888874 131.232 0.961893 131.335C1.03004 131.43 1.15296 131.502 1.27588 131.569C2.14115 132.038 3.16219 132.373 4.24044 132.544C3.38733 132.734 2.53423 132.924 1.68113 133.115C1.48155 133.159 1.27466 133.207 1.12254 133.304C0.840199 133.484 0.818296 133.778 0.814645 134.042C0.807343 134.623 0.806128 135.204 0.793958 135.785C0.78909 135.997 0.684425 136.183 0.668604 136.393C0.646698 136.684 0.638176 136.975 0.623573 137.267C0.562724 138.432 0.499443 139.598 0.433726 140.763C0.428858 140.845 0.425205 140.926 0.420337 141.008C0.29012 143.346 0.151389 145.684 0.00656873 148.028C-0.15894 150.702 2.82266 152.994 6.7535 153.192C107.197 158.245 206.274 158.289 303.952 153.207C305.554 153.123 307.085 152.675 308.274 151.942C308.522 151.789 308.844 151.645 309.072 151.477C310.52 150.408 312.291 148.738 313.088 147.379C313.618 146.476 314.065 145.614 313.992 144.624Z" fill="url(#paint0_linear_20_436)"/>
<path d="M307.269 149.824C209.595 154.907 110.508 154.865 10.071 149.816C6.14013 149.617 3.15854 147.32 3.31674 144.65C3.35325 144.055 3.36542 143.46 3.37759 142.865C3.40193 142.377 3.32891 141.84 3.46278 141.369C3.51146 141.195 3.63316 141.055 3.66967 140.881C3.70618 140.716 3.73052 140.551 3.75486 140.377C3.81571 139.964 3.86438 139.551 3.91306 139.137C4.07127 137.972 4.24165 136.807 4.39986 135.641C4.41202 135.534 4.42419 135.426 4.43636 135.327C4.4607 135.145 4.49721 134.947 4.66759 134.807C4.81363 134.674 5.04486 134.608 5.27608 134.55C8.07513 133.798 11.1663 133.335 14.1844 133.352C17.4824 133.36 20.5979 133.104 23.8472 132.79C25.1615 132.666 26.4759 132.542 27.7902 132.418H26.4759C23.5308 132.41 20.5735 132.335 17.6406 132.178C15.949 132.087 14.2574 131.972 12.5779 131.823C11.7017 131.757 7.53966 131.658 5.55598 131.17C4.92315 131.013 4.49721 130.823 4.48504 130.575C4.43636 129.649 4.43636 128.732 4.50938 127.806C4.53372 127.467 4.39985 126.724 4.64325 126.426C4.97183 126.029 4.80146 126.236 5.45863 126.054C6.12797 125.864 6.67561 125.641 7.4058 125.542C8.14815 125.442 8.91485 125.393 9.68155 125.343C12.3954 125.153 15.1093 124.971 17.8353 124.79C17.1416 124.765 16.4479 124.732 15.7543 124.699C12.5779 124.575 9.38947 124.434 6.21315 124.302C5.70202 124.277 5.20306 124.261 4.69193 124.236C4.48504 124.227 4.24165 124.203 4.14429 124.079C4.10778 124.021 4.10778 123.946 4.10778 123.88C4.20514 122.467 4.3025 121.054 4.39986 119.64C4.63108 116.169 4.85014 112.69 4.95966 109.218C4.99617 108.739 5.00835 108.268 5.02052 107.797C5.10571 104.838 4.82579 101.83 5.37343 98.8874C5.42211 98.6146 5.73853 95.6641 5.7142 95.6641C15.5839 95.1764 25.4901 94.9285 35.3963 94.945C36.1873 94.945 36.9784 94.945 37.7694 94.9533C37.5139 94.9368 37.2461 94.9202 36.9906 94.9037L36.9784 94.8954C33.0841 94.6392 29.1776 94.3665 25.2954 94.0772C23.2022 93.9202 21.1212 93.7632 19.0523 93.5565C17.3607 93.3912 15.7056 93.1185 14.0262 92.9367C13.4907 92.8705 12.9917 92.9119 12.4563 92.9284C10.8985 92.9532 9.21909 92.5317 7.71004 92.3168C7.58834 92.3003 7.47881 92.2837 7.35712 92.2589C7.06504 92.2093 6.77296 92.135 6.52957 92.0193C5.9941 91.7383 5.82372 91.2672 5.77504 90.7961C5.7507 90.639 5.7507 90.482 5.7507 90.325C5.7507 89.0852 5.56816 87.8951 5.45863 86.6636C5.33693 85.2338 5.48297 83.8122 5.48297 82.3907C5.50731 78.9359 5.50731 75.4895 5.49514 72.0348C5.49514 71.2331 5.48297 70.4314 5.48297 69.6297C5.4708 66.9849 5.44646 64.3484 5.40995 61.7119C5.39778 60.8028 5.53165 59.8689 5.14221 58.9928C4.74061 58.1167 5.02051 56.9514 5.17872 56.0505C5.21523 55.8273 5.27608 55.5959 5.48297 55.4224C5.67768 55.2736 5.96975 55.191 6.24966 55.1331C8.44022 54.6455 10.8012 54.7033 13.1013 54.6372C15.3527 54.5794 17.6041 54.3975 19.819 54.0917C20.1232 54.0587 20.4396 54.0173 20.7439 53.9678C17.166 53.7446 13.5759 53.5215 10.1075 52.9016C9.0122 52.7032 7.89259 52.4553 6.96768 52.0255C6.78514 51.9511 6.61476 51.8602 6.45655 51.7693C5.62901 51.2899 5.00834 50.5792 4.984 49.8353C4.97183 49.7444 4.99618 49.6618 5.02052 49.5791C5.03269 49.5047 5.05702 49.4221 5.09353 49.3394C5.27608 48.8601 5.14221 48.3146 5.13004 47.8187L5.05703 45.4632C5.02052 44.0251 4.98401 42.587 4.93533 41.1489C4.88665 39.7356 4.87448 38.3471 4.57023 36.9504C4.41202 36.2561 4.48504 35.5453 4.43636 34.8428C4.37551 33.9833 4.39985 33.1237 4.55806 32.2642C4.63108 31.8013 4.75277 31.322 5.06919 30.9005C5.06919 30.9005 5.06919 30.8922 5.08136 30.8922C5.40995 30.4624 5.95758 30.0492 6.72428 30.074C7.86824 30.1153 9.02437 29.9583 10.1683 29.8839C12.7118 29.7103 15.2675 29.5698 17.8231 29.4624C23.0562 29.231 28.3013 29.107 33.5587 29.0491C36.1143 29.0243 38.6822 29.0161 41.2378 29.0078H41.6151C43.9152 28.9995 46.2396 28.95 48.5397 29.0243C43.5988 28.8508 38.67 28.6276 33.7412 28.3384C31.1856 28.1813 28.6177 28.016 26.0621 27.8342C21.6931 27.5201 17.166 27.5532 12.8944 27.2722C10.5091 27.1069 8.11164 27.016 5.72636 26.9912C5.59249 26.9829 5.45863 26.9829 5.32476 26.9829C5.16655 26.9747 4.99618 26.9747 4.88665 26.9003C4.78929 26.8342 4.76495 26.735 4.74061 26.6441C4.35117 24.8836 4.0591 23.0736 3.98608 21.305C3.92523 19.8503 3.86438 18.3874 3.77919 16.9328C3.6575 14.3707 3.51146 11.8086 3.34108 9.24649C3.1707 6.57693 6.12796 4.2793 10.0466 4.07267C109.316 -1.28297 208.378 -1.42347 307.233 4.05615C311.188 4.27103 314.145 6.60999 313.914 9.30434C313.598 12.85 313.318 16.4039 313.062 19.9578C312.953 21.5033 312.855 23.0571 312.746 24.6109C312.685 25.5448 312.636 26.487 312.576 27.4292C312.539 27.9169 312.503 28.3384 312.296 28.8012C311.918 29.6112 312.004 30.4955 311.711 31.3303C311.602 31.5947 311.48 31.8757 311.188 32.0658C310.896 32.2477 310.495 32.322 310.105 32.3799C310.069 32.3882 310.032 32.3882 309.996 32.3964C305.517 33.1155 300.953 33.5783 296.353 33.7932C295.501 33.8345 294.662 33.8593 293.81 33.8841C299.116 34.2395 304.434 34.5949 309.74 34.9503C310.227 34.9833 310.762 35.0329 311.115 35.2643C311.383 35.4462 311.492 35.7024 311.578 35.9503C311.675 36.2065 311.736 36.4545 311.797 36.7107C312.004 37.595 312.016 38.4794 312.016 39.3968C311.858 41.0911 311.626 42.7606 311.115 44.4301C310.872 45.2235 310.129 45.2814 309.326 45.1905C308.815 45.1243 308.267 45.0004 307.817 44.959C306.564 44.8433 305.298 44.7524 304.032 44.6863C301.501 44.5458 298.958 44.5127 296.414 44.5045C294.759 44.5045 293.104 44.521 291.449 44.5375C284.561 44.6036 277.673 44.6698 270.797 44.7276C270.882 44.7441 270.979 44.7524 271.064 44.7689C278.792 45.9012 286.873 45.2896 294.735 45.9839C297.899 46.2649 301.063 46.7525 304.251 46.6285C305.432 46.5789 306.661 46.4384 307.817 46.6616C308.864 46.8517 309.484 47.3724 310.044 47.9592C310.641 48.5956 310.835 49.3973 310.908 50.1907C310.969 50.6453 310.981 51.0998 311.018 51.5214C311.225 54.0504 310.945 56.5712 310.726 59.092C310.677 59.5383 310.641 59.9846 310.604 60.4309C310.58 60.7532 310.531 61.1003 310.215 61.34C309.983 61.5053 309.655 61.588 309.326 61.6458C309.314 61.6458 309.29 61.6541 309.278 61.6541C308.584 61.7781 307.805 61.8772 307.087 61.8442C306.844 61.8359 306.637 61.7946 306.405 61.8029C305.541 61.8607 304.653 62.0591 303.777 62.1417C302.925 62.2244 302.073 62.274 301.209 62.2905C301.55 62.3483 301.89 62.3979 302.231 62.4558C304.604 62.8277 306.965 63.2079 309.338 63.5798C309.643 63.6294 309.971 63.6873 310.202 63.8278C311.127 64.4146 310.908 66.4147 311.006 67.175C311.176 68.6379 311.261 70.1091 311.286 71.5802C311.31 72.2827 311.31 72.977 311.31 73.6795C311.31 74.8944 311.286 76.1094 311.261 77.3243C311.249 78.1756 311.237 79.0186 311.225 79.8699C311.188 83.4238 311.115 86.9694 311.079 90.5233C311.054 92.1019 311.042 93.6888 311.042 95.2674C311.042 96.9617 311.371 99.8709 310.081 101.392C309.716 101.83 309.083 102.078 308.353 102.226C307.72 102.359 307.014 102.408 306.357 102.441C295.599 102.921 284.853 103.417 274.095 103.904C274.046 103.904 273.985 103.912 273.936 103.912H273.888C273.851 103.921 273.827 103.921 273.79 103.921C274.022 103.921 274.253 103.929 274.484 103.929C286.617 104.094 298.738 104.582 310.811 105.375C311.383 105.417 311.553 106.26 311.651 106.532C311.931 107.392 312.064 108.276 312.162 109.152C312.186 109.301 312.21 109.458 312.223 109.607C312.539 112.417 312.624 115.235 312.673 118.045V118.186C312.685 118.459 312.697 118.723 312.709 118.988C312.722 119.302 312.734 119.607 312.746 119.913C312.782 121.541 312.928 123.327 312.673 124.93C312.588 125.426 312.442 125.922 312.198 126.401C312.089 126.616 311.979 126.905 311.772 127.079C311.188 127.567 310.397 127.848 309.545 128.038C309.253 128.112 308.949 128.17 308.657 128.219C306.661 128.583 304.641 128.872 302.596 129.096C302.803 129.12 302.998 129.145 303.205 129.178C305.347 129.443 307.501 129.724 309.655 130.005C310.421 130.104 311.237 130.261 311.87 130.6C312.198 130.782 312.466 131.013 312.649 131.269C312.892 131.592 313.026 131.93 313.123 132.277C313.147 132.401 313.172 132.517 313.196 132.641C313.403 133.823 313.123 134.988 313.318 136.162C313.427 136.765 313.488 137.36 313.525 137.972C313.61 139.137 313.683 140.311 313.768 141.476C313.841 142.526 313.914 143.576 313.987 144.625C314.194 147.311 311.213 149.625 307.269 149.824Z" fill="url(#paint1_linear_20_436)"/>
<path d="M312.746 24.6112C312.685 25.5451 312.636 26.4873 312.576 27.4295C312.539 27.9171 312.503 28.3386 312.296 28.8015C311.918 29.6114 312.004 30.4958 311.712 31.3305C311.602 31.595 311.48 31.876 311.188 32.0661C310.896 32.2479 310.495 32.3223 310.105 32.3802C310.069 32.3884 310.032 32.3884 309.996 32.3967C305.517 33.1158 300.953 33.5786 296.353 33.7935C295.501 33.8348 294.662 33.8596 293.81 33.8844C299.116 34.2398 304.434 34.5952 309.74 34.9506C310.227 34.9836 310.762 35.0332 311.115 35.2646C311.383 35.4464 311.492 35.7027 311.578 35.9506C311.675 36.2068 311.736 36.4548 311.797 36.711C304.884 36.4052 297.947 36.2647 290.877 36.2316C240.263 35.9754 189.721 37.9176 139.436 41.7773C114.293 43.7031 89.199 45.728 63.9832 47.0999C44.5845 48.1578 24.6626 49.6703 5.02052 49.5794C5.03269 49.505 5.05703 49.4224 5.09354 49.3397C5.27608 48.8603 5.14221 48.3149 5.13004 47.819L5.05703 45.4635C13.1378 44.9758 21.2307 44.6866 29.3723 44.2816C43.7083 43.5626 58.02 42.7195 72.3316 41.736C123.335 38.2317 174.01 33.3637 225.269 31.6694C229.006 31.5537 232.742 31.438 236.49 31.3388C226.925 30.9751 217.347 30.628 207.781 30.3553C194.954 29.9834 182.091 29.504 169.252 29.5701C155.865 29.6528 142.527 30.314 129.165 30.5536C102.598 31.0413 76.0799 32.0826 49.4889 32.3141C36.3456 32.4298 22.7154 32.967 9.70588 31.471C8.16032 31.2892 6.61476 31.0991 5.08136 30.8925C5.40995 30.4627 5.95759 30.0495 6.72428 30.0743C7.86824 30.1156 9.02438 29.9586 10.1683 29.8842C12.7118 29.7106 15.2675 29.5701 17.8231 29.4627C23.0562 29.2313 28.3013 29.1073 33.5587 29.0494C36.1143 29.0246 38.6822 29.0164 41.2378 29.0081H41.6151C43.9152 28.9998 46.2396 28.9502 48.5397 29.0246C43.5988 28.8511 38.67 28.6279 33.7412 28.3386C31.1856 28.1816 28.6177 28.0163 26.0621 27.8345C21.6931 27.5204 17.166 27.5535 12.8944 27.2725C10.5091 27.1072 8.11164 27.0163 5.72636 26.9915C5.59249 26.9832 5.45863 26.9832 5.32476 26.9832C5.16656 26.9749 4.99618 26.9749 4.88665 26.9006C4.78929 26.8344 4.76495 26.7353 4.74061 26.6443C4.35118 24.8839 4.0591 23.0739 3.98608 21.3052C3.92523 19.8506 3.86438 18.3877 3.7792 16.9331C8.31853 16.5364 12.87 16.2141 17.4459 16.0653C32.4634 15.5859 47.5418 15.6934 62.5715 15.1975C88.6027 14.3462 114.987 13.0156 141.042 14.0817C166.903 15.1396 192.642 17.2968 218.43 18.9332C245.337 20.644 272.269 22.1978 299.189 23.793C303.704 24.0574 308.231 24.3384 312.746 24.6112ZM311.651 106.533C311.553 106.26 311.383 105.417 310.811 105.376C298.738 104.582 286.617 104.095 274.484 103.929C274.253 103.929 274.022 103.921 273.79 103.921C273.827 103.921 273.851 103.921 273.888 103.913H273.936C273.985 103.913 274.046 103.904 274.095 103.904C284.853 103.417 295.599 102.921 306.357 102.442C307.014 102.408 307.72 102.359 308.353 102.227C309.083 102.078 309.716 101.83 310.081 101.392C311.371 99.8712 311.042 96.9619 311.042 95.2676C311.042 93.689 311.054 92.1022 311.079 90.5236C261.523 89.4988 211.992 88.0111 162.558 85.6473C164.664 85.3002 166.769 84.9613 168.875 84.6307C187.665 81.6802 206.577 80.0768 225.841 79.4404C254.331 78.5065 282.966 79.366 311.261 77.3246C311.286 76.1097 311.31 74.8947 311.31 73.6798C282.054 74.3079 252.737 73.5062 223.481 74.1261C205.043 74.5228 186.813 75.8534 168.704 78.2585C155.135 80.052 141.663 82.2505 128.045 83.8456C110.752 82.8703 93.4584 81.7794 76.1773 80.5396C63.1069 79.6057 50.0366 78.5809 37.0027 77.4403C36.3091 77.3824 35.6154 77.3411 34.9339 77.2833C42.4183 75.9857 50.0488 75.0104 57.6184 74.217C78.3314 72.0268 99.3851 71.0515 120.256 69.8035C165.017 67.1257 209.862 65.0017 254.708 63.1173C273.547 62.3238 292.337 61.6461 310.726 59.0923C310.945 56.5715 311.225 54.0507 311.018 51.5216C310.981 51.1001 310.969 50.6456 310.908 50.191C294.722 48.7612 278.354 48.8934 261.913 49.3645C239.082 50.0257 216.252 50.7943 193.445 51.877C148.49 54.0176 103.182 55.9764 58.5189 60.1832C40.106 61.9188 22.3746 64.7785 5.48297 69.63C5.48297 70.4317 5.49514 71.2334 5.49514 72.0351C5.50731 75.4898 5.50731 78.9362 5.48297 82.391C5.48297 83.8125 5.33693 85.2341 5.45863 86.6639C5.56816 87.8954 5.75071 89.0855 5.75071 90.3252C5.75071 90.4823 5.7507 90.6393 5.77504 90.7963C9.94928 91.5154 14.2696 91.9865 18.3829 92.565C30.0903 94.2263 41.8585 95.3751 53.7119 96.4661C77.8202 98.681 101.977 100.623 126.195 102.218C173.852 105.367 221.801 106.938 269.641 108.186C283.806 108.549 297.984 108.872 312.162 109.153C312.064 108.277 311.931 107.392 311.651 106.533ZM312.649 131.269C312.466 131.013 312.198 130.782 311.87 130.6C311.237 130.261 310.422 130.104 309.655 130.005C307.501 129.724 305.347 129.443 303.205 129.178C302.998 129.145 302.803 129.121 302.596 129.096C304.641 128.873 306.661 128.583 308.657 128.22C308.949 128.17 309.253 128.112 309.545 128.038C310.397 127.848 311.188 127.567 311.772 127.079C311.979 126.906 312.089 126.616 312.198 126.401C312.442 125.922 312.588 125.426 312.673 124.93C312.928 123.327 312.782 121.542 312.746 119.914C312.734 119.608 312.722 119.302 312.709 118.988C273.231 119.971 233.825 120.525 194.322 119.194C150.961 117.74 107.6 114.946 64.3726 112.285C52.0203 111.525 39.7044 110.657 27.3399 110.062C20.1841 109.715 12.4928 109.194 4.95967 109.219C4.85014 112.69 4.63108 116.17 4.39986 119.641C9.69372 120.608 15.1458 121.285 20.1719 121.856C31.2951 123.112 42.3939 124.104 53.6145 124.848C75.5445 126.319 97.511 127.525 119.477 128.79C132.012 129.517 144.547 130.22 157.082 130.864C147.955 131.393 138.827 131.881 129.676 132.228C106.115 133.129 82.5908 134.567 59.0057 135.336C40.7754 135.939 22.618 135.642 4.43637 135.328C4.4242 135.427 4.41203 135.534 4.39986 135.642C4.24165 136.807 4.07127 137.972 3.91306 139.138C3.86438 139.551 3.81571 139.964 3.75486 140.377C21.1212 142.435 39.1081 142.336 56.6691 141.815C80.2785 141.113 103.669 139.468 127.047 137.179C151.679 134.757 176.943 133.906 201.794 132.881C202.244 132.865 202.707 132.848 203.157 132.832C219.391 133.352 235.65 133.666 251.946 133.658C272.379 133.641 292.775 133.311 313.123 132.278C313.026 131.931 312.892 131.592 312.649 131.269Z" fill="url(#paint2_linear_20_436)"/>
<path d="M70.3553 141.46C68.5821 142.053 66.9769 142.32 65.3596 142.268C65.8123 142.488 66.2297 142.73 66.534 143.097C67.0938 143.772 67.1473 144.583 66.534 145.253C65.2902 146.611 62.6688 146.519 60.6535 146.109C58.6796 145.708 57.0525 144.118 57.106 142.739C57.1462 141.712 58.2999 140.993 59.7797 140.891C58.4873 140.332 57.2581 139.66 56.2079 138.955C53.3346 137.027 51.2962 133.66 52.6628 131.009C53.2944 129.784 55.4485 128.649 57.5222 129.183C60.0535 129.836 62.2745 130.802 64.5673 131.785C65.1831 132.049 65.7831 132.316 66.4317 132.544C66.7494 132.655 67.9517 132.99 67.056 132.742C69.5521 133.434 71.2607 134.175 72.6043 135.781C74.1656 137.647 73.4281 140.434 70.3553 141.46ZM48.6663 125.444C48.5421 125.32 48.4411 125.191 48.3535 125.055C47.975 124.631 47.4651 124.294 46.825 124.043C46.1605 123.788 45.4437 123.66 44.6746 123.658C43.8057 123.72 43.3602 123.767 42.6556 123.988C42.0033 124.151 41.6005 124.373 41.1624 124.764C40.4115 125.435 40.2229 126.46 40.566 127.228C40.8313 127.822 41.3559 128.316 42.0934 128.692C42.798 129.053 43.7582 129.341 44.6746 129.298C45.2502 129.271 45.838 129.231 46.3978 129.134C48.6699 128.74 50.0171 126.797 48.6663 125.444ZM259.963 106.388C259.386 104.998 257.375 104.004 255.207 103.991C254.443 103.986 253.795 103.845 252.947 103.845C251.587 103.845 250.424 104.222 249.209 104.561C247.227 105.113 245.387 105.836 244.365 107.143C243.389 108.39 243.606 110.132 245.28 111.067C245.028 111.235 244.773 111.406 244.486 111.568C243.258 112.265 244.196 113.914 245.875 113.789C246.442 113.747 247.018 113.852 247.594 113.859C248.399 113.868 249.155 113.761 249.912 113.585C250.521 113.443 251.17 113.323 251.755 113.142C252.19 113.007 252.524 112.854 252.822 112.598C252.914 112.519 253.597 111.835 253.166 112.121C253.372 111.984 253.492 111.826 253.552 111.661C254.961 111.397 256.036 111.014 257.037 110.397C257.258 110.289 257.477 110.182 257.696 110.074C259.484 109.201 260.587 107.892 259.963 106.388ZM253.647 99.9208C253.217 99.8489 252.722 99.7224 252.283 99.7613C251.801 99.8043 251.299 100.026 250.861 100.165C250.368 100.323 250.199 100.775 250.405 101.086C250.636 101.433 251.162 101.591 251.719 101.513C252.15 101.452 252.693 101.43 253.076 101.281C253.433 101.143 253.683 100.856 253.937 100.645C254.226 100.403 254.169 100.008 253.647 99.9208ZM264.1 91.1361C263.978 90.9344 263.851 90.7344 263.721 90.5352C260.924 89.2335 258.682 89.0996 256.995 90.1319C256.65 90.3443 256.336 90.5906 256.104 90.8617C255.121 92.0088 255.555 93.6949 257.416 94.3494C258.39 94.6916 259.504 94.8371 260.587 94.6205C261.15 94.5081 261.691 94.3222 262.233 94.1693C262.507 94.0296 262.78 93.8891 263.054 93.7494C263.45 93.5064 263.73 93.218 263.893 92.8849C264.216 92.3807 264.423 91.6642 264.1 91.1361ZM252.973 36.6589C252.77 36.082 252.569 35.5382 252.009 35.0588C251.402 34.5382 250.521 34.2158 249.684 33.8737C248.993 33.591 248.324 33.2902 247.545 33.1199C246.736 32.943 245.793 32.9406 244.938 32.9083C243.456 32.8521 242.501 33.4877 242.153 34.2778C240.025 32.9736 236.759 32.2298 234.18 31.8537C231.408 31.4487 224.48 31.6264 225.048 34.5927C225.495 36.9193 228.058 38.3152 230.949 39.5045C233.749 40.6567 236.21 41.5484 239.131 41.3178C241.519 41.503 244.45 41.7393 245.598 39.9351C245.915 39.4368 245.975 38.9673 245.883 38.5177C246.472 38.8086 247.059 39.102 247.784 39.2343C248.792 39.4186 249.828 39.2434 250.838 39.145C252.519 38.9822 253.309 37.616 252.973 36.6589ZM219.628 38.1879C219.018 37.7929 218.43 37.3548 217.727 37.0325C216.869 36.6391 216.003 36.568 215.002 36.4531C214.15 36.3556 213.237 36.1721 212.377 36.2399C211.521 36.3077 210.915 36.6788 210.299 37.0441C209.983 37.2325 209.87 37.5656 209.985 37.8309C210.183 38.2846 210.382 38.769 210.902 39.1119C211.56 39.5475 212.691 39.7252 213.544 39.955C214.388 40.1822 215.158 40.4252 216.087 40.4186C217.011 40.412 217.976 40.2112 218.874 40.0798C220.14 39.8946 220.515 38.7623 219.628 38.1879ZM251.186 51.7299C251.061 51.1117 250.519 50.6621 249.877 50.2381C248.985 49.6505 247.878 49.4959 246.721 49.2827C245.772 49.1075 244.746 49.3546 244.153 49.8621C243.528 50.3985 243.517 51.0613 243.962 51.658C244.125 51.8762 244.288 52.0952 244.453 52.3143C244.819 52.8044 245.307 53.1573 245.985 53.473C246.644 53.7796 247.359 54.0011 248.18 54.0251C249.105 54.0524 250.085 53.7573 250.646 53.2763C251.184 52.8151 251.301 52.2961 251.186 51.7299ZM190.37 103.741C186.4 102.233 179.808 102.699 176.666 104.728C174.686 106.006 174.587 108.395 176.666 109.665C181.248 112.464 189.291 111.27 192.194 107.804C192.25 107.77 192.305 107.735 192.361 107.701C194.581 106.341 193.001 104.08 190.37 103.741ZM168.698 101.532C167.586 101.135 166.683 100.818 165.359 101C164.497 101.119 163.617 101.3 162.787 101.496C161.714 101.749 160.964 102.385 161.142 103.165C161.324 103.971 162.229 104.388 163.398 104.483C164.277 104.554 165.21 104.614 166.095 104.598C167.402 104.575 168.172 104.09 169.095 103.564C170.034 103.027 169.748 101.907 168.698 101.532ZM46.8956 25.3071C45.1163 23.5971 41.3121 23.9285 39.0327 24.9658C38.1138 25.384 37.0429 25.908 36.2409 26.4378C35.5375 26.9022 35.1907 27.4502 34.9801 28.0692C34.929 28.3205 34.8779 28.5717 34.8268 28.823C34.9205 28.5362 34.9156 28.5635 34.8097 28.904C34.4021 30.266 35.6981 31.5074 37.8656 31.5595C37.997 31.5628 38.0883 31.5636 38.1564 31.5628C38.1942 31.5694 38.238 31.5777 38.294 31.5868C39.545 31.7926 40.7474 31.6661 41.8792 31.276C42.6337 31.0165 43.4101 30.6966 44.1257 30.3917C46.5779 29.3445 48.8391 27.175 46.8956 25.3071ZM31.945 26.4014C30.9483 26.5964 29.9917 26.8279 29.326 27.3857C28.7601 27.8593 28.2295 28.3403 27.7768 28.8651C27.0697 29.6859 27.4434 30.876 28.7553 31.3347C30.1146 31.8099 31.6553 31.5339 32.4865 30.6867C32.6545 30.5156 32.8322 30.3503 33.011 30.1842C33.0269 30.1735 33.0354 30.1669 33.0573 30.1512C33.1766 30.0652 33.2873 29.9743 33.4053 29.8875C33.8617 29.5528 34.1769 29.2338 34.3923 28.7949C34.4872 28.6015 34.5822 28.4089 34.6929 28.2188C35.3124 27.151 33.4674 26.103 31.945 26.4014ZM61.5346 18.3621C60.8117 18.2811 59.9489 18.2117 59.2942 18.4911C58.8414 18.6845 58.5092 18.9754 58.1563 19.2399C57.6512 19.6176 57.4395 20.2069 57.88 20.6589C58.3303 21.121 59.0739 21.2987 59.8783 21.197C60.3785 21.1342 61.0089 21.1069 61.4421 20.9218C62.1066 20.6383 62.4352 20.2027 62.7102 19.7316C63.0144 19.2085 62.367 18.4547 61.5346 18.3621ZM134.485 58.9303C134.563 58.8402 134.639 58.7485 134.702 58.6509C135.492 57.4294 135.276 56.0219 133.368 55.2847C133.108 55.1838 132.84 55.1028 132.57 55.0251C130.626 53.9656 128.473 53.6763 125.875 53.8077C123.355 53.9342 121.125 54.7822 118.849 55.4574C115.697 56.393 114.782 59.2997 116.001 61.2122C116.377 61.8023 116.917 62.2999 117.558 62.7131C115.604 63.2925 113.818 63.9768 112.408 64.6306C111.644 64.9852 111.068 65.3835 110.645 65.8034C108.964 66.7885 108.28 68.1159 109.894 69.9036C112.948 73.2889 121.765 72.3938 126.357 71.2334C129.14 70.5301 132.313 69.5374 133.772 67.7134C135.404 65.672 134.194 63.2189 131.276 62.0817C132.844 61.3519 134.031 60.351 134.485 58.9303ZM103.534 66.8324C102.766 66.7133 102.322 66.9646 101.685 67.1696C101.672 67.1737 101.595 67.196 101.545 67.2109C101.476 67.2274 101.363 67.2547 101.343 67.2588C101.121 67.3076 100.893 67.3464 100.663 67.3795C99.6589 67.5241 99.1843 68.3134 99.5591 68.9011C99.9729 69.549 101.057 69.7408 101.976 69.4399C102.499 69.2688 102.968 69.0515 103.422 68.8085C103.952 68.5242 104.565 68.1655 104.496 67.6679C104.445 67.2977 104.126 66.9241 103.534 66.8324ZM93.6349 62.8412C93.4974 62.8007 93.3562 62.766 93.2175 62.7264C91.0695 61.6263 87.8481 62.2569 85.9983 63.3958C84.6134 64.2487 83.484 65.2959 83.1847 66.5414C82.9705 67.4324 83.125 68.2556 84.1376 68.9258C85.026 69.5143 86.5131 69.8366 87.7398 69.5565C90.6277 68.8969 94.5598 67.5555 94.9322 65.3852C94.9723 65.3066 95.0088 65.2281 95.0539 65.1496C95.4908 64.3851 94.7849 63.1834 93.6349 62.8412ZM294.67 141.144C294.418 140.386 293.541 139.7 292.544 139.313C290.705 138.6 288.461 138.87 286.936 139.791C286.156 140.263 285.376 140.734 284.596 141.206C283.022 142.158 283.019 143.858 284.261 144.922C285.557 146.032 287.909 146.359 289.777 145.651C290.699 145.302 291.622 144.952 292.544 144.602C294.394 143.901 295.111 142.468 294.67 141.144Z" fill="#EB924D"/>
<path d="M71.296 140.133C69.5229 140.726 67.9177 140.994 66.3015 140.941C66.7542 141.161 67.1716 141.403 67.4759 141.77C68.0357 142.445 68.0893 143.256 67.4759 143.926C66.2321 145.284 63.6108 145.192 61.5954 144.782C59.6215 144.381 57.9944 142.791 58.048 141.413C58.0881 140.385 59.2418 139.666 60.7217 139.564C59.4292 139.005 58.2001 138.333 57.1498 137.628C54.2765 135.7 52.2381 132.333 53.6048 129.682C54.2364 128.457 56.3904 127.322 58.4642 127.857C60.9943 128.509 63.2153 129.475 65.5093 130.458C66.1251 130.722 66.7238 130.989 67.3737 131.217C67.6901 131.328 68.8937 131.663 67.998 131.415C70.494 132.107 72.2026 132.849 73.5462 134.454C75.1064 136.32 74.3689 139.106 71.296 140.133ZM49.607 124.117C49.4829 123.993 49.3818 123.865 49.2942 123.728C48.9157 123.304 48.4058 122.967 47.7657 122.717C47.1012 122.461 46.3844 122.333 45.6153 122.331C44.7464 122.393 44.301 122.44 43.5963 122.661C42.944 122.824 42.5412 123.046 42.1031 123.437C41.3534 124.108 41.1636 125.133 41.5068 125.901C41.7721 126.495 42.2966 126.989 43.0341 127.366C43.7387 127.726 44.6989 128.014 45.6153 127.971C46.1909 127.944 46.7787 127.904 47.3385 127.807C49.6106 127.413 50.9591 125.47 49.607 124.117ZM260.468 105.676C259.891 104.286 257.88 103.292 255.712 103.279C254.948 103.274 254.3 103.134 253.452 103.134C252.092 103.134 250.929 103.51 249.714 103.85C247.732 104.402 245.892 105.125 244.87 106.431C243.894 107.679 244.111 109.421 245.785 110.356C245.533 110.524 245.278 110.695 244.991 110.858C243.761 111.555 244.701 113.204 246.38 113.079C246.946 113.037 247.523 113.142 248.099 113.148C248.904 113.157 249.66 113.051 250.417 112.875C251.026 112.733 251.675 112.613 252.26 112.432C252.695 112.296 253.029 112.143 253.327 111.888C253.419 111.809 254.102 111.125 253.671 111.41C253.877 111.274 253.997 111.115 254.057 110.951C255.466 110.687 256.541 110.304 257.543 109.686C257.763 109.579 257.982 109.471 258.202 109.364C259.987 108.489 261.092 107.18 260.468 105.676ZM254.152 99.2088C253.722 99.1369 253.227 99.0104 252.788 99.0493C252.306 99.0923 251.804 99.3138 251.366 99.4534C250.873 99.6113 250.704 100.063 250.911 100.374C251.141 100.721 251.668 100.879 252.226 100.801C252.656 100.741 253.199 100.719 253.582 100.57C253.939 100.432 254.19 100.145 254.443 99.9336C254.731 99.6915 254.673 99.2956 254.152 99.2088ZM264.605 90.424C264.483 90.2224 264.356 90.0224 264.226 89.8232C261.43 88.5215 259.187 88.3876 257.5 89.4199C257.156 89.6323 256.842 89.8786 256.609 90.1497C255.626 91.2968 256.06 92.9829 257.922 93.6374C258.896 93.9796 260.011 94.1251 261.094 93.9085C261.656 93.7961 262.197 93.6102 262.739 93.4573C263.013 93.3176 263.287 93.1771 263.56 93.0374C263.956 92.7944 264.236 92.506 264.399 92.1729C264.721 91.6687 264.928 90.9522 264.605 90.424ZM253.913 35.332C253.71 34.7551 253.509 34.2113 252.95 33.7319C252.342 33.2112 251.461 32.8881 250.625 32.5468C249.934 32.2641 249.265 31.9632 248.486 31.793C247.676 31.6161 246.733 31.6136 245.879 31.5814C244.396 31.5252 243.441 32.1608 243.093 32.9509C240.966 31.6467 237.7 30.9037 235.121 30.5268C232.349 30.1218 225.42 30.2995 225.989 33.2658C226.435 35.5924 228.998 36.9883 231.89 38.1776C234.69 39.3297 237.151 40.2215 240.072 39.9909C242.461 40.1761 245.391 40.4124 246.539 38.6082C246.856 38.1098 246.916 37.6404 246.823 37.1908C247.412 37.4817 248 37.7751 248.724 37.9074C249.733 38.0917 250.769 37.9164 251.779 37.8181C253.46 37.6553 254.251 36.2883 253.913 35.332ZM220.569 36.8602C219.96 36.4651 219.372 36.0271 218.669 35.7048C217.811 35.3114 216.945 35.2403 215.944 35.1254C215.092 35.0279 214.179 34.8444 213.319 34.9122C212.463 34.9799 211.857 35.351 211.241 35.7163C210.925 35.9048 210.812 36.2378 210.927 36.5031C211.125 36.9569 211.324 37.4412 211.844 37.7842C212.502 38.2198 213.633 38.3975 214.486 38.6272C215.33 38.8545 216.099 39.0975 217.029 39.0909C217.953 39.0843 218.918 38.8834 219.816 38.752C221.081 38.5669 221.455 37.4346 220.569 36.8602ZM252.127 50.403C252.002 49.7848 251.46 49.3352 250.817 48.9112C249.925 48.3236 248.819 48.169 247.662 47.9558C246.713 47.7806 245.687 48.0277 245.094 48.5352C244.469 49.0716 244.458 49.7344 244.903 50.3311C245.066 50.5501 245.229 50.7683 245.393 50.9873C245.76 51.4775 246.248 51.8295 246.926 52.1453C247.585 52.4519 248.3 52.6734 249.121 52.6974C250.046 52.7246 251.026 52.4287 251.587 51.9486C252.125 51.4882 252.241 50.9692 252.127 50.403ZM191.311 102.414C187.341 100.906 180.749 101.372 177.606 103.401C175.626 104.679 175.528 107.068 177.606 108.338C182.188 111.137 190.231 109.943 193.135 106.478C193.191 106.444 193.246 106.409 193.302 106.375C195.522 105.014 193.942 102.753 191.311 102.414ZM169.639 100.205C168.527 99.808 167.624 99.4906 166.299 99.6733C165.438 99.7923 164.558 99.9733 163.728 100.169C162.655 100.422 161.905 101.058 162.083 101.838C162.265 102.644 163.169 103.061 164.339 103.156C165.218 103.227 166.151 103.287 167.036 103.271C168.343 103.248 169.113 102.764 170.036 102.237C170.975 101.699 170.689 100.58 169.639 100.205ZM47.4639 24.5058C45.6847 22.7958 41.8804 23.1273 39.601 24.1645C38.6822 24.5819 37.6112 25.1067 36.8092 25.6365C36.1058 26.101 35.759 26.6489 35.5484 27.268C35.4973 27.5192 35.4462 27.7705 35.3951 28.0217C35.4888 27.7349 35.4839 27.7622 35.3781 28.1027C34.9704 29.4648 36.2665 30.7062 38.4339 30.7582C38.5653 30.7615 38.6566 30.7615 38.7235 30.7615C38.7613 30.7681 38.8063 30.7764 38.8611 30.7855C40.1121 30.9913 41.3145 30.8648 42.4463 30.4747C43.2008 30.2152 43.9772 29.8954 44.6928 29.5904C47.1463 28.5441 49.4074 26.3737 47.4639 24.5058ZM32.5121 25.6009C31.5154 25.796 30.5588 26.0274 29.8931 26.5853C29.3273 27.0589 28.7966 27.5399 28.3439 28.0647C27.6369 28.8854 28.0105 30.0755 29.3224 30.5342C30.6805 31.0095 32.2224 30.7334 33.0536 29.8871C33.2216 29.716 33.3993 29.5507 33.5782 29.3846C33.594 29.3739 33.6025 29.3672 33.6244 29.3515C33.7437 29.2656 33.8544 29.1747 33.9725 29.0879C34.4288 28.7532 34.744 28.4341 34.9594 27.9953C35.0544 27.8019 35.1493 27.6093 35.2588 27.4192C35.8795 26.3497 34.0345 25.3018 32.5121 25.6009ZM62.1029 17.5609C61.3801 17.4799 60.5172 17.4104 59.8625 17.6898C59.4098 17.8832 59.0775 18.1741 58.7246 18.4386C58.2196 18.8163 58.0078 19.4056 58.4483 19.8577C58.8986 20.3197 59.6422 20.4974 60.4454 20.3957C60.9456 20.3329 61.576 20.3056 62.0092 20.1205C62.6737 19.837 63.0023 19.4015 63.2773 18.9304C63.5828 18.4072 62.9341 17.6543 62.1029 17.5609ZM135.426 57.6034C135.504 57.5133 135.579 57.4216 135.644 57.324C136.434 56.1025 136.218 54.695 134.31 53.9577C134.05 53.8569 133.782 53.7759 133.512 53.6982C131.568 52.6387 129.415 52.3494 126.817 52.4808C124.297 52.6073 122.067 53.4552 119.793 54.1305C116.641 55.0661 115.724 57.9728 116.944 59.8853C117.32 60.4754 117.86 60.973 118.501 61.3862C116.547 61.9656 114.762 62.6499 113.351 63.3037C112.587 63.6582 112.011 64.0566 111.587 64.4765C109.906 65.4616 109.222 66.789 110.836 68.5767C113.89 71.962 122.707 71.0669 127.299 69.9065C130.082 69.2031 133.255 68.2105 134.714 66.3865C136.346 64.345 135.136 61.892 132.218 60.7548C133.784 60.0242 134.972 59.0241 135.426 57.6034ZM104.08 66.0617C103.312 65.9426 102.868 66.1939 102.232 66.3989C102.217 66.403 102.142 66.4253 102.092 66.4402C102.022 66.4567 101.909 66.484 101.89 66.4881C101.667 66.5369 101.439 66.5757 101.209 66.6088C100.205 66.7534 99.7307 67.5427 100.106 68.1304C100.519 68.7783 101.604 68.9701 102.522 68.6692C103.046 68.4982 103.514 68.2808 103.968 68.0378C104.499 67.7535 105.111 67.3948 105.043 66.8972C104.992 66.5261 104.673 66.1534 104.08 66.0617ZM94.1813 62.0697C94.0438 62.0292 93.9026 61.9945 93.7639 61.9548C91.6159 60.8548 88.3946 61.4854 86.5448 62.6243C85.1598 63.4772 84.0305 64.5244 83.7311 65.7699C83.5169 66.6609 83.6715 67.484 84.684 68.1543C85.5724 68.742 87.0595 69.0651 88.2862 68.7849C91.1729 68.1254 95.1062 66.784 95.4786 64.6137C95.5188 64.5351 95.5553 64.4566 95.6003 64.3781C96.0372 63.6144 95.3313 62.4127 94.1813 62.0697ZM295.612 139.816C295.36 139.058 294.483 138.372 293.486 137.985C291.647 137.272 289.403 137.542 287.878 138.464C287.098 138.936 286.318 139.407 285.538 139.879C283.964 140.83 283.961 142.53 285.203 143.595C286.499 144.704 288.851 145.031 290.719 144.323C291.641 143.974 292.564 143.624 293.486 143.275C295.336 142.574 296.053 141.141 295.612 139.816Z" fill="url(#paint3_linear_20_436)"/>
<path d="M70.3553 140.989C68.5821 141.581 66.9769 141.849 65.3596 141.797C65.8123 142.017 66.2297 142.258 66.534 142.625C67.0938 143.3 67.1473 144.112 66.534 144.781C65.2902 146.139 62.6688 146.048 60.6535 145.638C58.6796 145.237 57.0525 143.647 57.106 142.269C57.1462 141.242 58.2999 140.522 59.7797 140.42C58.4873 139.861 57.2581 139.189 56.2079 138.484C53.3346 136.557 51.2962 133.189 52.6628 130.539C53.2944 129.314 55.4485 128.178 57.5222 128.713C60.0535 129.365 62.2745 130.331 64.5673 131.315C65.1831 131.578 65.7831 131.845 66.4317 132.073C66.7494 132.184 67.9517 132.52 67.056 132.272C69.5521 132.963 71.2607 133.705 72.6043 135.311C74.1656 137.175 73.4281 139.961 70.3553 140.989ZM48.6663 124.972C48.5421 124.848 48.4411 124.72 48.3535 124.584C47.975 124.16 47.4651 123.822 46.825 123.572C46.1605 123.317 45.4437 123.189 44.6746 123.187C43.8057 123.249 43.3602 123.295 42.6556 123.517C42.0033 123.68 41.6005 123.902 41.1624 124.293C40.4115 124.964 40.2229 125.989 40.566 126.757C40.8313 127.351 41.3559 127.844 42.0934 128.221C42.798 128.581 43.7582 128.87 44.6746 128.827C45.2502 128.8 45.838 128.76 46.3978 128.662C48.6699 128.268 50.0171 126.325 48.6663 124.972ZM259.963 106.135C259.386 104.745 257.375 103.751 255.207 103.738C254.443 103.733 253.795 103.592 252.947 103.592C251.587 103.592 250.424 103.969 249.209 104.307C247.227 104.86 245.387 105.583 244.365 106.889C243.389 108.137 243.606 109.879 245.28 110.814C245.028 110.982 244.773 111.153 244.486 111.316C243.258 112.013 244.196 113.662 245.875 113.537C246.442 113.495 247.018 113.6 247.594 113.606C248.399 113.615 249.155 113.509 249.912 113.333C250.521 113.191 251.17 113.071 251.755 112.89C252.19 112.754 252.524 112.601 252.822 112.346C252.914 112.267 253.597 111.583 253.166 111.868C253.372 111.732 253.492 111.573 253.552 111.409C254.961 111.145 256.036 110.761 257.037 110.144C257.258 110.037 257.477 109.929 257.696 109.822C259.484 108.948 260.587 107.639 259.963 106.135ZM253.647 99.6675C253.217 99.5956 252.722 99.4692 252.283 99.508C251.801 99.551 251.299 99.7725 250.861 99.9122C250.368 100.07 250.199 100.521 250.405 100.833C250.636 101.18 251.162 101.338 251.719 101.26C252.15 101.2 252.693 101.178 253.076 101.029C253.433 100.891 253.683 100.604 253.937 100.392C254.226 100.15 254.169 99.7543 253.647 99.6675ZM264.1 90.8828C263.978 90.6811 263.851 90.4811 263.721 90.2819C260.924 88.9802 258.682 88.8463 256.995 89.8786C256.65 90.091 256.336 90.3373 256.104 90.6084C255.121 91.7556 255.555 93.4416 257.416 94.0962C258.39 94.4384 259.504 94.5838 260.587 94.3673C261.15 94.2549 261.691 94.0689 262.233 93.916C262.507 93.7763 262.78 93.6358 263.054 93.4962C263.45 93.2532 263.73 92.9647 263.893 92.6317C264.216 92.1275 264.423 91.4109 264.1 90.8828ZM252.973 36.1875C252.77 35.6106 252.569 35.0668 252.009 34.5874C251.402 34.0667 250.521 33.7444 249.684 33.4022C248.993 33.1196 248.324 32.8187 247.545 32.6485C246.736 32.4716 245.793 32.4691 244.938 32.4369C243.456 32.3807 242.501 33.0162 242.153 33.8064C240.025 32.5022 236.759 31.7583 234.18 31.3823C231.408 30.9773 224.48 31.155 225.048 34.1213C225.495 36.4478 228.058 37.8438 230.949 39.0331C233.749 40.1852 236.21 41.077 239.131 40.8464C241.519 41.0315 244.45 41.2679 245.598 39.4637C245.915 38.9653 245.975 38.4959 245.883 38.0463C246.472 38.3372 247.059 38.6306 247.784 38.7628C248.792 38.9471 249.828 38.7719 250.838 38.6736C252.519 38.5107 253.309 37.1446 252.973 36.1875ZM219.628 37.7157C219.018 37.3206 218.43 36.8826 217.727 36.5602C216.869 36.1668 216.003 36.0957 215.002 35.9809C214.15 35.8833 213.237 35.6998 212.377 35.7676C211.521 35.8354 210.915 36.2065 210.299 36.5718C209.983 36.7602 209.87 37.0933 209.985 37.3586C210.183 37.8124 210.382 38.2959 210.902 38.6397C211.56 39.0752 212.691 39.2529 213.544 39.4827C214.388 39.71 215.158 39.953 216.087 39.9463C217.011 39.9397 217.976 39.7389 218.874 39.6075C220.14 39.4224 220.515 38.2901 219.628 37.7157ZM251.186 51.2577C251.061 50.6394 250.519 50.1898 249.877 49.7658C248.985 49.1782 247.878 49.0237 246.721 48.8104C245.772 48.6352 244.746 48.8823 244.153 49.3898C243.528 49.9262 243.517 50.589 243.962 51.1858C244.125 51.4048 244.288 51.623 244.453 51.842C244.819 52.3321 245.307 52.685 245.985 53.0007C246.644 53.3074 247.359 53.5288 248.18 53.5528C249.105 53.5801 250.085 53.285 250.646 52.804C251.184 52.3437 251.301 51.8246 251.186 51.2577ZM190.37 103.269C186.4 101.762 179.808 102.227 176.666 104.256C174.686 105.535 174.587 107.923 176.666 109.194C181.248 111.993 189.291 110.799 192.194 107.333C192.25 107.299 192.305 107.265 192.361 107.231C194.581 105.869 193.001 103.608 190.37 103.269ZM168.698 101.06C167.586 100.663 166.683 100.346 165.359 100.529C164.497 100.648 163.617 100.829 162.787 101.025C161.714 101.278 160.964 101.913 161.142 102.693C161.324 103.499 162.229 103.917 163.398 104.012C164.277 104.083 165.21 104.142 166.095 104.126C167.402 104.103 168.172 103.619 169.095 103.093C170.034 102.554 169.748 101.435 168.698 101.06ZM46.8956 25.0225C45.1163 23.3124 41.3121 23.6439 39.0327 24.6811C38.1138 25.0985 37.0429 25.6233 36.2409 26.1531C35.5375 26.6176 35.1907 27.1655 34.9801 27.7846C34.929 28.0358 34.8779 28.2871 34.8268 28.5383C34.9205 28.2515 34.9156 28.2788 34.8097 28.6193C34.4021 29.9814 35.6981 31.2228 37.8656 31.2748C37.997 31.2781 38.0883 31.279 38.1564 31.2781C38.1942 31.2847 38.238 31.293 38.294 31.3021C39.545 31.5079 40.7474 31.3814 41.8792 30.9913C42.6337 30.7318 43.4101 30.412 44.1257 30.107C46.5779 29.0598 48.8391 26.8903 46.8956 25.0225ZM31.945 26.1167C30.9483 26.3118 29.9917 26.5432 29.326 27.1011C28.7601 27.5746 28.2295 28.0557 27.7768 28.5805C27.0697 29.4012 27.4434 30.5913 28.7553 31.05C30.1146 31.5253 31.6553 31.2492 32.4865 30.4021C32.6545 30.231 32.8322 30.0657 33.011 29.8996C33.0269 29.8888 33.0354 29.8822 33.0573 29.8665C33.1766 29.7805 33.2873 29.6896 33.4053 29.6028C33.8617 29.2681 34.1769 28.9491 34.3923 28.5102C34.4872 28.3168 34.5822 28.1243 34.6929 27.9342C35.3124 26.8663 33.4674 25.8184 31.945 26.1167ZM61.5346 18.0775C60.8117 17.9965 59.9489 17.9271 59.2942 18.2064C58.8414 18.3998 58.5092 18.6907 58.1563 18.9552C57.6512 19.3329 57.4395 19.9222 57.88 20.3743C58.3303 20.8363 59.0739 21.014 59.8783 20.9123C60.3785 20.8495 61.0089 20.8222 61.4421 20.6371C62.1066 20.3536 62.4352 19.9181 62.7102 19.447C63.0144 18.9238 62.367 18.17 61.5346 18.0775ZM134.485 58.4588C134.563 58.3688 134.639 58.2778 134.702 58.1795C135.492 56.9579 135.276 55.5504 133.368 54.8132C133.108 54.7124 132.84 54.6314 132.57 54.5537C130.626 53.4941 128.473 53.2049 125.875 53.3363C123.355 53.4627 121.125 54.3107 118.849 54.9859C115.697 55.9215 114.782 58.8283 116.001 60.7408C116.377 61.3309 116.917 61.8284 117.558 62.2417C115.604 62.8211 113.818 63.5054 112.408 64.1591C111.644 64.5137 111.068 64.9121 110.645 65.3319C108.964 66.3171 108.28 67.6444 109.894 69.433C112.948 72.8183 121.765 71.9232 126.357 70.7619C129.14 70.0586 132.313 69.066 133.772 67.2419C135.404 65.2005 134.194 62.7475 131.276 61.6102C132.844 60.8796 134.031 59.8796 134.485 58.4588ZM103.534 66.5584C102.766 66.4394 102.322 66.6907 101.685 66.8956C101.672 66.9006 101.595 66.9221 101.545 66.937C101.476 66.9535 101.363 66.9808 101.343 66.9849C101.121 67.0345 100.893 67.0725 100.663 67.1056C99.6589 67.2502 99.1843 68.0395 99.5591 68.6271C99.9729 69.2751 101.057 69.4668 101.976 69.166C102.499 68.9949 102.968 68.7776 103.422 68.5346C103.952 68.2503 104.565 67.8916 104.496 67.394C104.445 67.0237 104.126 66.6502 103.534 66.5584ZM93.6349 62.5665C93.4974 62.526 93.3562 62.4913 93.2175 62.4516C91.0695 61.3516 87.8481 61.9822 85.9983 63.1211C84.6134 63.974 83.484 65.0212 83.1847 66.2667C82.9705 67.1576 83.125 67.9808 84.1376 68.6511C85.026 69.2387 86.5131 69.5619 87.7398 69.2817C90.6277 68.6222 94.5598 67.2808 94.9322 65.1104C94.9723 65.0319 95.0088 64.9534 95.0539 64.8749C95.4908 64.1112 94.7849 62.9095 93.6349 62.5665ZM294.67 140.671C294.418 139.913 293.541 139.227 292.544 138.841C290.705 138.127 288.461 138.398 286.936 139.319C286.156 139.791 285.376 140.262 284.596 140.734C283.022 141.685 283.019 143.385 284.261 144.449C285.557 145.559 287.909 145.886 289.777 145.178C290.699 144.829 291.622 144.479 292.544 144.129C294.394 143.429 295.111 141.997 294.67 140.671Z" fill="url(#paint4_linear_20_436)"/>
<path d="M5.55721 127.624C5.43551 128.071 5.37466 128.517 5.36249 128.963C5.35032 129.186 5.35033 129.41 5.37467 129.633C5.38684 129.715 5.41117 129.782 5.43551 129.864C5.53287 130.096 5.45985 130.36 5.48419 130.591C5.49636 130.782 5.5207 130.98 5.55721 131.17C4.92438 131.013 4.49844 130.823 4.48627 130.575C4.43759 129.649 4.43758 128.732 4.5106 127.806C4.53494 127.467 4.40108 126.724 4.64447 126.426C4.97306 126.029 4.80269 126.236 5.45985 126.054C6.12919 125.864 6.67683 125.641 7.40702 125.542C8.14938 125.442 8.91607 125.393 9.68276 125.343C12.3966 125.153 15.1105 124.971 17.8365 124.79C17.1428 124.765 16.4492 124.732 15.7555 124.699C16.3396 124.69 16.9116 124.674 17.4958 124.657C18.0434 124.641 18.6032 124.624 19.163 124.608C19.6255 124.599 20.1123 124.616 20.5747 124.566C16.8021 124.996 13.0173 125.418 9.32985 126.095C8.3441 126.277 7.35834 126.476 6.45778 126.798C6.21438 126.889 5.97098 126.988 5.81277 127.145C5.66552 127.286 5.60467 127.459 5.55721 127.624Z" fill="#EB924D"/>
<path d="M5.89066 59.2487C5.89187 59.2669 5.89431 59.2851 5.89552 59.3033C5.92108 59.5223 6.044 59.7248 6.07929 59.9421C6.18395 60.5777 5.99897 61.2513 6.0367 61.8943C6.11093 63.1357 6.51983 64.4267 7.80496 65.3614C9.35661 66.4904 11.7602 66.8194 13.9982 67.0896C12.2445 67.1061 10.4908 67.1235 8.73717 67.14C8.38059 67.1433 8.00699 67.1491 7.69301 67.2648C7.15267 67.4632 6.95308 67.9145 6.818 68.3219C6.00871 70.76 5.70202 73.2742 5.91013 75.7702C6.73281 76.0917 7.63824 76.3149 8.57288 76.4265C7.32183 76.4595 6.55392 77.4968 6.84599 78.3241C7.13807 79.1514 8.13111 79.7704 9.12903 80.2853C7.61146 80.3167 6.61233 81.411 6.35677 82.4276C6.1511 83.2417 6.20707 84.0731 5.99653 84.8872C5.92351 85.1699 5.93326 85.4021 5.96855 85.6839C6.01358 86.0451 5.94299 86.4079 5.93447 86.7691C5.91257 87.7559 6.03792 88.7444 6.30808 89.7139C6.45412 90.2511 6.64884 90.7883 6.88007 91.309C7.00176 91.5735 7.12346 91.8297 7.2695 92.0942C7.30601 92.152 7.33035 92.2016 7.35469 92.2595C7.06261 92.2099 6.77054 92.1355 6.52714 92.0198C5.80912 91.6479 5.74828 90.9371 5.74828 90.3255C5.74828 89.0858 5.56572 87.8956 5.45619 86.6642C5.3345 85.2343 5.48054 83.8128 5.48054 82.3912C5.50488 78.9365 5.50488 75.49 5.49271 72.0353C5.48054 68.5889 5.45619 65.1507 5.40751 61.7125C5.39534 60.8034 5.52922 59.8694 5.13979 58.9933C4.73818 58.1173 5.01809 56.9519 5.17629 56.051C5.2128 55.8279 5.27365 55.5965 5.48054 55.4229C5.67526 55.2741 5.96733 55.1915 6.24723 55.1336C8.4378 54.646 10.7987 54.7039 13.0988 54.6377C15.3502 54.5799 17.6016 54.3981 19.8165 54.0923C20.3885 54.0757 20.9605 54.0344 21.5203 53.9766C17.8451 54.5055 14.1454 54.9683 10.4215 55.3899C9.65478 55.4725 8.87591 55.5634 8.15789 55.7618C7.43987 55.9601 6.77054 56.2825 6.39327 56.7536C6.05252 57.1833 5.99167 57.6792 5.95516 58.1669C5.93204 58.5231 5.86145 58.89 5.89066 59.2487Z" fill="#EB924D"/>
<path d="M35.3963 94.9451C28.0823 95.2013 20.8169 96.0361 13.4907 96.2179C11.6652 96.2675 9.80325 96.2758 8.09948 96.7138C6.92023 97.0188 5.72393 98.6544 7.12589 99.2412C7.33156 99.3271 7.57374 99.3627 7.81106 99.3933C9.13878 99.5635 10.4921 99.6396 11.8429 99.6189C10.1087 99.8016 8.52907 100.383 6.98837 100.954C6.71699 101.055 6.43586 101.16 6.25088 101.329C6.07199 101.493 6.00262 101.698 5.93691 101.898C5.76896 102.409 5.46958 102.958 5.57303 103.484C5.64604 103.855 5.60954 104.192 5.5779 104.57C5.4562 106.006 5.43672 107.443 5.5426 108.881C5.55477 109.046 5.56694 109.211 5.67647 109.368C5.82251 109.567 6.10241 109.707 6.37015 109.839C6.96647 110.129 7.57496 110.418 8.17128 110.707C8.21996 110.724 8.26863 110.748 8.2808 110.781C8.32948 110.856 8.2443 110.93 8.17128 110.98C7.24637 111.658 6.17544 112.302 5.71298 113.178C5.48419 113.6 5.11909 113.936 5.06555 114.398C4.94141 115.472 5.07772 116.559 5.46593 117.602C5.61684 118.008 5.82494 118.427 6.27888 118.71C6.65736 118.945 7.16362 119.059 7.65528 119.16C9.72414 119.589 11.8307 119.934 13.9592 120.193C11.1967 120.251 8.43293 120.31 5.67039 120.369C5.60589 120.37 5.39778 122.518 5.3345 122.72C5.24079 123.019 5.1556 123.175 5.33815 123.481C5.52678 123.797 5.83224 124.08 6.21073 124.302C5.69959 124.277 5.20063 124.261 4.6895 124.236C4.48261 124.228 4.23922 124.203 4.14186 124.079C4.10535 124.021 4.10535 123.947 4.10535 123.88C4.47044 118.541 4.85987 113.153 5.01808 107.797C5.10327 104.838 4.82337 101.83 5.37101 98.8875C5.41969 98.6147 5.7361 95.6642 5.71176 95.6642C15.5839 95.1765 25.4901 94.9286 35.3963 94.9451Z" fill="#EB924D"/>
<path d="M36.9906 94.9034L36.9784 94.8955C37.0392 94.9034 37.0879 94.8955 37.1488 94.8955C37.1001 94.8955 37.0393 94.8955 36.9906 94.9034Z" fill="#EB924D"/>
<path d="M41.6151 29.0077C37.2218 29.3796 32.6946 28.9663 28.3257 29.4705C26.8775 29.6358 25.4536 29.9003 23.9932 29.9995C22.6424 30.0821 21.2915 30.0325 19.9529 30.0573C16.5697 30.1069 13.223 30.6276 9.99796 31.3301C8.90268 31.5615 7.78306 31.8343 6.97985 32.3963C6.68778 32.6112 6.44437 32.8508 6.24966 33.1153C5.91134 33.593 5.58154 34.2195 5.62413 34.7608C5.6363 34.9204 5.67038 35.0526 5.64483 35.2154C5.57059 35.684 5.49392 36.1477 5.48296 36.6196C5.46106 37.5593 5.61197 38.4999 5.93568 39.414C6.02696 39.6735 6.145 39.9454 6.43707 40.1231C6.73401 40.3033 7.15144 40.352 7.54574 40.3925C9.19232 40.5636 10.8377 40.7347 12.4842 40.9058C10.2146 41.0198 7.94491 41.1347 5.67524 41.2488C5.8225 41.2413 5.77869 44.9506 5.80911 45.2796C5.92351 46.5292 5.97949 47.8003 6.11701 49.0574C6.20219 49.8757 6.3239 50.6939 6.67682 51.479C6.76201 51.6609 6.85937 51.851 6.9689 52.0245C6.78635 51.9501 6.61598 51.8592 6.45777 51.7683C5.63022 51.289 5.00955 50.5782 4.98521 49.8343C4.97304 49.6525 5.0339 49.512 5.09475 49.3384C5.27729 48.8591 5.14343 48.3136 5.13126 47.8177C5.07041 45.5945 5.00956 43.3712 4.93654 41.1479C4.88786 39.7347 4.87569 38.3462 4.57145 36.9494C4.41324 36.2551 4.48626 35.5444 4.43758 34.8418C4.37673 33.9823 4.40107 33.1227 4.55927 32.2632C4.63229 31.8004 4.754 31.321 5.07041 30.8995C5.399 30.4697 5.9588 30.0482 6.7255 30.073C7.86946 30.1143 9.0256 29.9573 10.1696 29.8829C12.713 29.7094 15.2687 29.5689 17.8244 29.4614C23.0574 29.23 28.3026 29.106 33.5599 29.0482C36.1156 29.0234 38.6834 29.0151 41.239 29.0068L41.6151 29.0077Z" fill="#EB924D"/>
<path d="M271.064 44.769C278.792 45.9013 286.873 45.2897 294.735 45.984C297.899 46.265 301.063 46.7526 304.251 46.6286C305.432 46.5791 306.661 46.4385 307.817 46.6617C308.864 46.8518 309.484 47.3725 310.044 47.9593C310.981 48.9593 310.92 50.3809 311.018 51.5215C311.261 54.4968 310.835 57.4639 310.604 60.431C310.58 60.7533 310.531 61.1004 310.215 61.3401C309.983 61.5054 309.655 61.5881 309.326 61.6459C309.326 61.5798 309.314 61.5302 309.314 61.4724C309.278 60.9847 309.302 60.4971 309.399 60.0177C309.521 59.3566 309.777 58.7119 309.752 58.0507C309.752 57.8028 309.752 57.5879 309.776 57.3399C309.789 57.2738 309.789 57.1994 309.776 57.125C309.725 56.8192 309.672 56.5556 309.57 56.2597C309.439 55.8828 309.508 55.4531 309.482 55.0671C309.426 54.2199 309.318 53.3744 309.157 52.5331C309.129 52.3868 309.085 52.224 308.909 52.1372C308.771 52.0702 308.59 52.0686 308.421 52.0702C304.136 52.1041 299.853 52.2917 295.597 52.6322C299.273 52.5091 302.927 52.1264 306.487 51.4917C307.176 51.3686 307.936 51.1966 308.26 50.7652C308.524 50.414 308.415 49.9925 308.3 49.6065C308.162 49.1412 307.986 48.6329 307.427 48.3486C307.089 48.1767 306.661 48.1138 306.248 48.0576C306 48.0238 305.751 47.9907 305.502 47.9585C303.011 47.6353 300.501 47.3865 297.978 47.2121C296.717 47.1254 295.453 47.0568 294.187 47.0063C292.91 46.9559 291.74 46.7741 290.463 46.7179C289.709 46.6848 288.942 46.6518 288.187 46.6187C285.595 46.5113 283.015 46.4038 280.435 46.3047C279.157 46.2468 277.855 46.2385 276.589 46.1394C276.212 46.1063 275.896 46.0154 275.555 45.9079C275.36 45.8501 275.153 45.8088 274.959 45.7757C273.827 45.6104 272.659 45.5195 271.515 45.379C270.699 45.2798 269.896 45.1806 269.081 45.0732L267.949 44.9244C267.681 44.8914 267.34 44.8005 267.048 44.8005C268.387 44.7856 269.727 44.769 271.064 44.769Z" fill="#EB924D"/>
<path d="M311.225 79.8699C311.164 85.0024 311.054 90.1348 311.042 95.2673C311.042 96.9616 311.371 99.8709 310.081 101.392C309.716 101.83 309.083 102.078 308.353 102.226C308.438 102.102 308.499 101.97 308.572 101.838C308.961 101.111 309.253 100.358 309.424 99.5899C309.509 99.251 309.497 98.8708 309.667 98.5485C309.862 98.2096 309.837 97.8294 309.886 97.4658C310.02 96.3831 310.154 95.2921 310.288 94.2012C310.397 93.3251 310.507 92.449 310.616 91.5729C310.677 91.1349 310.726 90.6968 310.787 90.2588C310.811 90.077 310.884 89.8621 310.835 89.6803C310.811 89.6224 310.774 89.5646 310.762 89.5067C310.689 89.2918 310.75 89.0439 310.507 88.8703C310.361 88.7629 310.142 88.7215 309.935 88.6885C307.951 88.3496 305.919 88.1843 303.886 88.1761C304.738 88.0108 305.639 88.0521 306.515 88.0852C307.391 88.1182 308.304 88.1347 309.131 87.9198C309.691 87.7711 310.202 87.4983 310.482 87.1429C310.616 86.9694 310.677 86.7793 310.75 86.5892C310.86 86.2669 310.762 85.8867 310.762 85.5478C310.75 84.9114 310.738 84.275 310.738 83.6304C310.714 81.8617 310.689 80.093 310.495 78.3243C310.358 76.9796 310.168 75.6399 310.056 74.2935C310.02 73.8555 309.628 73.6282 309.475 73.2315C309.29 72.7521 309.68 72.1885 309.235 71.7504C308.878 71.4008 308.153 71.3612 307.526 71.3562C303.445 71.3215 299.363 71.2876 295.281 71.2529C299.091 71.4446 302.894 70.9413 306.643 70.4396C307.109 70.3768 307.584 70.3132 308.002 70.1603C308.707 69.9032 309.151 69.4338 309.463 68.9486C309.622 68.7007 309.734 68.4428 309.874 68.1899C309.926 68.0957 309.983 68.0296 310.005 67.9279C310.072 67.6197 309.952 67.2436 309.926 66.932C309.893 66.5411 309.86 66.151 309.826 65.7601C309.802 65.322 309.753 64.8592 309.388 64.4955C308.889 63.9914 307.94 63.8095 307.076 63.669C304.885 63.3054 302.695 62.9417 300.504 62.5781C301.064 62.512 301.636 62.4706 302.232 62.4541C304.606 62.826 306.967 63.2062 309.34 63.5781C309.644 63.6277 309.972 63.6856 310.204 63.8261C311.129 64.4129 310.91 66.413 311.007 67.1733C311.177 68.6362 311.262 70.1074 311.287 71.5785C311.359 74.3407 311.249 77.1094 311.225 79.8699Z" fill="#EB924D"/>
<path d="M296.354 33.793C295.503 33.8343 294.663 33.8591 293.811 33.8839C299.117 34.2393 304.435 34.5947 309.741 34.9501C310.228 34.9831 310.763 35.0327 311.116 35.2641C311.384 35.4459 311.494 35.7022 311.579 35.9501C311.993 37.0989 312.017 38.2229 312.017 39.3966C311.859 41.0909 311.628 42.7604 311.116 44.4299C310.873 45.2233 310.131 45.2812 309.327 45.1902C309.778 44.9671 310.118 44.6365 310.143 44.2728C310.265 42.1653 310.386 40.0577 310.155 37.9585C310.106 37.5618 310.045 37.1568 309.826 36.7849C309.668 36.5369 309.437 36.3138 309.121 36.1567C308.975 36.0741 308.804 36.0245 308.646 35.9666C308.585 35.9418 308.524 35.917 308.451 35.9005C308.342 35.8757 308.256 35.8344 308.147 35.8013C307.977 35.7435 307.77 35.7435 307.587 35.7187C306.796 35.6278 306.017 35.5286 305.226 35.4459C302.111 35.0906 298.971 34.8178 295.831 34.6195C293.787 34.4955 291.73 34.3963 289.746 34.0574C291.243 33.9996 292.545 33.8921 294.042 33.8508C294.808 33.8343 295.588 33.8095 296.354 33.793Z" fill="#EB924D"/>
<path d="M310.823 126.187C310.989 125.702 311.091 125.208 311.153 124.712C311.258 123.88 311.251 123.046 311.249 122.212C311.248 121.502 311.367 120.745 311.054 120.057C310.808 119.515 310.63 119.077 310.667 118.496C310.711 117.827 310.735 117.085 310.032 116.555C309.261 115.973 307.966 115.924 306.812 115.915C304.832 115.901 302.852 115.886 300.872 115.872C303.494 115.658 306.105 115.369 308.692 115.005C309.074 114.952 309.489 114.883 309.727 114.673C309.961 114.466 309.957 114.18 309.941 113.918C309.835 112.142 309.773 110.362 309.622 108.588C309.537 107.599 309.275 106.746 307.754 106.413C306.098 106.051 304.254 105.978 302.54 105.803C299.439 105.486 296.331 105.202 293.216 104.955C286.992 104.459 280.743 104.105 274.482 103.93C286.615 104.095 298.736 104.583 310.809 105.376C311.38 105.417 311.551 106.26 311.648 106.533C311.977 107.541 312.099 108.583 312.22 109.608C312.537 112.418 312.622 115.236 312.67 118.046V118.187C312.695 118.765 312.731 119.335 312.743 119.914C312.78 121.542 312.926 123.327 312.67 124.931C312.585 125.427 312.439 125.923 312.196 126.402C312.086 126.617 311.977 126.906 311.77 127.08C311.186 127.567 310.395 127.848 309.543 128.038C309.944 127.716 310.261 127.344 310.48 126.956C310.616 126.708 310.727 126.451 310.823 126.187Z" fill="#EB924D"/>
<path d="M3.98731 21.305C3.8291 17.28 3.61005 13.2632 3.34231 9.24649C3.17193 6.57693 6.1292 4.2793 10.0479 4.07267C109.317 -1.28297 208.379 -1.42347 307.234 4.05615C311.189 4.27103 314.147 6.60999 313.915 9.30434C313.599 12.85 313.319 16.4039 313.064 19.9578C312.893 22.4455 312.723 24.9332 312.577 27.4292C312.54 27.9169 312.504 28.3384 312.297 28.8012C311.92 29.6112 312.005 30.4955 311.713 31.3303C311.603 31.5947 311.482 31.8757 311.189 32.0658C310.897 32.2477 310.496 32.322 310.106 32.3799C310.07 32.3882 310.033 32.3882 309.997 32.3964C310.009 32.3716 310.021 32.3386 310.021 32.3138C310.134 31.2211 310.411 30.0748 310.351 28.9805C310.33 28.5987 310.21 28.2797 310.271 27.8896C310.353 27.3606 310.375 26.8201 310.16 26.3027C309.607 24.9812 307.388 24.096 305.419 24.4142C306.874 23.5447 309.588 23.9894 310.627 22.8778C311.185 22.2819 310.958 21.5066 310.712 20.8198C304.6 20.3875 298.446 20.2189 292.302 20.3156C297.586 20.5107 302.918 20.1098 308.012 19.1338C308.831 18.9767 309.693 18.7833 310.232 18.3362C310.737 17.9172 310.866 17.351 310.976 16.8155C311.16 15.927 311.281 15.0187 311.531 14.1376C311.607 13.8748 311.805 13.6451 311.89 13.3864C312.025 12.9764 311.953 12.5194 311.946 12.107C311.932 11.1077 311.828 10.1019 311.468 9.12996C311.249 8.53489 310.933 7.96461 310.482 7.43565C309.874 6.70834 309.509 6.24551 308.231 5.92318C307.452 5.72483 306.612 5.66697 305.785 5.61738C303.047 5.45209 301.172 5.42729 298.446 5.2124C294.665 4.91404 290.878 4.64957 287.087 4.40658C281.966 4.07764 276.839 3.79415 271.708 3.54868C269.143 3.42554 266.576 3.31231 264.008 3.20817C263.458 3.18586 262.884 3.12469 262.337 3.18916C261.897 3.24123 261.568 3.26354 261.114 3.21065C259.891 3.06684 258.671 2.85443 257.418 2.89245C255.835 2.94039 254.113 3.54786 253.803 4.60328C253.39 4.19334 253.194 3.68505 253.259 3.18999C252.557 3.63216 251.974 4.16028 251.545 4.74131C250.668 4.11565 250.073 3.30983 249.86 2.45854C246.76 2.70484 243.615 2.68996 240.521 2.41474C240.083 3.17842 239.644 3.94209 239.205 4.70659C237.629 2.9875 234.61 2.09076 231.65 1.8519C228.689 1.61305 225.701 1.92959 222.731 2.10233C218.865 2.32713 214.967 2.30895 211.105 2.04778C210.637 2.01638 210.118 1.98993 209.742 2.18167C209.49 2.3106 209.351 2.51475 209.232 2.7131C208.856 3.33958 208.575 3.99168 208.394 4.657C208.008 3.57265 206.723 2.70732 205.232 2.2387C203.741 1.77008 202.063 1.65272 200.42 1.66016C197.401 1.67338 194.408 2.08332 191.389 2.10068C189.728 2.11059 188.071 2.00315 186.422 1.88083C184.011 1.70231 181.59 1.48246 179.159 1.54775C178.563 1.56428 177.968 1.59734 177.376 1.65355C176.85 1.70314 176.312 1.81802 175.777 1.81223C175.432 1.8081 175.103 1.73372 174.762 1.70314C174.083 1.64115 173.382 1.67173 172.7 1.66677C171.184 1.65602 169.669 1.64528 168.154 1.63619C162.982 1.59487 157.798 1.55354 152.626 1.51222C147.441 1.47089 142.269 1.42957 137.085 1.38824C134.505 1.37171 131.913 1.34692 129.32 1.33039C128.736 1.32213 128.189 1.23948 127.604 1.25601C124.379 1.35518 121.142 1.45436 117.917 1.55354C115.247 1.63536 112.577 1.71305 109.907 1.79322C108.769 1.82793 107.861 1.60313 106.739 1.51635C105.517 1.42213 104.249 1.41221 103.077 1.70148C101.397 2.1172 100.023 3.37347 100.591 4.52559C100.736 3.23131 99.0164 2.12382 97.1641 1.80231C95.3131 1.48081 93.3659 1.74033 91.4808 1.95026C86.6981 2.48251 81.8375 2.68914 76.9951 2.56599C76.8418 3.48835 76.6872 4.41071 76.5327 5.33307C76.1737 4.34376 75.5944 3.39165 74.8204 2.51971C73.9502 3.78423 73.7495 5.25538 74.263 6.60669C72.9608 5.35373 73.1909 3.34454 71.2072 2.61062C69.1858 1.86347 66.7567 3.14618 64.4688 2.97841C64.554 3.8611 64.6379 4.74461 64.7231 5.6273C64.6099 4.69998 63.7702 3.87019 62.6482 3.35942C61.0551 2.63459 59.6033 2.89245 57.824 2.98419C55.9012 3.08337 53.9784 3.18255 52.0556 3.28999C48.6237 3.46355 45.1918 3.64538 41.7478 3.81894C41.0054 3.86027 40.2022 3.96771 39.4598 3.89333C38.9244 3.83547 38.4741 3.71977 37.9143 3.7363C29.5293 3.88506 21.0713 4.1826 12.7836 5.1248C11.2624 5.29836 9.71686 5.50498 8.36601 6.00087C7.50195 6.3232 6.72308 6.77777 6.18761 7.33896C5.78114 7.76543 5.65579 8.21421 5.49515 8.6853C5.38806 9.00102 5.11302 9.29939 4.92925 9.59775C4.53008 10.2441 4.20515 10.9218 4.137 11.6251C4.03355 12.6946 4.65179 13.8674 6.03549 14.3839C7.67233 14.9947 9.8215 14.5352 11.4839 15.1129C9.54768 14.9468 7.55914 15.0625 5.6923 15.4493C5.41117 15.508 5.11545 15.5799 4.93899 15.7394C4.78565 15.8774 4.74792 16.0584 4.72237 16.2303C4.59945 17.037 4.61649 17.8535 4.77226 18.6577C4.84772 19.047 5.00714 19.4354 5.05095 19.8222C5.09963 20.257 5.11789 20.6942 5.1544 21.1297C5.30044 22.8587 5.4769 24.5853 5.61563 26.3143C5.63997 26.6036 5.73733 26.7771 5.72516 26.992C5.59129 26.9837 5.45743 26.9837 5.32356 26.9837C5.16535 26.9755 4.99497 26.9755 4.88545 26.9011C4.78809 26.835 4.76374 26.7358 4.73941 26.6449C4.35241 24.8836 4.05911 23.0736 3.98731 21.305Z" fill="#EB924D"/>
<path d="M307.269 149.824C209.595 154.907 110.508 154.866 10.071 149.816C6.14013 149.618 3.15854 147.32 3.31674 144.65C3.35325 144.055 3.36542 143.46 3.37759 142.865C3.40193 142.378 3.32891 141.84 3.46278 141.369C3.51146 141.196 3.63316 141.055 3.66967 140.882C3.79137 140.303 3.84004 139.716 3.91306 139.138C4.07127 137.972 4.24165 136.807 4.39986 135.642C4.41202 135.534 4.42419 135.427 4.43636 135.328C4.4607 135.146 4.49721 134.947 4.66759 134.807C4.81363 134.675 5.04486 134.609 5.27608 134.551C8.07513 133.799 11.1663 133.336 14.1844 133.352C17.4824 133.361 20.5979 133.104 23.8472 132.79C25.1615 132.666 26.4759 132.542 27.7902 132.418H28.1309C28.3865 132.418 28.6421 132.427 28.8976 132.427C29.0924 132.427 29.3479 132.46 29.5305 132.435C22.9466 133.402 16.2654 133.997 9.60853 134.7C8.73231 134.79 7.84391 134.881 7.06504 135.162C7.00419 135.187 6.94334 135.212 6.88249 135.237C6.00627 135.593 5.17629 136.217 5.19819 136.938C5.20793 137.273 5.09475 137.602 5.06676 137.938C5.01443 138.58 5.1556 139.281 5.89309 139.736C6.32633 140.003 6.89588 140.139 7.45326 140.26C11.0762 141.048 14.8659 141.48 18.6689 141.539C15.5997 141.521 12.5305 141.504 9.46128 141.487C8.52542 141.482 7.57252 141.444 6.63909 141.477C6.016 141.499 4.88177 141.495 4.42541 141.825C4.24529 141.955 4.1662 142.135 4.12482 142.311C3.90333 143.264 4.37916 144.239 4.33779 145.188C4.31345 145.758 4.28911 146.353 4.55684 146.898C5.08014 147.965 6.63788 148.659 8.24429 148.981C9.02316 149.13 9.83854 149.213 10.6417 149.287C11.0555 149.32 11.4571 149.345 11.8709 149.378C12.0656 149.394 12.2725 149.411 12.4794 149.436C12.6619 149.452 12.8688 149.485 13.0514 149.485C13.1487 149.477 13.2461 149.452 13.3556 149.452C13.6599 149.436 13.9763 149.452 14.2927 149.452H15.6557C17.3108 149.444 18.9659 149.419 20.6331 149.469C21.4607 149.502 22.2761 149.543 23.1036 149.618C23.2862 149.634 23.4687 149.667 23.6512 149.659C23.7608 149.659 23.8703 149.634 23.9798 149.626C24.0772 149.618 24.1624 149.618 24.2476 149.626C25.0885 149.666 25.725 149.78 26.5099 149.881C26.9821 149.943 27.4786 149.968 27.935 149.843C28.6847 149.637 29.1033 149.092 29.3163 148.563C29.528 148.033 29.6011 147.472 29.9589 146.979C30.0806 147.554 29.9004 148.137 29.9187 148.718C29.9357 149.299 30.2217 149.938 30.9702 150.219C31.4144 150.385 31.9437 150.397 32.4512 150.404C33.2909 150.417 34.1307 150.432 34.9704 150.441C35.5521 150.447 36.0316 150.343 36.5938 150.302C37.3788 150.244 38.2392 150.357 39.0241 150.395C39.8833 150.436 40.7425 150.476 41.6029 150.516C45.0421 150.674 48.4813 150.821 51.9229 150.957C52.8466 150.993 53.7849 151.064 54.7098 151.064C63.2895 151.386 71.8692 151.643 80.4611 151.824C83.0362 151.879 85.6454 151.843 88.2132 151.972C88.5442 151.989 88.8302 152.056 89.1479 152.108C89.8805 152.228 90.6959 152.021 91.3749 151.839C92.9607 151.415 94.3626 150.664 95.3046 149.697C96.1382 151.584 99.2147 152.615 102.1 152.811C104.987 153.006 107.892 152.593 110.791 152.674C111.639 152.698 112.448 152.651 113.273 152.657C113.831 152.662 114.404 152.81 114.964 152.845C116.189 152.924 117.439 152.838 118.615 152.589C118.77 150.931 118.927 149.274 119.083 147.616C119.243 149.233 119.651 150.84 120.3 152.4C120.405 152.652 120.535 152.922 120.847 153.076C121.168 153.234 121.6 153.229 121.997 153.216C125.481 153.11 128.965 153.005 132.449 152.9C132.492 152.093 132.736 151.291 133.168 150.539C133.503 151.547 134.255 152.49 135.316 153.232C135.875 152.032 136.785 150.907 137.979 149.944C138.286 151.059 138.831 152.368 140.418 152.719C141.168 152.886 141.979 152.786 142.758 152.704C144.439 152.527 146.139 152.439 147.839 152.442C148.506 152.443 149.065 152.435 149.707 152.338C150.461 152.225 151.275 152.324 152.041 152.324C153.308 152.325 154.575 152.326 155.841 152.328C161.019 152.333 166.196 152.342 171.374 152.36C172.824 152.365 174.274 152.371 175.724 152.378C176.442 152.378 177.172 152.378 177.89 152.386C183.062 152.411 188.234 152.452 193.406 152.494C198.579 152.543 203.751 152.609 208.923 152.676C211.503 152.709 214.095 152.75 216.675 152.791C217.965 152.808 219.267 152.833 220.557 152.857C221.531 152.874 222.383 152.882 223.32 152.676C223.721 152.585 224.123 152.535 224.549 152.51C225.391 152.462 226.238 152.437 227.083 152.408C227.346 152.399 227.639 152.414 227.896 152.356C228.328 152.258 228.535 152.156 228.961 152.166C229.219 152.173 229.485 152.138 229.735 152.094C230.242 152.005 230.714 151.842 231.146 151.643C232.067 151.219 232.815 150.642 233.523 150.066C234.184 150.663 234.914 151.225 235.707 151.743C235.846 151.834 235.996 151.927 236.182 151.962C236.866 152.088 237.247 151.423 237.872 151.195C238.219 151.614 238.963 151.819 239.67 151.838C240.377 151.857 241.071 151.722 241.76 151.614C243.774 151.299 245.863 151.208 247.92 151.346C248.173 151.076 248.427 150.806 248.68 150.536C249.027 151.296 250.458 151.5 251.632 151.502C252.457 151.503 253.283 151.469 254.102 151.4C254.786 151.342 255.503 151.185 256.195 151.244C257.648 151.37 259.108 151.247 260.569 151.183C264.003 151.034 267.437 150.878 270.868 150.714C274.3 150.549 277.732 150.376 281.162 150.194C284.507 150.016 287.85 149.829 291.193 149.633C291.96 149.584 292.751 149.592 293.53 149.567C296.085 149.501 298.641 149.427 301.197 149.303C302.475 149.237 303.752 149.162 305.018 149.071C305.651 149.022 306.296 148.989 306.929 148.914C307.123 148.898 307.282 148.823 307.476 148.79C308.633 148.608 309.813 148.575 310.75 148.013C311.395 147.625 311.736 147.071 311.931 146.509C312.016 146.22 312.077 145.922 312.113 145.625C312.186 145.063 312.296 144.517 312.283 143.939C312.259 141.864 312.223 139.79 312.198 137.715C312.198 137.509 312.198 137.302 312.186 137.104C312.174 136.244 312.137 135.385 311.991 134.533C311.931 134.161 311.736 133.748 311.785 133.368C311.797 133.261 311.833 133.145 311.845 133.037C311.858 132.591 311.517 132.095 311.079 131.789C310.774 131.583 310.434 131.393 310.105 131.194C309.862 131.046 309.594 130.93 309.29 130.839C308.681 130.649 308.024 130.55 307.367 130.451C305.821 130.194 304.276 129.946 302.73 129.698C302.341 129.632 301.915 129.558 301.611 129.376C302.158 129.327 302.304 129.186 302.852 129.178H303.205C305.347 129.442 307.501 129.723 309.655 130.004C310.421 130.103 311.237 130.26 311.87 130.599C312.198 130.781 312.466 131.013 312.649 131.269C312.977 131.699 313.111 132.17 313.196 132.641C313.403 133.823 313.123 134.988 313.318 136.162C313.427 136.765 313.488 137.36 313.525 137.972C313.61 139.137 313.683 140.311 313.768 141.476C313.841 142.526 313.914 143.575 313.987 144.625C314.194 147.312 311.213 149.626 307.269 149.824Z" fill="#EB924D"/>
<path d="M132.416 14.2886C147.907 14.7745 163.413 15.2614 178.817 16.4738C191.573 17.4772 204.289 18.9789 217.128 19.0384C188.135 20.2938 161.457 14.8431 132.416 14.2886ZM193.74 38.9113C192.797 38.9278 191.837 38.8625 190.893 38.8452C185.776 38.751 180.654 38.7931 175.539 38.9427C170.426 39.0923 165.322 39.3502 160.23 39.6849C157.68 39.8527 155.132 40.0403 152.589 40.2436C151.315 40.3453 150.043 40.4511 148.77 40.5601C148.134 40.6147 147.497 40.6701 146.861 40.7271C146.392 40.7684 145.935 40.7428 145.476 40.7742C144.888 40.8147 144.267 41.0015 143.7 41.1131C143.088 41.2337 142.476 41.3536 141.863 41.4726C140.637 41.7106 139.41 41.9462 138.18 42.1751C135.722 42.6322 133.251 43.0636 130.765 43.4429C128.702 43.7578 126.627 44.0364 124.544 44.2793C119.582 44.8579 114.568 45.2323 109.541 45.4001C107.027 45.4844 104.509 45.5158 101.992 45.4968C101.419 45.4926 100.822 45.4538 100.259 45.5067C99.1405 45.6125 98.0233 45.724 96.9049 45.8356C95.6332 45.9629 94.3626 46.0885 93.0897 46.21C92.6175 46.2546 92.2414 46.3976 91.7826 46.4613C91.1754 46.5464 90.5547 46.596 89.9389 46.6357C87.4745 46.7927 84.9968 46.6886 82.5275 46.7439C75.7161 46.8944 69.0994 48.2465 62.3622 48.9482C57.3287 49.4722 52.2296 49.6317 47.1426 49.7912C47.7085 49.7771 48.2732 49.7623 48.8391 49.7474C53.9796 49.6077 59.1177 49.4176 64.2497 49.1763C69.3817 48.9358 74.5088 48.644 79.6299 48.3019C82.1904 48.1308 84.7485 47.9473 87.3041 47.7506C88.7718 47.6382 90.2371 47.5977 91.7145 47.5374C94.8093 47.4101 97.8992 47.2398 100.985 47.034C107.19 46.6216 113.373 46.0712 119.54 45.4513C144.196 42.9718 168.738 39.3378 193.74 38.9113ZM98.0136 100.676C103.573 102.019 109.45 102.61 115.287 103.071C118.249 103.305 121.218 103.504 124.179 103.744C124.94 103.806 125.699 103.885 126.459 103.95C127.03 104 127.608 104.015 128.179 104.065C128.364 104.082 128.526 104.129 128.703 104.163C129.202 104.261 129.771 104.234 130.285 104.291C131.415 104.414 132.514 104.639 133.616 104.841C135.011 105.097 136.447 105.326 137.901 105.253C138.958 105.201 139.982 104.991 141.026 104.866C142.245 104.72 143.487 104.691 144.724 104.704C147.229 104.73 149.727 104.943 152.185 105.267C153.296 105.413 154.397 105.589 155.49 105.788C156.679 106.005 157.849 106.261 159.024 106.508C159.82 106.675 160.512 106.675 161.328 106.644C162.392 106.603 163.449 106.774 164.496 106.882C165.703 107.006 166.912 107.121 168.123 107.229C173.011 107.664 177.923 107.973 182.844 108.172C187.79 108.372 192.747 108.462 197.701 108.453C202.609 108.444 207.516 108.338 212.416 108.141C214.273 108.067 216.128 107.944 217.983 107.878C211.654 108.101 205.307 107.922 198.997 107.544C195.802 107.352 192.614 107.109 189.431 106.84C188.89 106.795 188.317 106.701 187.773 106.702C187.676 106.702 187.592 106.713 187.498 106.728C187.246 106.768 187.003 106.773 186.744 106.778C184.467 106.82 182.187 106.803 179.913 106.729C167.631 106.33 155.556 104.26 143.268 103.977C141.016 103.925 138.763 103.998 136.511 104.044C134.97 104.077 133.496 104.005 131.977 103.815C130.458 103.624 128.95 103.399 127.429 103.219C125.121 102.947 122.773 102.874 120.441 102.743C117.912 102.602 115.386 102.439 112.864 102.245C110.345 102.052 107.83 101.828 105.324 101.564C102.875 101.309 100.438 101.015 98.0136 100.676ZM164.203 86.7567C165.243 86.7393 166.285 86.722 167.325 86.7046C168.159 86.6906 168.998 86.679 169.824 86.7691C170.118 86.8013 170.376 86.8195 170.673 86.798C171.307 86.7526 171.94 86.846 172.563 86.9212C172.869 86.9584 173.093 86.9336 173.392 86.9245C174.335 86.8955 175.331 87.0005 176.273 87.0427C177.288 87.0889 178.301 87.1385 179.316 87.1914C181.43 87.3022 183.543 87.4262 185.653 87.5592C202.472 88.613 219.37 90.185 236.286 89.2585C216.563 88.3452 196.84 87.4319 177.117 86.5187C178.012 86.56 179.218 86.2385 180.098 86.1137C181.115 85.9699 182.13 85.8203 183.144 85.6657C184.106 85.5186 185.067 85.3665 186.026 85.2087C186.561 85.1211 187.143 85.0632 187.662 84.9492C188.008 84.8731 188.348 84.7186 188.677 84.612C189.359 84.3921 190.048 84.1847 190.744 83.9888C192.13 83.5987 193.545 83.2557 194.979 82.9549C197.856 82.3499 200.805 81.9126 203.776 81.5854C206.785 81.2548 209.817 81.0357 212.854 80.8704C215.907 80.7035 218.967 80.5911 222.026 80.4746C223.578 80.4159 225.13 80.3555 226.68 80.2878C227.207 80.2646 227.744 80.239 228.234 80.1059C228.602 80.0068 228.929 79.8506 229.289 79.7382C229.974 79.5241 230.743 79.4786 231.496 79.4357C233.393 79.3274 235.291 79.2199 237.189 79.1117C240.502 78.9232 243.831 78.734 247.15 78.8803C250.289 79.0183 253.39 79.4547 256.532 79.5588C260.209 79.6803 263.882 79.3439 267.53 79.0084C260.209 78.5083 252.843 78.3067 245.486 78.4042C241.746 78.4538 238.009 78.5811 234.273 78.7075C231.001 78.8183 227.73 78.9307 224.461 79.0794C221.178 79.229 217.897 79.4166 214.629 79.6795C211.373 79.9415 208.127 80.2787 204.914 80.7275C203.309 80.9514 201.712 81.2035 200.128 81.4878C199.667 81.5705 199.214 81.6721 198.756 81.7639C198.565 81.8019 198.379 81.8449 198.179 81.8474C197.986 81.8498 197.818 81.8978 197.636 81.9391C196.061 82.3011 194.453 82.5953 192.835 82.8548C191.222 83.1135 189.599 83.3375 187.975 83.5607C187.746 83.5921 187.519 83.6235 187.29 83.6549C185.598 83.888 183.907 84.121 182.215 84.3541C180.524 84.5872 178.832 84.8202 177.14 85.0533C176.295 85.1698 175.449 85.2864 174.603 85.4029C174.181 85.4608 173.757 85.5194 173.335 85.5781C173.157 85.6029 172.98 85.6376 172.797 85.6318C172.376 85.6194 171.985 85.755 171.554 85.7244C170.836 85.674 170.114 85.7938 169.402 85.8649C168.556 85.9484 167.71 86.031 166.863 86.1112C165.17 86.2716 163.475 86.4211 161.776 86.5492C158.384 86.8046 154.973 86.9741 151.559 86.965C155.774 86.8972 159.988 86.8269 164.203 86.7567ZM115.171 129.014C113.148 129.14 111.079 129.122 109.049 129.112C106.926 129.1 104.803 129.046 102.684 128.956C98.4334 128.777 94.1983 128.46 89.9766 128.083C87.8579 127.893 85.7428 127.688 83.6289 127.477C82.6237 127.377 81.6148 127.287 80.6132 127.173C80.4489 127.154 80.2968 127.127 80.1386 127.089C79.4948 126.935 78.7719 127.051 78.1026 127.084C75.4629 127.211 72.7795 127.258 70.1752 126.886C68.7696 126.685 67.398 126.364 65.9717 126.251C64.6562 126.147 63.3187 126.222 62.0044 126.11C60.9127 126.017 59.854 125.795 58.7879 125.609C51.4203 124.322 43.628 124.716 36.146 125.651C47.3885 124.745 58.693 126.333 69.8831 127.499C71.8497 127.704 73.8212 127.897 75.8061 128.004C77.4113 128.092 79.025 128.123 80.6181 128.28C82.233 128.44 83.8138 128.722 85.4215 128.911C86.2235 129.005 87.034 129.076 87.8481 129.093C88.2534 129.101 88.6599 129.096 89.0651 129.074C89.4156 129.055 89.7369 129.098 90.0886 129.113C93.4974 129.26 96.9122 129.356 100.328 129.384C103.674 129.411 107.022 129.372 110.363 129.251C111.967 129.192 113.57 129.114 115.171 129.014ZM279.168 133.807C264.061 134.32 248.929 134.516 233.803 134.392C247.908 136.829 264.829 135.5 279.168 133.807Z" fill="#EB924D"/>
<path d="M132.494 13.5767C147.985 14.0626 163.491 14.5494 178.894 15.7619C191.649 16.7653 204.365 18.267 217.205 18.3265C188.211 19.5819 161.535 14.1312 132.494 13.5767ZM193.818 38.1994C193.561 38.192 193.303 38.1853 193.045 38.1787C187.908 38.0465 182.764 38.0556 177.626 38.1771C172.494 38.2986 167.368 38.5325 162.254 38.8482C161.748 38.8796 161.293 38.9201 160.808 39.0168C160.317 39.1151 159.807 39.0722 159.299 39.0755C158.051 39.0829 156.806 39.1598 155.569 39.2722C153.104 39.4962 150.671 39.8606 148.215 40.1259C141.979 40.7995 135.635 40.8185 129.322 40.7813C131.711 40.9946 134.099 41.2086 136.49 41.4219C133.492 42.3847 130.203 42.8393 126.939 43.241C123.501 43.6633 120.049 44.0369 116.588 44.36C111.535 44.832 106.462 45.1981 101.375 45.4576C98.8314 45.5874 96.2855 45.6907 93.7383 45.7667C93.1018 45.7857 92.4641 45.8031 91.8277 45.8188C91.3628 45.8304 90.9575 45.77 90.506 45.7535C89.558 45.7188 88.6465 45.9651 87.713 45.932C87.4599 45.9229 87.2275 45.8799 86.9683 45.8849C86.1237 45.9023 85.2584 46.013 84.4187 46.0775C82.7101 46.2081 81.0026 46.3403 79.294 46.4734C75.8779 46.7403 72.4631 47.0131 69.0507 47.2924C62.2234 47.8503 55.401 48.433 48.5823 49.0388C41.7636 49.6454 34.9509 50.2752 28.1419 50.9298C27.8693 50.9562 27.5967 50.9819 27.3253 51.0083C43.045 50.2165 58.7867 49.4239 74.3567 47.7486C78.346 47.3197 82.3462 46.8312 86.3853 46.8436C88.0015 46.8486 89.6213 46.9337 91.235 46.8445C91.936 46.8056 92.643 46.6601 93.344 46.6916C94.0511 46.723 94.7326 46.6916 95.4433 46.6544C98.7596 46.4825 102.071 46.2651 105.377 46.013C112.026 45.5055 118.65 44.8576 125.258 44.1534C131.894 43.4468 138.517 42.6831 145.145 41.9442C151.76 41.207 158.382 40.4937 165.025 39.8871C171.624 39.2846 178.244 38.7879 184.888 38.4837C187.862 38.3473 190.839 38.2498 193.818 38.1994ZM218.06 107.166C213.167 107.432 208.223 107.207 203.332 107.055C199.626 106.939 195.978 106.4 192.267 106.319C188.581 106.239 184.889 106.427 181.192 106.322C172.577 106.078 164.189 104.365 155.602 103.832C153.284 103.688 150.956 103.63 148.629 103.572C146.623 103.523 144.618 103.473 142.612 103.423C142.067 103.41 141.522 103.396 140.977 103.378C139.74 103.337 138.502 103.271 137.282 103.127C136.617 103.049 135.964 102.895 135.302 102.846C132.201 102.613 129.089 102.449 125.976 102.308C122.814 102.165 119.655 101.998 116.501 101.789C113.351 101.581 110.208 101.331 107.075 101.025C105.447 100.865 103.821 100.689 102.2 100.497C101.452 100.407 100.703 100.314 99.9571 100.217C99.3559 100.139 98.6683 100.105 98.0914 99.9661C109.043 102.609 120.882 102.376 132.192 103.835C133.173 103.961 134.213 104.034 135.112 104.345C135.465 104.466 135.776 104.552 136.176 104.581C137.436 104.674 138.739 104.645 140.003 104.628C142.572 104.592 145.136 104.461 147.706 104.459C149.822 104.457 151.928 104.852 154.023 105.066C155.934 105.261 157.855 105.419 159.78 105.541C160.902 105.611 162.043 105.671 163.121 105.911C163.594 106.017 163.956 106.128 164.447 106.158C165.052 106.195 165.658 106.281 166.261 106.338C168.695 106.572 171.136 106.774 173.581 106.946C178.513 107.292 183.464 107.518 188.421 107.638C193.376 107.757 198.335 107.771 203.292 107.69C208.172 107.61 213.05 107.437 217.916 107.174C217.964 107.171 218.011 107.168 218.06 107.166ZM189.32 83.8744C189.804 83.7653 190.287 83.6562 190.773 83.5488C193.241 83.005 195.814 82.6264 198.341 82.1975C199.732 81.9619 201.065 81.6371 202.462 81.4536C204.819 81.1429 207.242 80.7346 209.636 80.5933C210.019 80.571 210.383 80.5974 210.763 80.6296C211.791 80.7181 212.803 80.5172 213.814 80.4032C216.305 80.123 218.819 79.9354 221.341 79.8403C221.891 79.8197 222.442 79.8031 222.992 79.7916C223.281 79.785 223.591 79.7544 223.87 79.799C224.095 79.8346 224.326 79.842 224.556 79.8321C225.024 79.8106 225.476 79.7205 225.927 79.6403C226.736 79.4965 227.557 79.3866 228.387 79.3114C228.716 79.2816 229.014 79.2643 229.318 79.175C229.649 79.0775 230.04 79.0725 230.394 79.0395C232.038 78.8866 233.687 78.7469 235.345 78.6833C237.761 78.5923 240.179 78.5254 242.597 78.4841C244.991 78.4427 247.389 78.4254 249.773 78.5808C250.462 78.6254 251.147 78.6849 251.832 78.751C255.078 79.0651 258.324 79.5569 261.619 79.4907C262.427 79.4742 263.212 79.3808 264.014 79.337C264.528 79.3081 264.984 79.4073 265.488 79.4387C266.816 79.5213 268.207 79.4031 269.536 79.3758C271.561 79.3337 273.586 79.2899 275.611 79.2436C279.83 79.1486 284.048 79.0469 288.266 78.9452C279.601 78.7378 270.937 78.5303 262.27 78.3221C253.579 78.1138 244.877 77.9055 236.187 78.1394C234.433 78.1865 232.681 78.2518 230.93 78.3336C224.195 78.6485 217.487 79.2122 210.826 79.9536C207.493 80.3247 204.171 80.7404 200.861 81.1925C200.441 81.2495 200.024 81.3197 199.608 81.3892C199.499 81.4074 199.42 81.4131 199.311 81.4156C199.13 81.4189 198.95 81.4677 198.776 81.4999C198.374 81.5751 197.971 81.6503 197.569 81.7239C196.675 81.8884 195.788 82.0702 194.877 82.1942C193.284 82.4115 191.667 82.5347 190.07 82.7322C188.63 82.9099 187.207 83.1488 185.793 83.4033C184.211 83.6876 182.637 83.9926 181.048 84.2571C180.256 84.3885 179.459 84.5108 178.657 84.6141C178.256 84.6662 177.854 84.7133 177.451 84.7555C177.279 84.7728 177.107 84.7993 176.935 84.7852C176.48 84.748 175.995 84.8439 175.544 84.8836C173.895 85.0274 172.24 85.1456 170.582 85.2332C168.923 85.3208 167.262 85.3786 165.6 85.4026C164.974 85.4117 164.349 85.4158 163.723 85.415C163.58 85.415 163.423 85.4018 163.281 85.4167C163.184 85.4274 163.096 85.4588 162.999 85.4695C162.679 85.5059 162.352 85.5216 162.029 85.5481C161.176 85.6167 160.322 85.6861 159.469 85.7547C159.147 85.7803 158.85 85.8158 158.541 85.8786C157.91 86.0068 157.214 86.0109 156.565 86.0754C155.098 86.2225 153.631 86.3671 152.162 86.5084C149.798 86.7366 147.434 86.9572 145.068 87.1705C149.592 87.3225 154.144 87.4738 158.634 87.0688C160.559 86.8952 162.465 86.62 164.378 86.3944C165.74 86.234 167.105 86.0993 168.485 86.044C171.508 85.9241 174.532 86.1911 177.536 86.4572C180.084 86.6837 182.633 86.9101 185.181 87.1357C186.096 87.2167 186.848 87.2167 187.746 87.1043C188.789 86.9729 189.876 87.1184 190.92 87.1878C196.056 87.5316 201.189 87.8945 206.331 88.1912C211.456 88.487 216.591 88.7185 221.734 88.7995C224.172 88.8375 226.612 88.8416 229.049 88.8036C230.282 88.7838 231.514 88.7532 232.745 88.711C233.944 88.6697 235.166 88.5499 236.365 88.5499C216.642 87.6366 196.919 86.7233 177.196 85.8101C178.091 85.8514 179.297 85.5299 180.177 85.4051C180.98 85.2918 181.783 85.1464 182.592 85.0546C182.732 85.0389 182.872 85.0323 183.013 85.0381C183.273 85.048 183.508 85.0662 183.766 85.0299C184.558 84.9183 185.343 84.7447 186.116 84.5835C187.19 84.3579 188.255 84.1149 189.32 83.8744ZM115.248 128.302C112.66 128.401 110.067 128.423 107.476 128.382C105.761 128.356 104.047 128.301 102.336 128.226C101.48 128.188 100.624 128.145 99.7684 128.096C98.9725 128.052 98.1231 128.047 97.3515 127.919C96.5532 127.787 95.6697 127.777 94.8519 127.715C93.9963 127.649 93.1408 127.583 92.2852 127.517C90.5742 127.386 88.8631 127.254 87.152 127.123C89.4351 126.138 92.2427 125.958 94.9249 125.72C99.3243 125.332 103.681 124.724 107.949 123.902C100.608 124.22 93.2917 124.787 86.0348 125.6C84.056 125.822 82.0784 126.063 80.0802 126.186C79.6384 126.213 79.2575 126.234 78.8413 126.327C78.1817 126.474 77.4405 126.396 76.7566 126.383C75.0686 126.353 73.3819 126.318 71.6952 126.267C68.3278 126.166 64.9616 126.001 61.6222 125.681C60.5549 125.58 59.4901 125.462 58.4301 125.326C56.3503 125.059 54.2863 124.72 52.1809 124.563C48.048 124.255 43.8762 124.655 39.7811 125.142C41.7368 125.135 43.6913 125.129 45.6469 125.123C48.1892 125.115 50.7363 125.106 53.2689 125.252C54.9568 125.348 56.635 125.514 58.3035 125.71C59.9343 125.903 61.5553 126.174 63.1897 126.341C66.4609 126.675 69.7371 126.987 73.0192 127.268C76.3185 127.55 79.6226 127.801 82.934 128.011C86.2283 128.22 89.53 128.389 92.8341 128.505C96.0932 128.619 99.3571 128.682 102.622 128.679C105.817 128.677 109.011 128.611 112.199 128.466C113.215 128.42 114.231 128.341 115.248 128.302ZM279.245 133.095C264.137 133.609 249.005 133.804 233.88 133.68C247.986 136.117 264.906 134.789 279.245 133.095Z" fill="url(#paint5_linear_20_436)"/>
<defs>
<linearGradient id="paint0_linear_20_436" x1="234.993" y1="-77.7238" x2="203.435" y2="59.4498" gradientUnits="userSpaceOnUse">
<stop stop-color="#CF5C2B"/>
<stop offset="1" stop-color="#59173E"/>
</linearGradient>
<linearGradient id="paint1_linear_20_436" x1="227.534" y1="-28.0602" x2="126.207" y2="306.947" gradientUnits="userSpaceOnUse">
<stop stop-color="#CF5C2B"/>
<stop offset="1" stop-color="#59173E"/>
</linearGradient>
<linearGradient id="paint2_linear_20_436" x1="213.774" y1="-9.75451" x2="112.447" y2="325.253" gradientUnits="userSpaceOnUse">
<stop stop-color="#CF5C2B"/>
<stop offset="1" stop-color="#59173E"/>
</linearGradient>
<linearGradient id="paint3_linear_20_436" x1="265.085" y1="-102.493" x2="185.158" y2="212.131" gradientUnits="userSpaceOnUse">
<stop stop-color="#CF5C2B"/>
<stop offset="1" stop-color="#59173E"/>
</linearGradient>
<linearGradient id="paint4_linear_20_436" x1="231.765" y1="-42.6815" x2="151.838" y2="271.942" gradientUnits="userSpaceOnUse">
<stop stop-color="#CF5C2B"/>
<stop offset="1" stop-color="#59173E"/>
</linearGradient>
<linearGradient id="paint5_linear_20_436" x1="306.142" y1="-174.109" x2="225.353" y2="130.895" gradientUnits="userSpaceOnUse">
<stop stop-color="#CF5C2B"/>
<stop offset="1" stop-color="#59173E"/>
</linearGradient>
</defs>
</svg>
