<svg width="267" height="192" viewBox="0 0 267 192" fill="none" xmlns="http://www.w3.org/2000/svg">
<path d="M266.993 176.865C266.928 175.577 266.864 174.289 266.801 173.002C266.696 170.861 266.595 168.719 266.498 166.578C266.474 166.064 266.451 165.549 266.427 165.034C266.339 163.071 266.593 161.03 265.558 159.251C265.281 158.775 264.847 158.292 264.286 158.302C264.988 158.071 265.373 157.333 265.551 156.631C265.799 155.65 265.92 154.377 265.939 153.364C265.955 152.442 265.869 151.507 265.835 150.586C265.796 149.53 265.758 148.474 265.72 147.419C265.646 145.302 265.575 143.186 265.506 141.069C265.439 138.959 265.376 136.848 265.316 134.738C265.306 134.352 265.294 133.965 265.284 133.579C265.254 132.494 265.225 131.422 265.232 130.337C265.237 129.505 264.981 128.727 264.432 128.084C263.946 127.515 263.18 127.132 262.431 127.252C263.035 127.118 263.635 126.881 264.072 126.451C265.232 125.311 265.037 123.59 265.006 122.134C264.963 120.044 264.923 117.953 264.887 115.862C264.852 113.777 264.82 111.693 264.793 109.609C264.766 107.532 264.743 105.455 264.724 103.377C264.705 101.307 264.69 99.2359 264.679 97.1659C264.669 95.102 264.662 93.0391 264.66 90.9752C264.657 87.7459 264.676 84.5226 264.725 81.2923C264.745 80.0167 264.899 78.8696 263.985 77.8528C263.85 77.7022 263.7 77.5637 263.539 77.4404C263.469 77.3858 263.129 77.1008 263.041 77.1301C263.67 76.9168 264.179 76.4276 264.456 75.8424C264.595 75.5493 264.678 75.2309 264.69 74.9075C264.719 74.1181 264.747 73.3257 264.756 72.5302C264.786 69.9518 264.84 67.2693 264.907 64.6515C264.943 63.2577 264.983 61.8639 265.027 60.4711C265.068 59.1966 264.511 58.0999 263.904 56.978C264.445 56.8042 264.816 56.2968 264.969 55.7621C265.117 55.2456 265.041 54.7514 265.063 54.2288C265.152 52.2407 265.188 50.2374 265.26 48.2432C265.29 47.2396 265.321 46.2359 265.354 45.2323C265.362 44.9937 265.349 44.7431 265.387 44.5075C265.411 44.359 265.471 44.2256 265.463 44.0729C265.439 43.5989 265.271 43.0683 265.08 42.6357C264.847 42.1091 264.462 41.6239 263.93 41.3803C263.995 41.2186 264.188 41.1529 264.351 41.0852C265.067 40.788 265.556 40.0623 265.606 39.3103C265.618 39.1264 265.581 38.9495 265.576 38.7686C265.556 38.1733 265.626 37.5577 265.649 36.9624C265.674 36.3216 265.7 35.6808 265.726 35.04C265.833 32.3787 265.95 29.7174 266.076 27.0572C266.324 21.8286 266.606 16.6011 266.925 11.3766C267.126 8.08261 264.609 5.22627 261.242 4.95842C177.187 -1.74074 92.9511 -1.57093 8.54595 4.97864C8.13824 5.00997 7.73465 5.08072 7.34142 5.18988C6.28798 5.48199 5.38975 6.09955 4.49774 6.69285C4.01758 7.01224 3.6823 7.61363 3.34909 8.06644C2.94862 8.61123 2.56366 9.16714 2.19319 9.73315C1.06938 11.4514 -0.0709946 13.3152 0.0262784 15.4327C0.146318 18.0414 0.260149 20.6501 0.368805 23.2588C0.424685 24.6001 0.478502 25.9423 0.531277 27.2836C0.559218 27.9901 0.586117 28.6966 0.613023 29.4031C0.632684 29.9216 0.604747 30.4664 0.679254 30.9809C0.745483 31.4377 0.640966 31.9259 0.636826 32.3929C0.631652 32.9376 0.666833 33.4834 0.742375 34.0232C0.783768 34.3153 0.838614 34.6124 0.986593 34.8692C1.46261 35.6959 2.64748 35.7859 3.40393 36.3812C2.66817 36.4772 1.94691 36.6764 1.2691 36.9705C1.17079 37.0129 1.06834 37.0614 1.00315 37.1453C0.915189 37.2585 0.913122 37.4112 0.913122 37.5527C0.9214 38.9768 0.928647 40.4009 0.936925 41.8251C0.94003 42.4214 0.860343 43.0733 1.03316 43.6484C1.20804 44.2286 1.12733 44.926 1.14492 45.5284C1.22357 48.311 1.296 51.0945 1.36223 53.8771C1.40259 55.5842 1.43984 57.2924 1.47606 59.0005C1.49262 59.804 1.53402 60.6126 1.52781 61.4162C1.52677 61.5465 1.50297 61.6254 1.46675 61.7548C1.30015 62.342 1.50711 62.9707 1.83101 63.471C2.51916 64.5343 3.7537 65.2408 5.03998 65.3075C4.41806 65.5248 3.79509 65.7431 3.17317 65.9604C2.74579 66.11 2.28529 66.2849 2.04729 66.6629C1.91276 66.8762 1.86723 67.1299 1.83101 67.3785C1.34464 70.7069 1.54437 74.0857 1.68096 77.4303C1.81756 80.7647 1.82273 84.1001 1.83825 87.4376C1.8517 90.2474 1.85895 93.0573 1.85998 95.8671C1.86102 98.682 1.85584 101.498 1.84343 104.313C1.83722 106.337 1.78547 108.366 1.80824 110.39C1.81134 110.699 1.88068 110.948 1.80514 111.255C1.61473 112.027 1.58265 112.828 1.87654 113.582C2.21906 114.46 3.01795 115.187 3.96791 115.327C3.36565 115.468 2.71061 115.643 2.34842 116.134C2.1042 116.466 2.03694 116.888 1.99037 117.295C1.91172 117.979 1.87137 118.667 1.87033 119.357C1.8693 119.944 1.99348 120.582 1.85378 121.158C1.5661 122.346 1.6644 123.607 1.64577 124.826C1.62094 126.466 1.59507 128.107 1.5661 129.746C1.51643 132.582 1.46054 135.418 1.39845 138.254C1.33636 141.096 1.26807 143.937 1.19356 146.778C1.19356 147.413 1.16044 148.049 1.14285 148.683C1.1294 149.178 1.21219 149.784 1.09215 150.265C1.04248 150.465 0.967971 150.646 0.933822 150.854C0.852072 151.362 0.817922 151.899 1.02075 152.386C1.25772 152.955 1.82066 153.381 2.44362 153.464C1.88172 153.339 1.38086 153.895 1.26289 154.445C1.15941 154.932 1.21529 155.441 1.10974 155.922C1.06524 156.125 1.04247 156.334 1.0135 156.54C0.956584 156.944 0.908982 157.35 0.870694 157.757C0.794117 158.57 0.754795 159.387 0.75376 160.204C0.75376 160.343 0.755826 160.488 0.817915 160.613C0.875865 160.73 0.980385 160.818 1.0849 160.9C1.82066 161.473 2.68887 161.883 3.60572 162.092C2.88031 162.324 2.15491 162.557 1.4295 162.79C1.25979 162.845 1.08387 162.902 0.954515 163.021C0.714437 163.242 0.695812 163.602 0.692708 163.924C0.686499 164.635 0.685466 165.345 0.675117 166.056C0.670978 166.314 0.581979 166.542 0.568526 166.799C0.5499 167.154 0.542653 167.511 0.530235 167.868C0.478494 169.293 0.424685 170.718 0.368805 172.143C0.364666 172.243 0.36156 172.343 0.357421 172.443C0.246695 175.302 0.128729 178.161 0.00558551 181.028C-0.13515 184.299 2.40016 187.101 5.74263 187.343C91.1515 193.522 175.398 193.576 258.456 187.361C259.818 187.259 261.12 186.711 262.131 185.815C262.342 185.628 262.616 185.451 262.81 185.246C264.041 183.939 265.547 181.896 266.224 180.234C266.676 179.13 267.055 178.075 266.993 176.865Z" fill="url(#paint0_linear_20_459)"/>
<path d="M261.277 183.224C178.222 189.44 93.9672 189.39 8.56355 183.214C5.22108 182.972 2.68577 180.162 2.8203 176.897C2.85134 176.169 2.86169 175.442 2.87204 174.714C2.89273 174.118 2.83064 173.461 2.94447 172.884C2.98587 172.672 3.08935 172.5 3.1204 172.288C3.15144 172.086 3.17214 171.884 3.19284 171.672C3.24458 171.166 3.28597 170.661 3.32736 170.155C3.46189 168.73 3.60676 167.305 3.74129 165.88C3.75164 165.749 3.76198 165.617 3.77233 165.496C3.79303 165.274 3.82408 165.031 3.96895 164.859C4.09313 164.698 4.28974 164.617 4.48636 164.546C6.86645 163.626 9.49489 163.06 12.0612 163.08C14.8656 163.09 17.5147 162.777 20.2777 162.393C21.3953 162.241 22.5129 162.09 23.6305 161.938H22.5129C20.0087 161.928 17.494 161.837 15.0001 161.645C13.5617 161.534 12.1233 161.392 10.6953 161.21C9.9502 161.13 6.41112 161.008 4.72436 160.412C4.18626 160.22 3.82407 159.987 3.81373 159.684C3.77233 158.552 3.77233 157.43 3.83442 156.298C3.85512 155.884 3.74129 154.974 3.94825 154.61C4.22765 154.125 4.08278 154.378 4.64159 154.156C5.21074 153.923 5.6764 153.65 6.2973 153.529C6.92854 153.408 7.58048 153.347 8.23241 153.286C10.5401 153.054 12.8477 152.831 15.1657 152.609C14.5759 152.579 13.986 152.538 13.3962 152.498C10.6953 152.346 7.98405 152.174 5.28317 152.013C4.84854 151.982 4.42427 151.962 3.98964 151.932C3.81372 151.922 3.60676 151.891 3.52398 151.74C3.49293 151.669 3.49293 151.578 3.49293 151.497C3.57572 149.769 3.6585 148.041 3.74129 146.312C3.9379 142.067 4.12417 137.812 4.21731 133.567C4.24835 132.981 4.2587 132.404 4.26905 131.828C4.34149 128.21 4.10347 124.531 4.56914 120.933C4.61053 120.599 4.87959 116.991 4.8589 116.991C13.2513 116.394 21.6747 116.091 30.0981 116.111C30.7708 116.111 31.4434 116.111 32.1161 116.121C31.8987 116.101 31.6711 116.081 31.4538 116.061L31.4434 116.051C28.132 115.737 24.8102 115.404 21.5092 115.05C19.7293 114.858 17.9597 114.666 16.2005 114.413C14.7621 114.211 13.3548 113.878 11.9267 113.655C11.4714 113.574 11.0471 113.625 10.5918 113.645C9.26723 113.675 7.83918 113.16 6.556 112.897C6.45252 112.877 6.35938 112.857 6.2559 112.826C6.00755 112.766 5.75919 112.675 5.55222 112.533C5.0969 112.19 4.95203 111.614 4.91063 111.037C4.88994 110.845 4.88994 110.653 4.88994 110.461C4.88994 108.945 4.73472 107.49 4.64159 105.984C4.5381 104.235 4.66228 102.497 4.66228 100.758C4.68297 96.5334 4.68298 92.3186 4.67263 88.0938C4.67263 87.1133 4.66228 86.1329 4.66228 85.1525C4.65193 81.9182 4.63124 78.6939 4.60019 75.4696C4.58984 74.3578 4.70367 73.2157 4.37253 72.1443C4.03104 71.073 4.26905 69.6478 4.40357 68.5461C4.43462 68.2732 4.48636 67.9902 4.66228 67.7779C4.82785 67.596 5.0762 67.4949 5.31421 67.4242C7.17689 66.8279 9.18444 66.8986 11.1403 66.8177C13.0547 66.747 14.9691 66.5246 16.8525 66.1507C17.1112 66.1102 17.3802 66.0597 17.6389 65.9991C14.5966 65.7262 11.5438 65.4533 8.59459 64.6952C7.66325 64.4526 6.71122 64.1494 5.92476 63.6238C5.76954 63.5329 5.62466 63.4217 5.49014 63.3105C4.78646 62.7243 4.25869 61.855 4.238 60.9454C4.22765 60.8342 4.24835 60.7331 4.26905 60.632C4.2794 60.5411 4.30009 60.44 4.33114 60.3389C4.48636 59.7527 4.37253 59.0856 4.36218 58.4792L4.30009 55.5986C4.26905 53.8399 4.238 52.0812 4.19661 50.3225C4.15522 48.5942 4.14487 46.8961 3.88616 45.188C3.75164 44.339 3.81372 43.4697 3.77233 42.6106C3.72059 41.5594 3.74129 40.5083 3.87581 39.4571C3.9379 38.8911 4.04138 38.3049 4.31044 37.7894C4.31044 37.7894 4.31044 37.7793 4.32079 37.7793C4.60019 37.2537 5.06585 36.7483 5.71779 36.7786C6.69052 36.8292 7.6736 36.6371 8.64633 36.5462C10.8091 36.3339 12.9822 36.1621 15.1554 36.0307C19.6051 35.7477 24.0652 35.5961 28.5356 35.5253C30.7087 35.495 32.8922 35.4849 35.0653 35.4748H35.3861C37.3419 35.4647 39.3184 35.404 41.2742 35.495C37.0728 35.2828 32.8818 35.0099 28.6908 34.6561C26.5177 34.4641 24.3342 34.2619 22.1611 34.0395C18.4461 33.6555 14.5966 33.6959 10.9643 33.3522C8.93609 33.1501 6.89749 33.0389 4.86924 33.0086C4.75541 32.9985 4.64158 32.9985 4.52775 32.9985C4.39323 32.9884 4.24835 32.9884 4.15522 32.8974C4.07243 32.8166 4.05173 32.6953 4.03104 32.5841C3.69989 30.4312 3.45154 28.2177 3.38945 26.0547C3.3377 24.2758 3.28597 22.4868 3.21353 20.7079C3.11005 17.5746 2.98587 14.4414 2.84099 11.3081C2.69612 8.0434 5.21072 5.23355 8.54285 4.98087C92.9531 -1.56871 177.187 -1.74053 261.246 4.96066C264.609 5.22345 267.124 8.08383 266.927 11.3788C266.658 15.7149 266.42 20.0611 266.203 24.4072C266.11 26.2973 266.027 28.1975 265.934 30.0977C265.882 31.2398 265.841 32.3921 265.789 33.5443C265.758 34.1406 265.727 34.6561 265.551 35.2221C265.23 36.2126 265.302 37.2941 265.054 38.315C264.961 38.6384 264.857 38.9821 264.609 39.2145C264.361 39.4369 264.019 39.5279 263.688 39.5986C263.657 39.6087 263.626 39.6087 263.595 39.6188C259.787 40.4982 255.906 41.0642 251.995 41.327C251.27 41.3775 250.556 41.4078 249.832 41.4381C254.344 41.8728 258.866 42.3074 263.378 42.742C263.792 42.7824 264.247 42.8431 264.547 43.1261C264.775 43.3484 264.868 43.6618 264.94 43.965C265.023 44.2783 265.075 44.5815 265.126 44.8949C265.302 45.9763 265.313 47.0578 265.313 48.1798C265.178 50.2518 264.982 52.2935 264.547 54.3351C264.34 55.3055 263.709 55.3762 263.026 55.265C262.591 55.1842 262.126 55.0326 261.743 54.982C260.677 54.8405 259.601 54.7293 258.524 54.6485C256.372 54.4766 254.209 54.4362 252.046 54.4261C250.639 54.4261 249.232 54.4463 247.824 54.4665C241.967 54.5474 236.11 54.6283 230.263 54.699C230.336 54.7192 230.419 54.7293 230.491 54.7495C237.062 56.1343 243.933 55.3863 250.618 56.2353C253.309 56.579 255.999 57.1753 258.711 57.0237C259.714 56.9631 260.76 56.7912 261.743 57.0641C262.633 57.2966 263.16 57.9334 263.636 58.651C264.143 59.4293 264.309 60.4097 264.371 61.38C264.423 61.9359 264.433 62.4918 264.464 63.0073C264.64 66.1001 264.402 69.1829 264.216 72.2656C264.174 72.8114 264.143 73.3572 264.112 73.903C264.092 74.2972 264.05 74.7217 263.781 75.0148C263.585 75.217 263.305 75.318 263.026 75.3888C263.015 75.3888 262.995 75.3989 262.984 75.3989C262.395 75.5505 261.732 75.6718 261.122 75.6314C260.915 75.6213 260.739 75.5707 260.542 75.5808C259.808 75.6516 259.052 75.8942 258.307 75.9952C257.583 76.0963 256.858 76.157 256.124 76.1772C256.413 76.2479 256.703 76.3086 256.993 76.3793C259.011 76.8341 261.018 77.2991 263.036 77.7539C263.295 77.8146 263.574 77.8853 263.771 78.0571C264.557 78.7748 264.371 81.2207 264.454 82.1506C264.599 83.9396 264.671 85.7387 264.692 87.5378C264.713 88.397 264.713 89.246 264.713 90.1051C264.713 91.5909 264.692 93.0767 264.671 94.5625C264.661 95.6035 264.65 96.6345 264.64 97.6755C264.609 102.022 264.547 106.358 264.516 110.704C264.495 112.634 264.485 114.575 264.485 116.506C264.485 118.578 264.764 122.135 263.667 123.995C263.357 124.531 262.819 124.834 262.198 125.016C261.66 125.178 261.06 125.238 260.501 125.279C251.353 125.865 242.216 126.471 233.068 127.068C233.026 127.068 232.975 127.078 232.933 127.078H232.892C232.861 127.088 232.84 127.088 232.809 127.088C233.006 127.088 233.202 127.098 233.399 127.098C243.716 127.3 254.023 127.897 264.288 128.867C264.775 128.917 264.92 129.948 265.002 130.282C265.24 131.333 265.354 132.415 265.437 133.486C265.458 133.668 265.478 133.86 265.489 134.042C265.758 137.478 265.83 140.925 265.872 144.361V144.533C265.882 144.867 265.892 145.19 265.903 145.514C265.913 145.898 265.923 146.272 265.934 146.646C265.965 148.637 266.089 150.82 265.872 152.781C265.799 153.387 265.675 153.994 265.468 154.58C265.375 154.843 265.282 155.197 265.106 155.409C264.609 156.005 263.936 156.349 263.212 156.581C262.964 156.672 262.705 156.743 262.457 156.804C260.76 157.248 259.042 157.602 257.303 157.875C257.479 157.905 257.645 157.936 257.821 157.976C259.642 158.3 261.474 158.643 263.305 158.987C263.957 159.108 264.65 159.3 265.189 159.715C265.468 159.937 265.696 160.22 265.851 160.533C266.058 160.927 266.172 161.342 266.254 161.766C266.275 161.918 266.296 162.059 266.317 162.211C266.492 163.656 266.254 165.082 266.42 166.517C266.513 167.255 266.565 167.982 266.596 168.73C266.668 170.155 266.73 171.591 266.803 173.016C266.865 174.3 266.927 175.583 266.989 176.867C267.165 180.152 264.63 182.982 261.277 183.224Z" fill="url(#paint1_linear_20_459)"/>
<path d="M265.934 30.0976C265.882 31.2398 265.841 32.392 265.789 33.5442C265.758 34.1406 265.727 34.656 265.551 35.2221C265.23 36.2126 265.302 37.2941 265.054 38.3149C264.961 38.6383 264.857 38.982 264.609 39.2145C264.361 39.4368 264.019 39.5278 263.688 39.5985C263.657 39.6087 263.626 39.6087 263.595 39.6188C259.787 40.4981 255.906 41.0641 251.995 41.3269C251.27 41.3774 250.556 41.4078 249.832 41.4381C254.344 41.8727 258.866 42.3073 263.378 42.7419C263.792 42.7824 264.247 42.843 264.547 43.126C264.775 43.3484 264.868 43.6617 264.94 43.9649C265.023 44.2783 265.075 44.5815 265.126 44.8948C259.249 44.5208 253.35 44.349 247.338 44.3086C204.3 43.9953 161.324 46.3705 118.565 51.0906C97.1855 53.4456 75.8475 55.9219 54.4061 57.5998C37.911 58.8935 20.971 60.7432 4.26902 60.632C4.27937 60.541 4.30007 60.4399 4.33111 60.3389C4.48633 59.7526 4.3725 59.0855 4.36215 58.4791L4.30007 55.5985C11.1713 55.0022 18.0528 54.6484 24.9758 54.1532C37.1659 53.2738 49.3354 52.2429 61.5049 51.0401C104.874 46.7546 147.964 40.8013 191.551 38.7293C194.728 38.5878 197.905 38.4463 201.092 38.325C192.958 37.8803 184.814 37.4558 176.68 37.1222C165.773 36.6674 154.835 36.0812 143.918 36.162C132.535 36.2631 121.193 37.0717 109.831 37.3648C87.2409 37.9612 64.6922 39.2347 42.0813 39.5177C30.9053 39.6592 19.3153 40.3162 8.25307 38.4867C6.93885 38.2644 5.62463 38.0319 4.32076 37.7792C4.60016 37.2536 5.06583 36.7483 5.71777 36.7786C6.6905 36.8291 7.67358 36.6371 8.64631 36.5461C10.8091 36.3339 12.9822 36.162 15.1553 36.0306C19.6051 35.7476 24.0651 35.596 28.5356 35.5253C30.7087 35.495 32.8921 35.4848 35.0653 35.4747H35.3861C37.3419 35.4646 39.3184 35.404 41.2742 35.495C37.0728 35.2827 32.8818 35.0098 28.6908 34.656C26.5176 34.464 24.3342 34.2619 22.1611 34.0395C18.4461 33.6554 14.5965 33.6958 10.9643 33.3522C8.93606 33.15 6.89746 33.0389 4.86921 33.0085C4.75538 32.9984 4.64156 32.9984 4.52773 32.9984C4.3932 32.9883 4.24833 32.9883 4.15519 32.8974C4.07241 32.8165 4.05171 32.6952 4.03101 32.584C3.69987 30.4312 3.45151 28.2176 3.38942 26.0547C3.33768 24.2758 3.28594 22.4868 3.2135 20.7079C7.07338 20.2227 10.9436 19.8285 14.8345 19.6466C27.6042 19.0604 40.4256 19.1918 53.2057 18.5853C75.3405 17.5443 97.7754 15.917 119.931 17.2208C141.921 18.5146 163.807 21.1526 185.735 23.1539C208.615 25.2461 231.516 27.1463 254.406 29.097C258.245 29.4204 262.094 29.7641 265.934 30.0976ZM265.002 130.282C264.92 129.948 264.775 128.917 264.288 128.867C254.023 127.897 243.716 127.3 233.399 127.098C233.202 127.098 233.006 127.088 232.809 127.088C232.84 127.088 232.861 127.088 232.892 127.078H232.933C232.975 127.078 233.026 127.068 233.068 127.068C242.216 126.471 251.353 125.865 260.501 125.279C261.06 125.238 261.66 125.178 262.198 125.016C262.819 124.834 263.357 124.531 263.667 123.995C264.764 122.135 264.485 118.578 264.485 116.506C264.485 114.575 264.495 112.634 264.516 110.704C222.378 109.451 180.261 107.631 138.226 104.741C140.017 104.316 141.807 103.902 143.597 103.497C159.575 99.889 175.656 97.9282 192.037 97.1499C216.262 96.0078 240.612 97.0589 264.671 94.5624C264.692 93.0766 264.713 91.5908 264.713 90.1051C239.835 90.8732 214.907 89.8928 190.03 90.6509C174.352 91.136 158.85 92.7633 143.452 95.7045C131.914 97.8978 120.459 100.586 108.879 102.537C94.1742 101.344 79.4694 100.01 64.775 98.4942C53.661 97.352 42.547 96.0987 31.4641 94.7039C30.8742 94.6332 30.2844 94.5826 29.7049 94.5119C36.069 92.925 42.5574 91.7324 48.9939 90.762C66.6066 88.0836 84.509 86.8909 102.256 85.3647C140.317 82.0899 178.45 79.4923 216.583 77.1878C232.602 76.2175 248.58 75.3887 264.216 72.2656C264.402 69.1828 264.64 66.1001 264.464 63.0072C264.433 62.4917 264.423 61.9358 264.371 61.3799C250.608 59.6313 236.69 59.7931 222.709 60.3692C203.296 61.1778 183.883 62.1178 164.49 63.4418C126.264 66.0596 87.7376 68.4551 49.7597 73.5997C34.1029 75.7223 19.0256 79.2194 4.66225 85.1525C4.66225 86.1329 4.6726 87.1133 4.6726 88.0937C4.68295 92.3186 4.68295 96.5333 4.66225 100.758C4.66225 102.497 4.53808 104.235 4.64156 105.984C4.73469 107.49 4.88991 108.945 4.88991 110.461C4.88991 110.653 4.88991 110.845 4.91061 111.037C8.46004 111.917 12.1337 112.493 15.6313 113.2C25.5863 115.232 35.593 116.637 45.6722 117.971C66.172 120.68 86.7131 123.055 107.306 125.006C147.83 128.857 188.602 130.777 229.28 132.303C241.326 132.748 253.381 133.142 265.437 133.486C265.354 132.415 265.24 131.333 265.002 130.282ZM265.851 160.533C265.696 160.22 265.468 159.937 265.189 159.715C264.65 159.3 263.957 159.108 263.305 158.987C261.474 158.643 259.642 158.299 257.821 157.976C257.645 157.936 257.479 157.905 257.303 157.875C259.042 157.602 260.76 157.248 262.457 156.804C262.705 156.743 262.964 156.672 263.212 156.581C263.936 156.349 264.609 156.005 265.106 155.409C265.282 155.197 265.375 154.843 265.468 154.58C265.675 153.994 265.799 153.387 265.872 152.781C266.089 150.82 265.965 148.637 265.934 146.646C265.923 146.272 265.913 145.898 265.903 145.514C232.333 146.716 198.826 147.394 165.235 145.766C128.365 143.987 91.494 140.571 54.7372 137.317C44.2338 136.387 33.7614 135.325 23.2476 134.598C17.1629 134.173 10.6228 133.536 4.21728 133.567C4.12415 137.812 3.93788 142.067 3.74126 146.312C8.24273 147.495 12.8787 148.323 17.1525 149.021C26.6108 150.557 36.0483 151.77 45.5894 152.68C64.2368 154.479 82.9154 155.955 101.594 157.501C112.253 158.39 122.911 159.25 133.57 160.038C125.809 160.685 118.047 161.281 110.266 161.706C90.2315 162.807 70.2285 164.566 50.1736 165.506C34.672 166.244 19.2325 165.88 3.77231 165.496C3.76196 165.617 3.75161 165.749 3.74126 165.88C3.60674 167.305 3.46186 168.73 3.32733 170.155C3.28594 170.661 3.24455 171.166 3.19281 171.672C17.9597 174.188 33.2543 174.067 48.1868 173.43C68.2623 172.571 88.1515 170.56 108.03 167.76C128.975 164.799 150.458 163.757 171.589 162.504C171.972 162.484 172.365 162.464 172.748 162.444C186.553 163.08 200.378 163.464 214.234 163.454C231.609 163.434 248.952 163.03 266.254 161.766C266.172 161.342 266.058 160.927 265.851 160.533Z" fill="url(#paint2_linear_20_459)"/>
<path d="M59.8244 172.996C58.3166 173.721 56.9517 174.048 55.5764 173.984C55.9614 174.253 56.3163 174.548 56.575 174.997C57.051 175.823 57.0966 176.815 56.575 177.634C55.5174 179.295 53.2884 179.183 51.5748 178.681C49.8963 178.191 48.5128 176.246 48.5583 174.561C48.5924 173.304 49.5734 172.425 50.8318 172.299C49.7328 171.616 48.6876 170.795 47.7946 169.932C45.3514 167.574 43.6181 163.457 44.7802 160.215C45.3172 158.717 47.1489 157.328 48.9122 157.982C51.0646 158.78 52.9532 159.961 54.9028 161.164C55.4264 161.487 55.9365 161.813 56.4881 162.092C56.7582 162.227 57.7806 162.638 57.019 162.335C59.1414 163.181 60.5943 164.087 61.7367 166.051C63.0644 168.332 62.4373 171.741 59.8244 172.996ZM41.3818 153.409C41.2763 153.257 41.1904 153.101 41.1159 152.934C40.794 152.415 40.3604 152.003 39.8161 151.697C39.2511 151.384 38.6416 151.228 37.9876 151.226C37.2487 151.301 36.87 151.358 36.2708 151.629C35.7162 151.828 35.3736 152.1 35.0011 152.578C34.3626 153.399 34.2022 154.652 34.494 155.591C34.7196 156.318 35.1656 156.921 35.7927 157.382C36.3919 157.823 37.2084 158.175 37.9876 158.123C38.4771 158.09 38.9769 158.041 39.4529 157.922C41.3849 157.44 42.5305 155.064 41.3818 153.409ZM221.051 130.105C220.561 128.405 218.85 127.19 217.007 127.174C216.357 127.168 215.807 126.995 215.086 126.995C213.929 126.995 212.94 127.456 211.907 127.871C210.222 128.546 208.657 129.43 207.788 131.028C206.958 132.553 207.142 134.684 208.566 135.827C208.352 136.032 208.135 136.241 207.891 136.441C206.846 137.293 207.644 139.309 209.072 139.156C209.555 139.105 210.044 139.233 210.534 139.241C211.219 139.252 211.861 139.122 212.505 138.907C213.022 138.733 213.575 138.586 214.072 138.365C214.442 138.199 214.726 138.012 214.979 137.7C215.058 137.603 215.638 136.767 215.272 137.116C215.447 136.949 215.549 136.755 215.6 136.554C216.798 136.23 217.712 135.762 218.564 135.007C218.751 134.876 218.937 134.745 219.124 134.613C220.644 133.546 221.582 131.945 221.051 130.105ZM215.681 122.196C215.315 122.108 214.894 121.954 214.521 122.001C214.111 122.054 213.685 122.325 213.312 122.495C212.893 122.688 212.749 123.24 212.924 123.621C213.121 124.046 213.568 124.239 214.042 124.143C214.408 124.069 214.869 124.042 215.195 123.86C215.499 123.691 215.712 123.34 215.927 123.082C216.173 122.787 216.125 122.302 215.681 122.196ZM224.569 111.453C224.465 111.207 224.358 110.962 224.247 110.718C221.869 109.126 219.962 108.963 218.527 110.225C218.235 110.485 217.968 110.786 217.77 111.118C216.934 112.52 217.303 114.582 218.886 115.383C219.713 115.801 220.661 115.979 221.582 115.714C222.06 115.577 222.521 115.35 222.981 115.163C223.214 114.992 223.447 114.82 223.68 114.649C224.016 114.352 224.254 113.999 224.393 113.592C224.668 112.975 224.844 112.099 224.569 111.453ZM215.107 44.8314C214.935 44.1259 214.764 43.4609 214.288 42.8746C213.771 42.2379 213.022 41.8437 212.311 41.4252C211.724 41.0796 211.154 40.7117 210.492 40.5035C209.804 40.2872 209.002 40.2841 208.276 40.2447C207.015 40.176 206.203 40.9532 205.907 41.9195C204.098 40.3246 201.321 39.4149 199.128 38.955C196.77 38.4597 190.879 38.6771 191.362 42.3046C191.742 45.1498 193.922 46.8569 196.38 48.3114C198.761 49.7204 200.854 50.811 203.337 50.529C205.368 50.7554 207.861 51.0444 208.836 48.838C209.106 48.2285 209.157 47.6544 209.079 47.1046C209.579 47.4604 210.079 47.8192 210.695 47.9809C211.553 48.2063 212.433 47.992 213.292 47.8717C214.721 47.6726 215.393 46.0019 215.107 44.8314ZM186.753 46.7013C186.235 46.2182 185.735 45.6825 185.137 45.2883C184.407 44.8072 183.672 44.7203 182.82 44.5798C182.096 44.4605 181.319 44.2361 180.588 44.319C179.86 44.4019 179.345 44.8557 178.821 45.3024C178.552 45.5329 178.456 45.9402 178.554 46.2647C178.722 46.8196 178.892 47.4118 179.334 47.8313C179.894 48.364 180.855 48.5813 181.58 48.8622C182.298 49.1402 182.952 49.4374 183.743 49.4293C184.528 49.4212 185.349 49.1756 186.113 49.0149C187.189 48.7885 187.508 47.4038 186.753 46.7013ZM213.588 63.2622C213.482 62.5062 213.021 61.9563 212.475 61.4378C211.716 60.7192 210.776 60.5302 209.792 60.2694C208.984 60.0552 208.112 60.3574 207.608 60.978C207.076 61.6339 207.067 62.4445 207.446 63.1743C207.584 63.4411 207.723 63.709 207.863 63.9768C208.174 64.5762 208.589 65.0078 209.165 65.3939C209.726 65.7688 210.334 66.0397 211.032 66.069C211.819 66.1024 212.652 65.7416 213.129 65.1533C213.586 64.5893 213.686 63.9546 213.588 63.2622ZM161.875 126.868C158.5 125.024 152.894 125.593 150.222 128.075C148.538 129.638 148.455 132.559 150.222 134.113C154.118 137.536 160.957 136.076 163.426 131.837C163.474 131.795 163.521 131.753 163.568 131.711C165.456 130.048 164.113 127.282 161.875 126.868ZM143.447 124.166C142.501 123.681 141.733 123.293 140.608 123.516C139.875 123.662 139.127 123.883 138.421 124.123C137.508 124.432 136.871 125.209 137.022 126.163C137.177 127.149 137.946 127.659 138.941 127.776C139.688 127.862 140.481 127.935 141.234 127.916C142.345 127.888 143 127.295 143.784 126.652C144.583 125.995 144.34 124.625 143.447 124.166ZM39.8761 30.949C38.3632 28.8577 35.1284 29.2631 33.1902 30.5315C32.4089 31.043 31.4982 31.6838 30.8163 32.3316C30.2182 32.8997 29.9232 33.5698 29.7442 34.3268C29.7008 34.6341 29.6573 34.9414 29.6138 35.2486C29.6935 34.8979 29.6894 34.9313 29.5993 35.3477C29.2527 37.0134 30.3548 38.5315 32.1978 38.5952C32.3095 38.5992 32.3872 38.6002 32.4451 38.5992C32.4772 38.6073 32.5144 38.6174 32.562 38.6285C33.6258 38.8802 34.6482 38.7256 35.6106 38.2485C36.2522 37.9311 36.9124 37.54 37.5209 37.167C39.6061 35.8864 41.5288 33.2332 39.8761 30.949ZM27.1634 32.2872C26.3159 32.5257 25.5025 32.8087 24.9365 33.491C24.4553 34.0701 24.0041 34.6584 23.6191 35.3002C23.0179 36.3038 23.3356 37.7593 24.4511 38.3203C25.607 38.9014 26.9171 38.5639 27.6239 37.5279C27.7667 37.3186 27.9178 37.1165 28.0699 36.9133C28.0833 36.9002 28.0906 36.8921 28.1092 36.8729C28.2106 36.7678 28.3048 36.6566 28.4052 36.5505C28.7932 36.1411 29.0612 35.751 29.2444 35.2143C29.3251 34.9778 29.4058 34.7423 29.5 34.5098C30.0267 33.2039 28.4579 31.9223 27.1634 32.2872ZM52.324 22.4557C51.7093 22.3567 50.9756 22.2718 50.4189 22.6134C50.0339 22.8499 49.7514 23.2057 49.4513 23.5291C49.0219 23.991 48.8418 24.7117 49.2164 25.2646C49.5993 25.8296 50.2316 26.0469 50.9156 25.9226C51.3409 25.8458 51.877 25.8124 52.2454 25.586C52.8104 25.2393 53.0898 24.7067 53.3236 24.1305C53.5823 23.4907 53.0318 22.5689 52.324 22.4557ZM114.355 72.0678C114.421 71.9576 114.486 71.8454 114.539 71.7261C115.211 70.2323 115.028 68.511 113.405 67.6094C113.184 67.4861 112.956 67.387 112.726 67.292C111.074 65.9963 109.243 65.6425 107.034 65.8032C104.891 65.9579 102.995 66.9949 101.06 67.8206C98.3797 68.9648 97.6015 72.5196 98.6374 74.8584C98.9571 75.5801 99.4166 76.1885 99.9619 76.6939C98.3 77.4024 96.7819 78.2393 95.5826 79.0388C94.9327 79.4724 94.4432 79.9596 94.0831 80.473C92.654 81.6778 92.0725 83.3011 93.4446 85.4873C96.042 89.6273 103.539 88.5327 107.444 87.1136C109.81 86.2535 112.508 85.0396 113.749 82.8089C115.137 80.3123 114.108 77.3125 111.626 75.9217C112.959 75.0292 113.969 73.8052 114.355 72.0678ZM88.0367 81.7314C87.3837 81.5859 87.006 81.8931 86.4648 82.1438C86.4534 82.1488 86.3882 82.1761 86.3458 82.1943C86.2868 82.2145 86.1906 82.2479 86.174 82.253C85.9846 82.3126 85.7911 82.3601 85.5955 82.4005C84.7418 82.5774 84.3382 83.5427 84.657 84.2613C85.0088 85.0537 85.9308 85.2882 86.7121 84.9203C87.1571 84.7111 87.5555 84.4452 87.9415 84.1481C88.3926 83.8004 88.9132 83.3617 88.8552 82.7533C88.8117 82.3005 88.5406 81.8436 88.0367 81.7314ZM79.6195 76.8506C79.5025 76.801 79.3825 76.7586 79.2645 76.7101C77.438 75.3648 74.6989 76.136 73.1259 77.5288C71.9483 78.5718 70.988 79.8525 70.7334 81.3756C70.5513 82.4652 70.6827 83.4719 71.5437 84.2916C72.2991 85.0113 73.5637 85.4054 74.6068 85.0628C77.0624 84.2562 80.4059 82.6158 80.7226 79.9616C80.7567 79.8656 80.7878 79.7696 80.8261 79.6736C81.1976 78.7386 80.5974 77.269 79.6195 76.8506ZM250.563 172.609C250.349 171.682 249.603 170.843 248.756 170.37C247.192 169.498 245.284 169.828 243.987 170.955C243.324 171.532 242.661 172.108 241.997 172.686C240.659 173.849 240.656 175.928 241.713 177.23C242.815 178.587 244.814 178.987 246.402 178.121C247.187 177.694 247.971 177.266 248.756 176.839C250.329 175.981 250.938 174.229 250.563 172.609Z" fill="#EB924D"/>
<path d="M60.6243 171.373C59.1166 172.098 57.7516 172.425 56.3774 172.362C56.7623 172.63 57.1173 172.926 57.376 173.374C57.852 174.2 57.8975 175.193 57.376 176.011C56.3184 177.672 54.0894 177.56 52.3757 177.058C50.6973 176.568 49.3137 174.624 49.3592 172.938C49.3934 171.681 50.3744 170.802 51.6328 170.677C50.5338 169.993 49.4886 169.172 48.5955 168.31C46.1523 165.952 44.419 161.834 45.5811 158.592C46.1182 157.094 47.9498 155.706 49.7131 156.36C51.8645 157.157 53.7531 158.339 55.7037 159.541C56.2273 159.864 56.7365 160.19 57.2891 160.469C57.5581 160.605 58.5816 161.015 57.8199 160.712C59.9423 161.558 61.3952 162.464 62.5377 164.428C63.8643 166.71 63.2372 170.117 60.6243 171.373ZM42.1817 151.786C42.0762 151.634 41.9903 151.478 41.9158 151.311C41.5939 150.792 41.1604 150.38 40.616 150.074C40.051 149.762 39.4415 149.605 38.7875 149.603C38.0487 149.679 37.6699 149.735 37.0708 150.006C36.5161 150.205 36.1736 150.477 35.801 150.955C35.1636 151.776 35.0022 153.029 35.294 153.968C35.5196 154.695 35.9656 155.298 36.5927 155.759C37.1918 156.2 38.0083 156.553 38.7875 156.5C39.277 156.467 39.7768 156.418 40.2528 156.299C42.1848 155.817 43.3314 153.441 42.1817 151.786ZM221.481 129.234C220.99 127.534 219.28 126.32 217.437 126.303C216.787 126.297 216.236 126.125 215.515 126.125C214.358 126.125 213.37 126.585 212.336 127.001C210.651 127.676 209.087 128.56 208.218 130.158C207.388 131.683 207.572 133.814 208.996 134.958C208.782 135.163 208.564 135.373 208.32 135.572C207.275 136.424 208.074 138.44 209.502 138.288C209.983 138.236 210.473 138.364 210.963 138.373C211.648 138.384 212.291 138.253 212.934 138.038C213.452 137.864 214.004 137.718 214.501 137.496C214.871 137.33 215.155 137.143 215.409 136.831C215.487 136.734 216.068 135.898 215.701 136.247C215.876 136.08 215.979 135.886 216.029 135.685C217.228 135.363 218.142 134.894 218.993 134.139C219.18 134.007 219.367 133.876 219.554 133.744C221.072 132.675 222.012 131.074 221.481 129.234ZM216.11 121.325C215.745 121.238 215.324 121.083 214.95 121.13C214.54 121.183 214.114 121.454 213.741 121.625C213.322 121.818 213.178 122.37 213.354 122.751C213.55 123.175 213.998 123.368 214.472 123.273C214.838 123.199 215.3 123.172 215.626 122.99C215.929 122.821 216.142 122.471 216.357 122.212C216.603 121.916 216.553 121.432 216.11 121.325ZM224.998 110.582C224.895 110.336 224.787 110.091 224.676 109.848C222.298 108.256 220.391 108.092 218.957 109.354C218.664 109.614 218.397 109.915 218.199 110.247C217.363 111.65 217.733 113.712 219.316 114.512C220.144 114.931 221.092 115.108 222.013 114.844C222.491 114.706 222.951 114.479 223.412 114.292C223.645 114.121 223.878 113.949 224.11 113.778C224.447 113.481 224.685 113.128 224.823 112.721C225.098 112.105 225.273 111.228 224.998 110.582ZM215.907 43.2086C215.735 42.5031 215.564 41.8381 215.088 41.2518C214.571 40.6151 213.822 40.2199 213.111 39.8024C212.523 39.4568 211.954 39.0889 211.292 38.8807C210.604 38.6644 209.802 38.6613 209.075 38.6219C207.814 38.5532 207.003 39.3304 206.707 40.2967C204.898 38.7018 202.12 37.7931 199.928 37.3322C197.57 36.8369 191.679 37.0542 192.162 40.6818C192.542 43.527 194.721 45.2341 197.18 46.6886C199.561 48.0976 201.654 49.1881 204.137 48.9061C206.169 49.1326 208.66 49.4216 209.636 47.2152C209.906 46.6057 209.957 46.0316 209.878 45.4818C210.379 45.8376 210.879 46.1964 211.495 46.3581C212.353 46.5835 213.233 46.3692 214.092 46.2489C215.521 46.0498 216.194 44.378 215.907 43.2086ZM187.554 45.0775C187.036 44.5944 186.536 44.0587 185.938 43.6645C185.208 43.1834 184.473 43.0964 183.621 42.9559C182.897 42.8367 182.12 42.6123 181.389 42.6952C180.661 42.7781 180.146 43.2319 179.622 43.6786C179.353 43.9091 179.257 44.3164 179.355 44.6408C179.523 45.1957 179.693 45.788 180.135 46.2075C180.694 46.7401 181.656 46.9574 182.381 47.2384C183.099 47.5164 183.753 47.8135 184.544 47.8055C185.329 47.7974 186.15 47.5518 186.914 47.3911C187.989 47.1646 188.308 45.7799 187.554 45.0775ZM214.388 61.6394C214.282 60.8834 213.821 60.3335 213.275 59.815C212.516 59.0964 211.576 58.9074 210.591 58.6466C209.784 58.4323 208.912 58.7346 208.408 59.3552C207.876 60.0111 207.867 60.8217 208.246 61.5515C208.384 61.8193 208.523 62.0862 208.663 62.354C208.974 62.9534 209.389 63.3839 209.965 63.77C210.526 64.145 211.134 64.4159 211.832 64.4452C212.619 64.4786 213.452 64.1167 213.929 63.5295C214.386 62.9665 214.486 62.3318 214.388 61.6394ZM162.675 125.245C159.3 123.402 153.694 123.971 151.022 126.452C149.338 128.016 149.255 130.937 151.022 132.49C154.918 135.913 161.757 134.453 164.226 130.215C164.274 130.173 164.321 130.131 164.368 130.09C166.256 128.425 164.912 125.659 162.675 125.245ZM144.247 122.543C143.301 122.058 142.533 121.67 141.408 121.893C140.675 122.039 139.927 122.26 139.221 122.5C138.308 122.809 137.671 123.586 137.822 124.541C137.977 125.526 138.746 126.036 139.74 126.153C140.488 126.24 141.281 126.312 142.034 126.293C143.145 126.265 143.8 125.673 144.584 125.029C145.383 124.371 145.14 123.002 144.247 122.543ZM40.3594 29.969C38.8465 27.8778 35.6117 28.2831 33.6734 29.5515C32.8921 30.062 31.9815 30.7038 31.2996 31.3517C30.7014 31.9197 30.4065 32.5898 30.2275 33.3469C30.184 33.6541 30.1406 33.9614 30.0971 34.2687C30.1768 33.9179 30.1726 33.9513 30.0826 34.3677C29.7359 36.0334 30.838 37.5515 32.681 37.6152C32.7928 37.6193 32.8704 37.6192 32.9273 37.6192C32.9594 37.6273 32.9977 37.6374 33.0443 37.6486C34.1081 37.9002 35.1305 37.7456 36.0928 37.2685C36.7344 36.9512 37.3947 36.56 38.0031 36.187C40.0893 34.9074 42.012 32.2532 40.3594 29.969ZM27.6456 31.3082C26.7981 31.5467 25.9847 31.8297 25.4187 32.512C24.9375 33.0911 24.4863 33.6794 24.1014 34.3212C23.5001 35.3249 23.8178 36.7803 24.9333 37.3413C26.0882 37.9225 27.3993 37.5849 28.1061 36.5499C28.2489 36.3407 28.4 36.1385 28.5521 35.9354C28.5656 35.9222 28.5728 35.9141 28.5914 35.8949C28.6929 35.7898 28.787 35.6786 28.8874 35.5725C29.2755 35.1632 29.5435 34.773 29.7266 34.2363C29.8074 33.9998 29.8881 33.7643 29.9812 33.5318C30.509 32.2239 28.9402 30.9423 27.6456 31.3082ZM52.8073 21.4758C52.1926 21.3767 51.4589 21.2918 50.9022 21.6334C50.5172 21.8699 50.2347 22.2257 49.9346 22.5492C49.5052 23.0111 49.3251 23.7317 49.6997 24.2846C50.0826 24.8496 50.7149 25.0669 51.3978 24.9426C51.8232 24.8658 52.3592 24.8324 52.7276 24.606C53.2926 24.2593 53.572 23.7267 53.8059 23.1506C54.0656 22.5108 53.514 21.59 52.8073 21.4758ZM115.155 70.445C115.221 70.3348 115.286 70.2226 115.34 70.1033C116.012 68.6095 115.829 66.8882 114.206 65.9866C113.985 65.8633 113.757 65.7642 113.527 65.6692C111.875 64.3735 110.044 64.0197 107.835 64.1804C105.692 64.335 103.796 65.3721 101.862 66.1978C99.1817 67.342 98.4025 70.8967 99.4394 73.2356C99.7591 73.9573 100.219 74.5657 100.764 75.0711C99.102 75.7796 97.5839 76.6165 96.3846 77.416C95.7347 77.8496 95.2452 78.3368 94.8841 78.8502C93.455 80.055 92.8734 81.6783 94.2456 83.8645C96.843 88.0045 104.34 86.9099 108.245 85.4908C110.611 84.6306 113.309 83.4168 114.55 81.1861C115.937 78.6895 114.909 75.6897 112.427 74.2989C113.759 73.4054 114.769 72.1824 115.155 70.445ZM88.5013 80.7888C87.8483 80.6433 87.4706 80.9506 86.9294 81.2012C86.917 81.2063 86.8528 81.2336 86.8104 81.2517C86.7514 81.272 86.6552 81.3053 86.6386 81.3104C86.4493 81.37 86.2558 81.4175 86.0602 81.4579C85.2065 81.6348 84.8029 82.6001 85.1216 83.3187C85.4734 84.1111 86.3955 84.3456 87.1767 83.9777C87.6217 83.7685 88.0201 83.5027 88.4061 83.2055C88.8573 82.8578 89.3778 82.4192 89.3199 81.8107C89.2764 81.3569 89.0053 80.901 88.5013 80.7888ZM80.0841 75.907C79.9671 75.8575 79.8471 75.815 79.7291 75.7665C77.9027 74.4212 75.1635 75.1924 73.5906 76.5852C72.413 77.6283 71.4527 78.9089 71.1981 80.432C71.016 81.5216 71.1474 82.5283 72.0083 83.348C72.7638 84.0667 74.0283 84.4619 75.0714 84.1192C77.526 83.3126 80.8706 81.6722 81.1872 79.018C81.2214 78.922 81.2524 78.826 81.2907 78.73C81.6622 77.796 81.062 76.3264 80.0841 75.907ZM251.364 170.985C251.15 170.058 250.404 169.219 249.557 168.746C247.993 167.874 246.085 168.204 244.788 169.331C244.125 169.909 243.461 170.485 242.798 171.062C241.46 172.225 241.457 174.304 242.514 175.606C243.616 176.963 245.615 177.363 247.203 176.498C247.988 176.07 248.772 175.642 249.557 175.215C251.129 174.358 251.739 172.606 251.364 170.985Z" fill="url(#paint3_linear_20_459)"/>
<path d="M59.8244 172.419C58.3166 173.144 56.9517 173.472 55.5764 173.408C55.9614 173.677 56.3163 173.972 56.575 174.421C57.051 175.246 57.0966 176.239 56.575 177.058C55.5174 178.718 53.2884 178.606 51.5748 178.105C49.8963 177.615 48.5128 175.67 48.5583 173.985C48.5924 172.729 49.5734 171.849 50.8318 171.724C49.7328 171.041 48.6876 170.219 47.7946 169.357C45.3514 167 43.6181 162.881 44.7802 159.64C45.3172 158.142 47.1489 156.753 48.9122 157.407C51.0646 158.204 52.9532 159.386 54.9028 160.589C55.4264 160.911 55.9365 161.238 56.4881 161.517C56.7582 161.652 57.7806 162.062 57.019 161.759C59.1414 162.605 60.5943 163.512 61.7367 165.476C63.0644 167.756 62.4373 171.163 59.8244 172.419ZM41.3818 152.832C41.2763 152.681 41.1904 152.524 41.1159 152.357C40.794 151.839 40.3604 151.426 39.8161 151.12C39.2511 150.808 38.6416 150.651 37.9876 150.649C37.2487 150.725 36.87 150.781 36.2708 151.052C35.7162 151.251 35.3736 151.523 35.0011 152.001C34.3626 152.822 34.2022 154.075 34.494 155.014C34.7196 155.741 35.1656 156.345 35.7927 156.805C36.3919 157.246 37.2084 157.599 37.9876 157.546C38.4771 157.513 38.9769 157.464 39.4529 157.345C41.3849 156.863 42.5305 154.487 41.3818 152.832ZM221.051 129.796C220.561 128.095 218.85 126.881 217.007 126.864C216.357 126.858 215.807 126.686 215.086 126.686C213.929 126.686 212.94 127.146 211.907 127.561C210.222 128.236 208.657 129.12 207.788 130.718C206.958 132.244 207.142 134.374 208.566 135.518C208.352 135.724 208.135 135.933 207.891 136.132C206.846 136.984 207.644 139 209.072 138.848C209.555 138.796 210.044 138.925 210.534 138.933C211.219 138.944 211.861 138.813 212.505 138.598C213.022 138.424 213.575 138.278 214.072 138.056C214.442 137.891 214.726 137.704 214.979 137.391C215.058 137.294 215.638 136.458 215.272 136.807C215.447 136.64 215.549 136.446 215.6 136.245C216.798 135.923 217.712 135.454 218.564 134.699C218.751 134.567 218.937 134.436 219.124 134.304C220.644 133.236 221.582 131.635 221.051 129.796ZM215.681 121.887C215.315 121.799 214.894 121.644 214.521 121.691C214.111 121.744 213.685 122.015 213.312 122.186C212.893 122.379 212.749 122.931 212.924 123.312C213.121 123.736 213.568 123.929 214.042 123.834C214.408 123.76 214.869 123.733 215.195 123.551C215.499 123.382 215.712 123.032 215.927 122.773C216.173 122.477 216.125 121.993 215.681 121.887ZM224.569 111.143C224.465 110.897 224.358 110.652 224.247 110.409C221.869 108.817 219.962 108.653 218.527 109.915C218.235 110.175 217.968 110.476 217.77 110.808C216.934 112.211 217.303 114.273 218.886 115.073C219.713 115.492 220.661 115.669 221.582 115.405C222.06 115.267 222.521 115.04 222.981 114.853C223.214 114.682 223.447 114.51 223.68 114.339C224.016 114.042 224.254 113.689 224.393 113.282C224.668 112.666 224.844 111.789 224.569 111.143ZM215.107 44.2549C214.935 43.5494 214.764 42.8843 214.288 42.2981C213.771 41.6613 213.022 41.2671 212.311 40.8487C211.724 40.503 211.154 40.1351 210.492 39.9269C209.804 39.7106 209.002 39.7076 208.276 39.6681C207.015 39.5994 206.203 40.3767 205.907 41.3429C204.098 39.748 201.321 38.8383 199.128 38.3784C196.77 37.8832 190.879 38.1005 191.362 41.728C191.742 44.5732 193.922 46.2804 196.38 47.7348C198.761 49.1438 200.854 50.2344 203.337 49.9524C205.368 50.1788 207.861 50.4679 208.836 48.2614C209.106 47.6519 209.157 47.0779 209.079 46.528C209.579 46.8838 210.079 47.2426 210.695 47.4043C211.553 47.6297 212.433 47.4154 213.292 47.2952C214.721 47.096 215.393 45.4253 215.107 44.2549ZM186.753 46.1237C186.235 45.6406 185.735 45.1049 185.137 44.7107C184.407 44.2296 183.672 44.1427 182.82 44.0022C182.096 43.8829 181.319 43.6585 180.588 43.7414C179.86 43.8243 179.345 44.2781 178.821 44.7249C178.552 44.9553 178.456 45.3626 178.554 45.6871C178.722 46.242 178.892 46.8333 179.334 47.2537C179.894 47.7864 180.855 48.0037 181.58 48.2847C182.298 48.5626 182.952 48.8598 183.743 48.8517C184.528 48.8436 185.349 48.598 186.113 48.4373C187.189 48.2109 187.508 46.8262 186.753 46.1237ZM213.588 62.6846C213.482 61.9286 213.021 61.3788 212.475 60.8603C211.716 60.1416 210.776 59.9526 209.792 59.6918C208.984 59.4776 208.112 59.7798 207.608 60.4004C207.076 61.0563 207.067 61.8669 207.446 62.5967C207.584 62.8645 207.723 63.1314 207.863 63.3992C208.174 63.9986 208.589 64.4302 209.165 64.8163C209.726 65.1913 210.334 65.4621 211.032 65.4915C211.819 65.5248 212.652 65.164 213.129 64.5757C213.586 64.0127 213.686 63.378 213.588 62.6846ZM161.875 126.291C158.5 124.448 152.894 125.017 150.222 127.498C148.538 129.062 148.455 131.983 150.222 133.536C154.118 136.96 160.957 135.499 163.426 131.261C163.474 131.22 163.521 131.177 163.568 131.136C165.456 129.47 164.113 126.706 161.875 126.291ZM143.447 123.59C142.501 123.104 141.733 122.716 140.608 122.94C139.875 123.085 139.127 123.307 138.421 123.546C137.508 123.855 136.871 124.633 137.022 125.587C137.177 126.572 137.946 127.083 138.941 127.199C139.688 127.286 140.481 127.359 141.234 127.339C142.345 127.311 143 126.719 143.784 126.075C144.583 125.417 144.34 124.048 143.447 123.59ZM39.8761 30.6008C38.3632 28.5096 35.1284 28.9149 33.1902 30.1834C32.4089 30.6938 31.4982 31.3356 30.8163 31.9835C30.2182 32.5515 29.9232 33.2217 29.7442 33.9787C29.7008 34.286 29.6573 34.5932 29.6138 34.9005C29.6935 34.5498 29.6894 34.5831 29.5993 34.9995C29.2527 36.6652 30.3548 38.1834 32.1978 38.247C32.3095 38.2511 32.3872 38.2521 32.4451 38.2511C32.4772 38.2592 32.5144 38.2693 32.562 38.2804C33.6258 38.5321 34.6482 38.3774 35.6106 37.9004C36.2522 37.583 36.9124 37.1918 37.5209 36.8189C39.6061 35.5383 41.5288 32.8851 39.8761 30.6008ZM27.1634 31.939C26.3159 32.1776 25.5025 32.4606 24.9365 33.1428C24.4553 33.722 24.0041 34.3102 23.6191 34.952C23.0179 35.9557 23.3356 37.4112 24.4511 37.9721C25.607 38.5533 26.9171 38.2157 27.6239 37.1797C27.7667 36.9705 27.9178 36.7683 28.0699 36.5652C28.0833 36.552 28.0906 36.5439 28.1092 36.5247C28.2106 36.4196 28.3048 36.3084 28.4052 36.2023C28.7932 35.793 29.0612 35.4028 29.2444 34.8661C29.3251 34.6296 29.4058 34.3941 29.5 34.1616C30.0267 32.8558 28.4579 31.5742 27.1634 31.939ZM52.324 22.1076C51.7093 22.0085 50.9756 21.9236 50.4189 22.2653C50.0339 22.5018 49.7514 22.8576 49.4513 23.181C49.0219 23.6429 48.8418 24.3636 49.2164 24.9164C49.5993 25.4814 50.2316 25.6987 50.9156 25.5744C51.3409 25.4976 51.877 25.4643 52.2454 25.2378C52.8104 24.8912 53.0898 24.3585 53.3236 23.7824C53.5823 23.1426 53.0318 22.2208 52.324 22.1076ZM114.355 71.4912C114.421 71.381 114.486 71.2698 114.539 71.1496C115.211 69.6557 115.028 67.9344 113.405 67.0328C113.184 66.9095 112.956 66.8105 112.726 66.7155C111.074 65.4197 109.243 65.0659 107.034 65.2266C104.891 65.3813 102.995 66.4183 101.06 67.2441C98.3797 68.3882 97.6015 71.943 98.6374 74.2818C98.9571 75.0035 99.4166 75.612 99.9619 76.1173C98.3 76.8259 96.7819 77.6627 95.5826 78.4622C94.9327 78.8958 94.4432 79.383 94.0831 79.8965C92.654 81.1013 92.0725 82.7245 93.4446 84.9117C96.042 89.0517 103.539 87.9571 107.444 86.537C109.81 85.6769 112.508 84.463 113.749 82.2323C115.137 79.7358 114.108 76.7359 111.626 75.3451C112.959 74.4516 113.969 73.2286 114.355 71.4912ZM88.0367 81.3964C87.3837 81.2509 87.006 81.5581 86.4648 81.8088C86.4534 81.8149 86.3882 81.8411 86.3458 81.8593C86.2868 81.8795 86.1906 81.9129 86.174 81.9179C85.9846 81.9786 85.7911 82.0251 85.5955 82.0655C84.7418 82.2424 84.3382 83.2076 84.657 83.9263C85.0088 84.7187 85.9308 84.9532 86.7121 84.5853C87.1571 84.3761 87.5555 84.1102 87.9415 83.8131C88.3926 83.4654 88.9132 83.0267 88.8552 82.4183C88.8117 81.9654 88.5406 81.5086 88.0367 81.3964ZM79.6195 76.5145C79.5025 76.465 79.3825 76.4226 79.2645 76.3741C77.438 75.0288 74.6989 75.8 73.1259 77.1927C71.9483 78.2358 70.988 79.5164 70.7334 81.0396C70.5513 82.1292 70.6827 83.1359 71.5437 83.9556C72.2991 84.6742 73.5637 85.0694 74.6068 84.7268C77.0624 83.9202 80.4059 82.2798 80.7226 79.6256C80.7567 79.5296 80.7878 79.4336 80.8261 79.3375C81.1976 78.4036 80.5974 76.934 79.6195 76.5145ZM250.563 172.031C250.349 171.104 249.603 170.265 248.756 169.792C247.192 168.92 245.284 169.251 243.987 170.378C243.324 170.955 242.661 171.531 241.997 172.108C240.659 173.271 240.656 175.35 241.713 176.651C242.815 178.009 244.814 178.408 246.402 177.543C247.187 177.115 247.971 176.688 248.756 176.26C250.329 175.404 250.938 173.652 250.563 172.031Z" fill="url(#paint4_linear_20_459)"/>
<path d="M4.72538 156.076C4.6219 156.621 4.57016 157.167 4.55981 157.713C4.54946 157.986 4.54946 158.259 4.57016 158.532C4.58051 158.633 4.6012 158.714 4.6219 158.815C4.70468 159.098 4.64259 159.421 4.66329 159.704C4.67364 159.937 4.69433 160.179 4.72538 160.412C4.18727 160.22 3.82509 159.987 3.81474 159.684C3.77335 158.552 3.77334 157.43 3.83543 156.298C3.85613 155.884 3.7423 154.974 3.94926 154.61C4.22866 154.125 4.08379 154.378 4.6426 154.155C5.21175 153.923 5.67742 153.65 6.29831 153.529C6.92955 153.407 7.58148 153.347 8.23342 153.286C10.5411 153.054 12.8487 152.831 15.1667 152.609C14.5769 152.579 13.987 152.538 13.3972 152.498C13.8939 152.488 14.3802 152.467 14.877 152.447C15.3426 152.427 15.8187 152.407 16.2947 152.386C16.6879 152.376 17.1018 152.397 17.4951 152.336C14.2871 152.862 11.0688 153.377 7.93333 154.206C7.09512 154.428 6.25692 154.671 5.49115 155.065C5.28419 155.176 5.07722 155.297 4.94269 155.489C4.81748 155.661 4.76574 155.874 4.72538 156.076Z" fill="#EB924D"/>
<path d="M5.00898 72.4573C5.01002 72.4795 5.01208 72.5017 5.01312 72.524C5.03485 72.7918 5.13937 73.0394 5.16938 73.3053C5.25837 74.0825 5.10108 74.9063 5.13316 75.6926C5.19629 77.2107 5.54398 78.7895 6.63675 79.9327C7.95615 81.3133 9.99992 81.7156 11.903 82.0461C10.4118 82.0663 8.9206 82.0876 7.42942 82.1078C7.12622 82.1118 6.80854 82.1189 6.54155 82.2604C6.08209 82.503 5.91238 83.0548 5.79752 83.5531C5.10936 86.5348 4.84858 89.6095 5.02554 92.6619C5.72508 93.0551 6.49499 93.328 7.28973 93.4644C6.22593 93.5048 5.57296 94.7733 5.82132 95.7851C6.06968 96.7968 6.91408 97.5538 7.76263 98.1835C6.47221 98.2219 5.62263 99.5602 5.40532 100.803C5.23044 101.799 5.27803 102.816 5.09901 103.811C5.03692 104.157 5.0452 104.441 5.07521 104.786C5.1135 105.227 5.05348 105.671 5.04624 106.113C5.02761 107.32 5.1342 108.528 5.36393 109.714C5.48811 110.371 5.65368 111.028 5.85029 111.665C5.95378 111.988 6.05726 112.302 6.18144 112.625C6.21248 112.696 6.23318 112.756 6.25387 112.827C6.00552 112.766 5.75716 112.675 5.55019 112.534C4.93965 112.079 4.88791 111.21 4.88791 110.462C4.88791 108.946 4.73268 107.49 4.63955 105.984C4.53607 104.236 4.66025 102.497 4.66025 100.759C4.68095 96.534 4.68095 92.3192 4.6706 88.0944C4.66025 83.8796 4.63955 79.6749 4.59815 75.4703C4.58781 74.3585 4.70164 73.2163 4.3705 72.1449C4.02901 71.0736 4.26702 69.6484 4.40154 68.5467C4.43259 68.2738 4.48433 67.9908 4.66025 67.7786C4.82582 67.5966 5.07417 67.4955 5.31218 67.4248C7.17486 66.8285 9.18241 66.8992 11.1382 66.8184C13.0526 66.7476 14.967 66.5252 16.8504 66.1513C17.3368 66.1311 17.8232 66.0805 18.2992 66.0098C15.174 66.6566 12.0282 67.2226 8.86162 67.7381C8.20969 67.8392 7.54739 67.9504 6.93685 68.193C6.32631 68.4355 5.75716 68.8297 5.43636 69.4058C5.14661 69.9314 5.09487 70.5379 5.06383 71.1342C5.04417 71.5698 4.98415 72.0186 5.00898 72.4573Z" fill="#EB924D"/>
<path d="M30.0982 116.111C23.8789 116.425 17.7011 117.445 11.4714 117.668C9.91921 117.728 8.33594 117.739 6.88719 118.274C5.88445 118.647 4.86722 120.647 6.05933 121.365C6.23422 121.47 6.44015 121.514 6.64194 121.551C7.77093 121.759 8.92165 121.852 10.0703 121.827C8.59568 122.05 7.25248 122.761 5.9424 123.459C5.71163 123.583 5.47259 123.712 5.31529 123.918C5.16318 124.118 5.1042 124.37 5.04832 124.615C4.90551 125.239 4.65094 125.91 4.7389 126.554C4.80099 127.007 4.76995 127.419 4.74305 127.881C4.63956 129.638 4.623 131.396 4.71303 133.153C4.72338 133.355 4.73373 133.558 4.82686 133.75C4.95104 133.992 5.18905 134.164 5.41671 134.326C5.92377 134.68 6.44118 135.033 6.94824 135.387C6.98964 135.407 7.03103 135.438 7.04137 135.478C7.08277 135.569 7.01033 135.66 6.94824 135.721C6.16178 136.549 5.25114 137.338 4.85791 138.409C4.66336 138.925 4.35291 139.336 4.30738 139.901C4.20183 141.214 4.31773 142.543 4.64784 143.82C4.77616 144.316 4.95311 144.828 5.3391 145.174C5.66093 145.462 6.09141 145.601 6.50948 145.725C8.26867 146.249 10.06 146.671 11.8699 146.987C9.52081 147.059 7.17073 147.131 4.82169 147.203C4.76684 147.205 4.58989 149.832 4.53608 150.078C4.4564 150.444 4.38396 150.635 4.53918 151.009C4.69958 151.395 4.95932 151.741 5.28115 152.013C4.84652 151.982 4.42225 151.962 3.98762 151.932C3.8117 151.922 3.60474 151.891 3.52196 151.74C3.49091 151.669 3.49091 151.578 3.49091 151.497C3.80135 144.968 4.13249 138.378 4.26702 131.828C4.33946 128.21 4.10145 124.531 4.56712 120.933C4.60851 120.599 4.87756 116.991 4.85687 116.991C13.2513 116.394 21.6748 116.091 30.0982 116.111Z" fill="#EB924D"/>
<path d="M31.4538 116.061L31.4434 116.051C31.4952 116.061 31.5366 116.051 31.5883 116.051C31.5469 116.051 31.4952 116.051 31.4538 116.061Z" fill="#EB924D"/>
<path d="M35.3861 35.4746C31.6504 35.9295 27.8009 35.4241 24.0859 36.0407C22.8544 36.2428 21.6437 36.5662 20.4019 36.6875C19.2533 36.7886 18.1046 36.728 16.9663 36.7583C14.0895 36.8189 11.2438 37.4557 8.50148 38.3148C7.57014 38.5978 6.61811 38.9314 5.93513 39.6187C5.68678 39.8815 5.47981 40.1746 5.31423 40.498C5.02655 41.0822 4.74612 41.8484 4.78234 42.5104C4.79268 42.7055 4.82167 42.8672 4.79993 43.0663C4.73681 43.6394 4.67161 44.2064 4.6623 44.7835C4.64367 45.9327 4.77199 47.083 5.04725 48.2008C5.12487 48.5182 5.22524 48.8507 5.4736 49.068C5.72609 49.2884 6.08104 49.348 6.41632 49.3975C7.81643 49.6068 9.21551 49.816 10.6156 50.0252C8.68568 50.1647 6.75574 50.3052 4.8258 50.4447C4.95101 50.4356 4.91376 54.9718 4.93963 55.374C5.0369 56.9023 5.0845 58.4568 5.20144 59.9941C5.27387 60.9947 5.37736 61.9954 5.67746 62.9556C5.7499 63.1779 5.83268 63.4104 5.92582 63.6227C5.77059 63.5317 5.62572 63.4205 5.49119 63.3093C4.78752 62.7231 4.25975 61.8539 4.23905 60.9442C4.22871 60.7218 4.28045 60.55 4.33219 60.3378C4.48742 59.7515 4.37358 59.0844 4.36324 58.478C4.31149 55.7591 4.25976 53.0402 4.19767 50.3214C4.15628 48.593 4.14592 46.895 3.88722 45.1868C3.75269 44.3378 3.81478 43.4686 3.77339 42.6094C3.72165 41.5583 3.74234 40.5071 3.87687 39.4559C3.93896 38.8899 4.04245 38.3037 4.3115 37.7882C4.5909 37.2626 5.06691 36.7472 5.71885 36.7775C6.69158 36.828 7.67467 36.636 8.6474 36.545C10.8102 36.3328 12.9833 36.1609 15.1564 36.0295C19.6061 35.7465 24.0662 35.5949 28.5366 35.5242C30.7098 35.4939 32.8932 35.4837 35.0664 35.4736L35.3861 35.4746Z" fill="#EB924D"/>
<path d="M230.491 54.7495C237.062 56.1342 243.933 55.3863 250.618 56.2353C253.309 56.5789 255.999 57.1753 258.711 57.0237C259.714 56.963 260.76 56.7912 261.743 57.0641C262.633 57.2966 263.16 57.9333 263.636 58.651C264.433 59.8739 264.381 61.6124 264.464 63.0072C264.671 66.6459 264.309 70.2744 264.112 73.903C264.092 74.2972 264.05 74.7217 263.781 75.0148C263.585 75.2169 263.305 75.318 263.026 75.3888C263.026 75.3079 263.015 75.2473 263.015 75.1765C262.984 74.5802 263.005 73.9838 263.088 73.3976C263.191 72.589 263.409 71.8007 263.388 70.9921C263.388 70.6888 263.388 70.426 263.409 70.1228C263.419 70.042 263.419 69.951 263.409 69.86C263.365 69.4861 263.32 69.1636 263.233 68.8018C263.122 68.3409 263.18 67.8153 263.158 67.3433C263.111 66.3073 263.019 65.2733 262.882 64.2444C262.858 64.0655 262.821 63.8664 262.671 63.7602C262.554 63.6784 262.4 63.6763 262.256 63.6784C258.612 63.7198 254.971 63.9492 251.352 64.3657C254.477 64.2151 257.585 63.7471 260.612 62.9708C261.197 62.8202 261.844 62.61 262.119 62.0824C262.344 61.6528 262.251 61.1374 262.153 60.6654C262.036 60.0963 261.886 59.4747 261.41 59.127C261.124 58.9168 260.76 58.84 260.409 58.7712C260.198 58.7298 259.986 58.6894 259.774 58.6499C257.656 58.2547 255.521 57.9505 253.376 57.7373C252.304 57.6311 251.229 57.5472 250.153 57.4856C249.067 57.4239 248.072 57.2016 246.986 57.1328C246.345 57.0924 245.693 57.052 245.051 57.0115C242.847 56.8802 240.653 56.7488 238.459 56.6275C237.373 56.5567 236.265 56.5466 235.189 56.4253C234.868 56.3849 234.599 56.2737 234.31 56.1423C234.144 56.0716 233.968 56.021 233.803 55.9806C232.84 55.7784 231.847 55.6673 230.874 55.4954C230.181 55.3742 229.498 55.2529 228.804 55.1215L227.842 54.9395C227.614 54.8991 227.325 54.7879 227.076 54.7879C228.214 54.7697 229.354 54.7495 230.491 54.7495Z" fill="#EB924D"/>
<path d="M264.64 97.6757C264.588 103.952 264.495 110.229 264.485 116.506C264.485 118.578 264.764 122.136 263.667 123.995C263.357 124.531 262.819 124.834 262.198 125.016C262.27 124.865 262.322 124.703 262.384 124.541C262.715 123.652 262.964 122.732 263.109 121.792C263.181 121.377 263.171 120.913 263.316 120.518C263.481 120.104 263.46 119.639 263.502 119.194C263.616 117.87 263.73 116.536 263.843 115.202C263.937 114.13 264.03 113.059 264.123 111.988C264.174 111.452 264.216 110.916 264.268 110.381C264.288 110.158 264.35 109.896 264.309 109.673C264.288 109.602 264.257 109.532 264.247 109.461C264.185 109.198 264.237 108.895 264.03 108.683C263.905 108.551 263.719 108.501 263.543 108.46C261.857 108.046 260.128 107.844 258.4 107.834C259.125 107.631 259.89 107.682 260.635 107.722C261.38 107.763 262.157 107.783 262.86 107.52C263.336 107.338 263.771 107.005 264.009 106.57C264.123 106.358 264.175 106.125 264.237 105.893C264.33 105.499 264.247 105.034 264.247 104.619C264.237 103.841 264.226 103.063 264.226 102.275C264.206 100.112 264.185 97.9486 264.019 95.7856C263.903 94.1411 263.742 92.5027 263.647 90.8563C263.616 90.3206 263.282 90.0426 263.152 89.5575C262.995 88.9712 263.327 88.2819 262.948 87.7462C262.645 87.3187 262.028 87.2702 261.495 87.2641C258.025 87.2216 254.554 87.1802 251.083 87.1378C254.323 87.3722 257.557 86.7567 260.744 86.1432C261.14 86.0664 261.544 85.9885 261.9 85.8016C262.499 85.4872 262.877 84.9131 263.142 84.3198C263.277 84.0166 263.373 83.7012 263.492 83.392C263.536 83.2767 263.585 83.1959 263.603 83.0716C263.66 82.6945 263.558 82.2347 263.536 81.8536C263.508 81.3755 263.48 80.8985 263.451 80.4204C263.43 79.8847 263.389 79.3187 263.079 78.874C262.654 78.2574 261.847 78.0351 261.112 77.8632C259.25 77.4185 257.387 76.9738 255.524 76.5291C256 76.4482 256.487 76.3977 256.994 76.3774C259.012 76.8323 261.019 77.2972 263.037 77.752C263.296 77.8127 263.575 77.8834 263.772 78.0553C264.558 78.7729 264.372 81.2189 264.455 82.1487C264.6 83.9378 264.672 85.7369 264.693 87.536C264.754 90.9139 264.661 94.2998 264.64 97.6757Z" fill="#EB924D"/>
<path d="M251.996 41.3267C251.271 41.3772 250.557 41.4075 249.833 41.4378C254.345 41.8725 258.867 42.3071 263.379 42.7417C263.793 42.7821 264.248 42.8428 264.548 43.1258C264.776 43.3481 264.869 43.6615 264.941 43.9647C265.293 45.3696 265.314 46.7442 265.314 48.1795C265.179 50.2515 264.983 52.2932 264.548 54.3348C264.341 55.3052 263.71 55.3759 263.027 55.2647C263.41 54.9918 263.699 54.5875 263.72 54.1428C263.824 51.5654 263.927 48.988 263.731 46.4208C263.689 45.9356 263.637 45.4404 263.451 44.9855C263.317 44.6823 263.12 44.4094 262.851 44.2174C262.727 44.1163 262.582 44.0557 262.447 43.9849C262.396 43.9546 262.344 43.9243 262.282 43.904C262.189 43.8737 262.116 43.8232 262.023 43.7828C261.878 43.712 261.702 43.712 261.547 43.6817C260.874 43.5705 260.212 43.4492 259.539 43.3481C256.89 42.9135 254.221 42.58 251.551 42.3374C249.812 42.1858 248.063 42.0645 246.377 41.6501C247.649 41.5793 248.757 41.4479 250.03 41.3974C250.68 41.3772 251.344 41.3469 251.996 41.3267Z" fill="#EB924D"/>
<path d="M264.299 154.317C264.439 153.723 264.526 153.119 264.579 152.513C264.668 151.496 264.663 150.475 264.661 149.456C264.66 148.587 264.761 147.662 264.495 146.82C264.286 146.157 264.134 145.621 264.166 144.911C264.203 144.093 264.224 143.186 263.626 142.538C262.97 141.826 261.869 141.765 260.888 141.755C259.204 141.737 257.521 141.72 255.837 141.702C258.067 141.441 260.287 141.087 262.487 140.643C262.812 140.577 263.164 140.493 263.366 140.236C263.566 139.983 263.562 139.633 263.548 139.312C263.458 137.141 263.406 134.964 263.277 132.794C263.205 131.585 262.982 130.542 261.689 130.135C260.28 129.692 258.713 129.602 257.256 129.388C254.619 129.001 251.976 128.654 249.327 128.351C244.035 127.746 238.721 127.312 233.397 127.098C243.714 127.3 254.021 127.896 264.286 128.866C264.773 128.917 264.917 129.948 265 130.281C265.28 131.515 265.383 132.788 265.487 134.041C265.756 137.478 265.828 140.925 265.87 144.361V144.533C265.89 145.24 265.921 145.938 265.932 146.645C265.963 148.636 266.087 150.82 265.87 152.78C265.797 153.387 265.673 153.993 265.466 154.58C265.373 154.842 265.28 155.196 265.104 155.408C264.607 156.005 263.934 156.348 263.21 156.581C263.552 156.187 263.821 155.732 264.007 155.257C264.123 154.954 264.217 154.64 264.299 154.317Z" fill="#EB924D"/>
<path d="M3.39053 26.0547C3.256 21.1324 3.06974 16.2203 2.84208 11.3081C2.6972 8.0434 5.21182 5.23355 8.54394 4.98087C92.9542 -1.56871 177.189 -1.74053 261.247 4.96066C264.61 5.22345 267.125 8.08383 266.928 11.3788C266.659 15.7149 266.421 20.0611 266.204 24.4072C266.059 27.4495 265.914 30.4919 265.79 33.5443C265.759 34.1406 265.728 34.6561 265.552 35.2221C265.231 36.2126 265.303 37.2941 265.055 38.315C264.962 38.6384 264.859 38.9821 264.61 39.2145C264.362 39.4369 264.02 39.5279 263.689 39.5986C263.658 39.6087 263.627 39.6087 263.596 39.6188C263.606 39.5885 263.617 39.5481 263.617 39.5177C263.713 38.1816 263.948 36.7797 263.897 35.4414C263.88 34.9745 263.777 34.5843 263.829 34.1073C263.899 33.4604 263.918 32.7994 263.735 32.1667C263.265 30.5505 261.377 29.468 259.703 29.8571C260.941 28.7938 263.248 29.3376 264.132 27.9782C264.606 27.2494 264.414 26.3014 264.205 25.4614C259.007 24.9328 253.775 24.7266 248.55 24.8449C253.043 25.0834 257.577 24.5932 261.908 23.3995C262.605 23.2075 263.337 22.971 263.796 22.4242C264.225 21.9117 264.335 21.2194 264.429 20.5644C264.585 19.4779 264.688 18.3671 264.901 17.2896C264.965 16.9682 265.134 16.6872 265.206 16.3709C265.321 15.8695 265.259 15.3106 265.254 14.8062C265.241 13.5843 265.153 12.3542 264.847 11.1656C264.661 10.4378 264.392 9.74043 264.009 9.09356C263.492 8.20411 263.181 7.6381 262.095 7.24391C261.432 7.00133 260.718 6.93058 260.015 6.86994C257.686 6.66779 256.093 6.63747 253.775 6.37467C250.559 6.0098 247.339 5.68636 244.116 5.38921C239.761 4.98693 235.401 4.64025 231.039 4.34006C228.857 4.18946 226.675 4.05099 224.491 3.92364C224.024 3.89635 223.535 3.82155 223.07 3.90039C222.696 3.96407 222.416 3.99136 222.03 3.92667C220.99 3.7508 219.953 3.49104 218.888 3.53754C217.541 3.59616 216.077 4.33905 215.813 5.62976C215.462 5.12844 215.296 4.50683 215.351 3.9014C214.754 4.44215 214.258 5.08801 213.894 5.79856C213.148 5.03343 212.642 4.04796 212.46 3.0069C209.825 3.3081 207.151 3.28991 204.519 2.95333C204.147 3.88725 203.774 4.82117 203.401 5.7561C202.06 3.65377 199.493 2.55712 196.976 2.26502C194.459 1.97291 191.918 2.36003 189.392 2.57127C186.105 2.84619 182.79 2.82396 179.507 2.50456C179.108 2.46616 178.667 2.43381 178.348 2.6683C178.133 2.82598 178.015 3.07563 177.914 3.31821C177.594 4.08435 177.355 4.88182 177.201 5.69546C176.873 4.36937 175.78 3.31113 174.513 2.73804C173.245 2.16496 171.818 2.02143 170.421 2.03053C167.853 2.0467 165.309 2.54803 162.741 2.56925C161.329 2.58138 159.921 2.44999 158.518 2.3004C156.468 2.08208 154.409 1.81322 152.343 1.89307C151.835 1.91328 151.329 1.95371 150.827 2.02244C150.378 2.08309 149.921 2.22358 149.467 2.2165C149.173 2.21145 148.893 2.12048 148.604 2.08309C148.026 2.00728 147.43 2.04468 146.85 2.03861C145.561 2.02547 144.273 2.01233 142.985 2.00122C138.587 1.95068 134.178 1.90014 129.78 1.8496C125.372 1.79907 120.974 1.74853 116.566 1.698C114.372 1.67778 112.168 1.64746 109.964 1.62724C109.467 1.61714 109.001 1.51606 108.504 1.53628C105.762 1.65757 103.01 1.77886 100.267 1.90014C97.9969 2.00021 95.7265 2.09521 93.4561 2.19326C92.4885 2.23571 91.7166 1.96079 90.7625 1.85466C89.7235 1.73944 88.6452 1.72731 87.6487 2.08106C86.2196 2.58946 85.0513 4.12578 85.5345 5.53475C85.6577 3.95194 84.1955 2.59755 82.6205 2.20437C81.0465 1.8112 79.3908 2.12857 77.7879 2.3853C73.721 3.03621 69.588 3.2889 65.4704 3.1383C65.34 4.26628 65.2086 5.39426 65.0772 6.52224C64.7719 5.31239 64.2793 4.14802 63.6212 3.08169C62.8813 4.62812 62.7106 6.42723 63.1473 8.07979C62.04 6.54751 62.2356 4.09041 60.5488 3.19288C58.83 2.27917 56.7645 3.84783 54.819 3.64265C54.8915 4.72212 54.9629 5.8026 55.0353 6.88206C54.9391 5.74802 54.225 4.73324 53.2709 4.1086C51.9164 3.22219 50.6818 3.53754 49.1689 3.64973C47.5339 3.77102 45.8989 3.8923 44.2639 4.0237C41.3457 4.23596 38.4275 4.45832 35.4989 4.67057C34.8677 4.72111 34.1847 4.8525 33.5535 4.76154C33.0981 4.69079 32.7153 4.54928 32.2392 4.5695C25.1093 4.75143 17.9173 5.1153 10.8702 6.26754C9.57669 6.47979 8.26247 6.73247 7.11382 7.33892C6.3791 7.7331 5.71681 8.28901 5.26149 8.9753C4.91586 9.49684 4.80928 10.0457 4.67268 10.6218C4.58161 11.0079 4.34774 11.3728 4.19148 11.7376C3.85206 12.528 3.57576 13.3568 3.51781 14.217C3.42986 15.5249 3.95555 16.9591 5.13214 17.5908C6.52397 18.3378 8.35145 17.7758 9.76502 18.4823C8.11862 18.2791 6.42773 18.4206 4.84031 18.8937C4.60127 18.9654 4.34981 19.0534 4.19977 19.2484C4.06938 19.4172 4.0373 19.6386 4.01557 19.8488C3.91105 20.8353 3.92554 21.8339 4.05799 22.8173C4.12215 23.2934 4.25771 23.7684 4.29496 24.2415C4.33636 24.7731 4.35189 25.3078 4.38293 25.8405C4.50711 27.9549 4.65716 30.0663 4.77513 32.1808C4.79582 32.5346 4.8786 32.7468 4.86826 33.0096C4.75443 32.9995 4.6406 32.9995 4.52677 32.9995C4.39224 32.9894 4.24737 32.9894 4.15423 32.8984C4.07145 32.8176 4.05075 32.6963 4.03005 32.5851C3.70098 30.4312 3.45159 28.2177 3.39053 26.0547Z" fill="#EB924D"/>
<path d="M261.277 183.224C178.222 189.44 93.9672 189.39 8.56355 183.214C5.22108 182.972 2.68577 180.162 2.8203 176.897C2.85134 176.169 2.86169 175.442 2.87204 174.714C2.89273 174.118 2.83064 173.461 2.94447 172.884C2.98587 172.672 3.08935 172.5 3.1204 172.288C3.22388 171.581 3.26527 170.863 3.32736 170.155C3.46189 168.73 3.60676 167.305 3.74129 165.88C3.75164 165.749 3.76198 165.617 3.77233 165.496C3.79303 165.274 3.82408 165.031 3.96895 164.859C4.09313 164.698 4.28974 164.617 4.48636 164.546C6.86645 163.626 9.49489 163.06 12.0612 163.08C14.8656 163.09 17.5147 162.777 20.2777 162.393C21.3953 162.241 22.5129 162.09 23.6305 161.938H23.9203C24.1376 161.938 24.3549 161.948 24.5722 161.948C24.7378 161.948 24.9551 161.989 25.1103 161.958C19.5119 163.141 13.8308 163.869 8.17033 164.728C7.42525 164.839 6.66983 164.95 6.00755 165.294C5.95581 165.324 5.90406 165.354 5.85232 165.385C5.10725 165.82 4.4015 166.584 4.42013 167.465C4.42841 167.875 4.33217 168.278 4.30837 168.688C4.26387 169.473 4.38391 170.33 5.01101 170.887C5.37941 171.214 5.86371 171.38 6.33766 171.528C9.41831 172.491 12.6407 173.02 15.8746 173.092C13.2647 173.07 10.6549 173.049 8.04511 173.028C7.24933 173.022 6.43906 172.975 5.64535 173.016C5.11553 173.043 4.15107 173.038 3.76302 173.441C3.60986 173.601 3.54261 173.82 3.50742 174.037C3.31908 175.201 3.72369 176.394 3.68851 177.554C3.66781 178.251 3.64712 178.979 3.87478 179.646C4.31975 180.95 5.64432 181.799 7.01028 182.193C7.67257 182.375 8.36591 182.476 9.04889 182.567C9.40073 182.608 9.74221 182.638 10.094 182.679C10.2596 182.699 10.4355 182.719 10.6115 182.749C10.7667 182.769 10.9426 182.81 11.0978 182.81C11.1806 182.8 11.2634 182.769 11.3565 182.769C11.6152 182.749 11.8843 182.769 12.1533 182.769H13.3123C14.7197 182.759 16.127 182.729 17.5448 182.79C18.2484 182.83 18.9418 182.881 19.6454 182.972C19.8007 182.992 19.9559 183.032 20.1111 183.022C20.2042 183.022 20.2974 182.992 20.3905 182.982C20.4733 182.972 20.5457 182.972 20.6182 182.982C21.3332 183.031 21.8744 183.17 22.5419 183.294C22.9434 183.37 23.3656 183.4 23.7537 183.248C24.3911 182.996 24.7471 182.329 24.9282 181.682C25.1082 181.034 25.1703 180.348 25.4746 179.745C25.5781 180.448 25.4249 181.161 25.4404 181.872C25.4549 182.581 25.6981 183.364 26.3345 183.707C26.7122 183.911 27.1624 183.925 27.5939 183.934C28.3079 183.949 29.0219 183.967 29.736 183.978C30.2306 183.986 30.6383 183.859 31.1164 183.809C31.7839 183.738 32.5155 183.876 33.183 183.923C33.9135 183.972 34.6441 184.022 35.3757 184.07C38.3001 184.263 41.2245 184.443 44.151 184.609C44.9364 184.653 45.7343 184.74 46.5208 184.74C53.8162 185.135 61.1117 185.448 68.4175 185.67C70.6072 185.737 72.8259 185.694 75.0094 185.851C75.2908 185.871 75.534 185.953 75.8041 186.017C76.427 186.165 77.1204 185.911 77.6978 185.688C79.0462 185.17 80.2383 184.251 81.0392 183.069C81.7481 185.376 84.3641 186.638 86.8177 186.877C89.2723 187.116 91.7424 186.61 94.2073 186.709C94.9286 186.739 95.6168 186.681 96.3184 186.689C96.7923 186.695 97.2797 186.875 97.7557 186.919C98.7978 187.016 99.8606 186.91 100.86 186.605C100.993 184.578 101.126 182.551 101.259 180.524C101.394 182.502 101.742 184.467 102.293 186.375C102.382 186.683 102.493 187.013 102.758 187.201C103.031 187.395 103.399 187.388 103.736 187.372C106.699 187.243 109.661 187.114 112.624 186.985C112.66 185.999 112.868 185.018 113.236 184.099C113.52 185.332 114.16 186.485 115.062 187.392C115.537 185.924 116.311 184.548 117.326 183.371C117.587 184.734 118.051 186.335 119.4 186.765C120.037 186.968 120.728 186.846 121.39 186.746C122.819 186.529 124.265 186.422 125.71 186.425C126.277 186.426 126.752 186.417 127.299 186.299C127.939 186.161 128.632 186.281 129.284 186.282C130.361 186.283 131.438 186.284 132.514 186.286C136.917 186.292 141.32 186.303 145.723 186.325C146.955 186.331 148.189 186.338 149.421 186.347C150.032 186.347 150.653 186.347 151.263 186.358C155.661 186.388 160.059 186.438 164.457 186.489C168.855 186.55 173.253 186.631 177.651 186.711C179.845 186.752 182.049 186.802 184.243 186.853C185.34 186.873 186.447 186.903 187.544 186.934C188.372 186.954 189.096 186.964 189.893 186.711C190.234 186.6 190.576 186.54 190.938 186.509C191.654 186.45 192.374 186.419 193.093 186.384C193.316 186.373 193.566 186.391 193.784 186.32C194.151 186.201 194.327 186.076 194.689 186.089C194.909 186.097 195.135 186.054 195.348 186C195.779 185.891 196.181 185.692 196.548 185.448C197.331 184.929 197.967 184.224 198.569 183.519C199.131 184.25 199.752 184.938 200.426 185.571C200.544 185.682 200.672 185.796 200.83 185.838C201.412 185.993 201.735 185.179 202.267 184.901C202.562 185.414 203.195 185.664 203.796 185.687C204.397 185.711 204.987 185.545 205.573 185.414C207.285 185.027 209.062 184.916 210.811 185.085C211.026 184.755 211.242 184.425 211.458 184.095C211.753 185.024 212.969 185.274 213.967 185.276C214.669 185.277 215.371 185.236 216.068 185.151C216.649 185.08 217.259 184.888 217.848 184.961C219.083 185.114 220.324 184.964 221.567 184.886C224.487 184.704 227.406 184.513 230.324 184.312C233.243 184.111 236.161 183.899 239.077 183.676C241.922 183.459 244.764 183.23 247.607 182.991C248.259 182.93 248.932 182.94 249.594 182.91C251.767 182.829 253.94 182.738 256.113 182.587C257.2 182.506 258.286 182.415 259.363 182.304C259.901 182.243 260.449 182.202 260.987 182.112C261.153 182.091 261.287 182 261.453 181.96C262.436 181.738 263.44 181.697 264.237 181.01C264.785 180.535 265.075 179.858 265.24 179.17C265.313 178.816 265.364 178.453 265.396 178.089C265.458 177.401 265.551 176.734 265.54 176.027C265.52 173.49 265.489 170.953 265.468 168.416C265.468 168.163 265.468 167.911 265.458 167.668C265.447 166.617 265.416 165.566 265.292 164.525C265.24 164.07 265.075 163.564 265.116 163.1C265.126 162.968 265.158 162.827 265.168 162.695C265.178 162.149 264.888 161.543 264.516 161.169C264.257 160.916 263.967 160.684 263.688 160.441C263.481 160.259 263.253 160.118 262.995 160.007C262.477 159.774 261.919 159.653 261.36 159.532C260.046 159.218 258.731 158.915 257.417 158.612C257.086 158.531 256.724 158.44 256.465 158.218C256.931 158.157 257.055 157.985 257.521 157.975H257.821C259.642 158.299 261.474 158.642 263.305 158.986C263.957 159.107 264.65 159.299 265.189 159.714C265.468 159.936 265.696 160.219 265.851 160.532C266.13 161.058 266.244 161.634 266.317 162.21C266.492 163.655 266.254 165.081 266.42 166.516C266.513 167.254 266.565 167.981 266.596 168.729C266.668 170.154 266.73 171.59 266.803 173.015C266.865 174.299 266.927 175.582 266.989 176.866C267.165 180.152 264.63 182.982 261.277 183.224Z" fill="#EB924D"/>
<path d="M112.596 17.4741C125.768 18.0684 138.953 18.6638 152.052 20.1465C162.898 21.3735 173.71 23.2101 184.628 23.2828C159.974 24.8181 137.29 18.1523 112.596 17.4741ZM164.741 47.586C163.939 47.6062 163.122 47.5264 162.32 47.5051C157.969 47.3899 153.613 47.4415 149.264 47.6244C144.917 47.8073 140.577 48.1227 136.247 48.5321C134.078 48.7372 131.912 48.9667 129.749 49.2153C128.666 49.3396 127.584 49.469 126.502 49.6024C125.961 49.6691 125.419 49.7368 124.878 49.8066C124.48 49.8571 124.091 49.8258 123.701 49.8642C123.201 49.9137 122.673 50.1422 122.191 50.2786C121.67 50.4262 121.15 50.5727 120.628 50.7183C119.586 51.0094 118.543 51.2974 117.497 51.5774C115.407 52.1363 113.306 52.6639 111.192 53.1279C109.438 53.513 107.673 53.8536 105.902 54.1507C101.683 54.8583 97.4193 55.3161 93.1445 55.5213C91.0066 55.6244 88.8655 55.6628 86.7255 55.6396C86.2381 55.6345 85.731 55.587 85.2519 55.6517C84.3009 55.7811 83.351 55.9175 82.4 56.0539C81.3186 56.2096 80.2382 56.3632 79.1558 56.5118C78.7543 56.5664 78.4345 56.7413 78.0444 56.8191C77.528 56.9232 77.0003 56.9838 76.4766 57.0323C74.3811 57.2244 72.2742 57.097 70.1746 57.1648C64.3827 57.3487 58.7564 59.0023 53.0276 59.8604C48.7476 60.5012 44.4117 60.6963 40.0862 60.8913C40.5674 60.8742 41.0475 60.856 41.5287 60.8378C45.8998 60.667 50.2688 60.4345 54.6326 60.1393C58.9965 59.8452 63.3562 59.4884 67.7107 59.07C69.8879 58.8608 72.0631 58.6364 74.2363 58.3958C75.4842 58.2584 76.7302 58.2088 77.9864 58.1351C80.618 57.9794 83.2454 57.7712 85.8697 57.5195C91.1452 57.0152 96.4031 56.342 101.647 55.584C122.612 52.5517 143.481 48.1075 164.741 47.586ZM83.3427 123.12C88.0697 124.762 93.0669 125.485 98.0309 126.048C100.55 126.335 103.074 126.578 105.591 126.872C106.239 126.948 106.884 127.044 107.531 127.124C108.016 127.185 108.507 127.203 108.993 127.264C109.15 127.285 109.288 127.342 109.439 127.385C109.863 127.504 110.346 127.472 110.784 127.54C111.744 127.691 112.679 127.966 113.616 128.213C114.802 128.527 116.023 128.807 117.26 128.718C118.158 128.653 119.029 128.396 119.917 128.244C120.953 128.066 122.01 128.03 123.061 128.046C125.192 128.078 127.315 128.338 129.406 128.734C130.35 128.913 131.287 129.128 132.216 129.372C133.227 129.637 134.222 129.95 135.221 130.252C135.898 130.456 136.486 130.456 137.18 130.418C138.085 130.368 138.984 130.578 139.874 130.709C140.9 130.861 141.928 131.002 142.958 131.134C147.115 131.666 151.291 132.043 155.476 132.287C159.681 132.531 163.896 132.642 168.109 132.63C172.282 132.619 176.455 132.49 180.621 132.249C182.2 132.158 183.777 132.008 185.355 131.927C179.973 132.2 174.577 131.982 169.211 131.519C166.494 131.284 163.783 130.987 161.076 130.658C160.617 130.603 160.129 130.489 159.667 130.49C159.584 130.49 159.513 130.503 159.433 130.521C159.219 130.571 159.012 130.577 158.791 130.583C156.855 130.633 154.917 130.613 152.983 130.522C142.54 130.034 132.272 127.503 121.823 127.157C119.908 127.094 117.993 127.183 116.078 127.239C114.767 127.279 113.514 127.191 112.222 126.958C110.931 126.726 109.649 126.45 108.355 126.229C106.392 125.897 104.396 125.808 102.413 125.648C100.263 125.475 98.1147 125.276 95.9706 125.039C93.8285 124.802 91.6895 124.528 89.5588 124.206C87.4768 123.894 85.404 123.535 83.3427 123.12ZM139.624 106.098C140.509 106.076 141.395 106.055 142.28 106.034C142.989 106.017 143.702 106.003 144.404 106.113C144.655 106.152 144.874 106.174 145.127 106.148C145.666 106.093 146.204 106.207 146.734 106.299C146.993 106.344 147.184 106.314 147.438 106.303C148.24 106.267 149.087 106.396 149.888 106.447C150.751 106.504 151.613 106.565 152.476 106.629C154.273 106.765 156.07 106.916 157.864 107.079C172.165 108.368 186.534 110.29 200.918 109.157C184.148 108.04 167.376 106.923 150.606 105.806C151.367 105.857 152.392 105.464 153.14 105.311C154.005 105.135 154.868 104.952 155.73 104.763C156.549 104.583 157.365 104.397 158.181 104.204C158.636 104.097 159.131 104.027 159.573 103.887C159.867 103.794 160.155 103.605 160.436 103.475C161.015 103.206 161.601 102.952 162.193 102.713C163.372 102.236 164.575 101.816 165.794 101.448C168.24 100.708 170.748 100.174 173.275 99.7734C175.833 99.3691 178.412 99.1012 180.993 98.8991C183.59 98.6949 186.191 98.5575 188.793 98.4149C190.112 98.3432 191.432 98.2694 192.75 98.1865C193.198 98.1582 193.654 98.1269 194.072 97.9642C194.384 97.8429 194.662 97.6518 194.969 97.5144C195.551 97.2526 196.205 97.197 196.845 97.1444C198.458 97.012 200.072 96.8806 201.686 96.7482C204.504 96.5178 207.334 96.2863 210.156 96.4652C212.826 96.634 215.462 97.1677 218.134 97.295C221.26 97.4436 224.383 97.0323 227.486 96.6219C221.26 96.0104 214.997 95.7638 208.741 95.8831C205.561 95.9437 202.383 96.0993 199.206 96.254C196.425 96.3894 193.643 96.5269 190.864 96.7088C188.072 96.8918 185.282 97.1212 182.503 97.4426C179.734 97.763 176.974 98.1754 174.242 98.7242C172.877 98.9981 171.52 99.3064 170.172 99.6541C169.78 99.7552 169.395 99.8795 169.006 99.9917C168.844 100.038 168.685 100.091 168.516 100.094C168.351 100.097 168.208 100.155 168.053 100.206C166.714 100.649 165.347 101.009 163.971 101.326C162.6 101.642 161.219 101.916 159.839 102.189C159.644 102.227 159.451 102.266 159.256 102.304C157.818 102.589 156.379 102.874 154.941 103.159C153.502 103.444 152.064 103.729 150.626 104.014C149.906 104.157 149.187 104.299 148.468 104.442C148.109 104.513 147.749 104.584 147.39 104.656C147.239 104.687 147.088 104.729 146.932 104.722C146.574 104.707 146.242 104.873 145.876 104.835C145.265 104.773 144.651 104.92 144.045 105.007C143.326 105.109 142.607 105.21 141.887 105.308C140.447 105.504 139.006 105.687 137.561 105.844C134.677 106.156 131.776 106.363 128.874 106.352C132.457 106.269 136.041 106.183 139.624 106.098ZM97.9316 157.776C96.2117 157.929 94.4525 157.908 92.7264 157.895C90.9207 157.881 89.1159 157.814 87.3143 157.705C83.6997 157.485 80.0985 157.098 76.5087 156.636C74.7071 156.405 72.9086 156.154 71.1111 155.896C70.2563 155.773 69.3985 155.663 68.5468 155.524C68.4071 155.5 68.2778 155.468 68.1432 155.422C67.5958 155.233 66.9811 155.375 66.412 155.414C64.1675 155.57 61.8857 155.628 59.6712 155.173C58.4759 154.927 57.3097 154.534 56.0969 154.397C54.9783 154.269 53.841 154.361 52.7234 154.224C51.7951 154.11 50.8949 153.839 49.9884 153.611C43.7236 152.038 37.0976 152.52 30.7355 153.663C40.2952 152.555 49.9076 154.497 59.4228 155.923C61.0951 156.174 62.7715 156.409 64.4593 156.54C65.8242 156.648 67.1964 156.686 68.551 156.878C69.9242 157.073 71.2684 157.419 72.6354 157.649C73.3173 157.764 74.0065 157.851 74.6988 157.872C75.0434 157.882 75.389 157.876 75.7336 157.848C76.0317 157.825 76.3049 157.878 76.6039 157.896C79.5025 158.077 82.4062 158.193 85.3109 158.227C88.1556 158.261 91.0024 158.213 93.844 158.065C95.2079 157.993 96.5708 157.898 97.9316 157.776ZM237.382 163.637C224.536 164.264 211.669 164.504 198.807 164.352C210.8 167.332 225.189 165.708 237.382 163.637Z" fill="#EB924D"/>
<path d="M112.662 16.603C125.834 17.1973 139.019 17.7927 152.117 19.2754C162.963 20.5025 173.776 22.339 184.693 22.4117C160.039 23.947 137.356 17.2812 112.662 16.603ZM164.807 46.7149C164.588 46.7058 164.369 46.6977 164.15 46.6896C159.782 46.5279 155.408 46.539 151.039 46.6876C146.675 46.8362 142.316 47.1222 137.968 47.5083C137.537 47.5467 137.15 47.5963 136.738 47.7145C136.32 47.8348 135.887 47.7822 135.455 47.7863C134.393 47.7954 133.335 47.8894 132.283 48.0268C130.187 48.3008 128.118 48.7465 126.03 49.0709C120.728 49.8947 115.333 49.9179 109.964 49.8724C111.996 50.1332 114.027 50.395 116.06 50.6558C113.511 51.8333 110.714 52.3892 107.938 52.8804C105.015 53.3969 102.08 53.8537 99.1371 54.2489C94.8406 54.8261 90.5264 55.2738 86.2009 55.5912C84.0381 55.7499 81.8732 55.8762 79.7074 55.9692C79.1661 55.9925 78.6239 56.0137 78.0827 56.0329C77.6874 56.047 77.3428 55.9733 76.9589 55.953C76.1528 55.9106 75.3777 56.2118 74.584 56.1714C74.3687 56.1602 74.1711 56.1077 73.9507 56.1137C73.2325 56.135 72.4967 56.2704 71.7827 56.3492C70.3298 56.5089 68.878 56.6707 67.4251 56.8334C64.5203 57.1599 61.6166 57.4934 58.715 57.835C52.9097 58.5173 47.1085 59.2298 41.3104 59.9707C35.5123 60.7126 29.7193 61.4828 23.9295 62.2833C23.6977 62.3156 23.4659 62.347 23.2352 62.3793C36.6019 61.411 49.9873 60.4417 63.2268 58.393C66.619 57.8684 70.0204 57.271 73.455 57.2862C74.8292 57.2923 76.2066 57.3964 77.5787 57.2872C78.1748 57.2397 78.776 57.0618 79.3721 57.1002C79.9733 57.1386 80.5528 57.1002 81.1571 57.0547C83.977 56.8445 86.7928 56.5787 89.6044 56.2704C95.2576 55.6498 100.89 54.8574 106.509 53.9963C112.152 53.1321 117.784 52.1981 123.419 51.2945C129.044 50.393 134.675 49.5207 140.324 48.7788C145.935 48.042 151.564 47.4345 157.213 47.0626C159.742 46.8958 162.274 46.7766 164.807 46.7149ZM185.42 131.056C181.259 131.381 177.056 131.106 172.897 130.92C169.746 130.779 166.644 130.12 163.488 130.021C160.354 129.923 157.214 130.152 154.071 130.024C146.745 129.726 139.613 127.63 132.311 126.979C130.34 126.803 128.36 126.732 126.382 126.661C124.677 126.601 122.971 126.54 121.266 126.479C120.802 126.463 120.339 126.446 119.875 126.424C118.824 126.373 117.771 126.293 116.733 126.117C116.168 126.021 115.613 125.833 115.05 125.773C112.413 125.488 109.767 125.288 107.12 125.115C104.431 124.94 101.745 124.736 99.0626 124.481C96.3845 124.226 93.7116 123.921 91.048 123.546C89.6634 123.351 88.2808 123.136 86.9025 122.9C86.2661 122.791 85.6296 122.677 84.9953 122.559C84.4841 122.463 83.8994 122.421 83.4089 122.251C92.7213 125.484 102.788 125.199 112.406 126.983C113.24 127.137 114.123 127.226 114.888 127.606C115.188 127.755 115.453 127.86 115.793 127.895C116.865 128.008 117.972 127.973 119.047 127.952C121.232 127.908 123.412 127.749 125.598 127.746C127.396 127.744 129.187 128.226 130.968 128.488C132.594 128.726 134.227 128.92 135.864 129.069C136.818 129.155 137.788 129.228 138.705 129.522C139.107 129.651 139.414 129.786 139.832 129.824C140.347 129.868 140.862 129.973 141.374 130.044C143.444 130.33 145.52 130.577 147.599 130.787C151.793 131.21 156.003 131.486 160.217 131.633C164.431 131.78 168.648 131.797 172.863 131.698C177.013 131.6 181.16 131.387 185.298 131.066C185.339 131.062 185.379 131.059 185.42 131.056ZM160.982 102.572C161.394 102.439 161.805 102.305 162.218 102.174C164.316 101.509 166.504 101.046 168.653 100.521C169.836 100.233 170.969 99.8362 172.157 99.6118C174.162 99.2318 176.222 98.7325 178.257 98.5596C178.583 98.5324 178.893 98.5647 179.216 98.6041C180.09 98.7123 180.95 98.4667 181.81 98.3272C183.928 97.9845 186.066 97.7551 188.21 97.6389C188.678 97.6136 189.147 97.5934 189.615 97.5792C189.86 97.5711 190.124 97.5338 190.361 97.5883C190.552 97.6318 190.749 97.6409 190.944 97.6288C191.342 97.6025 191.727 97.4923 192.11 97.3943C192.798 97.2184 193.496 97.084 194.202 96.992C194.481 96.9556 194.735 96.9344 194.994 96.8252C195.275 96.706 195.607 96.6999 195.908 96.6595C197.306 96.4725 198.709 96.3017 200.118 96.2238C202.172 96.1127 204.228 96.0308 206.284 95.9802C208.32 95.9297 210.36 95.9085 212.387 96.0985C212.973 96.1531 213.555 96.2259 214.138 96.3067C216.898 96.6908 219.657 97.2922 222.46 97.2113C223.147 97.1911 223.814 97.0769 224.496 97.0233C224.933 96.9879 225.321 97.1092 225.749 97.1476C226.878 97.2487 228.061 97.1042 229.191 97.0708C230.913 97.0193 232.635 96.9657 234.357 96.9091C237.945 96.7929 241.531 96.6686 245.118 96.5442C237.75 96.2905 230.382 96.0368 223.013 95.7821C215.623 95.5274 208.224 95.2727 200.834 95.5588C199.343 95.6164 197.853 95.6962 196.364 95.7963C190.637 96.1814 184.933 96.8707 179.269 97.7773C176.435 98.2312 173.61 98.7396 170.795 99.2924C170.438 99.3622 170.084 99.4481 169.73 99.533C169.637 99.5552 169.57 99.5623 169.478 99.5653C169.324 99.5694 169.171 99.629 169.023 99.6684C168.681 99.7604 168.339 99.8524 167.996 99.9423C167.237 100.143 166.482 100.366 165.707 100.517C164.353 100.783 162.978 100.934 161.62 101.175C160.395 101.393 159.186 101.685 157.983 101.996C156.638 102.344 155.3 102.717 153.948 103.04C153.275 103.201 152.597 103.351 151.915 103.477C151.575 103.541 151.232 103.598 150.89 103.65C150.744 103.671 150.598 103.703 150.451 103.686C150.064 103.641 149.652 103.758 149.268 103.806C147.866 103.982 146.458 104.127 145.049 104.234C143.639 104.341 142.226 104.412 140.812 104.441C140.281 104.452 139.749 104.457 139.217 104.456C139.095 104.456 138.961 104.44 138.841 104.458C138.758 104.471 138.684 104.51 138.601 104.523C138.329 104.567 138.051 104.587 137.776 104.619C137.051 104.703 136.324 104.788 135.599 104.872C135.326 104.903 135.073 104.946 134.811 105.023C134.273 105.18 133.682 105.185 133.13 105.264C131.883 105.444 130.635 105.621 129.386 105.793C127.376 106.072 125.366 106.342 123.354 106.603C127.2 106.789 131.072 106.974 134.889 106.479C136.526 106.267 138.147 105.93 139.773 105.654C140.931 105.458 142.093 105.293 143.266 105.225C145.837 105.079 148.408 105.405 150.962 105.731C153.129 106.008 155.296 106.285 157.463 106.561C158.241 106.66 158.88 106.66 159.644 106.522C160.531 106.362 161.455 106.539 162.343 106.624C166.71 107.045 171.075 107.488 175.447 107.851C179.804 108.213 184.171 108.496 188.545 108.595C190.617 108.642 192.692 108.647 194.765 108.6C195.813 108.576 196.86 108.539 197.908 108.487C198.927 108.437 199.966 108.29 200.985 108.29C184.215 107.173 167.444 106.056 150.673 104.939C151.434 104.99 152.459 104.597 153.208 104.444C153.891 104.306 154.573 104.128 155.262 104.016C155.381 103.996 155.5 103.988 155.62 103.995C155.84 104.008 156.04 104.03 156.259 103.985C156.933 103.849 157.6 103.637 158.257 103.439C159.171 103.164 160.077 102.866 160.982 102.572ZM97.9978 156.904C95.7967 157.026 93.5916 157.052 91.3884 157.002C89.9304 156.97 88.4733 156.903 87.0184 156.811C86.2899 156.765 85.5624 156.712 84.8349 156.653C84.1581 156.598 83.4358 156.592 82.7798 156.435C82.1009 156.274 81.3496 156.263 80.6542 156.186C79.9268 156.106 79.1993 156.025 78.4718 155.944C77.0168 155.784 75.5619 155.623 74.1069 155.462C76.0482 154.257 78.4356 154.037 80.7163 153.747C84.4572 153.272 88.1618 152.528 91.791 151.523C85.5489 151.912 79.3276 152.606 73.1569 153.6C71.4743 153.871 69.7928 154.166 68.0936 154.316C67.7179 154.349 67.394 154.376 67.0401 154.489C66.4793 154.669 65.8491 154.573 65.2675 154.558C63.8322 154.521 62.3979 154.478 60.9637 154.416C58.1003 154.292 55.238 154.09 52.3985 153.699C51.4909 153.575 50.5855 153.431 49.6841 153.265C47.9156 152.938 46.1606 152.524 44.3703 152.332C40.8561 151.955 37.3087 152.444 33.8266 153.039C35.4895 153.031 37.1514 153.023 38.8144 153.016C40.9761 153.006 43.142 152.996 45.2955 153.174C46.7308 153.292 48.1578 153.494 49.5765 153.735C50.9632 153.97 52.3416 154.302 53.7313 154.506C56.5129 154.914 59.2986 155.295 62.0896 155.639C64.895 155.985 67.7045 156.292 70.5202 156.549C73.3215 156.804 76.129 157.011 78.9385 157.152C81.7097 157.292 84.4851 157.368 87.2616 157.365C89.978 157.362 92.6944 157.282 95.4046 157.105C96.2686 157.049 97.1327 156.952 97.9978 156.904ZM237.447 162.766C224.601 163.394 211.734 163.633 198.872 163.481C210.867 166.461 225.255 164.838 237.447 162.766Z" fill="url(#paint5_linear_20_459)"/>
<defs>
<linearGradient id="paint0_linear_20_459" x1="199.819" y1="-95.0508" x2="147.143" y2="64.1524" gradientUnits="userSpaceOnUse">
<stop stop-color="#CF5C2B"/>
<stop offset="1" stop-color="#59173E"/>
</linearGradient>
<linearGradient id="paint1_linear_20_459" x1="193.476" y1="-34.3154" x2="29.9078" y2="341.702" gradientUnits="userSpaceOnUse">
<stop stop-color="#CF5C2B"/>
<stop offset="1" stop-color="#59173E"/>
</linearGradient>
<linearGradient id="paint2_linear_20_459" x1="181.776" y1="-11.9292" x2="18.2077" y2="364.089" gradientUnits="userSpaceOnUse">
<stop stop-color="#CF5C2B"/>
<stop offset="1" stop-color="#59173E"/>
</linearGradient>
<linearGradient id="paint3_linear_20_459" x1="225.407" y1="-125.342" x2="93.3814" y2="236.016" gradientUnits="userSpaceOnUse">
<stop stop-color="#CF5C2B"/>
<stop offset="1" stop-color="#59173E"/>
</linearGradient>
<linearGradient id="paint4_linear_20_459" x1="197.074" y1="-52.1964" x2="65.0482" y2="309.161" gradientUnits="userSpaceOnUse">
<stop stop-color="#CF5C2B"/>
<stop offset="1" stop-color="#59173E"/>
</linearGradient>
<linearGradient id="paint5_linear_20_459" x1="260.318" y1="-212.923" x2="127.527" y2="135.658" gradientUnits="userSpaceOnUse">
<stop stop-color="#CF5C2B"/>
<stop offset="1" stop-color="#59173E"/>
</linearGradient>
</defs>
</svg>
