<svg width="206" height="52" viewBox="0 0 206 52" fill="none" xmlns="http://www.w3.org/2000/svg">
<g clip-path="url(#clip0_15_8)">
<path fill-rule="evenodd" clip-rule="evenodd" d="M65.6842 36.4912H69.3333V15.5088H65.6842V36.4912Z" fill="white"/>
<path fill-rule="evenodd" clip-rule="evenodd" d="M91.2611 21.2845C89.2282 21.2845 87.3584 22.1317 86.2457 23.8998C85.4145 22.176 83.7525 21.2845 81.601 21.2845C79.7757 21.2845 78.084 22.0871 77.0602 23.7363V21.5816H73.1129V36.7976H77.0602V28.3426C77.0602 26.2178 78.4995 24.628 80.3248 24.628H80.5622C82.1796 24.628 82.9366 25.6532 82.9366 27.6741V36.7976H86.8836V28.3426C86.8836 26.2178 88.3081 24.628 90.1334 24.628H90.3708C91.9883 24.628 92.7154 25.6532 92.7154 27.6741V36.7976H96.6627V27.2134C96.6627 25.4155 96.2324 23.974 95.3717 22.8894C94.4962 21.8196 93.1309 21.2845 91.2611 21.2845Z" fill="white"/>
<path fill-rule="evenodd" clip-rule="evenodd" d="M117.512 21.2845C115.48 21.2845 113.61 22.1317 112.497 23.8998C111.666 22.176 110.004 21.2845 107.852 21.2845C106.027 21.2845 104.335 22.0871 103.312 23.7363V21.5816H99.3643V36.7976H103.312V28.3426C103.312 26.2178 104.751 24.628 106.576 24.628H106.814C108.431 24.628 109.188 25.6532 109.188 27.6741V36.7976H113.135V28.3426C113.135 26.2178 114.559 24.628 116.385 24.628H116.622C118.24 24.628 118.967 25.6532 118.967 27.6741V36.7976H122.914V27.2134C122.914 25.4155 122.484 23.974 121.623 22.8894C120.748 21.8196 119.382 21.2845 117.512 21.2845Z" fill="white"/>
<path fill-rule="evenodd" clip-rule="evenodd" d="M147.415 31.7751V24.7764H150.814V21.5818H147.415V16.6483H143.468V21.5818H138.986H135.16H135.039V30.0367C135.039 32.1616 133.629 33.9002 131.907 33.9002H131.67C130.231 33.9002 129.415 32.8303 129.415 30.8688V21.5818H125.467V31.3147C125.467 33.0826 125.898 34.4795 126.758 35.5198C127.604 36.5748 128.895 37.0948 130.602 37.0948C132.486 37.0948 134.104 36.1289 135.039 34.5687V36.7975H138.986V24.7764H143.468V32.8451C143.468 35.4158 144.848 36.7975 147.415 36.7975H151.274V33.4543H149.092C147.697 33.4543 147.415 33.172 147.415 31.7751Z" fill="white"/>
<path fill-rule="evenodd" clip-rule="evenodd" d="M161.528 30.5863C161.528 32.5033 159.94 33.8999 158.145 33.8999H157.907C156.824 33.8999 156.023 33.2908 156.023 32.3547C156.023 31.7751 156.245 31.3443 156.691 31.0322C157.136 30.7201 157.655 30.5417 158.234 30.4972L161.528 30.1555V30.5863ZM165.357 26.7527C165.357 23.246 162.805 21.2845 158.976 21.2845C155.236 21.2845 152.758 23.4093 152.432 26.2921H156.394C156.483 25.3708 157.418 24.4794 158.842 24.4794H159.095C160.549 24.4794 161.528 25.5341 161.528 26.9013V27.2727L157.7 27.6146C156.068 27.7484 154.732 28.2238 153.693 29.0559C152.654 29.888 152.135 31.0768 152.135 32.622C152.091 35.2969 154.391 37.1244 157.121 37.0946C159.065 37.0946 160.668 36.2627 161.617 34.9402C161.647 35.7425 161.706 36.3667 161.795 36.7975H165.505C165.401 36.0844 165.357 34.9697 165.357 33.4541V26.7527Z" fill="white"/>
<path fill-rule="evenodd" clip-rule="evenodd" d="M175.745 33.9H175.508C173.698 33.9446 172.006 31.9833 172.035 29.1897C172.006 26.3961 173.698 24.4346 175.508 24.4794H175.745C177.734 24.4794 179.218 26.3069 179.218 29.1599C179.218 32.0129 177.719 33.9 175.745 33.9ZM176.413 21.2846C174.38 21.2846 172.688 22.4435 172.035 23.5579V15.4894H168.088V36.7976H172.035V34.8213C172.688 35.9357 174.38 37.0946 176.413 37.0946C180.672 37.169 183.21 33.3502 183.165 29.1897C183.21 25.029 180.672 21.2102 176.413 21.2846Z" fill="white"/>
<mask id="mask0_15_8" style="mask-type:luminance" maskUnits="userSpaceOnUse" x="0" y="0" width="206" height="52">
<path d="M0 52H205.263V0H0V52Z" fill="white"/>
</mask>
<g mask="url(#mask0_15_8)">
<path fill-rule="evenodd" clip-rule="evenodd" d="M185.139 36.7974H189.086V15.4893H185.139V36.7974Z" fill="white"/>
</g>
<mask id="mask1_15_8" style="mask-type:luminance" maskUnits="userSpaceOnUse" x="0" y="0" width="206" height="52">
<path d="M0 52H205.263V0H0V52Z" fill="white"/>
</mask>
<g mask="url(#mask1_15_8)">
<path fill-rule="evenodd" clip-rule="evenodd" d="M194.934 27.3916C195.024 25.5937 196.404 24.4793 198.066 24.4793H198.303C199.965 24.4793 201.345 25.5937 201.434 27.3916H194.934ZM198.332 21.2844C193.881 21.225 191.061 24.6426 191.106 29.1896C191.032 34.0484 194.519 37.1541 198.332 37.0947C202.057 37.0947 204.461 35.0145 205.203 31.9832H201.286C201.004 33.0976 200.039 33.9001 198.615 33.9001H198.362C196.715 33.9001 195.083 32.4736 194.934 30.4377H205.203C205.247 29.7839 205.262 29.3085 205.262 29.0112C205.307 24.5684 202.77 21.24 198.332 21.2844Z" fill="white"/>
</g>
<mask id="mask2_15_8" style="mask-type:luminance" maskUnits="userSpaceOnUse" x="0" y="0" width="206" height="52">
<path d="M0 52H205.263V0H0V52Z" fill="white"/>
</mask>
<g mask="url(#mask2_15_8)">
<path fill-rule="evenodd" clip-rule="evenodd" d="M40.4089 28.0463C40.4019 29.0308 39.8727 29.7209 39.0315 30.2051C35.7686 32.0837 32.511 33.9713 29.251 35.8553C28.6554 36.1994 28.0589 36.542 27.4194 36.9103C27.4094 36.7492 27.3971 36.6406 27.3969 36.5321C27.3954 35.5958 27.4061 34.6592 27.3896 33.7232C27.385 33.4571 27.4736 33.3149 27.7035 33.1828C30.6683 31.4796 33.6222 29.757 36.5916 28.0621C37.1201 27.7604 37.3519 27.3914 37.3475 26.7705C37.3246 23.5386 37.3369 20.3062 37.3369 17.0737V16.5084C38.1115 16.9766 38.8362 17.3604 39.4995 17.831C40.1042 18.2599 40.4089 18.91 40.4116 19.6577C40.422 22.454 40.4285 25.2503 40.4089 28.0463ZM40.3881 34.0275C40.3186 34.8926 39.8119 35.5068 39.0642 35.9374C36.2008 37.5861 33.342 39.2423 30.4812 40.8954C29.5832 41.4144 28.685 41.9334 27.7862 42.4512C27.678 42.5135 27.5658 42.5683 27.4189 42.6458C27.4097 42.4966 27.3973 42.3875 27.3971 42.2782C27.3954 41.3291 27.4017 40.38 27.3917 39.4308C27.3896 39.2164 27.4436 39.0836 27.641 38.9697C31.8131 36.566 35.9811 34.1547 40.1502 31.7457C40.2139 31.7089 40.2826 31.681 40.4012 31.6238C40.4012 32.4663 40.4503 33.2514 40.3881 34.0275ZM21.5974 16.7292C21.0963 16.434 20.6685 16.4369 20.1673 16.7301C17.36 18.3723 14.5404 19.9936 11.7247 21.6214C11.6054 21.6903 11.4827 21.7537 11.2724 21.8686C11.3469 20.7969 11.1183 19.7862 11.4827 18.8082C11.6821 18.2734 12.054 17.8702 12.5469 17.585C14.8961 16.2252 17.2441 14.8626 19.5986 13.5115C20.4582 13.0179 21.3339 13.0298 22.193 13.5253C24.8662 15.0669 27.5377 16.6112 30.2053 18.1627C30.3193 18.2291 30.4609 18.3754 30.4628 18.4867C30.4822 19.5872 30.4744 20.6883 30.4744 21.8696C29.5043 21.3089 28.6082 20.7915 27.7124 20.2735C25.6727 19.0944 23.6275 17.9247 21.5974 16.7292ZM24.3249 36.9258C24.0667 36.7785 23.8796 36.6731 23.6935 36.5655C21.3322 35.2013 18.9734 33.8325 16.6062 32.4782C16.3507 32.3321 16.2554 32.176 16.2588 31.878C16.2755 30.3391 16.2694 28.8001 16.2631 27.2615C16.2621 27.0533 16.2953 26.9092 16.501 26.7943C17.3726 26.3073 18.2329 25.7996 19.098 25.3007C19.1606 25.2643 19.2284 25.2374 19.3433 25.1827V26.9106C19.3433 27.8469 19.3581 28.7832 19.3375 29.719C19.3259 30.2528 19.5304 30.6124 19.9957 30.8751C21.3337 31.6306 22.6542 32.4166 23.9936 33.1693C24.2571 33.3173 24.3367 33.4816 24.3316 33.7726C24.314 34.7961 24.3249 35.8204 24.3249 36.9258ZM24.3251 42.6582C24.1688 42.5772 24.0507 42.5215 23.9377 42.4563C20.2222 40.3107 16.5133 38.1534 12.7882 36.0247C11.7433 35.4274 11.2673 34.5771 11.277 33.383C11.2976 30.8433 11.2925 28.3032 11.2797 25.7633C11.2736 24.6162 11.7402 23.7862 12.7449 23.2139C15.3603 21.7244 17.9619 20.2107 20.5634 18.697C20.7882 18.5661 20.9528 18.5448 21.1868 18.6856C22.0853 19.2264 22.999 19.7423 23.9546 20.2948C23.7729 20.4031 23.6345 20.4874 23.4944 20.5683C20.6781 22.1969 17.8648 23.8303 15.0421 25.4475C14.5791 25.7126 14.3647 26.056 14.3689 26.5934C14.3834 28.5944 14.3848 30.5957 14.3681 32.5967C14.3635 33.1501 14.5823 33.4995 15.0585 33.7721C18.0371 35.4775 21.0041 37.204 23.9808 38.9128C24.2327 39.0574 24.3401 39.2072 24.3333 39.5098C24.3113 40.535 24.3251 41.5612 24.3251 42.6582ZM24.841 10.5054C25.5616 10.1516 26.3227 10.1756 27.0211 10.574C29.4453 11.9571 31.8627 13.3523 34.2697 14.7648C35.0446 15.2196 35.44 15.9506 35.4441 16.8464C35.4586 19.988 35.4526 23.1298 35.4443 26.2714C35.4441 26.3879 35.3688 26.5568 35.2757 26.6123C34.3431 27.1684 33.3991 27.7059 32.3772 28.2957V27.8016C32.3772 24.5701 32.368 21.3387 32.3852 18.1074C32.3883 17.4869 32.1741 17.0868 31.6243 16.774C28.8091 15.1723 26.0105 13.5411 23.2066 11.9195C23.0854 11.8495 22.9668 11.7746 22.7837 11.6634C23.5036 11.2541 24.154 10.8427 24.841 10.5054ZM25.965 0C11.625 0 0 11.6406 0 26C0 40.3594 11.625 52 25.965 52C40.3051 52 51.9301 40.3594 51.9301 26C51.9301 11.6406 40.3051 0 25.965 0Z" fill="white"/>
</g>
</g>
<defs>
<clipPath id="clip0_15_8">
<rect width="206" height="52" fill="white"/>
</clipPath>
</defs>
</svg>
